<svg xmlns="http://www.w3.org/2000/svg" width="744" height="152.404" viewBox="0 0 744 152.404">
  <g id="another" transform="translate(-0.019 -0.015)">
    <path id="Path_129" data-name="Path 129" d="M349.975,398.22a33.99,33.99,0,0,1-1.969,4.251c-1.162,2.111-2.664,4.562-4.562,7.424.142,2.04.2,4.888.269,8.572a173.218,173.218,0,0,1-2.111,27.2c-.538,3.528-1.077,6.8-1.757,9.79-.283,1.218-.964,1.9-2.04,1.9s-1.842-.737-1.842-2.239a100.6,100.6,0,0,1,2-15.274,92.372,92.372,0,0,0,1.289-15.585v-8.289c-1.077,1.559-2.168,3.188-3.259,4.817-1.417,1.984-2.834,4.251-4.491,7.013a2.663,2.663,0,0,1-1.828,1.091,1.53,1.53,0,0,1-1.771-1.573,2.947,2.947,0,0,1,.609-1.771q1.119-2.04,3.06-5.1c1.5-2.72,3.471-6.121,5.852-10.258,1.9-3.273,3.939-6.815,6.121-10.556l1.969-3.939a10.245,10.245,0,0,0,.878-1.969,8.5,8.5,0,0,1,2.664-.34,2.1,2.1,0,0,1,1.757,2.111,5.455,5.455,0,0,1-.836,2.72Zm.949,51.758a1.19,1.19,0,0,1-1.417-1.417,5.071,5.071,0,0,1,.411-1.289c.468-2.04.949-4.251,1.417-6.461a51.338,51.338,0,0,0,1.077-7.892,21.106,21.106,0,0,0-.128-2.111,14.169,14.169,0,0,1-.411-2.38c0-1.162.68-1.771,2.182-1.9h.907a2.3,2.3,0,0,1,1.842,1.417,16.8,16.8,0,0,1,.411,4.251,40.183,40.183,0,0,1-1.3,9.521,56.377,56.377,0,0,1-2.168,6.872,3.3,3.3,0,0,1-2.82,1.388Zm5.582-.751a1.856,1.856,0,0,1,1.488-.808,2.224,2.224,0,0,1,1.417.68,19.54,19.54,0,0,0,2.933,5.3c.949,1.091,1.757,1.7,2.579,1.7,1.7,0,2.579-6.6,2.579-19.836v-3.1c0-4.081-.2-7.084-.4-9.252s-.34-4.35-.553-6.319a12.292,12.292,0,0,1-.2-1.969,2.394,2.394,0,0,1,.468-1.417,2.522,2.522,0,0,1,1.573-.878,2.678,2.678,0,0,1,2.834,1.97,2,2,0,0,0,.128.68,2.833,2.833,0,0,0,.482-.411,29.186,29.186,0,0,0,8.572-11.774,87.647,87.647,0,0,1-13.744,7.892,17,17,0,0,1-5.922,1.644c-3.33,0-4.959-1.842-4.959-5.582a24.666,24.666,0,0,1,1.9-7.623,32.59,32.59,0,0,1,3.06-6.872,2.125,2.125,0,0,1,1.913-1.417h.808a3.939,3.939,0,0,1,1.417.893,3.755,3.755,0,0,1,.269,1.488,54.074,54.074,0,0,1-2.168,6.673,31.439,31.439,0,0,0-2.253,7c.071.411.411.553.949.553,1.091,0,3.542-1.091,7.424-3.273,2.168-1.091,4.619-2.579,7.481-4.35a16.112,16.112,0,0,1,5.03-1.9h1.219a2.579,2.579,0,0,1,2.253,2.834,11.336,11.336,0,0,1-.751,3.755,23.066,23.066,0,0,1-3.131,6.177,28.806,28.806,0,0,1-7.679,7.212,11.327,11.327,0,0,1-1.629.893c.128,1.218.2,2.579.34,4.081,0,2.31.128,4.477.2,6.659v4.151c0,6.6-.142,11.151-.269,13.673a26.921,26.921,0,0,1-2.933,10.329,4.86,4.86,0,0,1-3.8,2.38c-2.182,0-4.421-1.558-6.744-4.69a16.452,16.452,0,0,1-2.31-4.01,2.323,2.323,0,0,1-.538-1.417A2.465,2.465,0,0,1,356.507,449.227Zm32.233-.878a1.672,1.672,0,0,1-1.219.411,2.678,2.678,0,0,1-1.233-.283,13.476,13.476,0,0,1-1.7-2.579,65.757,65.757,0,0,1-6.121-15.585,4.248,4.248,0,0,1-.128-1.3,2.565,2.565,0,0,1,.467-1.289,3.414,3.414,0,0,1,1.162-.878,4.531,4.531,0,0,1,1.091-.142,2.565,2.565,0,0,1,1.757,1.289c1.091,3.273,2.253,6.673,3.471,10.145,1.5,4.081,2.451,6.928,2.933,8.572v.623a1.969,1.969,0,0,1-.482,1.02Z" transform="translate(-327.88 -390.873)" fill="#27a2af"/>
    <path id="Path_130" data-name="Path 130" d="M419.181,422.64a99.761,99.761,0,0,1-10.541,2.834,141.009,141.009,0,0,1-14.3,2.38,3.047,3.047,0,0,1-1.077.4,1.573,1.573,0,0,1-1.417-.878c-.142-.142-.283-.269-.283-.411a4.959,4.959,0,0,1-2.239-2.508,31.367,31.367,0,0,1-3.811-8.572,22.131,22.131,0,0,1-1.417-7.013c0-2.579.893-3.868,2.649-3.939,1.984,0,3,.878,3,2.579.2,2.31.538,4.7.949,7.013a28.847,28.847,0,0,0,3.131,8.289.467.467,0,0,0,.128.34c2.31-.269,4.251-.609,6.05-.949a10.074,10.074,0,0,0,1.984-.269,1.53,1.53,0,0,1,.34-.878,21.424,21.424,0,0,0,1.488-6.673c0-1.289,0-2.65,0-4.01a27.843,27.843,0,0,0-.269-3.2c-3.131.68-6.39,1.5-9.79,2.593-1.644,0-2.38-.822-2.38-2.451a2.48,2.48,0,0,1,1.289-2.111,45.83,45.83,0,0,1,5.3-1.842v-.128a29.528,29.528,0,0,1-4.01-7.212,1.8,1.8,0,0,1-.071-.609,2.537,2.537,0,0,1,.623-1.5,3.259,3.259,0,0,1,1.417-1.091,4.108,4.108,0,0,1,1.289-.2,3.046,3.046,0,0,1,2.182,1.559c.468,1.5,1.006,3,1.559,4.562.609,1.771,1.02,2.99,1.219,3.67h.2c1.218-.2,2.522-.411,3.811-.538a25.5,25.5,0,0,0,2.239-2.593,17.073,17.073,0,0,0,3.2-7.084,3.8,3.8,0,0,1,2.834-1.02c1.417.071,2.168.963,2.31,2.72-.142,2.04-1.417,4.421-3.74,7.084-.2.142-.34.283-.411.34h2.593a22.359,22.359,0,0,1,7.821,1.148,8.5,8.5,0,0,1,3.8,2.593,4.746,4.746,0,0,1,.964,2.919,12.752,12.752,0,0,1-1.644,5.313,27.941,27.941,0,0,1-5.781,8.218.765.765,0,0,1-.538.284,4.165,4.165,0,0,1-.652.85Zm-18.5-3.259a1.6,1.6,0,0,1-1.162.4,1.969,1.969,0,0,1-1.219-.269,3.315,3.315,0,0,1-1.162-.68,14.565,14.565,0,0,1-4.251-3.811v-.269a3.075,3.075,0,0,1,.538-1.559,2.919,2.919,0,0,1,1.5-1.02,3.089,3.089,0,0,1,1.162-.213,3.018,3.018,0,0,1,2.04,1.644c.553.808,1.091,1.559,1.629,2.239a20.1,20.1,0,0,0,1.417,2.04v.553a1.786,1.786,0,0,1-.5.949Zm-.949,39.105-.071.128a3.131,3.131,0,0,1-2.65,2.38c-1.7-.127-2.593-1.558-2.664-4.25a77.226,77.226,0,0,0,1.417-14.622c0-2.522-.128-5.441-.34-8.714a3.4,3.4,0,0,1,2.451-3.06h.949a2.834,2.834,0,0,1,1.3.751,38.255,38.255,0,0,1,10.2-2.38,8.076,8.076,0,0,1,4.69,1.289c1.629,1.091,2.65,3.613,2.99,7.481l.893,17.484.34,2.933c0,1.7-1.417,2.579-4.081,2.72a12.851,12.851,0,0,1-4.973-1.233c-3.315-.368-6.787-.638-10.456-.907Zm.609-5.1a51.856,51.856,0,0,1,12.44,1.559,1.632,1.632,0,0,1,.482-.128c0-3.953-.071-7.354-.142-10.485-2.919,1.091-5.568,1.984-8.019,2.664a20.731,20.731,0,0,1-4.562,1.077c-.071,2.04-.128,3.783-.2,5.313Zm12.383-16.053c-.283-2.522-1.417-3.811-3.471-3.811a18.418,18.418,0,0,0-4.831,1.162c-1.233.468-2.38.949-3.542,1.488-.128,2.664-.2,5.172-.269,7.481a4.346,4.346,0,0,0,.878-.269,116.949,116.949,0,0,1,11.434-3.131,23.248,23.248,0,0,1-.2-2.919Zm-3.811-30.746a22.461,22.461,0,0,1,.34,3.953c-.071,1.417-.213,2.65-.34,3.741a21.337,21.337,0,0,0,1.969-1.417,7.581,7.581,0,0,0,2.579-3.471,3.272,3.272,0,0,1,2.38-.893c1.162.071,1.771.822,1.913,2.253a7.849,7.849,0,0,1-2.593,4.081,14.252,14.252,0,0,1-4.35,2.72,5.908,5.908,0,0,1-2.508.68h-.255c-.34,1.091-.68,2.04-.949,2.834,2.182-.411,4.251-.751,6.121-1.162,1.233-.34,2.253-.609,2.933-.751a.963.963,0,0,1,.4-.609,30.15,30.15,0,0,0,4.151-6.192,9.818,9.818,0,0,0,1.233-3.259c0-2.182-2.182-3.273-6.461-3.273a54.476,54.476,0,0,0-6.6.482c-.028.213.043.213.043.283Z" transform="translate(-304.452 -391.15)" fill="#27a2af"/>
    <path id="Path_131" data-name="Path 131" d="M429.587,439.85a2.72,2.72,0,0,1,1.9.893c.411.609,1.02,1.559,1.842,2.834,1.289,2.182,2.72,4.491,4.251,7.212a3.429,3.429,0,0,1,.553,1.771,1.969,1.969,0,0,1-1.417,1.629,3.187,3.187,0,0,1-1.771-.538c-1.218-.949-3.33-3.882-6.263-8.643a10.308,10.308,0,0,1-.949-1.9,2.465,2.465,0,0,1-.411-1.289C427.4,440.8,428.156,440.119,429.587,439.85Zm5.667-26.254c3.811-2.919,6.8-4.421,9.11-4.421.553.142.893.68,1.02,1.5,0,3.2-2.99,8.643-8.912,16.322,2.451-1.219,5.313-2.72,8.714-4.619a6.87,6.87,0,0,1,2.451-1.02,1.913,1.913,0,0,1,2.168,1.969,10.825,10.825,0,0,1-2.111,5.908,12.639,12.639,0,0,1-3.06,3.613,2.281,2.281,0,0,1-1.559.539c-.609,0-.949-.34-.949-1.02a2.1,2.1,0,0,1,.468-1.219c1.02-2.111,1.842-3.953,2.38-5.441-5.979,5.172-10.329,7.892-13.12,8.161a1.659,1.659,0,0,1-1.842-1.842,5.667,5.667,0,0,1,1.091-2.834q3.9-6.928,9.181-15.5c-3.528,3.542-7,5.582-10.272,6.121-1.091-.142-1.7-.949-1.7-2.451,4.69-7.608,7.481-14.083,8.3-19.453a3.018,3.018,0,0,1,3-1.714,2.04,2.04,0,0,1,1.7,1.984c-.439,3.684-2.479,8.884-5.951,15.415Zm1.289,23.123a2.735,2.735,0,0,1,1.969.822c.283.482.68,1.218,1.417,2.31.964,1.842,2.04,3.811,3.2,5.922a2.962,2.962,0,0,1,.411,1.5,1.615,1.615,0,0,1-1.162,1.417,2.833,2.833,0,0,1-1.558-.467c-1.021-.68-2.721-2.99-5.1-6.8a4.99,4.99,0,0,1-.751-1.417,2.14,2.14,0,0,1-.34-1.233c.057-1.034.737-1.714,1.955-2.055ZM450.712,444c-.2.411-.4.609-.609.68a1.785,1.785,0,0,1-1.091.269,6.56,6.56,0,0,1-3.6-2.239,13.561,13.561,0,0,1-3.259-3.953,2.3,2.3,0,0,1-.482-1.488,1.686,1.686,0,0,1,.539-1.162,2.239,2.239,0,0,1,1.091-.751h.751a1.629,1.629,0,0,1,1.02.4,9.53,9.53,0,0,0,1.218,1.417,14.44,14.44,0,0,0,4.251,4.9,1.077,1.077,0,0,1,.609,1.091,2.012,2.012,0,0,1-.354.836Zm20.615,2.451a15.588,15.588,0,0,1-1.091,2.919c1.233-.128,2.451-.269,3.542-.269,3.811-.269,7.481-.468,11.151-.751.68-.128,1.417-.2,2.239-.269,1.162,0,1.913.411,2.182,1.289a4.52,4.52,0,0,1-2.38,4.151c-.538.071-3.06.213-7.552.34-2.579,0-5.512.071-8.629.269a54.383,54.383,0,0,0-9.535,1.644q-2.04.411-7.75,2.04a7.718,7.718,0,0,1-1.771.269,2.55,2.55,0,0,1-.737-4.973,61.833,61.833,0,0,1,13.262-3.117,6.983,6.983,0,0,1,1.218-.142,1.785,1.785,0,0,1,.269-.68c.411-1.162.822-2.31,1.162-3.542a13.883,13.883,0,0,0,.34-2.834,18.123,18.123,0,0,0-.751-5.667,1.715,1.715,0,0,1-.2-.609c-.949.071-1.842.128-2.72.128h-4.831c-2.451,0-3.67-.949-3.67-2.834s1.077-2.72,3.259-3.06c.071.538.609.878,1.7.878h4.151a36.4,36.4,0,0,0,15.444-4.151,6.165,6.165,0,0,1,1.218-.34,2.253,2.253,0,0,1,1.5,2.451,2.536,2.536,0,0,1-1.417,2.111,23.858,23.858,0,0,1-8.034,3.811,12.463,12.463,0,0,1-1.417.269,26.172,26.172,0,0,1,.609,5.922,18.921,18.921,0,0,1-.68,4.747Zm-14.013-22.245a40.908,40.908,0,0,0-6.05-4.548,1.771,1.771,0,0,1-.893-1.573,5.837,5.837,0,0,1,1.02-2.919l1.842-2.99a66.926,66.926,0,0,0,3.06-7.084,1.828,1.828,0,0,1,1.7-1.02,6.9,6.9,0,0,1,1.02.142,2.622,2.622,0,0,1,.949.751,1.417,1.417,0,0,1,.411,1.02c0,2.111-1.5,5.922-4.35,11.335.949.68,2.04,1.417,3.259,2.239a22.329,22.329,0,0,1,3.67,3.33,5.144,5.144,0,0,1,.553,2.04,2.536,2.536,0,0,1-.411,1.417,2.012,2.012,0,0,1-1.629,1.02,2.069,2.069,0,0,1-1.771-.949,20.688,20.688,0,0,0-2.3-2.21ZM469.9,399.526a58.99,58.99,0,0,1-8.643,2.239,17.965,17.965,0,0,1-3.67.411h-.964a2.055,2.055,0,0,1-1.969-2.31V398.7a3.882,3.882,0,0,1,2.253-2.309,6.747,6.747,0,0,0,1.7.128,28.848,28.848,0,0,0,7.538-1.077,64.854,64.854,0,0,0,9.465-2.834l1.289-.482a5.058,5.058,0,0,1,1.771.411c.751.553,1.148.949,1.148,1.417a3.5,3.5,0,0,1-.468,1.417,6.024,6.024,0,0,1-1.771,1.417,68.918,68.918,0,0,1-7.594,2.735Zm0,3.6a3.754,3.754,0,0,1,1.091,1.02c0,.2.071.482.071.822a17.683,17.683,0,0,1-2.451,7.084,1.318,1.318,0,0,0-.34.822,3.457,3.457,0,0,0,.68,1.7,16.848,16.848,0,0,0,4.35,4.01,1.417,1.417,0,0,1,.482,1.091,3.2,3.2,0,0,1-.553,1.219,2.239,2.239,0,0,1-1.02.751,2.113,2.113,0,0,1-.949.128,3.755,3.755,0,0,1-1.488-.4,10.187,10.187,0,0,1-3.755-3.131,13.655,13.655,0,0,1-2.31-5.044,7.079,7.079,0,0,1-.213-1.757,2.664,2.664,0,0,1,.411-1.162,16.369,16.369,0,0,1,1.02-1.629,28.444,28.444,0,0,1,1.417-2.933,10.146,10.146,0,0,1,1.091-2.168,1.941,1.941,0,0,1,1.559-.623,5.057,5.057,0,0,1,.992.2Zm14.013,15.444a4.438,4.438,0,0,1-1.289.128,4.676,4.676,0,0,1-1.629-.4,13.461,13.461,0,0,1-4.7-3.131,4.633,4.633,0,0,1-1.077-3.2,3.669,3.669,0,0,1,.538-1.9l2.04-3.06c.482-.751,1.02-1.7,1.7-2.834a1.8,1.8,0,0,1,1.842-.949,6.144,6.144,0,0,1,1.077.128,2.3,2.3,0,0,1,1.233,1.7,13.487,13.487,0,0,1-2.182,5.512,7.647,7.647,0,0,1-.808,1.417,13.632,13.632,0,0,0,4.137,3.273,1.615,1.615,0,0,1,.553,1.289,2.2,2.2,0,0,1-1.346,2.026Z" transform="translate(-286.436 -390.748)" fill="#27a2af"/>
    <path id="Path_132" data-name="Path 132" d="M525.4,396.628c-2.38,2.239-8.572,4.831-18.646,7.821-1.488.482-2.919.878-4.251,1.233-1.629,3.8-3.882,8.289-6.673,13.531-2.168,4.01-4.251,7.679-6.177,11.009-1.3,2.324-2.593,4.491-3.953,6.673a30.8,30.8,0,0,1-3.528,4.619,3.23,3.23,0,0,1-2.04.822,1.289,1.289,0,0,1-.893-1.289,5.07,5.07,0,0,1,.411-1.7,11.845,11.845,0,0,1,1.771-3.882,68.434,68.434,0,0,1,4.548-8.5q4.081-7.084,8.161-15.1c.751-1.417,1.417-2.919,2.111-4.421-1.828.553-3.528,1.02-5.172,1.417a18.033,18.033,0,0,1-3.188.553,14.169,14.169,0,0,1-2.72.269c-1.233-.071-1.969-1.02-2.253-2.834,0-.751.623-1.5,1.984-2.182.808-.269,1.757-.538,2.99-.949,3.74-.751,7.41-1.629,10.952-2.579,1.077-2.99,1.9-5.667,2.579-8.232a2.281,2.281,0,0,1,2.04-1.5h.822c1.077.283,1.629,1.162,1.629,2.593a21.928,21.928,0,0,1-1.218,5.667,4.163,4.163,0,0,0,.878-.269,189.878,189.878,0,0,0,19.312-5.979,1.53,1.53,0,0,1,1.417.609,1.926,1.926,0,0,1,.142.68A2.99,2.99,0,0,1,525.4,396.628Zm-21.253,45.566c.949-.4,1.771-.808,2.508-1.148a45.26,45.26,0,0,0,5.852-3.273,19.015,19.015,0,0,1,1.842-1.219,2.579,2.579,0,0,1,.949-.212,1.842,1.842,0,0,1,1.417.68,5.115,5.115,0,0,1,.142.963,4.123,4.123,0,0,1-.751,1.9,29.562,29.562,0,0,1-4.831,3.613,29.1,29.1,0,0,1-6.461,3.259,2.111,2.111,0,0,1-.949.269c-.142,0-.283,0-.283-.071-.269,3-.468,5.512-.538,7.481a9.634,9.634,0,0,1-.609,3,2.834,2.834,0,0,1-2.04,1.077,2.083,2.083,0,0,1-1.842-1.7,14.723,14.723,0,0,1,0-2.04c0-1.757.623-7.679,1.842-17.881.949-8.983,1.5-15.784,1.559-20.332v-3.811a2.366,2.366,0,0,1,1.7-2.451h1.573a1.9,1.9,0,0,1,1.148.482,33.726,33.726,0,0,1,5.993-1.913,27.647,27.647,0,0,1,4.69-.808c3.953,0,6.05,1.686,6.461,5.1-.128,4.35-.2,9.309-.2,15.019s.34,12.313,1.02,20.077c.269,3.117.68,6.518,1.091,10.13,0,2.111-.822,3.188-2.451,3.259a10.711,10.711,0,0,1-4.151-1.091,12.284,12.284,0,0,1-5.667-4.817,3.486,3.486,0,0,1-.482-1.5,1.587,1.587,0,0,1,1.417-1.629c1.091,0,3.2.949,6.192,2.834a231.561,231.561,0,0,1-1.629-27.2v-1.488c-.283.128-.553.34-.822.468-2.834,1.417-5.3,2.451-7.623,3.4a18.576,18.576,0,0,1-4.959,1.417c-.468,3.23-.85,6.631-1.077,10.159Zm14.693-28.153a1.7,1.7,0,0,0-1.842-1.5,27.542,27.542,0,0,0-10,2.834c-.128.822-.2,1.7-.269,2.522l-.68,6.319c-.128,1.233-.269,2.38-.4,3.542a8.721,8.721,0,0,1,1.077-.411c6.8-3.06,10.754-4.619,11.774-4.619h.128c.028-2.9.1-5.767.241-8.685Z" transform="translate(-264.793 -391.052)" fill="#27a2af"/>
    <path id="Path_133" data-name="Path 133" d="M545.985,432.54c-.142,2.04-.822,2.99-2.111,2.99a10.527,10.527,0,0,1-7.764-3.06,1.913,1.913,0,0,1-.68-.949c0-1.417.553-2.04,1.7-2.182,1.5.142,3.2.269,4.973.482,0-2.04-.071-4.251-.071-6.6,0-3.259,0-6.532-.2-9.649a16.681,16.681,0,0,0-.893,1.629,34.811,34.811,0,0,1-4.01,6.39,40.272,40.272,0,0,1-4.35,4.959,1.814,1.814,0,0,1-1.02.553,3.639,3.639,0,0,1-1.02.2c-.68,0-1.091-.411-1.162-1.219a2.3,2.3,0,0,1,.822-1.629,55.052,55.052,0,0,0,5.228-6.943,38.994,38.994,0,0,0,3.542-7.084c.609-1.559,1.162-3.131,1.63-4.69-1.417.468-2.72.878-3.868,1.218a6.047,6.047,0,0,1-1.5.482,24.078,24.078,0,0,1-2.65.2c-1.289,0-2.04-.949-2.253-2.834,0-.808.623-1.559,1.984-2.239.737-.269,1.7-.553,2.919-.949a49.335,49.335,0,0,0,5.37-1.3,30.458,30.458,0,0,0-.808-3.457,4.464,4.464,0,0,1-.34-1.7,2.395,2.395,0,0,1,2.72-2.253,3.117,3.117,0,0,1,2.508,2.253c.269.808.553,1.7.751,2.508a5.911,5.911,0,0,0,.142,1.233c2.99-.893,5.37-1.7,7.084-2.38a1.488,1.488,0,0,1,1.417.68,1.518,1.518,0,0,1,.127.609,2.834,2.834,0,0,1-.878,1.9c-1.091,1.233-3.542,2.593-7.41,4.081.071,1.3.128,2.664.269,4.081a65.945,65.945,0,0,1,7.084,11.335,11.89,11.89,0,0,1,1.417,4.151c0,1.091-.482,1.629-1.417,1.629a2.083,2.083,0,0,1-1.5-.878c-.68-.964-1.629-2.451-2.834-4.421l-2.834-4.491Q546.184,428.247,545.985,432.54ZM540.4,456.627a2.522,2.522,0,0,1-1.417.553,1.984,1.984,0,0,1-1.573-.893,13.089,13.089,0,0,1-.878-1.218,12.58,12.58,0,0,1-.949-4.251c-.142-1.219-.212-2.239-.34-3.06-.269-1.629-.482-3.188-.68-4.69a17.6,17.6,0,0,1-.553-3.4q0-1.856,2.253-2.04h1.148c.68,0,1.233.482,1.771,1.417.142.68.213,1.771.34,3.259.269,2.593.553,4.831.822,6.73s.468,3.613.751,5.1c.057,1.332-.227,2.139-.694,2.479Zm32.843-14.891a1.02,1.02,0,0,1-.34.142,17,17,0,0,1,4.024,2.919,5.413,5.413,0,0,1,1.289,3.06,7.439,7.439,0,0,1-3.471,6.319,16.591,16.591,0,0,1-7.821,2.04,17.951,17.951,0,0,1-9.45-3.06,21.068,21.068,0,0,1-6.943-8.019,3.187,3.187,0,0,1-.538-1.629,1.828,1.828,0,0,1,.468-1.417,2.692,2.692,0,0,1,2.04-1.233,2.635,2.635,0,0,1,2.111,1.02c3.4,5.512,7.552,8.5,12.454,8.912,4.251,0,6.39-1.289,6.588-3.868a3.911,3.911,0,0,0-1.7-2.834c-.68-.411-1.289-.751-1.9-1.091a1.487,1.487,0,0,1-.751.2,7.976,7.976,0,0,1-2.72.68c-1.091,0-1.842-.737-2.182-2.239v-1.02a2.012,2.012,0,0,1,1.218-1.9,24.675,24.675,0,0,0,3.471-1.091,43.413,43.413,0,0,0,7.92-3.486l3.273-1.969a3.683,3.683,0,0,1,1.417-.34,1.658,1.658,0,0,1,1.559,1.7,2.833,2.833,0,0,1-.411,1.629c-1.233,1.729-4.421,3.911-9.606,6.56ZM559.375,426.15c-.128-1.417-.128-3.188-.128-5.667,0-3.06,0-5.852.128-8.359s.142-5.172.34-8.175c0-1.417.071-2.919.071-4.619-.071-.482-.142-.949-.269-1.5a4.891,4.891,0,0,1,0-1.077c0-.411.269-.751.751-1.162a3.061,3.061,0,0,1,1.97-.878,2.451,2.451,0,0,1,2.026,1.176,43.784,43.784,0,0,1,6.461-.609h1.091a3.9,3.9,0,0,1,2.834,1.9,23.03,23.03,0,0,1,1.148,4.761c.142,1.644.283,3.613.411,6.064.269,4.761.482,10.2.751,16.251a3.854,3.854,0,0,1-.878,2.38,3.117,3.117,0,0,1-2.394,1.162,1.544,1.544,0,0,1-1.488-.68,40.551,40.551,0,0,1-6.39,3.06,21.635,21.635,0,0,1-4.024.878,2.834,2.834,0,0,1-2.72-2.65,1.558,1.558,0,0,1,.552-1.417,2.452,2.452,0,0,1-.241-.779Zm4.251-5.5c0,1.757.071,3.6.128,5.37l.822-.213a29.472,29.472,0,0,0,7.212-2.99v-5.526a6.261,6.261,0,0,1-1.5.68,20.7,20.7,0,0,1-5.441,1.9,2.552,2.552,0,0,1-1.148.34Zm.128-7.694v3.131c.949-.2,1.629-.34,2.1-.482,1.5-.34,3.273-.808,5.384-1.417a1.923,1.923,0,0,0,.538-.128v-5.993c-1.629.68-3.528,1.5-5.667,2.38l-2.04.822a5.362,5.362,0,0,0-.34,1.743Zm7.212-11.9c-.269-.949-.751-1.417-1.417-1.417a29.211,29.211,0,0,0-4.548.411,49.093,49.093,0,0,1-.623,5.582,10.076,10.076,0,0,0-.2,1.828c1.559-.68,3.741-1.417,6.461-2.309l.822-.2a19.946,19.946,0,0,0-.524-3.84Z" transform="translate(-243.892 -390.438)" fill="#27a2af"/>
    <path id="Path_134" data-name="Path 134" d="M591.034,448.969a109.211,109.211,0,0,0,17.271,4.619,73.425,73.425,0,0,0,7.75.949c2.31.213,4.35.34,6.192.34a43.636,43.636,0,0,0,4.959-.2c1.417-.142,3-.34,4.7-.538a19.281,19.281,0,0,1,2.834-.283c1.162,0,1.771.283,1.913.963a2.832,2.832,0,0,1-.482,1.289,3.5,3.5,0,0,1-1.289,1.091,57.525,57.525,0,0,1-16.577,2.14c-9.8,0-21.026-2.38-33.679-7a45.613,45.613,0,0,1-5.979-2.72c-1.162-.68-2.111-1.289-2.933-1.842a2.651,2.651,0,0,1-.4-1.559,2.975,2.975,0,0,1,1.02-2.182,2.054,2.054,0,0,1,1.558-.609,3.315,3.315,0,0,1,1.417.411c.822.411,1.9.878,3.131,1.417a11.873,11.873,0,0,0,1.969-6.461,5.455,5.455,0,0,0-1.289-2.933,4.35,4.35,0,0,1-1.233-2.72,7.992,7.992,0,0,1,2.38-4.761,3.812,3.812,0,0,0,.893-1.629,7.991,7.991,0,0,0-1.162-2.72,24.7,24.7,0,0,1-2.451-2.65c0-1.417.963-2.111,2.664-2.111a3.47,3.47,0,0,1,1.828.949,6.659,6.659,0,0,1,3.613,5.667c0,1.7-1.02,4.081-3,7.084a11.335,11.335,0,0,1-.34,14.013C587.9,447.68,589.462,448.36,591.034,448.969Zm.468-34.628a4.251,4.251,0,0,1-2.834-1.417,22.882,22.882,0,0,0-7.623-3.259,3.19,3.19,0,0,1-1.417-.482,5.087,5.087,0,0,1-.2-1.558,4.974,4.974,0,0,1,0-.949c.269-1.02,1.219-1.573,2.72-1.644a13.389,13.389,0,0,1,5.228,1.233,18.419,18.419,0,0,1,5.313,3.6,5.085,5.085,0,0,1,.468,1.984C593.075,413.534,592.522,414.341,591.5,414.341Zm9.394,9.465c0,.68-.213,2.919-.411,6.73-.142,2.04-.142,3.868-.142,5.441a37.385,37.385,0,0,0,.269,5.242,17.829,17.829,0,0,0,.822,3.741v.609a1.686,1.686,0,0,1-1.842,1.828c-.68,0-1.289-.468-1.757-1.488-1.643-2.834-2.522-7.41-2.522-13.545,0-1.629.142-4.251.538-8.09.071-.949.142-1.9.142-2.919a3.061,3.061,0,0,1,.751-1.913,3.826,3.826,0,0,1,1.559-.808h.553a2.579,2.579,0,0,1,2.168,2.239C600.952,422.106,600.9,423.126,600.9,423.806Zm13.389-8.034a18.027,18.027,0,0,1-.2-2.72c0-.949-.142-1.969-.142-2.919a8.6,8.6,0,0,0-.2-1.5,5.647,5.647,0,0,1-.2-.751,3.868,3.868,0,0,1-.963.142h-.468a1.318,1.318,0,0,1-.893-.68,1.8,1.8,0,0,1,.623-2.649,69.666,69.666,0,0,1,7.538-1.913,11.533,11.533,0,0,1,1.913-.2,1.856,1.856,0,0,1,1.148.68,2.749,2.749,0,0,1,.482,1.148c0,.553-.411.963-1.162,1.3-1.148.34-2.65.737-4.421,1.218a.313.313,0,0,0,0,.213,11.121,11.121,0,0,1,.269,1.757v6.333c3.4-.482,6.943-.893,10.541-1.162,1.417,0,2.834-.071,4.081-.071,2.04.34,3.131,2.253,3.131,5.667,0,1.091-.2,3.188-.468,6.248-.142,1.5-.213,3.344-.213,5.384,0,2.508,0,5.3.071,8.43,0,4.01.142,6.73.269,8.09s-.878,1.913-2.579,1.969a8.5,8.5,0,0,1-7.084-3.868,3.23,3.23,0,0,1-.34-1.5c.142-.34.34-.538.623-.538,1.077.2,2.508.468,4.35.878,0-.949,0-2.168.128-3.67,0-2.111,0-5.1.142-8.912,0-4.081.142-7.963.411-11.76,0-1.417-.269-2.04-.68-2.111a99.523,99.523,0,0,0-25.5,4.35c-1.091-.142-1.7-.878-1.771-2.38,0-.878.538-1.629,1.771-2.182a.388.388,0,0,0,.34-.128,46.756,46.756,0,0,0-1.091-8.161c-1.02-4.761-1.9-8.714-2.579-11.845a3.09,3.09,0,0,1,.808-1.629,1.842,1.842,0,0,1,1.573-.808,6.9,6.9,0,0,1,1.417.128,3.81,3.81,0,0,1,1.417,1.233,34.669,34.669,0,0,1,5.668-2.182,37.73,37.73,0,0,1,8.77-1.091,14.352,14.352,0,0,1,5.852,1.02,7.353,7.353,0,0,1,2.834,2.451,4.8,4.8,0,0,1,.751,2.649,12.641,12.641,0,0,1-1.218,4.69,25.037,25.037,0,0,1-4.251,7.084,3.769,3.769,0,0,1-1.9.609c-1.091,0-1.629-.553-1.629-1.7a1.857,1.857,0,0,1,.609-1.289,35.889,35.889,0,0,0,2.451-5.455,9.72,9.72,0,0,0,.808-2.919q0-3.06-4.081-3.06a34.459,34.459,0,0,0-13.729,3.4c.128,1.5.34,3.2.609,5.172.68,5.242,1.091,8.7,1.091,10.471,1.672-.212,3.372-.552,5.271-.963Zm9.918,19.836a26.327,26.327,0,0,1-5.172,3.188,30.117,30.117,0,0,1-6.192,2.522,2.012,2.012,0,0,1-2.026,1.573,1.714,1.714,0,0,1-1.913-1.842,44.087,44.087,0,0,0-.878-5.242c-.822-2.99-1.5-5.512-2.04-7.481a2.962,2.962,0,0,1,.808-1.559,1.771,1.771,0,0,1,1.417-.822,6.671,6.671,0,0,1,1.417.142c.2.128.34.269.482.34.808-.213,1.629-.411,2.451-.553a32.107,32.107,0,0,1,5.157-.4,9.918,9.918,0,0,1,4.491,1.02,4.845,4.845,0,0,1,2.309,2.239,8.06,8.06,0,0,1,.482,2.649,6.7,6.7,0,0,1-.411,1.629q.1.213.213.213a4,4,0,0,1,.128.808,2.932,2.932,0,0,1-.709,1.6Zm-7.339,0a10.215,10.215,0,0,0,2.919-3.2,5.21,5.21,0,0,0,.482-1.488c0-.893-.68-1.417-1.913-1.417a29.611,29.611,0,0,0-6.588.878c.128.878.269,1.842.468,2.834.283,1.629.482,2.99.609,3.939.553-.2,1.091-.411,1.5-.609.822-.34,1.629-.68,2.451-.949Z" transform="translate(-224.743 -390.133)" fill="#27a2af"/>
    <path id="Path_135" data-name="Path 135" d="M342.525,473.047a31.878,31.878,0,0,1,2.31,7.75v.822a1.785,1.785,0,0,1-.878,1.162,1.417,1.417,0,0,1-.964.4,2.239,2.239,0,0,1-1.7-.878c-2.168-4.491-4.761-10.131-7.75-17.073a2.38,2.38,0,0,1-.2-1.02,2.11,2.11,0,0,1,.269-.949,2.834,2.834,0,0,1,2.65-1.573,4,4,0,0,1,1.629.623c.553.949,1.091,1.969,1.644,3.06l.128.269a44.053,44.053,0,0,1,4.251-1.629c1.488-.411,3.06-.822,4.548-1.162-.34-.822-.609-1.5-.878-2.182a2.309,2.309,0,0,1,.68-1.417,1.97,1.97,0,0,1,1.559-.893,4.974,4.974,0,0,1,1.233.142,2.551,2.551,0,0,1,1.417,1.417c.212.4.411.949.68,1.629q5.313-1.233,10.2-2.253c0-.878-.128-1.828-.2-2.834a9.78,9.78,0,0,1-.071-1.417v-.071c-.68.142-1.289.2-1.9.34a119.628,119.628,0,0,1-12.865,2.239,46.111,46.111,0,0,1-5.37.283h-1.629a1.913,1.913,0,0,1-1.969-2.182v-.864a4.094,4.094,0,0,1,2.168-2.309,12.852,12.852,0,0,0,1.573,0,97.4,97.4,0,0,0,11.9-.808,137.518,137.518,0,0,0,15-2.55,12.847,12.847,0,0,1,1.913-.4,4.251,4.251,0,0,1,1.7.4c.609.411.949.751.949,1.162a2.579,2.579,0,0,1-.411,1.218,3.924,3.924,0,0,1-1.5,1.091,43.927,43.927,0,0,1-5.1,1.417,8.727,8.727,0,0,1,.822,4.251,73.919,73.919,0,0,1,9.72-1.148c2.593,0,4.081,1.02,4.364,2.99a7.779,7.779,0,0,1-1.162,3.882,25.968,25.968,0,0,1-4.9,6.248,3.782,3.782,0,0,1,.142.893,3.287,3.287,0,0,1-.878,1.9,67.444,67.444,0,0,1-11.165,4.633c-3.06,1.02-6.05,1.9-8.9,2.65a8.288,8.288,0,0,1,.737,3.811,18.208,18.208,0,0,1-.737,4.959c-.283.68-.482,1.417-.694,2.04,1.233-.071,2.451-.142,3.755-.269,1.9-.142,3.6-.269,5.157-.482a22.4,22.4,0,0,0-1.077-4.151,17,17,0,0,0-1.5-3.06,2.026,2.026,0,0,1,.609-2.834,2.154,2.154,0,0,1,1.573-.609,2.933,2.933,0,0,1,2.04,1.02,16.324,16.324,0,0,1,2.508,5.228,33.477,33.477,0,0,1,.68,3.811,82.06,82.06,0,0,0,8.43-1.417c1.417-.269,2.593-.538,3.684-.822a21.644,21.644,0,0,1,3.939-1.148,1.615,1.615,0,0,1,1.417.878,5.879,5.879,0,0,1,1.162,2.593,1.8,1.8,0,0,1-1.417,1.7,17.214,17.214,0,0,1-4.562,1.218c-1.162.269-3.131.609-5.852.949-2.451.34-4.69.609-6.73.893a26.225,26.225,0,0,1-3.741,11.958c-.751,1.091-1.5,2.111-2.239,3.075a1.416,1.416,0,0,0,.269,0c1.9.553,4.081,1.162,6.588,1.7a1.828,1.828,0,0,1,.553,1.5c-.269,1.289-1.417,2.111-3.131,2.38h-.949a18.5,18.5,0,0,1-5.922-1.5,7.731,7.731,0,0,1-1.02-.4,36.016,36.016,0,0,1-5.922,4.137,4.5,4.5,0,0,1-2.239.751,2.168,2.168,0,0,1-2.31-1.7,1.884,1.884,0,0,1,1.148-1.828,30.583,30.583,0,0,0,5.512-3.471,13.309,13.309,0,0,1-1.828-1.417c-3.471-3.06-5.171-6.192-5.171-9.521a10.807,10.807,0,0,1,.411-3.131c-2.72.468-5.044.949-7.084,1.417a46.429,46.429,0,0,0-6.177,1.828,8.67,8.67,0,0,1-3.2.68c-1.162,0-1.842-.878-1.969-2.451a2.465,2.465,0,0,1,.751-2.026,4.8,4.8,0,0,1,2.437-1.417,41.472,41.472,0,0,1,5.512-1.573c3.613-.808,7.283-1.417,11.094-2.04v-.2a31.012,31.012,0,0,0,.963-6.05,14.723,14.723,0,0,0-.142-1.7,9.654,9.654,0,0,1-.2-1.913,1.064,1.064,0,0,1,0-.411c-.538.142-1.02.213-1.417.283a2.961,2.961,0,0,1-1.162.4c-.538,0-1.02-.34-1.417-1.077a3.854,3.854,0,0,1-.609-2.38,1.969,1.969,0,0,1,1.417-1.7c1.9-.411,3.613-.822,5.242-1.162a30.622,30.622,0,0,0-1.5-6.121c-.34-.68-.609-1.417-.879-2.111-2.834.822-5.852,1.629-8.912,2.579a23.926,23.926,0,0,1,1.063,3.046Zm10.329,25.914a9.592,9.592,0,0,0,4.151,7.821,17.164,17.164,0,0,0,1.913,1.162,24.853,24.853,0,0,0,3.259-5.03,31.167,31.167,0,0,0,1.842-7.623c-1.417.2-2.72.34-3.953.468-2.451.34-4.761.623-6.928.893a10.525,10.525,0,0,0-.283,2.31Zm2.111-32.035a36.242,36.242,0,0,1,1.771,7.963c1.573-.411,3.06-.822,4.491-1.3a57.432,57.432,0,0,1,1.559-8.218,5.483,5.483,0,0,0,.283-1.02c-2.593.609-5.313,1.289-8.232,2.04A.992.992,0,0,0,354.965,466.927Zm12.752-2.919a42.053,42.053,0,0,1-3.06,8.019,4.244,4.244,0,0,0-.411.68c1.771-.538,3.542-1.02,5.172-1.559.949-.411,1.771-.68,2.451-.963a27.912,27.912,0,0,0,5.441-8.43c-2.593.269-5.781.822-9.465,1.5a3.332,3.332,0,0,0-.085.751Z" transform="translate(-326.891 -367.158)" fill="#27a2af"/>
    <path id="Path_136" data-name="Path 136" d="M406.669,479.395a12.655,12.655,0,0,1-3-2.508,2.026,2.026,0,0,1-.553-1.573c0-.751.411-1.148,1.233-1.289,2.04,0,5.512,1.289,10.541,3.811.751-1.162,1.9-4.633,3.471-10.414a49.584,49.584,0,0,0,1.629-9.989c0-.68-.411-1.091-1.218-1.162a66.948,66.948,0,0,0-11.165,2.38,11.564,11.564,0,0,1-1.771.538,14.083,14.083,0,0,1-2.508,5.044q-10.315,15.09-15.3,17.952a2.054,2.054,0,0,1-1.289.609,2.111,2.111,0,0,1-2.324-2.168c0-.553.623-1.3,1.842-2.38a79.924,79.924,0,0,0,13.46-17.484,70.11,70.11,0,0,1-11.221,2.38c-1.629,0-2.508-.68-2.579-2.04A2.267,2.267,0,0,1,387,458.921c1.218-.468,2.99-1.091,5.3-1.771,5.03-1.417,9.918-2.579,14.565-3.67a68.465,68.465,0,0,1,13.659-2.04,4.251,4.251,0,0,1,3.131,1.629,7.5,7.5,0,0,1,1.091,4.491,67.9,67.9,0,0,1-1.162,10,71.468,71.468,0,0,1-1.9,8.5,11.335,11.335,0,0,1-2.834,5.242,6.787,6.787,0,0,1-4.081,1.289C412.861,482.6,410.211,481.576,406.669,479.395Zm-3.811,8.161c3.06-.269,5.922-.468,8.5-.468a36.462,36.462,0,0,1,5.993.4,9.125,9.125,0,0,1,5.667,2.72,6.178,6.178,0,0,1,1.5,3.811,19.736,19.736,0,0,1-1.573,6.461,33.544,33.544,0,0,1-2.508,4.761,1.078,1.078,0,0,1,.468-.071,2.182,2.182,0,0,1,1.629.893,3.923,3.923,0,0,1,.142,1.02,3.7,3.7,0,0,1-.878,1.969,71.261,71.261,0,0,1-10.074,3.2,102.011,102.011,0,0,1-12.851,2.579,2.7,2.7,0,0,0,0,.34,2.069,2.069,0,0,1-1.3,2.111h-.609a2.139,2.139,0,0,1-1.969-1.417,26.051,26.051,0,0,1-2.111-4.35,65.247,65.247,0,0,1-2.72-17.144c-.128-2.451-.128-4.9-.128-7.283a2.664,2.664,0,0,1,2.38-1.9h.468A2.026,2.026,0,0,1,394.8,487.5v1.573a60.386,60.386,0,0,1,8.062-1.516Zm.482,21.253c3.471-.609,6.659-1.219,9.521-1.842a2.437,2.437,0,0,1,.949-1.148,17,17,0,0,0,2.834-4.08,19.991,19.991,0,0,0,2.38-6.872c0-1.417-1.913-2.182-5.582-2.31a57.4,57.4,0,0,0-9.663.878,71.173,71.173,0,0,0-8.572,1.771.466.466,0,0,1-.2.071,25.733,25.733,0,0,0,.142,3.33,41.511,41.511,0,0,0,1.9,11.08c2.366-.425,4.52-.779,6.291-.907Z" transform="translate(-304.324 -366.024)" fill="#27a2af"/>
    <path id="Path_137" data-name="Path 137" d="M438.217,470.462a13.092,13.092,0,0,1,5.03.949,5.668,5.668,0,0,1,3.259,5.667,19.838,19.838,0,0,1-1.828,6.39,2.054,2.054,0,0,1,.949.751,2.366,2.366,0,0,1,.142.808,3.343,3.343,0,0,1-.68,1.5,28.068,28.068,0,0,1-5.441,4.251,40.622,40.622,0,0,1-7.481,3.6,2.959,2.959,0,0,1-1.02.269,1.615,1.615,0,0,1-1.417-.949,3.414,3.414,0,0,1-.553-2.182,1.9,1.9,0,0,1,1.162-1.7,53.219,53.219,0,0,0-.949-7c-.964-4.619-1.7-8.5-2.38-11.491a2.423,2.423,0,0,1,.737-1.417,1.87,1.87,0,0,1,1.5-.893,5.514,5.514,0,0,1,1.289.142,2.933,2.933,0,0,1,1.5,1.5.907.907,0,0,0,.142.468A26.54,26.54,0,0,1,438.217,470.462Zm-3.811,17.824c.949-.411,1.9-.822,2.834-1.233a5.282,5.282,0,0,1,.68-.949A41.088,41.088,0,0,0,442,478.623a20.277,20.277,0,0,0,.269-2.182c-.482-.949-1.559-1.488-3.33-1.488a27.116,27.116,0,0,0-5.993.878c.142,1.091.34,2.324.482,3.684.482,3.939.751,6.928.878,8.841Zm28.833-22.443a26.19,26.19,0,0,0,2.834-3.344c1.842-2.309,2.834-3.8,2.834-4.477-2.31.68-4.959,1.289-7.949,1.9a12.753,12.753,0,0,1-3.33.482,3.585,3.585,0,0,1-3.273-3.613,5.78,5.78,0,0,1,.822-2.04,31.691,31.691,0,0,1,3.811-5.852,1.6,1.6,0,0,1,1.148-.4h.751a1.984,1.984,0,0,1,1.417,2.111,16.249,16.249,0,0,1-2.834,5.582,77.173,77.173,0,0,1,7.821-1.913,15.5,15.5,0,0,1,3.273-.4c2.168.269,3.259,1.148,3.33,2.65a12.269,12.269,0,0,1-3.741,7.481h.142a69.438,69.438,0,0,1,8.5-1.233h1.629c2.451.411,3.741,2.111,3.741,5.1,0,2.72-.34,6.744-.893,12.185-.34,3.471-.68,6.532-1.02,9.252a.892.892,0,0,0,.411-.142,18.43,18.43,0,0,1,2.38-.949,6.69,6.69,0,0,1,2.182.538c.949.553,1.417,1.091,1.417,1.573a2.932,2.932,0,0,1-.68,1.629,5.667,5.667,0,0,1-2.111,1.558,82.526,82.526,0,0,1-12.993,4.69,104.211,104.211,0,0,1,13.531,12.993,10.853,10.853,0,0,1,3.06,5.171c0,1.233-.538,1.913-1.488,1.913a2.607,2.607,0,0,1-1.644-.963c-1.417-1.289-3.457-3.117-5.908-5.568a120.218,120.218,0,0,0-12.865-11.434,1.644,1.644,0,0,1-.269-.4h0a30.243,30.243,0,0,1-2.834,5.5c-1.091,1.644-2.324,3.613-3.741,5.852-.963,1.233-1.842,2.38-2.593,3.471a19.012,19.012,0,0,1-2.239,2.111,2.423,2.423,0,0,1-1.573.538,1.488,1.488,0,0,1-1.417-1.558,2.324,2.324,0,0,1,.538-1.7,12.932,12.932,0,0,1,1.5-2.111c1.077-1.417,2.239-3.06,3.457-4.959.822-1.5,1.771-3.2,2.734-5.044.128-.269.2-.468.326-.737-1.629.4-3.188.808-4.817,1.077a56.406,56.406,0,0,1-6.532.623h-2.04a2.224,2.224,0,0,1-2.182-2.451v-1.417a4.336,4.336,0,0,1,2.451-2.522,15.8,15.8,0,0,0,1.9.071,58.336,58.336,0,0,0,13.4-1.7A27.951,27.951,0,0,0,464.3,490a1.955,1.955,0,0,1,1.559-1.7h1.417c1.233.128,1.842,1.218,1.913,3.33a19.745,19.745,0,0,1-.142,2.04c2.522-.609,5.1-1.417,7.821-2.31a3.017,3.017,0,0,1-.071-.751,10.306,10.306,0,0,1,.34-2.111c.142-.878.411-1.969.68-3.259.283-1.984.623-4.7,1.02-8.1s.623-6.248.751-9.11c0-.538-.468-.822-1.417-.822a53.843,53.843,0,0,0-10.4,2.394c-4.01,1.077-7.75,2.239-11.221,3.457,0,1.233.071,2.522.071,3.741,0,4.7.269,10,.68,15.855,0,1.828-.553,2.72-1.573,2.72h-1.02c-1.218,0-1.828-1.289-1.9-3.882-.142-1.219-.34-4.619-.751-10.2l-.68-11.221c-.071-.468-.2-1.02-.34-1.629a2.125,2.125,0,0,1,1.9-2.309h1.091a2.324,2.324,0,0,1,2.182,1.828c1.955-.666,4.236-1.346,7.027-2.154Zm8.1,7.609a7.51,7.51,0,0,1-1.02,2.664l-.482.878a13.3,13.3,0,0,1,5.37,5.852,6.448,6.448,0,0,1,.482,1.771c-.071.68-.553,1.077-1.417,1.077a3.4,3.4,0,0,1-1.091-.128,19.411,19.411,0,0,1-6.192-4.35,48.763,48.763,0,0,1-3.06,4.137,8.5,8.5,0,0,1-2.309,2.38,2.833,2.833,0,0,1-1.417.283c-1.091-.071-1.559-.68-1.559-1.842a2.48,2.48,0,0,1,.468-1.417,43.35,43.35,0,0,1,3.613-5.979c1.417-2.593,2.579-4.76,3.528-6.532a3.386,3.386,0,0,1,2.253-1.417,2.465,2.465,0,0,1,2.834,2.579Z" transform="translate(-286.565 -367.25)" fill="#27a2af"/>
    <path id="Path_138" data-name="Path 138" d="M479.027,497.917a2.72,2.72,0,0,1,1.9.893c.411.609,1.02,1.558,1.842,2.834,1.289,2.182,2.72,4.491,4.251,7.212a3.386,3.386,0,0,1,.553,1.771,1.969,1.969,0,0,1-1.417,1.629,3.188,3.188,0,0,1-1.771-.538c-1.219-.949-3.33-3.882-6.263-8.643a10.307,10.307,0,0,1-.949-1.9,2.465,2.465,0,0,1-.411-1.289C476.845,498.866,477.6,498.186,479.027,497.917Zm5.667-26.254c3.811-2.919,6.8-4.421,9.11-4.421.553.142.893.68,1.02,1.5,0,3.188-2.99,8.643-8.912,16.322,2.451-1.218,5.313-2.72,8.714-4.619a6.87,6.87,0,0,1,2.451-1.02,1.913,1.913,0,0,1,2.168,1.969,10.825,10.825,0,0,1-2.111,5.908,12.637,12.637,0,0,1-3.06,3.613,2.281,2.281,0,0,1-1.559.538c-.609,0-.949-.34-.949-1.02a2.1,2.1,0,0,1,.468-1.219c1.02-2.111,1.842-3.953,2.38-5.441-5.979,5.171-10.23,7.892-13.063,8.161-1.218-.071-1.842-.68-1.842-1.842a5.667,5.667,0,0,1,1.091-2.834q3.9-6.928,9.181-15.5c-3.528,3.542-7,5.582-10.272,6.121-1.077-.142-1.7-.949-1.7-2.451,4.7-7.623,7.481-14.083,8.3-19.453a3.018,3.018,0,0,1,2.919-1.771,2.04,2.04,0,0,1,1.7,1.984c-.411,3.783-2.451,8.94-5.993,15.472Zm1.289,23.123a2.734,2.734,0,0,1,1.969.822c.283.482.68,1.233,1.417,2.309.963,1.842,2.04,3.811,3.2,5.922a2.962,2.962,0,0,1,.411,1.5,1.615,1.615,0,0,1-1.162,1.417,2.833,2.833,0,0,1-1.558-.467c-1.021-.68-2.721-3-5.1-6.8a5.174,5.174,0,0,1-.751-1.417,2.126,2.126,0,0,1-.34-1.218,2.329,2.329,0,0,1,1.955-2.069Zm14.169,7.283c-.2.411-.4.609-.609.68a1.785,1.785,0,0,1-1.091.269,6.659,6.659,0,0,1-3.6-2.239,13.673,13.673,0,0,1-3.259-3.939,2.352,2.352,0,0,1-.482-1.5,1.686,1.686,0,0,1,.538-1.162,2.239,2.239,0,0,1,1.091-.751h.751a1.63,1.63,0,0,1,1.02.4,9.532,9.532,0,0,0,1.218,1.417,14.438,14.438,0,0,0,4.251,4.9,1.077,1.077,0,0,1,.609,1.091,2.013,2.013,0,0,1-.354.836Zm21.026-.411a.312.312,0,0,1-.156-.071v2.664a64.529,64.529,0,0,1-.878,10.541,19.524,19.524,0,0,1-.878,2.834,2.117,2.117,0,0,1-1.644,1.5c-1.9,0-2.834-.538-2.834-1.5.878-2.1,1.417-7.268,1.488-15.585V490.478a40.441,40.441,0,0,0-5.3,3.06c-.822.68-1.7,1.417-2.579,2.111l-.822.808c.2,1.771.34,3,.34,3.741,0,1.913-.751,2.933-2.182,2.933a1.785,1.785,0,0,1-2.04-1.9,50.871,50.871,0,0,0-.878-5.667c-.893-3.259-1.629-5.979-2.253-8.161a3.3,3.3,0,0,1,.751-1.559,2.054,2.054,0,0,1,1.7-.822,7.164,7.164,0,0,1,1.416.141A2.366,2.366,0,0,1,506,486.723a29.655,29.655,0,0,1,.808,4.35,60.183,60.183,0,0,1,5.993-3.868c1.218-.68,2.451-1.233,3.67-1.771,0-.949.071-1.969.142-3.06a2.352,2.352,0,0,1,1.7-2.451h1.417c1.3.411,1.984,1.162,1.984,2.239v1.417a28.971,28.971,0,0,1,5.3-1.218c1.417-.269,2.72-.538,4.081-.68.751,0,1.842-.071,3.2-.071a5.185,5.185,0,0,1,2.309.751,3.1,3.1,0,0,1,.879,1.9v1.233a12.525,12.525,0,0,1-1.218,4.35,24.818,24.818,0,0,1-2.933,4.831,28.987,28.987,0,0,1-6.588,6.121,7.2,7.2,0,0,1-3.471,1.218,4.462,4.462,0,0,1-2.012-.354Zm-17.144-43.044c-1.417,0-2.04-.893-2.04-2.72a2.139,2.139,0,0,1,1.969-2.324c1.417,0,5.667-1.629,12.865-4.959,1.218,0,1.9.34,2.168.878a4.736,4.736,0,0,1-.127,1.02,2.834,2.834,0,0,1-1.162,1.417,18.945,18.945,0,0,1-4.35,3.273c-1.417.68-2.593,1.289-3.67,1.771h0a22.252,22.252,0,0,1,.666,2.324c.142,0,.212,0,.283-.213a39.3,39.3,0,0,1,7.481-.68,24.839,24.839,0,0,1,7.481,1.091,6.645,6.645,0,0,1,4.619,6.659,16.152,16.152,0,0,1-3.811,8.374c0,.142.071.2.071.269a2.338,2.338,0,0,1-1.02,2.04,38.256,38.256,0,0,1-9.592,3.471,29.506,29.506,0,0,1-4.477.609h-.071A2.069,2.069,0,0,1,509.4,482.2c-1.077,0-1.629-.609-1.629-1.828v-6.05a50.051,50.051,0,0,0-1.488-10.272c-.34-1.644-.68-3.131-1.091-4.562a2.437,2.437,0,0,1-.34-1.02,3.434,3.434,0,0,1-.737.142Zm14.764,3.868a43.175,43.175,0,0,0-7.552.949,13.576,13.576,0,0,0,.269,2.253,21.256,21.256,0,0,0,.142,2.239c1.218-.128,2.239-.269,3.06-.411,2.451-.269,5.37-.808,8.841-1.488,1.091-.142,1.9-.269,2.508-.411-.992-2.04-3.372-3.131-7.183-3.131Zm6.659,6.064c-1.417.4-2.834.808-4.35,1.148a72.355,72.355,0,0,1-9.252,1.842v4.817a22,22,0,0,0,2.933-.4,32.447,32.447,0,0,0,8.77-3.131h.2a42.015,42.015,0,0,0,1.785-4.279Zm-4.435,27.544v.878c.283.142.482.2.623.269a3.06,3.06,0,0,0,1.417.34,3.23,3.23,0,0,0,1.969-.949,17.441,17.441,0,0,0,3.259-3.6,49.226,49.226,0,0,0,3.882-6.461h-1.289a42.506,42.506,0,0,0-9.394,1.828,69.283,69.283,0,0,0-.468,7.693Z" transform="translate(-265.827 -367.204)" fill="#27a2af"/>
    <path id="Path_139" data-name="Path 139" d="M573.105,459.836a3.146,3.146,0,0,1,.553,1.573,1.658,1.658,0,0,1-1.091,1.417c-3.613,1.02-7.693,2.111-12.312,3.273v.213c-.269,3.4-.482,6.05-.482,8.019a88.407,88.407,0,0,1,11.561-2.04,2.082,2.082,0,0,1,1.643.751,2.834,2.834,0,0,1,.538,1.559,1.842,1.842,0,0,1-1.091,1.573c-3.67,1.148-7.948,2.38-12.752,3.67l-.269,8.643c10.4-2.522,18.419-4.761,24.342-6.744a1.814,1.814,0,0,1,1.573.893,1.133,1.133,0,0,1,.2.751,3.826,3.826,0,0,1-1.091,2.309c-3.259,2.451-11.7,5.441-25.234,8.841-.128,2.451-.2,4.491-.269,6.248-.411,7.354-1.417,12.752-3.06,16.464-.411,1.629-1.289,2.522-2.65,2.522-1.02,0-1.5-.822-1.5-2.38a79.007,79.007,0,0,0,2.026-14.353l.34-7.354q-8.969,2.139-16.931,3.882c-2.04.411-3.542.68-4.491.808a13.7,13.7,0,0,1-2.834.283c-1.417-.071-2.182-1.091-2.38-3,0-.808.68-1.629,2.04-2.38.822-.269,1.9-.609,3.131-.949q11.122-2.139,21.621-4.69l.283-8.5c-3.4.949-7.084,1.9-10.881,2.834a2.465,2.465,0,0,1-2.522-2.182v-.822A1.913,1.913,0,0,1,542.2,479.4a96.641,96.641,0,0,1,12.313-3.939c0-2.593.128-5.242.269-8.034-4.562,1.162-9.465,2.38-14.693,3.6a2.522,2.522,0,0,1-2.649-2.168v-.822a2.267,2.267,0,0,1,1.077-1.559,136.007,136.007,0,0,1,17.682-4.9c.964-.127,1.842-.34,2.735-.538a21.083,21.083,0,0,0,5.1-7.084,9.593,9.593,0,0,0,.538-2.834v-1.289a2.3,2.3,0,0,1,2.111-1.573c1.828,0,2.834,1.091,2.919,3.2v.751c-.269,2.437-2.309,5.1-6.121,7.948a55.53,55.53,0,0,1,7.892-1.218A1.941,1.941,0,0,1,573.105,459.836Zm-21.621-.609a1.715,1.715,0,0,1-1.417.553,1.928,1.928,0,0,1-1.417-.411,12.528,12.528,0,0,1-1.5-.822,26.648,26.648,0,0,1-5.568-5.1.822.822,0,0,1-.071-.411,2.833,2.833,0,0,1,.538-1.488,3.018,3.018,0,0,1,1.417-1.091,3.33,3.33,0,0,1,1.289-.2,2.636,2.636,0,0,1,2.04,1.559c.949.949,1.913,1.969,2.834,3.06,1.162,1.218,1.9,2.111,2.309,2.522v.609A1.7,1.7,0,0,1,551.484,459.226Z" transform="translate(-244.7 -367.35)" fill="#27a2af"/>
    <path id="Path_140" data-name="Path 140" d="M596.779,481.793c-1.219-1.771-2.522-3.471-3.741-5.1a1.927,1.927,0,0,1-.411-1.233v-.68a3.06,3.06,0,0,1,.949-1.757,3.726,3.726,0,0,1,1.5-.68h.822a5.75,5.75,0,0,1,1.219.482c1.9,1.7,4.761,6.121,8.5,13.333a14.267,14.267,0,0,1,1.559,4.761c0,1.488-.68,2.239-1.969,2.239a2.565,2.565,0,0,1-1.9-1.148,53.223,53.223,0,0,1-3.273-5.044c-.071-.128-.128-.2-.2-.34a39.3,39.3,0,0,1-11.434,15.3,10.159,10.159,0,0,1-5.908,2.834,3.585,3.585,0,0,1-2.876-3.4c-.071-1.02-.071-2.451-.071-4.251,0-5.172.128-10.471.411-15.784a37.844,37.844,0,0,0-1.573-11.491,15.3,15.3,0,0,1-.879-4.562v-.949a2.437,2.437,0,0,1,2.508-1.969,3.174,3.174,0,0,1,2.182.949c1.842,3.33,2.834,10.13,2.834,20.4,0,4.35-.213,9.592-.482,15.585a36.342,36.342,0,0,0,9.11-10.811,23.292,23.292,0,0,0,2.38-5.37A4.12,4.12,0,0,1,596.779,481.793Zm38.255,31.171a6.374,6.374,0,0,1-2.38-.751,47.9,47.9,0,0,1-5.583-4.817A67.922,67.922,0,0,1,615.028,492.9a3.882,3.882,0,0,1-.737-1.218c-1.233,2.437-2.522,4.888-3.953,7.269a55.639,55.639,0,0,1-8.232,10.754c-1.219,1.091-2.451,2.111-3.67,3.06a5.979,5.979,0,0,1-2.111.468c-.878,0-1.417-.609-1.417-1.7,0-.468.411-1.02,1.233-1.629a63.924,63.924,0,0,0,8.161-9.918,125.747,125.747,0,0,0,15.373-39.247c.467-2.309.949-4.491,1.417-6.659a2.154,2.154,0,0,1,2.38-1.5,2.366,2.366,0,0,1,2.1,2.182,42.409,42.409,0,0,1-.737,5.512,145.788,145.788,0,0,1-7.212,23.8c-.34.808-.68,1.629-1.02,2.38a4.078,4.078,0,0,1,1.091.468,27.59,27.59,0,0,0,1.969,2.834,93.957,93.957,0,0,0,9.55,12.171c2.111,2.168,4.08,4.251,5.993,6.319a3.655,3.655,0,0,1,1.686,2.933,1.884,1.884,0,0,1-1.289,1.828Z" transform="translate(-223.829 -365.56)" fill="#27a2af"/>
    <path id="Path_141" data-name="Path 141" d="M643.453,484.244c2.834-6.588,4.251-11.618,4.251-15.16a66.815,66.815,0,0,0-10.2,4.619c-2.451,1.417-4.081,2.253-4.959,2.65a2.466,2.466,0,0,1-2.664-2.366,4.364,4.364,0,0,1,1.913-3,21.452,21.452,0,0,0,2.833-6.8,22.317,22.317,0,0,0,.666-5.3,2.834,2.834,0,0,1,.963-2.182,3.229,3.229,0,0,1,1.828-.808,2.947,2.947,0,0,1,3.06,2.1,26.725,26.725,0,0,1-.467,4.491,18.118,18.118,0,0,1-1.7,4.251c1.828-.822,3.741-1.5,5.667-2.182a18.807,18.807,0,0,1,4.421-.68,3.514,3.514,0,0,1,2.38.949,4.988,4.988,0,0,1,1.233,3.131c0,7.963-2.593,16.195-7.623,24.625a56.68,56.68,0,0,1-9.592,12.582,24.592,24.592,0,0,1-4.9,3.471,8.971,8.971,0,0,1-2.579.808c-1.842,0-2.834-.609-3.06-1.757a1.261,1.261,0,0,1,.538-1.091c.822-.538,1.771-1.091,2.933-1.842a40.455,40.455,0,0,0,8.841-9.38c1.02-1.629,2.04-3.2,2.99-4.761a23.681,23.681,0,0,1-2.508-1.573,30.307,30.307,0,0,1-6.475-4.817,3.894,3.894,0,0,1-.808-1.02,1.658,1.658,0,0,1-.411-1.02,2.621,2.621,0,0,1,.68-1.5,2.069,2.069,0,0,1,1.162-.878,4.665,4.665,0,0,1,1.148-.142,2.834,2.834,0,0,1,1.417.482c.411.269.822.609,1.289.949a40.561,40.561,0,0,0,4.251,3.528,26.179,26.179,0,0,1,2.451,1.913C642.787,485.675,643.127,484.924,643.453,484.244Zm25.971-21.621v10.612a4,4,0,0,0,.808.128,121.71,121.71,0,0,1,14.834,7.084,11.757,11.757,0,0,1,1.148,1.417,3.318,3.318,0,0,1,.411,1.417,2.44,2.44,0,0,1-.269.963l-.4.34a1.148,1.148,0,0,1-.879.468,4.067,4.067,0,0,1-1.913-.609,98.4,98.4,0,0,1-13.729-5.852c0,3.882,0,8.5.269,14.084s.468,10.471.468,14.48a21.466,21.466,0,0,1-2.168,10.272,3.018,3.018,0,0,1-2.593,1.629c-1.7,0-2.508-.949-2.508-2.834a19.213,19.213,0,0,0,2.508-8.43c-.071-5.993-.269-12.256-.609-18.844-.34-7.892-.538-15.585-.609-23.194,0-4.562-.071-9.394-.071-14.424a2.593,2.593,0,0,1,1.913-2.72h1.5a2.692,2.692,0,0,1,2.111,2.72c0,2.182-.071,5.979-.213,11.292Z" transform="translate(-204.066 -367.204)" fill="#27a2af"/>
    <path id="Path_142" data-name="Path 142" d="M688.934,469.9a10.329,10.329,0,0,1,5.441,1.3q3.06,2.04,3.471,8.161l.878,24.483.34,4.137c0,1.3-1.219,1.984-3.528,2.111a16.549,16.549,0,0,1-6.532-1.7c-1.417.411-3.06.893-5.1,1.417-1.02.142-1.969.213-2.834.269a2.918,2.918,0,0,1-.34.893,2.565,2.565,0,0,1-1.629.751,1.913,1.913,0,0,1-1.417-.553A4.25,4.25,0,0,1,677,509.2c-.142-2.31-.142-5.512-.142-9.592,0-4.421,0-8.5.142-11.972s.2-7.609.34-11.831V469c0-.411-.142-.822-.213-1.417a1.8,1.8,0,0,1,0-.609,1.417,1.417,0,0,1-.609.128c-1.417,0-2.111-.878-2.111-2.72a2.083,2.083,0,0,1,2.04-2.239c1.417,0,5.908-1.417,13.389-4.151,1.3,0,2.04.34,2.182.949a2.733,2.733,0,0,1,0,1.091,2.408,2.408,0,0,1-1.148,1.289,15.9,15.9,0,0,1-4.633,2.834,37.205,37.205,0,0,1-4.492,1.7,6.389,6.389,0,0,1,.581,3.075c0,.68,0,1.417,0,2.253A29.755,29.755,0,0,1,688.934,469.9Zm5.1,35.648c0-5.582,0-10.683-.128-15.3a12.177,12.177,0,0,1-1.984.68c-3.528,1.148-7.084,2.168-10.811,3.117v11.576a6.968,6.968,0,0,0,1.7-.2,42.744,42.744,0,0,0,7.084-1.7h.751a1.629,1.629,0,0,1,1.5.893c.128.326.2.68.34.949s-.071.269-.071.411a13.5,13.5,0,0,1,1.615-.425Zm-.609-26.4a4.959,4.959,0,0,0-5.511-4.761,13.887,13.887,0,0,0-3.6.822,21.016,21.016,0,0,1-2.309.949,18.443,18.443,0,0,0-.142,1.9c-.411,4.633-.609,8.161-.68,10.612v.893a106.1,106.1,0,0,0,11.335-3.06c.468-.142.878-.213,1.289-.34-.142-2.522-.241-4.831-.382-7.013ZM728.11,483.1c.142-5.044.34-11.335.751-18.773,0-2.111-.2-3.2-.538-3.2a55.736,55.736,0,0,0-6.4,2.111c-2.72.878-5.441,1.7-8.218,2.38a27.435,27.435,0,0,1-6.673.949h-.878a3.826,3.826,0,0,1-3.2-1.629,4.251,4.251,0,0,1-.751-2.834,59.668,59.668,0,0,0,4.421-12.312,2.833,2.833,0,0,1,2.38-1.02,2.394,2.394,0,0,1,1.162.482,2.3,2.3,0,0,1,.879,1.969,12.527,12.527,0,0,1-.68,2.919c-1.417,4.081-2.309,6.461-2.437,7.084a47.152,47.152,0,0,0,12.44-2.31,81.124,81.124,0,0,0,8.3-2.834,6.806,6.806,0,0,1,1.7-.34c.807,0,1.558,1.02,2.309,2.919a16.519,16.519,0,0,1,.878,5.781c0,1.969-.2,5.044-.468,9.181-.34,7.283-.482,13.545-.482,18.7,0,7.353,0,15.174.269,23.746a3.174,3.174,0,0,1-1.559,2.38,7.934,7.934,0,0,1-1.842.538,11.519,11.519,0,0,1-6.589-2.72,31.074,31.074,0,0,1-5.667-6.319,3.316,3.316,0,0,1-.609-1.842c0-.949.411-1.417,1.417-1.417a3.1,3.1,0,0,1,2.04.963c4.9,3.939,7.821,6.05,8.7,6.319-.468-5.667-.737-13.262-.737-22.925C727.983,488.94,727.983,486.29,728.11,483.1ZM719,491.944a3.84,3.84,0,0,1-1.558-.482,25.521,25.521,0,0,1-2.834-1.289,39.591,39.591,0,0,1-7.354-4.151c-.538-.411-.808-.609-.949-.751a1.928,1.928,0,0,1-.34-1.148,3.073,3.073,0,0,1,.623-1.573,2.211,2.211,0,0,1,1.247-.864,4.522,4.522,0,0,1,1.077-.142,3.229,3.229,0,0,1,1.417.609,13.428,13.428,0,0,1,1.417.68,53.141,53.141,0,0,0,4.973,2.99c1.091.623,2.04,1.233,2.834,1.771a3.67,3.67,0,0,1,1.091,2.38c0,1.091-.411,1.7-1.091,1.913Z" transform="translate(-183.437 -367.139)" fill="#27a2af"/>
    <path id="Path_143" data-name="Path 143" d="M770.84,459.815a3.144,3.144,0,0,1,.552,1.573A1.658,1.658,0,0,1,770.3,462.8c-3.613,1.02-7.694,2.111-12.312,3.273v.213c-.269,3.4-.482,6.05-.482,8.019a88.417,88.417,0,0,1,11.562-2.04,2.083,2.083,0,0,1,1.643.751,2.834,2.834,0,0,1,.538,1.559,1.842,1.842,0,0,1-1.091,1.573c-3.67,1.148-7.949,2.38-12.752,3.67l-.269,8.643c10.4-2.522,18.419-4.761,24.342-6.744a1.786,1.786,0,0,1,1.558.893,1.064,1.064,0,0,1,.213.751,3.825,3.825,0,0,1-1.091,2.309c-3.259,2.451-11.7,5.441-25.234,8.841-.128,2.451-.2,4.491-.269,6.248-.411,7.354-1.417,12.752-3.06,16.464-.411,1.629-1.289,2.522-2.649,2.522-1.02,0-1.5-.822-1.5-2.38a79,79,0,0,0,2.111-14.282l.34-7.353q-9,2.139-16.931,3.882c-2.04.411-3.542.68-4.491.808a13.7,13.7,0,0,1-2.834.283c-1.417-.071-2.182-1.091-2.38-3,0-.808.68-1.629,2.04-2.38.822-.269,1.9-.609,3.131-.949q11.122-2.139,21.621-4.69l.283-8.5c-3.4.949-7.084,1.9-10.9,2.834a2.451,2.451,0,0,1-2.508-2.182v-.822a1.912,1.912,0,0,1,1.091-1.559,96.641,96.641,0,0,1,12.313-3.939c0-2.593.128-5.242.269-8.034-4.562,1.162-9.465,2.38-14.693,3.6a2.522,2.522,0,0,1-2.65-2.168v-.822a2.267,2.267,0,0,1,1.077-1.558,136.032,136.032,0,0,1,17.682-4.9c.963-.128,1.842-.34,2.734-.538a21.08,21.08,0,0,0,5.1-7.084,9.589,9.589,0,0,0,.538-2.834v-1.289a2.3,2.3,0,0,1,2.111-1.573c1.828,0,2.834,1.091,2.919,3.2v.751c-.269,2.437-2.31,5.1-6.121,7.949a55.514,55.514,0,0,1,7.892-1.218,1.941,1.941,0,0,1,1.644.822Zm-21.621-.609a1.714,1.714,0,0,1-1.417.553,1.927,1.927,0,0,1-1.417-.411,12.511,12.511,0,0,1-1.5-.822,26.647,26.647,0,0,1-5.568-5.1.821.821,0,0,1-.071-.411,2.834,2.834,0,0,1,.539-1.488,3.018,3.018,0,0,1,1.417-1.091,3.33,3.33,0,0,1,1.289-.2,2.636,2.636,0,0,1,2.04,1.559c.949.949,1.913,1.969,2.834,3.06s1.9,2.111,2.31,2.522v.609A1.7,1.7,0,0,1,749.219,459.206Z" transform="translate(-162.238 -367.329)" fill="#27a2af"/>
    <path id="Path_144" data-name="Path 144" d="M793.093,474.2a18.87,18.87,0,0,1-1.644,3.953h.142a2.564,2.564,0,0,1,1.417.808,2.437,2.437,0,0,1,.142.751,3.444,3.444,0,0,1-.68,1.629,32.407,32.407,0,0,1-6.064,4.151,35.581,35.581,0,0,1-8.09,3.811,2.961,2.961,0,0,1-1.02.269,1.644,1.644,0,0,1-1.417-.949,3.485,3.485,0,0,1-.539-2.239,1.714,1.714,0,0,1,1.219-1.573c.283-.127.552-.2.822-.34a50.465,50.465,0,0,0-1.091-6.121c-1.162-4.151-2.111-7.623-2.919-10.329a3.16,3.16,0,0,1,2.239-2.253,6.04,6.04,0,0,1,1.29.142,3.343,3.343,0,0,1,1.573,1.488.311.311,0,0,0,.071.213,32.586,32.586,0,0,1,5.781-.553,17.642,17.642,0,0,1,6.178,1.162q3.06,1.318,3.06,3.06A12.608,12.608,0,0,1,793.093,474.2Zm-9.8,8.034c0-.071.213-.142.34-.269a23.488,23.488,0,0,0,3.471-5.1,16.563,16.563,0,0,0,1.5-3.811,5.809,5.809,0,0,0-4.151-1.3c-1.5,0-3.2.071-4.959.212.2,1.02.4,2.111.609,3.33q1.02,5.313,1.219,7.75Zm8.983,21.621a1.956,1.956,0,0,1-.482-1.148c0-1.771.68-2.834,2.111-3.06a2.664,2.664,0,0,1,1.969.878,34.414,34.414,0,0,1,5.922,7.963,5.285,5.285,0,0,1,.751,1.488,2.2,2.2,0,0,1-2.111,2.522,2.465,2.465,0,0,1-2.239-1.629,78.143,78.143,0,0,1-5.922-7.013Zm11.221-5.979a2.834,2.834,0,0,1,2.04.878c.34.34.949.893,1.771,1.7,1.091,1.289,2.38,2.649,3.882,4.151a4.692,4.692,0,0,1,.468,1.9,1.969,1.969,0,0,1-1.417,1.714,3.443,3.443,0,0,1-1.9-.553,25.148,25.148,0,0,1-5.781-5.172,3.725,3.725,0,0,1-.822-1.148,2.9,2.9,0,0,1-.411-1.417C801.381,498.895,802.132,498.144,803.492,497.875Zm21.083-28.436a1.416,1.416,0,0,1,1.233.68,5.007,5.007,0,0,0,.2.68,1.984,1.984,0,0,1-.609,1.5,29.669,29.669,0,0,1-6.73,4.761,37.608,37.608,0,0,1-3.06,8.572l1.289-.482c3.4-1.148,6.192-2.04,8.5-2.72a22.868,22.868,0,0,1,4.421-.411c2.111.142,3.4,1.771,3.868,5.044,0,.949.142,1.969.142,3.06,0,2.437-.34,7.084-.949,14.013a85.74,85.74,0,0,1-1.573,9.309,13.5,13.5,0,0,1-2.1,4.633,3.16,3.16,0,0,1-2.38,1.077,7.085,7.085,0,0,1-3.811-1.148,12.836,12.836,0,0,1-3.273-3.854,3.018,3.018,0,0,1-.4-1.417c0-.68.127-1.02.468-1.148a.978.978,0,0,1,.68-.411,1.671,1.671,0,0,1,1.02.468,10.245,10.245,0,0,1,3.542,1.913,3.072,3.072,0,0,0,1.148.68c.283,0,.553-.822.893-2.451.2-1.02.411-2.182.609-3.542.142-.878.2-1.771.34-2.65a10.075,10.075,0,0,1-3.4-1.969,14.167,14.167,0,0,1-4.081-3.939,2.168,2.168,0,0,1-.609-1.573,2.1,2.1,0,0,1,.68-1.289,2,2,0,0,1,1.219-.822h.751a2.225,2.225,0,0,1,1.162.411c.4.34.949.822,1.559,1.417a15.87,15.87,0,0,0,3.2,3.2c.127-2.04.2-4.081.34-6.192,0-1.7.128-3.613.128-5.667v-1.629c0-.553-.269-1.091-.609-1.091a13.122,13.122,0,0,0-4.151,1.233c-3.188,1.289-5.781,2.309-7.679,3.131a77.441,77.441,0,0,1-7.623,2.834,4.11,4.11,0,0,1-1.63.34,1.417,1.417,0,0,1-1.289-.737,2.337,2.337,0,0,1-.482-1.5,2.391,2.391,0,0,1,.141-1.091,1.927,1.927,0,0,1,1.162-1.289c1.077-.538,2.309-1.091,3.8-1.771a31.042,31.042,0,0,0,3.811-8.289,10.859,10.859,0,0,1-1.558.68,21.155,21.155,0,0,1-5.852,1.488,2.705,2.705,0,0,1-.751-.071c0,1.5-.142,2.72-.142,3.811a9.078,9.078,0,0,1-.609,2.933,2.409,2.409,0,0,1-2.04,1.077,1.927,1.927,0,0,1-1.828-1.629,16.039,16.039,0,0,1,0-2.168c0-1.233.2-5.667.68-13.4q.4-10.315.411-15.585v-2.834a2.21,2.21,0,0,1,1.828-2.451h1.5a1.983,1.983,0,0,1,1.417.609,6.013,6.013,0,0,0,1.162.071,18.413,18.413,0,0,0,4.477-.609,41.211,41.211,0,0,0,5.667-1.842l.751-.34a6.984,6.984,0,0,1,1.969.482c.808.538,1.219,1.02,1.219,1.488a2.833,2.833,0,0,1-.538,1.417,4.6,4.6,0,0,1-1.913,1.417,66.5,66.5,0,0,1-10.329,2.834,10.944,10.944,0,0,1-1.984.2v.6l-.34,4.7a28.908,28.908,0,0,0-.2,3.33,24.624,24.624,0,0,0,4.01-.822l3.4-1.02c-.128-.68-.269-1.289-.4-1.771a7.223,7.223,0,0,1-.553-2.38,2.834,2.834,0,0,1,2.451-2.72c.609,0,1.289.68,1.969,1.913.269.949.482,1.969.751,3.131a28.768,28.768,0,0,0,2.834-1.573h.68a1.417,1.417,0,0,1,1.219.68,5.517,5.517,0,0,1,.269.751,1.941,1.941,0,0,1-.751,1.573,15.686,15.686,0,0,1-3.8,2.579c.128,1.7.2,3.471.2,5.242a6.412,6.412,0,0,0-.142,1.077,26.435,26.435,0,0,0,4.562-2.65Zm-18.022,7.013a48.975,48.975,0,0,0,5.3-1.233A20.536,20.536,0,0,0,815.2,474c0-.34.071-.68.071-.949,0-1.771-.071-3.471-.142-5.242-.949.482-1.969.878-2.99,1.289a28.341,28.341,0,0,1-5.172,1.091h-.113C806.765,472.23,806.694,474.27,806.553,476.452Zm5.441,19.992a3.117,3.117,0,0,1,2.111.878c.269.34.878.963,1.7,1.842,1.091,1.417,2.31,2.99,3.811,4.633a4.593,4.593,0,0,1,.468,1.828,1.7,1.7,0,0,1-1.289,1.629,2.664,2.664,0,0,1-1.828-.609c-1.233-.538-3.131-2.309-5.852-5.568a2.466,2.466,0,0,1-.949-1.162,2.734,2.734,0,0,1-.34-1.417c.057-1.034.807-1.714,2.168-2.054Z" transform="translate(-142.183 -367.02)" fill="#27a2af"/>
    <path id="Path_145" data-name="Path 145" d="M855.025,476.292a24.5,24.5,0,0,1-11.151,4.69,38.013,38.013,0,0,1,1.488,8.714c0,2.04-.949,2.99-2.72,2.99s-2.451-.893-2.579-2.834a45.967,45.967,0,0,0-1.969-8.572,10.389,10.389,0,0,1-.623-2.31c0-1.559,1.02-2.522,3.131-2.834A22.994,22.994,0,0,0,850,473.217c3.06-1.771,4.619-4.024,4.619-6.6,0-3.471-2.834-5.242-8.359-5.242-.283,0-2.111.34-5.384.893a9.924,9.924,0,0,1-1.9.34,2.565,2.565,0,0,1-2.182-.949,2.834,2.834,0,0,1-.878-2.253,3.046,3.046,0,0,1,1.289-2.31A4.123,4.123,0,0,1,839.723,456s.68.213,1.828.553a24.382,24.382,0,0,1,5.441-.751,14.934,14.934,0,0,1,9.252,2.72,9.677,9.677,0,0,1,3.882,8.161C860.126,470.44,858.426,473.571,855.025,476.292Zm-9.45,28.833a4.761,4.761,0,0,1-3.542,1.233,2.564,2.564,0,0,1-2.04-1.091,4.038,4.038,0,0,1-.878-2.649,4.52,4.52,0,0,1,1.02-2.99,3.2,3.2,0,0,1,2.649-1.417,4.973,4.973,0,0,1,2.834.878,3.3,3.3,0,0,1,1.219,2.649,4.7,4.7,0,0,1-1.261,3.386Z" transform="translate(-116.115 -364.211)" fill="#27a2af"/>
  </g>
</svg>
