<svg id="圖層_1" data-name="圖層 1" xmlns="http://www.w3.org/2000/svg" viewBox="0 0 525.12 107.52"><defs><style>.cls-1{fill:#27a2af;}</style></defs><title>another</title><path class="cls-1" d="M343.48,396.34a24,24,0,0,1-1.39,3c-.82,1.49-1.88,3.22-3.22,5.24.1,1.44.14,3.45.19,6.05a122.26,122.26,0,0,1-1.49,19.2c-.38,2.49-.76,4.8-1.24,6.91-.2.86-.68,1.34-1.44,1.34s-1.3-.52-1.3-1.58A71,71,0,0,1,335,425.72a65.2,65.2,0,0,0,.91-11v-5.85c-.76,1.1-1.53,2.25-2.3,3.4-1,1.4-2,3-3.17,4.95a1.88,1.88,0,0,1-1.29.77,1.08,1.08,0,0,1-1.25-1.11,2.08,2.08,0,0,1,.43-1.25q.79-1.44,2.16-3.6c1.06-1.92,2.45-4.32,4.13-7.24,1.34-2.31,2.78-4.81,4.32-7.45l1.39-2.78a7.23,7.23,0,0,0,.62-1.39,6,6,0,0,1,1.88-.24,1.48,1.48,0,0,1,1.24,1.49A3.85,3.85,0,0,1,343.48,396.34Zm.67,36.53a.84.84,0,0,1-1-1,3.58,3.58,0,0,1,.29-.91c.33-1.44.67-3,1-4.56a36.23,36.23,0,0,0,.76-5.57,14.89,14.89,0,0,0-.09-1.49,10,10,0,0,1-.29-1.68c0-.82.48-1.25,1.54-1.34H347a1.62,1.62,0,0,1,1.3,1,11.86,11.86,0,0,1,.29,3,28.36,28.36,0,0,1-.92,6.72,39.79,39.79,0,0,1-1.53,4.85A2.33,2.33,0,0,1,344.15,432.87Zm3.94-.53a1.31,1.31,0,0,1,1.05-.57,1.57,1.57,0,0,1,1,.48,13.79,13.79,0,0,0,2.07,3.74c.67.77,1.24,1.2,1.82,1.2,1.2,0,1.82-4.66,1.82-14V421c0-2.88-.14-5-.28-6.53s-.24-3.07-.39-4.46a8.68,8.68,0,0,1-.14-1.39,1.69,1.69,0,0,1,.33-1,1.78,1.78,0,0,1,1.11-.62,1.89,1.89,0,0,1,2,1.39,1.41,1.41,0,0,0,.09.48,2,2,0,0,0,.34-.29,20.6,20.6,0,0,0,6.05-8.31,61.86,61.86,0,0,1-9.7,5.57,12,12,0,0,1-4.18,1.16c-2.35,0-3.5-1.3-3.5-3.94a17.41,17.41,0,0,1,1.34-5.38,23,23,0,0,1,2.16-4.85,1.5,1.5,0,0,1,1.35-1c.19,0,.38,0,.57,0a2.78,2.78,0,0,1,1,.63,2.65,2.65,0,0,1,.19,1.05,38.17,38.17,0,0,1-1.53,4.71,22.19,22.19,0,0,0-1.59,4.94c.05.29.29.39.67.39.77,0,2.5-.77,5.24-2.31,1.53-.77,3.26-1.82,5.28-3.07a11.37,11.37,0,0,1,3.55-1.34h.86a1.82,1.82,0,0,1,1.59,2,8,8,0,0,1-.53,2.65,16.28,16.28,0,0,1-2.21,4.36,20.33,20.33,0,0,1-5.42,5.09,8,8,0,0,1-1.15.63c.09.86.14,1.82.24,2.88,0,1.63.09,3.16.14,4.7v2.93c0,4.66-.1,7.87-.19,9.65a19,19,0,0,1-2.07,7.29,3.43,3.43,0,0,1-2.68,1.68c-1.54,0-3.12-1.1-4.76-3.31a11.61,11.61,0,0,1-1.63-2.83,1.64,1.64,0,0,1-.38-1A1.74,1.74,0,0,1,348.09,432.34Zm22.75-.62a1.18,1.18,0,0,1-.86.29,1.89,1.89,0,0,1-.87-.2,9.51,9.51,0,0,1-1.2-1.82,46.41,46.41,0,0,1-4.32-11,3,3,0,0,1-.09-.92,1.81,1.81,0,0,1,.33-.91,2.41,2.41,0,0,1,.82-.62,3.2,3.2,0,0,1,.77-.1,1.81,1.81,0,0,1,1.24.91c.77,2.31,1.59,4.71,2.45,7.16,1.06,2.88,1.73,4.89,2.07,6.05V431A1.39,1.39,0,0,1,370.84,431.72Z" transform="translate(-327.88 -391.15)"/><path class="cls-1" d="M408.86,413.38a70.41,70.41,0,0,1-7.44,2,99.53,99.53,0,0,1-10.09,1.68,2.15,2.15,0,0,1-.76.28,1.11,1.11,0,0,1-1-.62c-.1-.1-.2-.19-.2-.29a3.5,3.5,0,0,1-1.58-1.77,22.14,22.14,0,0,1-2.69-6.05,15.62,15.62,0,0,1-1-4.95c0-1.82.63-2.73,1.87-2.78,1.4,0,2.12.62,2.12,1.82.14,1.63.38,3.32.67,4.95a20.36,20.36,0,0,0,2.21,5.85.33.33,0,0,0,.09.24c1.63-.19,3-.43,4.27-.67.44,0,.92-.09,1.4-.19a1.08,1.08,0,0,1,.24-.62,15.12,15.12,0,0,0,1.05-4.71c0-.91,0-1.87,0-2.83a19.65,19.65,0,0,0-.19-2.26c-2.21.48-4.51,1.06-6.91,1.83-1.16,0-1.68-.58-1.68-1.73a1.75,1.75,0,0,1,.91-1.49,32.35,32.35,0,0,1,3.74-1.3l0-.09a20.84,20.84,0,0,1-2.83-5.09,1.27,1.27,0,0,1-.05-.43,1.79,1.79,0,0,1,.44-1.06,2.3,2.3,0,0,1,1-.77,2.9,2.9,0,0,1,.91-.14,2.15,2.15,0,0,1,1.54,1.1c.33,1.06.71,2.12,1.1,3.22.43,1.25.72,2.11.86,2.59H397c.86-.14,1.78-.29,2.69-.38a18,18,0,0,0,1.58-1.83,12.05,12.05,0,0,0,2.26-5,2.68,2.68,0,0,1,2-.72c1,.05,1.53.68,1.63,1.92-.1,1.44-1,3.12-2.64,5-.14.1-.24.2-.29.24.63,0,1.25,0,1.83,0a15.78,15.78,0,0,1,5.52.81,6,6,0,0,1,2.68,1.83,3.35,3.35,0,0,1,.68,2.06,9,9,0,0,1-1.16,3.75,19.72,19.72,0,0,1-4.08,5.8.54.54,0,0,1-.38.2A2.94,2.94,0,0,1,408.86,413.38Zm-13.06-2.3a1.13,1.13,0,0,1-.82.28,1.39,1.39,0,0,1-.86-.19,2.34,2.34,0,0,1-.82-.48,10.28,10.28,0,0,1-3-2.69s0-.09,0-.19a2.17,2.17,0,0,1,.38-1.1,2.06,2.06,0,0,1,1.06-.72,2.18,2.18,0,0,1,.82-.15A2.13,2.13,0,0,1,394,407c.39.57.77,1.1,1.15,1.58.48.72.77,1.2,1,1.44v.39A1.26,1.26,0,0,1,395.8,411.08Zm-.67,27.6-.05.09a2.21,2.21,0,0,1-1.87,1.68c-1.2-.09-1.83-1.1-1.88-3a54.51,54.51,0,0,0,1-10.32c0-1.78-.09-3.84-.24-6.15a2.4,2.4,0,0,1,1.73-2.16h.67a2,2,0,0,1,.92.53,27,27,0,0,1,7.2-1.68,5.7,5.7,0,0,1,3.31.91c1.15.77,1.87,2.55,2.11,5.28l.63,12.34.24,2.07c0,1.2-1,1.82-2.88,1.92a9.07,9.07,0,0,1-3.51-.87C400.17,439.06,397.72,438.87,395.13,438.68Zm.43-3.6a36.6,36.6,0,0,1,8.78,1.1,1.15,1.15,0,0,1,.34-.09c0-2.79-.05-5.19-.1-7.4-2.06.77-3.93,1.4-5.66,1.88a14.63,14.63,0,0,1-3.22.76C395.65,432.77,395.61,434,395.56,435.08Zm8.74-11.33c-.2-1.78-1-2.69-2.45-2.69a13,13,0,0,0-3.41.82c-.87.33-1.68.67-2.5,1.05-.09,1.88-.14,3.65-.19,5.28a3.07,3.07,0,0,0,.62-.19,82.54,82.54,0,0,1,8.07-2.21A16.41,16.41,0,0,1,404.3,423.75Zm-2.69-21.7a15.85,15.85,0,0,1,.24,2.79c-.05,1-.15,1.87-.24,2.64.48-.29.91-.63,1.39-1a5.35,5.35,0,0,0,1.82-2.45,2.31,2.31,0,0,1,1.68-.63c.82.05,1.25.58,1.35,1.59a5.54,5.54,0,0,1-1.83,2.88,10.06,10.06,0,0,1-3.07,1.92,4.17,4.17,0,0,1-1.77.48H401c-.24.77-.48,1.44-.67,2,1.54-.29,3-.53,4.32-.82.87-.24,1.59-.43,2.07-.53a.68.68,0,0,1,.28-.43,21.28,21.28,0,0,0,2.93-4.37,6.93,6.93,0,0,0,.87-2.3c0-1.54-1.54-2.31-4.56-2.31a38.44,38.44,0,0,0-4.66.34C401.56,402,401.61,402,401.61,402.05Z" transform="translate(-327.88 -391.15)"/><path class="cls-1" d="M428.92,425.81a1.92,1.92,0,0,1,1.34.63c.29.43.72,1.1,1.3,2,.91,1.54,1.92,3.17,3,5.09a2.42,2.42,0,0,1,.39,1.25,1.39,1.39,0,0,1-1,1.15,2.25,2.25,0,0,1-1.25-.38c-.86-.67-2.35-2.74-4.42-6.1a7.27,7.27,0,0,1-.67-1.34,1.74,1.74,0,0,1-.29-.91C427.38,426.48,427.91,426,428.92,425.81Zm4-18.53c2.69-2.06,4.8-3.12,6.43-3.12.39.1.63.48.72,1.06,0,2.26-2.11,6.1-6.29,11.52,1.73-.86,3.75-1.92,6.15-3.26a4.85,4.85,0,0,1,1.73-.72,1.35,1.35,0,0,1,1.53,1.39,7.64,7.64,0,0,1-1.49,4.17,8.92,8.92,0,0,1-2.16,2.55,1.61,1.61,0,0,1-1.1.38c-.43,0-.67-.24-.67-.72a1.48,1.48,0,0,1,.33-.86c.72-1.49,1.3-2.79,1.68-3.84-4.22,3.65-7.29,5.57-9.26,5.76-.86,0-1.3-.48-1.3-1.3a4,4,0,0,1,.77-2q2.75-4.89,6.48-10.94c-2.49,2.5-4.94,3.94-7.25,4.32-.77-.1-1.2-.67-1.2-1.73,3.31-5.37,5.28-9.94,5.86-13.73A2.13,2.13,0,0,1,436,395a1.44,1.44,0,0,1,1.2,1.4C436.89,399,435.45,402.67,433,407.28Zm.91,16.32a1.93,1.93,0,0,1,1.39.58c.2.34.48.86,1,1.63.68,1.3,1.44,2.69,2.26,4.18a2.09,2.09,0,0,1,.29,1.06,1.14,1.14,0,0,1-.82,1,2,2,0,0,1-1.1-.33c-.72-.48-1.92-2.11-3.6-4.8a3.52,3.52,0,0,1-.53-1,1.51,1.51,0,0,1-.24-.87C432.52,424.32,433,423.84,433.86,423.6Zm10,5.14c-.14.29-.28.43-.43.48a1.26,1.26,0,0,1-.77.19,4.63,4.63,0,0,1-2.54-1.58,9.57,9.57,0,0,1-2.3-2.79,1.62,1.62,0,0,1-.34-1.05,1.19,1.19,0,0,1,.38-.82,1.58,1.58,0,0,1,.77-.53c.1,0,.29,0,.53,0a1.15,1.15,0,0,1,.72.28,6.73,6.73,0,0,0,.86,1,10.19,10.19,0,0,0,3,3.46.76.76,0,0,1,.43.77A1.42,1.42,0,0,1,443.89,428.74Zm14.55,1.73a11,11,0,0,1-.77,2.06c.87-.09,1.73-.19,2.5-.19,2.69-.19,5.28-.33,7.87-.53.48-.09,1-.14,1.58-.19.82,0,1.35.29,1.54.91a3.19,3.19,0,0,1-1.68,2.93c-.38.05-2.16.15-5.33.24-1.82,0-3.89.05-6.09.19a38.38,38.38,0,0,0-6.73,1.16q-1.44.29-5.47,1.44a5.45,5.45,0,0,1-1.25.19,1.8,1.8,0,0,1-.52-3.51,43.64,43.64,0,0,1,9.36-2.2,4.93,4.93,0,0,1,.86-.1,1.26,1.26,0,0,1,.19-.48c.29-.82.58-1.63.82-2.5a9.8,9.8,0,0,0,.24-2,12.79,12.79,0,0,0-.53-4,1.21,1.21,0,0,1-.14-.43c-.67.05-1.3.09-1.92.09h-3.41c-1.73,0-2.59-.67-2.59-2s.76-1.92,2.3-2.16c.05.38.43.62,1.2.62h2.93a25.69,25.69,0,0,0,10.9-2.93,4.35,4.35,0,0,1,.86-.24,1.59,1.59,0,0,1,1.06,1.73,1.79,1.79,0,0,1-1,1.49,16.84,16.84,0,0,1-5.67,2.69,8.8,8.8,0,0,1-1,.19,18.47,18.47,0,0,1,.43,4.18A13.35,13.35,0,0,1,458.44,430.47Zm-9.89-15.7a28.87,28.87,0,0,0-4.27-3.21,1.25,1.25,0,0,1-.63-1.11,4.12,4.12,0,0,1,.72-2.06l1.3-2.11a47.23,47.23,0,0,0,2.16-5,1.29,1.29,0,0,1,1.2-.72,4.87,4.87,0,0,1,.72.1,1.85,1.85,0,0,1,.67.53,1,1,0,0,1,.29.72c0,1.49-1.06,4.18-3.07,8,.67.48,1.44,1,2.3,1.58a15.76,15.76,0,0,1,2.59,2.35,3.63,3.63,0,0,1,.39,1.44,1.79,1.79,0,0,1-.29,1,1.42,1.42,0,0,1-1.15.72,1.46,1.46,0,0,1-1.25-.67C449.8,415.88,449.22,415.35,448.55,414.77Zm8.88-17.42a41.63,41.63,0,0,1-6.1,1.58,12.68,12.68,0,0,1-2.59.29H448a1.45,1.45,0,0,1-1.39-1.63v-.82a2.74,2.74,0,0,1,1.59-1.63,4.76,4.76,0,0,0,1.2.09,20.36,20.36,0,0,0,5.32-.76,45.77,45.77,0,0,0,6.68-2l.91-.34a3.57,3.57,0,0,1,1.25.29c.53.39.81.67.81,1a2.47,2.47,0,0,1-.33,1,4.25,4.25,0,0,1-1.25,1A48.65,48.65,0,0,1,457.43,397.35Zm0,2.54a2.65,2.65,0,0,1,.77.72c0,.14.05.34.05.58a12.48,12.48,0,0,1-1.73,5,.93.93,0,0,0-.24.58,2.44,2.44,0,0,0,.48,1.2,11.89,11.89,0,0,0,3.07,2.83,1,1,0,0,1,.34.77,2.26,2.26,0,0,1-.39.86,1.58,1.58,0,0,1-.72.53,1.49,1.49,0,0,1-.67.09,2.65,2.65,0,0,1-1.05-.28,7.19,7.19,0,0,1-2.65-2.21A9.64,9.64,0,0,1,453,407a5,5,0,0,1-.15-1.24,1.88,1.88,0,0,1,.29-.82,11.55,11.55,0,0,1,.72-1.15,20.07,20.07,0,0,1,1-2.07,7.16,7.16,0,0,1,.77-1.53,1.37,1.37,0,0,1,1.1-.44A3.57,3.57,0,0,1,457.43,399.89Zm9.89,10.9a3.13,3.13,0,0,1-.91.09,3.3,3.3,0,0,1-1.15-.28,9.5,9.5,0,0,1-3.32-2.21,3.27,3.27,0,0,1-.76-2.26,2.59,2.59,0,0,1,.38-1.34l1.44-2.16c.34-.53.72-1.2,1.2-2a1.27,1.27,0,0,1,1.3-.67,4.34,4.34,0,0,1,.76.09,1.62,1.62,0,0,1,.87,1.2,9.52,9.52,0,0,1-1.54,3.89,5.4,5.4,0,0,1-.57,1,9.62,9.62,0,0,0,2.92,2.31,1.14,1.14,0,0,1,.39.91A1.55,1.55,0,0,1,467.32,410.79Z" transform="translate(-327.88 -391.15)"/><path class="cls-1" d="M511.82,395.09c-1.68,1.58-6.05,3.41-13.16,5.52-1.05.34-2.06.62-3,.87-1.15,2.68-2.74,5.85-4.71,9.55-1.53,2.83-3,5.42-4.36,7.77-.92,1.64-1.83,3.17-2.79,4.71a21.74,21.74,0,0,1-2.49,3.26,2.28,2.28,0,0,1-1.44.58.91.91,0,0,1-.63-.91,3.58,3.58,0,0,1,.29-1.2,8.36,8.36,0,0,1,1.25-2.74,48.3,48.3,0,0,1,3.21-6q2.88-5,5.76-10.66c.53-1,1-2.06,1.49-3.12-1.29.39-2.49.72-3.65,1a12.73,12.73,0,0,1-2.25.39,10,10,0,0,1-1.92.19c-.87-.05-1.39-.72-1.59-2,0-.53.44-1.06,1.4-1.54.57-.19,1.24-.38,2.11-.67,2.64-.53,5.23-1.15,7.73-1.82.76-2.11,1.34-4,1.82-5.81a1.61,1.61,0,0,1,1.44-1.06h.58c.76.2,1.15.82,1.15,1.83a15.48,15.48,0,0,1-.86,4,2.94,2.94,0,0,0,.62-.19,134,134,0,0,0,13.63-4.22,1.08,1.08,0,0,1,1,.43,1.36,1.36,0,0,1,.1.48A2.11,2.11,0,0,1,511.82,395.09Zm-15,32.16c.67-.28,1.25-.57,1.77-.81a31.94,31.94,0,0,0,4.13-2.31,13.43,13.43,0,0,1,1.3-.86,1.82,1.82,0,0,1,.67-.15,1.3,1.3,0,0,1,1,.48,3.61,3.61,0,0,1,.1.68,2.91,2.91,0,0,1-.53,1.34,20.86,20.86,0,0,1-3.41,2.55,20.54,20.54,0,0,1-4.56,2.3,1.49,1.49,0,0,1-.67.19c-.1,0-.2,0-.2-.05-.19,2.12-.33,3.89-.38,5.28a6.8,6.8,0,0,1-.43,2.12,2,2,0,0,1-1.44.76,1.47,1.47,0,0,1-1.3-1.2,10.39,10.39,0,0,1,0-1.44c0-1.24.44-5.42,1.3-12.62.67-6.34,1.06-11.14,1.1-14.35v-2.69a1.67,1.67,0,0,1,1.2-1.73h1.11a1.34,1.34,0,0,1,.81.34,23.8,23.8,0,0,1,4.23-1.35,19.51,19.51,0,0,1,3.31-.57c2.79,0,4.27,1.19,4.56,3.6-.09,3.07-.14,6.57-.14,10.6s.24,8.69.72,14.17c.19,2.2.48,4.6.77,7.15,0,1.49-.58,2.25-1.73,2.3a7.56,7.56,0,0,1-2.93-.77,8.67,8.67,0,0,1-4-3.4,2.46,2.46,0,0,1-.34-1.06,1.12,1.12,0,0,1,1-1.15c.77,0,2.26.67,4.37,2a163.44,163.44,0,0,1-1.15-19.2v-1.05c-.2.09-.39.24-.58.33-2,1-3.74,1.73-5.38,2.4a13.11,13.11,0,0,1-3.5,1C497.27,422.36,497,424.76,496.84,427.25Zm10.37-19.87a1.2,1.2,0,0,0-1.3-1.06,19.44,19.44,0,0,0-7.06,2c-.09.58-.14,1.2-.19,1.78l-.48,4.46c-.09.87-.19,1.68-.28,2.5a6.15,6.15,0,0,1,.76-.29c4.8-2.16,7.59-3.26,8.31-3.26h.09C507.06,411.46,507.11,409.44,507.21,407.38Z" transform="translate(-327.88 -391.15)"/><path class="cls-1" d="M541.1,420.87c-.1,1.44-.58,2.11-1.49,2.11a7.43,7.43,0,0,1-5.48-2.16,1.35,1.35,0,0,1-.48-.67c0-1,.39-1.44,1.2-1.54,1.06.1,2.26.19,3.51.34,0-1.44-.05-3-.05-4.66,0-2.3,0-4.61-.14-6.81a11.79,11.79,0,0,0-.63,1.15,24.57,24.57,0,0,1-2.83,4.51,28.42,28.42,0,0,1-3.07,3.5,1.28,1.28,0,0,1-.72.39,2.57,2.57,0,0,1-.72.14c-.48,0-.77-.29-.82-.86a1.62,1.62,0,0,1,.58-1.15,38.86,38.86,0,0,0,3.69-4.9,27.52,27.52,0,0,0,2.5-5c.43-1.1.82-2.21,1.15-3.31-1,.33-1.92.62-2.73.86a4.27,4.27,0,0,1-1.06.34,17,17,0,0,1-1.87.14c-.91,0-1.44-.67-1.59-2,0-.57.44-1.1,1.4-1.58.52-.19,1.2-.39,2.06-.67a34.81,34.81,0,0,0,3.79-.92,21.51,21.51,0,0,0-.57-2.44,3.15,3.15,0,0,1-.24-1.2,1.69,1.69,0,0,1,1.92-1.59,2.2,2.2,0,0,1,1.77,1.59c.19.57.39,1.2.53,1.77a4.17,4.17,0,0,0,.1.87c2.11-.63,3.79-1.2,5-1.68a1.05,1.05,0,0,1,1,.48,1.07,1.07,0,0,1,.09.43,2,2,0,0,1-.62,1.34c-.77.87-2.5,1.83-5.23,2.88.05.92.09,1.88.19,2.88a46.54,46.54,0,0,1,5,8,8.39,8.39,0,0,1,1,2.93c0,.77-.34,1.15-1,1.15a1.47,1.47,0,0,1-1.06-.62c-.48-.68-1.15-1.73-2-3.12l-2-3.17Q541.24,417.84,541.1,420.87Zm-3.94,17a1.78,1.78,0,0,1-1,.39,1.4,1.4,0,0,1-1.11-.63,9.24,9.24,0,0,1-.62-.86,8.88,8.88,0,0,1-.67-3c-.1-.86-.15-1.58-.24-2.16-.19-1.15-.34-2.25-.48-3.31a12.42,12.42,0,0,1-.39-2.4q0-1.31,1.59-1.44h.81c.48,0,.87.34,1.25,1,.1.48.15,1.25.24,2.3.19,1.83.39,3.41.58,4.75s.33,2.55.53,3.6C537.69,437.05,537.49,437.62,537.16,437.86Zm23.18-10.51a.72.72,0,0,1-.24.1,12,12,0,0,1,2.84,2.06,3.82,3.82,0,0,1,.91,2.16,5.25,5.25,0,0,1-2.45,4.46,11.71,11.71,0,0,1-5.52,1.44,12.67,12.67,0,0,1-6.67-2.16,14.87,14.87,0,0,1-4.9-5.66,2.25,2.25,0,0,1-.38-1.15,1.29,1.29,0,0,1,.33-1,1.9,1.9,0,0,1,1.44-.87,1.86,1.86,0,0,1,1.49.72c2.4,3.89,5.33,6,8.79,6.29,3,0,4.51-.91,4.65-2.73a2.76,2.76,0,0,0-1.2-2c-.48-.29-.91-.53-1.34-.77a1.05,1.05,0,0,1-.53.14,5.63,5.63,0,0,1-1.92.48c-.77,0-1.3-.52-1.54-1.58l0-.72a1.42,1.42,0,0,1,.86-1.34,17.42,17.42,0,0,0,2.45-.77A30.64,30.64,0,0,0,563,422l2.31-1.39a2.6,2.6,0,0,1,1-.24,1.17,1.17,0,0,1,1.1,1.2,2,2,0,0,1-.29,1.15C566.25,423.94,564,425.48,560.34,427.35Zm-9.79-11c-.09-1-.09-2.25-.09-4,0-2.16,0-4.13.09-5.9s.1-3.65.24-5.77c0-1,.05-2.06.05-3.26-.05-.34-.1-.67-.19-1.06a3.45,3.45,0,0,1,0-.76c0-.29.19-.53.53-.82a2.16,2.16,0,0,1,1.39-.62A1.73,1.73,0,0,1,554,395a30.9,30.9,0,0,1,4.56-.43h.77a2.75,2.75,0,0,1,2,1.34,16.25,16.25,0,0,1,.81,3.36c.1,1.16.2,2.55.29,4.28.19,3.36.34,7.2.53,11.47a2.72,2.72,0,0,1-.62,1.68,2.2,2.2,0,0,1-1.69.82,1.09,1.09,0,0,1-1.05-.48,28.62,28.62,0,0,1-4.51,2.16,15.27,15.27,0,0,1-2.84.62,2,2,0,0,1-1.92-1.87,1.1,1.1,0,0,1,.39-1A1.73,1.73,0,0,1,550.55,416.4Zm3-3.88c0,1.24.05,2.54.09,3.79l.58-.15a20.8,20.8,0,0,0,5.09-2.11V414c0-1.25,0-2.55,0-3.89a4.42,4.42,0,0,1-1.06.48,14.61,14.61,0,0,1-3.84,1.34,1.8,1.8,0,0,1-.81.24Zm.09-5.43c0,.34,0,1.06,0,2.21.67-.14,1.15-.24,1.48-.34,1.06-.24,2.31-.57,3.8-1a1.36,1.36,0,0,0,.38-.09c0-1.63,0-3.07,0-4.23-1.15.48-2.49,1.06-4,1.68l-1.44.58C553.67,406.42,553.62,406.8,553.62,407.09Zm5.09-8.4c-.19-.67-.53-1-1-1a20.61,20.61,0,0,0-3.21.29c0,.91-.2,2.21-.44,3.94a7.12,7.12,0,0,0-.14,1.29c1.1-.48,2.64-1,4.56-1.63l.58-.14A14.08,14.08,0,0,0,558.71,398.69Z" transform="translate(-327.88 -391.15)"/><path class="cls-1" d="M586.41,432.68a77.08,77.08,0,0,0,12.19,3.26,51.8,51.8,0,0,0,5.47.67c1.63.15,3.07.24,4.37.24,1.06,0,2.26,0,3.5-.14,1-.1,2.12-.24,3.32-.38a13.61,13.61,0,0,1,2-.2c.82,0,1.25.2,1.35.68a2,2,0,0,1-.34.91,2.47,2.47,0,0,1-.91.77A40.6,40.6,0,0,1,605.66,440c-6.92,0-14.84-1.68-23.77-4.94a32.2,32.2,0,0,1-4.22-1.92c-.82-.48-1.49-.91-2.07-1.3a1.87,1.87,0,0,1-.28-1.1,2.1,2.1,0,0,1,.72-1.54,1.45,1.45,0,0,1,1.1-.43,2.34,2.34,0,0,1,1,.29c.58.29,1.34.62,2.21,1a8.38,8.38,0,0,0,1.39-4.56,3.85,3.85,0,0,0-.91-2.07,3.07,3.07,0,0,1-.87-1.92,5.64,5.64,0,0,1,1.68-3.36,2.69,2.69,0,0,0,.63-1.15,5.64,5.64,0,0,0-.82-1.92,17.42,17.42,0,0,1-1.73-1.87c0-1,.68-1.49,1.88-1.49a2.45,2.45,0,0,1,1.29.67,4.7,4.7,0,0,1,2.55,4c0,1.2-.72,2.88-2.12,5a8,8,0,0,1-.24,9.89C584.2,431.77,585.3,432.25,586.41,432.68Zm.33-24.44a3,3,0,0,1-2-1,16.15,16.15,0,0,0-5.38-2.3,2.25,2.25,0,0,1-1-.34,3.59,3.59,0,0,1-.14-1.1,3.51,3.51,0,0,1,0-.67c.19-.72.86-1.11,1.92-1.16a9.45,9.45,0,0,1,3.69.87,13,13,0,0,1,3.75,2.54,3.59,3.59,0,0,1,.33,1.4C587.85,407.67,587.46,408.24,586.74,408.24Zm6.63,6.68c0,.48-.15,2.06-.29,4.75-.1,1.44-.1,2.73-.1,3.84s0,2.26.19,3.7a12.58,12.58,0,0,0,.58,2.64v.43a1.19,1.19,0,0,1-1.3,1.29c-.48,0-.91-.33-1.24-1.05-1.16-2-1.78-5.23-1.78-9.56,0-1.15.1-3,.38-5.71.05-.67.1-1.34.1-2.06a2.16,2.16,0,0,1,.53-1.35,2.7,2.7,0,0,1,1.1-.57h.39a1.82,1.82,0,0,1,1.53,1.58C593.41,413.72,593.37,414.44,593.37,414.92Zm9.45-5.67a12.73,12.73,0,0,1-.14-1.92c0-.67-.1-1.39-.1-2.06,0-.39-.09-.77-.14-1.06a4,4,0,0,1-.14-.53,2.73,2.73,0,0,1-.68.1h-.33a.93.93,0,0,1-.63-.48,1.27,1.27,0,0,1,.44-1.87,49.17,49.17,0,0,1,5.32-1.35,8.14,8.14,0,0,1,1.35-.14,1.31,1.31,0,0,1,.81.48,1.94,1.94,0,0,1,.34.81c0,.39-.29.68-.82.92-.81.24-1.87.52-3.12.86a.22.22,0,0,0,0,.15,7.85,7.85,0,0,1,.19,1.24c0,.58,0,1.2,0,1.78,0,1.15,0,2.06,0,2.69,2.4-.34,4.9-.63,7.44-.82,1,0,2-.05,2.88-.05,1.44.24,2.21,1.59,2.21,4,0,.77-.14,2.25-.33,4.41-.1,1.06-.15,2.36-.15,3.8,0,1.77,0,3.74.05,5.95,0,2.83.1,4.75.19,5.71s-.62,1.35-1.82,1.39a6,6,0,0,1-5-2.73,2.28,2.28,0,0,1-.24-1.06c.1-.24.24-.38.44-.38.76.14,1.77.33,3.07.62,0-.67,0-1.53.09-2.59,0-1.49,0-3.6.1-6.29,0-2.88.1-5.62.29-8.3,0-1-.19-1.44-.48-1.49a70.24,70.24,0,0,0-18,3.07c-.77-.1-1.2-.62-1.25-1.68,0-.62.38-1.15,1.25-1.54.1,0,.14,0,.24-.09a33,33,0,0,0-.77-5.76c-.72-3.36-1.34-6.15-1.82-8.36a2.18,2.18,0,0,1,.57-1.15,1.3,1.3,0,0,1,1.11-.57,4.87,4.87,0,0,1,1,.09,2.69,2.69,0,0,1,1,.87,24.47,24.47,0,0,1,4-1.54,26.63,26.63,0,0,1,6.19-.77,10.13,10.13,0,0,1,4.13.72,5.19,5.19,0,0,1,2,1.73,3.39,3.39,0,0,1,.53,1.87,8.92,8.92,0,0,1-.86,3.31,17.67,17.67,0,0,1-3,5,2.66,2.66,0,0,1-1.34.43c-.77,0-1.15-.39-1.15-1.2a1.31,1.31,0,0,1,.43-.91,25.33,25.33,0,0,0,1.73-3.85,6.86,6.86,0,0,0,.57-2.06q0-2.16-2.88-2.16a24.32,24.32,0,0,0-9.69,2.4c.09,1.06.24,2.26.43,3.65.48,3.7.77,6.14.77,7.39C600.28,409.78,601.48,409.54,602.82,409.25Zm7,14a18.58,18.58,0,0,1-3.65,2.25,21.26,21.26,0,0,1-4.37,1.78,1.42,1.42,0,0,1-1.43,1.11,1.21,1.21,0,0,1-1.35-1.3,31.09,31.09,0,0,0-.62-3.7c-.58-2.11-1.06-3.89-1.44-5.28a2.09,2.09,0,0,1,.57-1.1,1.25,1.25,0,0,1,1-.58,4.71,4.71,0,0,1,1,.1c.14.09.24.19.34.24.57-.15,1.15-.29,1.73-.39a22.66,22.66,0,0,1,3.64-.28,7,7,0,0,1,3.17.72,3.42,3.42,0,0,1,1.63,1.58,5.69,5.69,0,0,1,.34,1.87,4.73,4.73,0,0,1-.29,1.15q.07.15.15.15a2.82,2.82,0,0,1,.09.57A2.07,2.07,0,0,1,609.83,423.27Zm-5.18,0a7.21,7.21,0,0,0,2.06-2.26,3.68,3.68,0,0,0,.34-1.05c0-.63-.48-1-1.35-1a20.9,20.9,0,0,0-4.65.62c.09.62.19,1.3.33,2,.2,1.15.34,2.11.43,2.78.39-.14.77-.29,1.06-.43.58-.24,1.15-.48,1.73-.67Z" transform="translate(-327.88 -391.15)"/><path class="cls-1" d="M338.92,465.89a22.5,22.5,0,0,1,1.63,5.47v.58a1.26,1.26,0,0,1-.62.82,1,1,0,0,1-.68.28,1.58,1.58,0,0,1-1.2-.62c-1.53-3.17-3.36-7.15-5.47-12.05a1.68,1.68,0,0,1-.14-.72,1.49,1.49,0,0,1,.19-.67,2,2,0,0,1,1.87-1.11,2.82,2.82,0,0,1,1.15.44c.39.67.77,1.39,1.16,2.16l.09.19a31.09,31.09,0,0,1,3-1.15c1.05-.29,2.16-.58,3.21-.82-.24-.58-.43-1.06-.62-1.54a1.63,1.63,0,0,1,.48-1,1.39,1.39,0,0,1,1.1-.63,3.51,3.51,0,0,1,.87.1,1.8,1.8,0,0,1,1,1c.15.28.29.67.48,1.15q3.75-.87,7.2-1.59c0-.62-.09-1.29-.14-2a6.9,6.9,0,0,1-.05-1v-.05c-.48.1-.91.14-1.34.24a84.45,84.45,0,0,1-9.08,1.58,32.54,32.54,0,0,1-3.79.2h-1.15a1.35,1.35,0,0,1-1.39-1.54V453a2.89,2.89,0,0,1,1.53-1.63,9.06,9.06,0,0,0,1.11,0,68.73,68.73,0,0,0,8.4-.57A97.06,97.06,0,0,0,358.31,449a9.07,9.07,0,0,1,1.35-.28,3,3,0,0,1,1.2.28c.43.29.67.53.67.82a1.82,1.82,0,0,1-.29.86,2.77,2.77,0,0,1-1.06.77,31,31,0,0,1-3.6,1,6.16,6.16,0,0,1,.58,3,52.17,52.17,0,0,1,6.86-.81c1.83,0,2.88.72,3.08,2.11a5.49,5.49,0,0,1-.82,2.74,18.33,18.33,0,0,1-3.46,4.41,2.67,2.67,0,0,1,.1.63,2.32,2.32,0,0,1-.62,1.34,47.6,47.6,0,0,1-7.88,3.27c-2.16.72-4.27,1.34-6.28,1.87a5.85,5.85,0,0,1,.52,2.69,12.85,12.85,0,0,1-.52,3.5c-.2.48-.34,1-.49,1.44.87-.05,1.73-.1,2.65-.19,1.34-.1,2.54-.19,3.64-.34a15.81,15.81,0,0,0-.76-2.93,12,12,0,0,0-1.06-2.16,1.43,1.43,0,0,1,.43-2,1.52,1.52,0,0,1,1.11-.43,2.07,2.07,0,0,1,1.44.72,11.52,11.52,0,0,1,1.77,3.69,23.62,23.62,0,0,1,.48,2.69c2.35-.29,4.32-.62,5.95-1,1-.19,1.83-.38,2.6-.58a15.27,15.27,0,0,1,2.78-.81,1.14,1.14,0,0,1,1,.62,4.15,4.15,0,0,1,.82,1.83,1.27,1.27,0,0,1-1,1.2,12.15,12.15,0,0,1-3.22.86c-.82.19-2.21.43-4.13.67-1.73.24-3.31.43-4.75.63a18.51,18.51,0,0,1-2.64,8.44c-.53.77-1.06,1.49-1.58,2.17a1,1,0,0,0,.19,0c1.34.39,2.88.82,4.65,1.2a1.29,1.29,0,0,1,.39,1.06c-.19.91-1,1.49-2.21,1.68h-.67a13.06,13.06,0,0,1-4.18-1.06,5.45,5.45,0,0,1-.72-.28,25.42,25.42,0,0,1-4.18,2.92,3.18,3.18,0,0,1-1.58.53,1.53,1.53,0,0,1-1.63-1.2,1.33,1.33,0,0,1,.81-1.29,21.59,21.59,0,0,0,3.89-2.45,9.4,9.4,0,0,1-1.29-1c-2.45-2.16-3.65-4.37-3.65-6.72a7.63,7.63,0,0,1,.29-2.21c-1.92.33-3.56.67-5,1a32.77,32.77,0,0,0-4.36,1.29,6.12,6.12,0,0,1-2.26.48c-.82,0-1.3-.62-1.39-1.73a1.74,1.74,0,0,1,.53-1.43,3.39,3.39,0,0,1,1.72-1,29.28,29.28,0,0,1,3.89-1.11c2.55-.57,5.14-1,7.83-1.44,0,0,0-.09,0-.14a21.89,21.89,0,0,0,.68-4.27,10.39,10.39,0,0,0-.1-1.2,6.81,6.81,0,0,1-.14-1.35.75.75,0,0,1,0-.29c-.38.1-.72.15-1,.2a2.09,2.09,0,0,1-.82.28c-.38,0-.72-.24-1-.76a2.72,2.72,0,0,1-.43-1.68,1.39,1.39,0,0,1,1-1.2c1.34-.29,2.55-.58,3.7-.82a21.61,21.61,0,0,0-1.06-4.32c-.24-.48-.43-1-.62-1.49-2,.58-4.13,1.15-6.29,1.82A16.89,16.89,0,0,1,338.92,465.89Zm7.29,18.29a6.77,6.77,0,0,0,2.93,5.52,12.12,12.12,0,0,0,1.35.82,17.54,17.54,0,0,0,2.3-3.55,22,22,0,0,0,1.3-5.38c-1,.14-1.92.24-2.79.33-1.73.24-3.36.44-4.89.63A7.43,7.43,0,0,0,346.21,484.18Zm1.49-22.61a25.58,25.58,0,0,1,1.25,5.62c1.11-.29,2.16-.58,3.17-.92a40.54,40.54,0,0,1,1.1-5.8,3.87,3.87,0,0,0,.2-.72c-1.83.43-3.75.91-5.81,1.44A.7.7,0,0,0,347.7,461.57Zm9-2.06a29.68,29.68,0,0,1-2.16,5.66,3,3,0,0,0-.29.48c1.25-.38,2.5-.72,3.65-1.1.67-.29,1.25-.48,1.73-.68a19.7,19.7,0,0,0,3.84-5.95c-1.83.19-4.08.58-6.68,1.06A2.35,2.35,0,0,0,356.73,459.51Z" transform="translate(-327.88 -391.15)"/><path class="cls-1" d="M400.12,471.17A8.93,8.93,0,0,1,398,469.4a1.43,1.43,0,0,1-.39-1.11c0-.53.29-.81.87-.91,1.44,0,3.89.91,7.44,2.69.53-.82,1.34-3.27,2.45-7.35a35,35,0,0,0,1.15-7.05c0-.48-.29-.77-.86-.82a47.25,47.25,0,0,0-7.88,1.68,8.16,8.16,0,0,1-1.25.38,9.94,9.94,0,0,1-1.77,3.56q-7.28,10.65-10.8,12.67a1.45,1.45,0,0,1-.91.43,1.49,1.49,0,0,1-1.64-1.53c0-.39.44-.92,1.3-1.68a56.41,56.41,0,0,0,9.5-12.34,49.48,49.48,0,0,1-7.92,1.68c-1.15,0-1.77-.48-1.82-1.44a1.6,1.6,0,0,1,.77-1.54c.86-.33,2.11-.77,3.74-1.25,3.55-1,7-1.82,10.28-2.59a48.32,48.32,0,0,1,9.64-1.44,3,3,0,0,1,2.21,1.15,5.29,5.29,0,0,1,.77,3.17,47.93,47.93,0,0,1-.82,7.06,50.44,50.44,0,0,1-1.34,6,8,8,0,0,1-2,3.7,4.79,4.79,0,0,1-2.88.91C404.49,473.43,402.62,472.71,400.12,471.17Zm-2.69,5.76c2.16-.19,4.18-.33,6-.33a25.73,25.73,0,0,1,4.23.28,6.44,6.44,0,0,1,4,1.92,4.36,4.36,0,0,1,1.06,2.69,13.93,13.93,0,0,1-1.11,4.56,23.68,23.68,0,0,1-1.77,3.36.76.76,0,0,1,.33-.05,1.54,1.54,0,0,1,1.15.63,2.77,2.77,0,0,1,.1.72,2.61,2.61,0,0,1-.62,1.39,50.3,50.3,0,0,1-7.11,2.26,72,72,0,0,1-9.07,1.82,1.92,1.92,0,0,0,0,.24,1.46,1.46,0,0,1-.92,1.49c-.14,0-.28,0-.43,0a1.51,1.51,0,0,1-1.39-1,18.39,18.39,0,0,1-1.49-3.07,46.05,46.05,0,0,1-1.92-12.1c-.09-1.73-.09-3.46-.09-5.14a1.88,1.88,0,0,1,1.68-1.34h.33a1.43,1.43,0,0,1,1.35,1.63V478A42.62,42.62,0,0,1,397.43,476.93Zm.34,15c2.45-.43,4.7-.86,6.72-1.3a1.72,1.72,0,0,1,.67-.81,12,12,0,0,0,2-2.88,14.11,14.11,0,0,0,1.68-4.85c0-1-1.35-1.54-3.94-1.63a40.51,40.51,0,0,0-6.82.62,50.23,50.23,0,0,0-6.05,1.25.33.33,0,0,1-.14.05c0,.81,0,1.58.1,2.35a29.3,29.3,0,0,0,1.34,7.82C395,492.25,396.52,492,397.77,491.91Z" transform="translate(-327.88 -391.15)"/><path class="cls-1" d="M434.92,464a9.24,9.24,0,0,1,3.55.67,4,4,0,0,1,2.3,4,14,14,0,0,1-1.29,4.51,1.45,1.45,0,0,1,.67.53,1.67,1.67,0,0,1,.1.57,2.36,2.36,0,0,1-.48,1.06,19.81,19.81,0,0,1-3.84,3,28.67,28.67,0,0,1-5.28,2.54,2.09,2.09,0,0,1-.72.19,1.14,1.14,0,0,1-1-.67,2.41,2.41,0,0,1-.39-1.54,1.34,1.34,0,0,1,.82-1.2,37.57,37.57,0,0,0-.67-4.94c-.68-3.26-1.2-6-1.68-8.11a1.71,1.71,0,0,1,.52-1,1.32,1.32,0,0,1,1.06-.63,3.89,3.89,0,0,1,.91.1,2.07,2.07,0,0,1,1.06,1.06.64.64,0,0,0,.1.33A18.73,18.73,0,0,1,434.92,464Zm-2.69,12.58c.67-.29,1.34-.58,2-.87a3.73,3.73,0,0,1,.48-.67,29,29,0,0,0,2.88-5.28,14.31,14.31,0,0,0,.19-1.54c-.34-.67-1.1-1.05-2.35-1.05a19.14,19.14,0,0,0-4.23.62c.1.77.24,1.64.34,2.6.34,2.78.53,4.89.62,6.24Zm20.35-15.84a18.48,18.48,0,0,0,2-2.36c1.3-1.63,2-2.68,2-3.16-1.63.48-3.5.91-5.61,1.34a9,9,0,0,1-2.35.34,2.53,2.53,0,0,1-2.31-2.55,4.08,4.08,0,0,1,.58-1.44,22.37,22.37,0,0,1,2.69-4.13,1.13,1.13,0,0,1,.81-.28c.19,0,.34,0,.53,0a1.4,1.4,0,0,1,1,1.49,11.47,11.47,0,0,1-2,3.94,54.5,54.5,0,0,1,5.52-1.35,10.94,10.94,0,0,1,2.31-.28c1.53.19,2.3.81,2.35,1.87a8.66,8.66,0,0,1-2.64,5.28h.1a49,49,0,0,1,6-.87h1.15c1.73.29,2.64,1.49,2.64,3.6,0,1.92-.24,4.76-.63,8.6-.24,2.45-.48,4.61-.72,6.53a.63.63,0,0,0,.29-.1,13,13,0,0,1,1.68-.67,4.72,4.72,0,0,1,1.54.38c.67.39,1,.77,1,1.11a2.07,2.07,0,0,1-.48,1.15,4,4,0,0,1-1.49,1.1,58.25,58.25,0,0,1-9.17,3.31,73.55,73.55,0,0,1,9.55,9.17,7.66,7.66,0,0,1,2.16,3.65c0,.87-.38,1.35-1.05,1.35a1.84,1.84,0,0,1-1.16-.68c-1-.91-2.44-2.2-4.17-3.93a84.85,84.85,0,0,0-9.08-8.07,1.16,1.16,0,0,1-.19-.28h0a21.35,21.35,0,0,1-2,3.88c-.77,1.16-1.64,2.55-2.64,4.13-.68.87-1.3,1.68-1.83,2.45a13.41,13.41,0,0,1-1.58,1.49,1.71,1.71,0,0,1-1.11.38,1.05,1.05,0,0,1-1-1.1,1.64,1.64,0,0,1,.38-1.2,9.13,9.13,0,0,1,1.06-1.49c.76-1,1.58-2.16,2.44-3.5.58-1.06,1.25-2.26,1.93-3.56.09-.19.14-.33.23-.52-1.15.28-2.25.57-3.4.76a39.81,39.81,0,0,1-4.61.44h-1.44a1.57,1.57,0,0,1-1.54-1.73v-1a3.06,3.06,0,0,1,1.73-1.78,11.14,11.14,0,0,0,1.34.05,41.17,41.17,0,0,0,9.46-1.2,19.73,19.73,0,0,0,.48-3.51,1.38,1.38,0,0,1,1.1-1.2c.24,0,.58,0,1,0,.87.09,1.3.86,1.35,2.35a13.93,13.93,0,0,1-.1,1.44c1.78-.43,3.6-1,5.52-1.63a2.13,2.13,0,0,1-.05-.53,7.27,7.27,0,0,1,.24-1.49c.1-.62.29-1.39.48-2.3.2-1.4.44-3.32.72-5.72s.44-4.41.53-6.43c0-.38-.33-.58-1-.58a38,38,0,0,0-7.34,1.69c-2.83.76-5.47,1.58-7.92,2.44,0,.87.05,1.78.05,2.64,0,3.32.19,7.06.48,11.19,0,1.29-.39,1.92-1.11,1.92h-.72c-.86,0-1.29-.91-1.34-2.74-.1-.86-.24-3.26-.53-7.2l-.48-7.92c-.05-.33-.14-.72-.24-1.15a1.5,1.5,0,0,1,1.34-1.63h.77a1.64,1.64,0,0,1,1.54,1.29C449,461.76,450.61,461.28,452.58,460.71Zm5.72,5.37a5.3,5.3,0,0,1-.72,1.88l-.34.62a9.39,9.39,0,0,1,3.79,4.13,4.55,4.55,0,0,1,.34,1.25c-.05.48-.39.76-1,.76a2.4,2.4,0,0,1-.77-.09,13.7,13.7,0,0,1-4.37-3.07c-.67,1-1.39,2-2.16,2.92a6,6,0,0,1-1.63,1.68,2,2,0,0,1-1,.2c-.77-.05-1.1-.48-1.1-1.3a1.75,1.75,0,0,1,.33-1,30.6,30.6,0,0,1,2.55-4.22c1-1.83,1.82-3.36,2.49-4.61a2.39,2.39,0,0,1,1.59-1A1.74,1.74,0,0,1,458.3,466.08Z" transform="translate(-327.88 -391.15)"/><path class="cls-1" d="M478.36,483.41a1.92,1.92,0,0,1,1.34.63c.29.43.72,1.1,1.3,2,.91,1.54,1.92,3.17,3,5.09a2.39,2.39,0,0,1,.39,1.25,1.39,1.39,0,0,1-1,1.15,2.25,2.25,0,0,1-1.25-.38c-.86-.67-2.35-2.74-4.42-6.1a7.27,7.27,0,0,1-.67-1.34,1.74,1.74,0,0,1-.29-.91C476.82,484.08,477.35,483.6,478.36,483.41Zm4-18.53c2.69-2.06,4.8-3.12,6.43-3.12.39.1.63.48.72,1.06,0,2.25-2.11,6.1-6.29,11.52,1.73-.86,3.75-1.92,6.15-3.26a4.85,4.85,0,0,1,1.73-.72,1.35,1.35,0,0,1,1.53,1.39,7.64,7.64,0,0,1-1.49,4.17,8.92,8.92,0,0,1-2.16,2.55,1.61,1.61,0,0,1-1.1.38c-.43,0-.67-.24-.67-.72a1.48,1.48,0,0,1,.33-.86c.72-1.49,1.3-2.79,1.68-3.84C485,477.08,482,479,480,479.19c-.86-.05-1.3-.48-1.3-1.3a4,4,0,0,1,.77-2q2.75-4.89,6.48-10.94c-2.49,2.5-4.94,3.94-7.25,4.32-.76-.1-1.2-.67-1.2-1.73,3.32-5.38,5.28-9.94,5.86-13.73a2.13,2.13,0,0,1,2.06-1.25,1.44,1.44,0,0,1,1.2,1.4C486.33,456.63,484.89,460.27,482.39,464.88Zm.91,16.32a1.93,1.93,0,0,1,1.39.58c.2.34.48.87,1,1.63.68,1.3,1.44,2.69,2.26,4.18a2.09,2.09,0,0,1,.29,1.06,1.14,1.14,0,0,1-.82,1,2,2,0,0,1-1.1-.33c-.72-.48-1.92-2.12-3.6-4.8a3.65,3.65,0,0,1-.53-1,1.5,1.5,0,0,1-.24-.86C482,481.92,482.44,481.44,483.3,481.2Zm10,5.14c-.14.29-.28.43-.43.48a1.26,1.26,0,0,1-.77.19,4.7,4.7,0,0,1-2.54-1.58,9.65,9.65,0,0,1-2.3-2.78,1.66,1.66,0,0,1-.34-1.06,1.19,1.19,0,0,1,.38-.82,1.58,1.58,0,0,1,.77-.53c.1,0,.29,0,.53,0a1.15,1.15,0,0,1,.72.28,6.73,6.73,0,0,0,.86,1,10.19,10.19,0,0,0,3,3.46.76.76,0,0,1,.43.77A1.42,1.42,0,0,1,493.33,486.34Zm14.84-.29A.22.22,0,0,1,508,486v1.88a45.55,45.55,0,0,1-.62,7.44,13.78,13.78,0,0,1-.62,2c-.29.68-.68,1-1.16,1.06-1.34,0-2-.38-2-1.06.62-1.48,1-5.13,1.05-11v-8.16a28.54,28.54,0,0,0-3.74,2.16c-.58.48-1.2,1-1.82,1.49l-.58.57c.14,1.25.24,2.12.24,2.64,0,1.35-.53,2.07-1.54,2.07a1.26,1.26,0,0,1-1.44-1.34,35.9,35.9,0,0,0-.62-4c-.63-2.3-1.15-4.22-1.59-5.76a2.33,2.33,0,0,1,.53-1.1,1.45,1.45,0,0,1,1.2-.58,5.06,5.06,0,0,1,1,.1,1.67,1.67,0,0,1,1.11,1.1,20.93,20.93,0,0,1,.57,3.07,42.49,42.49,0,0,1,4.23-2.73c.86-.48,1.73-.87,2.59-1.25,0-.67.05-1.39.1-2.16a1.66,1.66,0,0,1,1.2-1.73h1c.92.29,1.4.82,1.4,1.58v1a20.45,20.45,0,0,1,3.74-.86c1-.19,1.92-.38,2.88-.48.53,0,1.3-.05,2.26-.05a3.66,3.66,0,0,1,1.63.53,2.19,2.19,0,0,1,.62,1.34v.87a8.84,8.84,0,0,1-.86,3.07,17.52,17.52,0,0,1-2.07,3.41,20.46,20.46,0,0,1-4.65,4.32,5.08,5.08,0,0,1-2.45.86A3.15,3.15,0,0,1,508.17,486.05Zm-12.1-30.38c-1,0-1.44-.63-1.44-1.92a1.51,1.51,0,0,1,1.39-1.64c1,0,4-1.15,9.08-3.5.86,0,1.34.24,1.53.62a3.35,3.35,0,0,1-.09.72,2,2,0,0,1-.82,1,13.37,13.37,0,0,1-3.07,2.31c-1,.48-1.83.91-2.59,1.25v0a15.7,15.7,0,0,1,.47,1.64c.1,0,.15,0,.2-.15a27.74,27.74,0,0,1,5.28-.48,17.53,17.53,0,0,1,5.28.77,4.69,4.69,0,0,1,3.26,4.7,11.4,11.4,0,0,1-2.69,5.91c0,.1.05.14.05.19a1.65,1.65,0,0,1-.72,1.44,27,27,0,0,1-6.77,2.45,20.82,20.82,0,0,1-3.16.43h-.05a1.46,1.46,0,0,1-1.35.91c-.76,0-1.15-.43-1.15-1.29,0-.39,0-.87,0-1.54v-2.73a35.33,35.33,0,0,0-1.05-7.25c-.24-1.16-.48-2.21-.77-3.22a1.72,1.72,0,0,1-.24-.72A2.42,2.42,0,0,1,496.07,455.67Zm10.42,2.73a30.47,30.47,0,0,0-5.33.67c0,.53.1,1.06.19,1.59a15,15,0,0,0,.1,1.58c.86-.09,1.58-.19,2.16-.29,1.73-.19,3.79-.57,6.24-1.05.77-.1,1.34-.19,1.77-.29C510.86,459.17,509.18,458.4,506.49,458.4Zm4.7,4.28c-1,.28-2,.57-3.07.81a51.07,51.07,0,0,1-6.53,1.3v.52c0,1.06,0,2,0,2.88a15.53,15.53,0,0,0,2.07-.28,22.9,22.9,0,0,0,6.19-2.21h.14A29.65,29.65,0,0,0,511.19,462.68ZM508,482.12v.62c.2.1.34.14.44.19a2.16,2.16,0,0,0,1,.24,2.28,2.28,0,0,0,1.39-.67,12.31,12.31,0,0,0,2.3-2.54,34.74,34.74,0,0,0,2.74-4.56c-.24,0-.53,0-.91,0a30,30,0,0,0-6.63,1.29A48.92,48.92,0,0,0,508,482.12Z" transform="translate(-327.88 -391.15)"/><path class="cls-1" d="M559.67,456.43a2.22,2.22,0,0,1,.39,1.11,1.17,1.17,0,0,1-.77,1c-2.55.72-5.43,1.49-8.69,2.31V461c-.19,2.4-.34,4.27-.34,5.66a62.39,62.39,0,0,1,8.16-1.44,1.47,1.47,0,0,1,1.16.53,2,2,0,0,1,.38,1.1,1.3,1.3,0,0,1-.77,1.11c-2.59.81-5.61,1.68-9,2.59l-.19,6.1c7.34-1.78,13-3.36,17.18-4.76a1.28,1.28,0,0,1,1.11.63.8.8,0,0,1,.14.53,2.7,2.7,0,0,1-.77,1.63c-2.3,1.73-8.26,3.84-17.81,6.24-.09,1.73-.14,3.17-.19,4.41-.29,5.19-1,9-2.16,11.62-.29,1.15-.91,1.78-1.87,1.78-.72,0-1.06-.58-1.06-1.68A55.76,55.76,0,0,0,546,486.92l.24-5.19q-6.33,1.51-11.95,2.74c-1.44.29-2.5.48-3.17.57a9.67,9.67,0,0,1-2,.2c-1-.05-1.54-.77-1.68-2.12,0-.57.48-1.15,1.44-1.68.58-.19,1.34-.43,2.21-.67q7.85-1.51,15.26-3.31l.2-6c-2.4.67-5,1.34-7.68,2a1.74,1.74,0,0,1-1.78-1.54v-.58a1.35,1.35,0,0,1,.77-1.1,68.21,68.21,0,0,1,8.69-2.78c0-1.83.09-3.7.19-5.67-3.22.82-6.68,1.68-10.37,2.54a1.78,1.78,0,0,1-1.87-1.53v-.58a1.6,1.6,0,0,1,.76-1.1,96,96,0,0,1,12.48-3.46c.68-.09,1.3-.24,1.93-.38a14.88,14.88,0,0,0,3.6-5,6.77,6.77,0,0,0,.38-2v-.91a1.62,1.62,0,0,1,1.49-1.11c1.29,0,2,.77,2.06,2.26v.53c-.19,1.72-1.63,3.6-4.32,5.61a39.19,39.19,0,0,1,5.57-.86A1.37,1.37,0,0,1,559.67,456.43ZM544.41,456a1.21,1.21,0,0,1-1,.39,1.36,1.36,0,0,1-1-.29,8.84,8.84,0,0,1-1.06-.58,18.81,18.81,0,0,1-3.93-3.6.58.58,0,0,1-.05-.29,2,2,0,0,1,.38-1.05,2.13,2.13,0,0,1,1-.77,2.35,2.35,0,0,1,.91-.14,1.86,1.86,0,0,1,1.44,1.1c.67.67,1.35,1.39,2,2.16.82.86,1.34,1.49,1.63,1.78v.43A1.2,1.2,0,0,1,544.41,456Z" transform="translate(-327.88 -391.15)"/><path class="cls-1" d="M591.11,473.19c-.86-1.25-1.78-2.45-2.64-3.6a1.36,1.36,0,0,1-.29-.87v-.48a2.16,2.16,0,0,1,.67-1.24,2.63,2.63,0,0,1,1.06-.48c.19,0,.38,0,.58,0a4.06,4.06,0,0,1,.86.34c1.34,1.2,3.36,4.32,6,9.41a10.07,10.07,0,0,1,1.1,3.36c0,1.05-.48,1.58-1.39,1.58a1.81,1.81,0,0,1-1.34-.81,37.58,37.58,0,0,1-2.31-3.56c-.05-.09-.09-.14-.14-.24a27.74,27.74,0,0,1-8.07,10.8,7.17,7.17,0,0,1-4.17,2A2.53,2.53,0,0,1,579,487c-.05-.72-.05-1.73-.05-3,0-3.65.09-7.39.29-11.14a26.71,26.71,0,0,0-1.11-8.11,10.8,10.8,0,0,1-.62-3.22v-.67a1.72,1.72,0,0,1,1.77-1.39,2.24,2.24,0,0,1,1.54.67c1.3,2.35,2,7.15,2,14.4,0,3.07-.15,6.77-.34,11a25.65,25.65,0,0,0,6.43-7.63,16.44,16.44,0,0,0,1.68-3.79A2.91,2.91,0,0,1,591.11,473.19Zm27,22a4.5,4.5,0,0,1-1.68-.53,33.81,33.81,0,0,1-3.94-3.4,47.94,47.94,0,0,1-8.5-10.23,2.74,2.74,0,0,1-.52-.86c-.87,1.72-1.78,3.45-2.79,5.13a39.27,39.27,0,0,1-5.81,7.59c-.86.77-1.73,1.49-2.59,2.16a4.22,4.22,0,0,1-1.49.33c-.62,0-1-.43-1-1.2,0-.33.29-.72.87-1.15a45.12,45.12,0,0,0,5.76-7,88.75,88.75,0,0,0,10.85-27.7c.33-1.63.67-3.17,1-4.7a1.52,1.52,0,0,1,1.68-1.06,1.67,1.67,0,0,1,1.48,1.54,29.92,29.92,0,0,1-.52,3.89,102.9,102.9,0,0,1-5.09,16.8c-.24.57-.48,1.15-.72,1.68a2.88,2.88,0,0,1,.77.33,19.47,19.47,0,0,0,1.39,2A66.31,66.31,0,0,0,614,487.4c1.49,1.53,2.88,3,4.23,4.46a2.58,2.58,0,0,1,1.19,2.07,1.33,1.33,0,0,1-.91,1.29Z" transform="translate(-327.88 -391.15)"/><path class="cls-1" d="M638,473.76c2-4.65,3-8.2,3-10.7a47.16,47.16,0,0,0-7.2,3.26c-1.73,1-2.88,1.59-3.5,1.87a1.74,1.74,0,0,1-1.88-1.67,3.08,3.08,0,0,1,1.35-2.12,15.14,15.14,0,0,0,2-4.8,15.75,15.75,0,0,0,.47-3.74,2,2,0,0,1,.68-1.54,2.28,2.28,0,0,1,1.29-.57,2.08,2.08,0,0,1,2.16,1.48,18.87,18.87,0,0,1-.33,3.17,12.79,12.79,0,0,1-1.2,3c1.29-.58,2.64-1.06,4-1.54a13.27,13.27,0,0,1,3.12-.48,2.48,2.48,0,0,1,1.68.67,3.52,3.52,0,0,1,.87,2.21c0,5.62-1.83,11.43-5.38,17.38a40,40,0,0,1-6.77,8.88,17.36,17.36,0,0,1-3.46,2.45,6.33,6.33,0,0,1-1.82.57c-1.3,0-2-.43-2.16-1.24a.89.89,0,0,1,.38-.77c.58-.38,1.25-.77,2.07-1.3a28.55,28.55,0,0,0,6.24-6.62c.72-1.15,1.44-2.26,2.11-3.36a16.72,16.72,0,0,1-1.77-1.11,21.39,21.39,0,0,1-4.57-3.4,2.75,2.75,0,0,1-.57-.72,1.17,1.17,0,0,1-.29-.72,1.85,1.85,0,0,1,.48-1.06,1.46,1.46,0,0,1,.82-.62,3.29,3.29,0,0,1,.81-.1,2,2,0,0,1,1,.34c.29.19.58.43.91.67a28.62,28.62,0,0,0,3,2.49,18.48,18.48,0,0,1,1.73,1.35C637.53,474.77,637.77,474.24,638,473.76Zm18.33-15.26c0,2.35,0,4.85,0,7.49a2.82,2.82,0,0,0,.57.09,85.91,85.91,0,0,1,10.47,5,8.3,8.3,0,0,1,.81,1,2.34,2.34,0,0,1,.29,1,1.72,1.72,0,0,1-.19.68L668,474a.81.81,0,0,1-.62.33,2.87,2.87,0,0,1-1.35-.43,69.45,69.45,0,0,1-9.69-4.13c0,2.74,0,6,.19,9.94s.33,7.39.33,10.22a15.15,15.15,0,0,1-1.53,7.25,2.13,2.13,0,0,1-1.83,1.15c-1.2,0-1.77-.67-1.77-2a13.56,13.56,0,0,0,1.77-5.95c-.05-4.23-.19-8.65-.43-13.3-.24-5.57-.38-11-.43-16.37,0-3.22-.05-6.63-.05-10.18a1.83,1.83,0,0,1,1.35-1.92H655a1.9,1.9,0,0,1,1.49,1.92C656.49,452.07,656.44,454.75,656.34,458.5Z" transform="translate(-327.88 -391.15)"/><path class="cls-1" d="M684.66,463.68a7.29,7.29,0,0,1,3.84.92q2.16,1.44,2.45,5.76l.62,17.28.24,2.92c0,.92-.86,1.4-2.49,1.49a11.68,11.68,0,0,1-4.61-1.2c-1,.29-2.16.63-3.6,1-.72.1-1.39.15-2,.19a2.06,2.06,0,0,1-.24.63,1.81,1.81,0,0,1-1.15.53,1.35,1.35,0,0,1-1-.39,3,3,0,0,1-.48-1.39c-.1-1.63-.1-3.89-.1-6.77,0-3.12,0-6,.1-8.45s.14-5.37.24-8.35c0-1.44,0-3.07,0-4.8,0-.29-.1-.58-.15-1a1.27,1.27,0,0,1,0-.43,1,1,0,0,1-.43.09c-1,0-1.49-.62-1.49-1.92a1.47,1.47,0,0,1,1.44-1.58c1,0,4.17-1,9.45-2.93.92,0,1.44.24,1.54.67s0,.53,0,.77a1.7,1.7,0,0,1-.81.91,11.22,11.22,0,0,1-3.27,2,26.26,26.26,0,0,1-3.17,1.2A4.51,4.51,0,0,1,680,463c0,.48,0,1,0,1.59A21,21,0,0,1,684.66,463.68Zm3.6,25.16c0-3.94,0-7.54-.09-10.8a8.59,8.59,0,0,1-1.4.48c-2.49.81-5,1.53-7.63,2.2,0,1.16,0,2.5,0,4s0,2.83,0,4.17a4.92,4.92,0,0,0,1.2-.14,30.17,30.17,0,0,0,5-1.2c.19,0,.34,0,.53,0a1.15,1.15,0,0,1,1.06.63c.09.23.14.48.24.67s-.05.19-.05.29A9.52,9.52,0,0,1,688.26,488.84Zm-.43-18.63a3.5,3.5,0,0,0-3.89-3.36,9.8,9.8,0,0,0-2.54.58,14.85,14.85,0,0,1-1.63.67,13,13,0,0,0-.1,1.34c-.29,3.27-.43,5.76-.48,7.49v.63a74.87,74.87,0,0,0,8-2.16c.33-.1.62-.15.91-.24C688,473.38,687.93,471.75,687.83,470.21ZM712.31,473c.1-3.56.24-8,.53-13.25,0-1.49-.14-2.26-.38-2.26a39.34,39.34,0,0,0-4.52,1.49c-1.92.62-3.84,1.2-5.8,1.68a19.36,19.36,0,0,1-4.71.67h-.62a2.7,2.7,0,0,1-2.26-1.15,3,3,0,0,1-.53-2,42.11,42.11,0,0,0,3.12-8.69,2,2,0,0,1,1.68-.72,1.69,1.69,0,0,1,.82.34,1.62,1.62,0,0,1,.62,1.39,8.84,8.84,0,0,1-.48,2.06c-1,2.88-1.63,4.56-1.72,5a33.28,33.28,0,0,0,8.78-1.63c1.92-.53,3.84-1.2,5.86-2a4.8,4.8,0,0,1,1.2-.24c.57,0,1.1.72,1.63,2.06a11.66,11.66,0,0,1,.62,4.08c0,1.39-.14,3.56-.33,6.48-.24,5.14-.34,9.56-.34,13.2,0,5.19,0,10.71.19,16.76a2.24,2.24,0,0,1-1.1,1.68,5.6,5.6,0,0,1-1.3.38,8.13,8.13,0,0,1-4.65-1.92,21.93,21.93,0,0,1-4-4.46,2.34,2.34,0,0,1-.43-1.3c0-.67.29-1,1-1a2.19,2.19,0,0,1,1.44.68c3.46,2.78,5.52,4.27,6.14,4.46-.33-4-.52-9.36-.52-16.18C712.22,477.12,712.22,475.25,712.31,473Zm-6.43,6.24a2.71,2.71,0,0,1-1.1-.34,18,18,0,0,1-2-.91,27.94,27.94,0,0,1-5.19-2.93c-.38-.29-.57-.43-.67-.53a1.36,1.36,0,0,1-.24-.81,2.17,2.17,0,0,1,.44-1.11A1.56,1.56,0,0,1,698,472a3.19,3.19,0,0,1,.76-.1,2.28,2.28,0,0,1,1,.43,9.48,9.48,0,0,1,1,.48,37.51,37.51,0,0,0,3.51,2.11c.77.44,1.44.87,2,1.25a2.59,2.59,0,0,1,.77,1.68c0,.77-.29,1.2-.77,1.35Z" transform="translate(-327.88 -391.15)"/><path class="cls-1" d="M757.43,456.43a2.22,2.22,0,0,1,.39,1.11,1.17,1.17,0,0,1-.77,1c-2.55.72-5.43,1.49-8.69,2.31V461c-.19,2.4-.34,4.27-.34,5.66a62.39,62.39,0,0,1,8.16-1.44,1.47,1.47,0,0,1,1.16.53,2,2,0,0,1,.38,1.1,1.3,1.3,0,0,1-.77,1.11c-2.59.81-5.61,1.68-9,2.59l-.19,6.1c7.34-1.78,13-3.36,17.18-4.76a1.26,1.26,0,0,1,1.1.63.75.75,0,0,1,.15.53,2.7,2.7,0,0,1-.77,1.63c-2.3,1.73-8.26,3.84-17.81,6.24-.09,1.73-.14,3.17-.19,4.41-.29,5.19-1,9-2.16,11.62-.29,1.15-.91,1.78-1.87,1.78-.72,0-1.06-.58-1.06-1.68a55.76,55.76,0,0,0,1.49-10.08l.24-5.19q-6.35,1.51-11.95,2.74c-1.44.29-2.5.48-3.17.57a9.67,9.67,0,0,1-2,.2c-1-.05-1.54-.77-1.68-2.12,0-.57.48-1.15,1.44-1.68.58-.19,1.34-.43,2.21-.67q7.85-1.51,15.26-3.31l.2-6c-2.4.67-5,1.34-7.69,2a1.73,1.73,0,0,1-1.77-1.54v-.58a1.35,1.35,0,0,1,.77-1.1,68.21,68.21,0,0,1,8.69-2.78c0-1.83.09-3.7.19-5.67-3.22.82-6.68,1.68-10.37,2.54a1.78,1.78,0,0,1-1.87-1.53v-.58a1.6,1.6,0,0,1,.76-1.1,96,96,0,0,1,12.48-3.46c.68-.09,1.3-.24,1.93-.38a14.88,14.88,0,0,0,3.6-5,6.77,6.77,0,0,0,.38-2v-.91a1.62,1.62,0,0,1,1.49-1.11c1.29,0,2,.77,2.06,2.26v.53c-.19,1.72-1.63,3.6-4.32,5.61a39.19,39.19,0,0,1,5.57-.86A1.37,1.37,0,0,1,757.43,456.43ZM742.17,456a1.21,1.21,0,0,1-1,.39,1.36,1.36,0,0,1-1-.29,8.84,8.84,0,0,1-1.06-.58,18.81,18.81,0,0,1-3.93-3.6.58.58,0,0,1-.05-.29,2,2,0,0,1,.38-1.05,2.13,2.13,0,0,1,1-.77,2.35,2.35,0,0,1,.91-.14,1.86,1.86,0,0,1,1.44,1.1c.67.67,1.35,1.39,2,2.16s1.34,1.49,1.63,1.78v.43A1.2,1.2,0,0,1,742.17,456Z" transform="translate(-327.88 -391.15)"/><path class="cls-1" d="M787.29,466.8a13.32,13.32,0,0,1-1.16,2.79h.1a1.81,1.81,0,0,1,1,.57,1.72,1.72,0,0,1,.1.53,2.43,2.43,0,0,1-.48,1.15,22.87,22.87,0,0,1-4.28,2.93,25.11,25.11,0,0,1-5.71,2.69,2.09,2.09,0,0,1-.72.19,1.16,1.16,0,0,1-1-.67,2.46,2.46,0,0,1-.38-1.58,1.21,1.21,0,0,1,.86-1.11c.2-.09.39-.14.58-.24a35.62,35.62,0,0,0-.77-4.32c-.82-2.93-1.49-5.38-2.06-7.29a2.23,2.23,0,0,1,1.58-1.59,4.26,4.26,0,0,1,.91.1,2.36,2.36,0,0,1,1.11,1.05.22.22,0,0,0,.05.15,23,23,0,0,1,4.08-.39,12.45,12.45,0,0,1,4.36.82q2.16.93,2.16,2.16A8.9,8.9,0,0,1,787.29,466.8Zm-6.92,5.67c0-.05.15-.1.24-.19a16.58,16.58,0,0,0,2.45-3.6,11.69,11.69,0,0,0,1.06-2.69,4.1,4.1,0,0,0-2.93-.92c-1.06,0-2.26.05-3.5.15.14.72.28,1.49.43,2.35q.72,3.75.86,5.47Zm6.34,15.26a1.38,1.38,0,0,1-.34-.81c0-1.25.48-2,1.49-2.16a1.88,1.88,0,0,1,1.39.62,24.29,24.29,0,0,1,4.18,5.62,3.73,3.73,0,0,1,.53,1.05,1.55,1.55,0,0,1-1.49,1.78,1.74,1.74,0,0,1-1.58-1.15A55.15,55.15,0,0,1,786.71,487.73Zm7.92-4.22a2,2,0,0,1,1.44.62c.24.24.67.63,1.25,1.2.77.91,1.68,1.87,2.74,2.93a3.31,3.31,0,0,1,.33,1.34,1.39,1.39,0,0,1-1,1.21,2.43,2.43,0,0,1-1.34-.39,17.75,17.75,0,0,1-4.08-3.65,2.63,2.63,0,0,1-.58-.81,2.05,2.05,0,0,1-.29-1C793.14,484.23,793.67,483.7,794.63,483.51Zm14.88-20.07a1,1,0,0,1,.87.48,3.52,3.52,0,0,0,.14.48,1.4,1.4,0,0,1-.43,1.06,20.94,20.94,0,0,1-4.75,3.36,26.55,26.55,0,0,1-2.16,6.05l.91-.34c2.4-.81,4.37-1.44,6-1.92a16.14,16.14,0,0,1,3.12-.29c1.49.1,2.4,1.25,2.73,3.56,0,.67.1,1.39.1,2.16,0,1.72-.24,5-.67,9.89a60.5,60.5,0,0,1-1.11,6.57,9.53,9.53,0,0,1-1.48,3.27,2.23,2.23,0,0,1-1.68.76,5,5,0,0,1-2.69-.81A9.06,9.06,0,0,1,806.1,495a2.13,2.13,0,0,1-.28-1c0-.48.09-.72.33-.81a.69.69,0,0,1,.48-.29,1.18,1.18,0,0,1,.72.33,7.23,7.23,0,0,1,2.5,1.35,2.17,2.17,0,0,0,.81.48c.2,0,.39-.58.63-1.73.14-.72.29-1.54.43-2.5.1-.62.14-1.25.24-1.87a7.11,7.11,0,0,1-2.4-1.39,10,10,0,0,1-2.88-2.78,1.53,1.53,0,0,1-.43-1.11,1.48,1.48,0,0,1,.48-.91,1.41,1.41,0,0,1,.86-.58c.1,0,.29,0,.53,0a1.57,1.57,0,0,1,.82.29c.28.24.67.58,1.1,1a11.2,11.2,0,0,0,2.26,2.26c.09-1.44.14-2.88.24-4.37,0-1.2.09-2.55.09-4,0-.38,0-.76,0-1.15s-.19-.77-.43-.77a9.26,9.26,0,0,0-2.93.87c-2.25.91-4.08,1.63-5.42,2.21a54.68,54.68,0,0,1-5.38,2,2.9,2.9,0,0,1-1.15.24,1,1,0,0,1-.91-.52,1.65,1.65,0,0,1-.34-1.06,1.69,1.69,0,0,1,.1-.77,1.36,1.36,0,0,1,.82-.91c.76-.38,1.63-.77,2.68-1.25a21.91,21.91,0,0,0,2.69-5.85,7.67,7.67,0,0,1-1.1.48,14.93,14.93,0,0,1-4.13,1.05,1.91,1.91,0,0,1-.53-.05c0,1.06-.1,1.92-.1,2.69a6.41,6.41,0,0,1-.43,2.07,1.7,1.7,0,0,1-1.44.76,1.36,1.36,0,0,1-1.29-1.15,11.34,11.34,0,0,1,0-1.53c0-.87.14-4,.48-9.46q.28-7.28.29-11v-2a1.56,1.56,0,0,1,1.29-1.73h1.06a1.4,1.4,0,0,1,1,.43,4.25,4.25,0,0,0,.82.05,13,13,0,0,0,3.16-.43,29.09,29.09,0,0,0,4-1.3l.53-.24a4.93,4.93,0,0,1,1.39.34c.57.38.86.72.86,1.05a2,2,0,0,1-.38,1,3.25,3.25,0,0,1-1.35,1,46.94,46.94,0,0,1-7.29,2,7.72,7.72,0,0,1-1.4.14V455l-.24,3.32a20.44,20.44,0,0,0-.14,2.35,17.38,17.38,0,0,0,2.83-.58l2.4-.72c-.09-.48-.19-.91-.28-1.25a5.1,5.1,0,0,1-.39-1.68,2,2,0,0,1,1.73-1.92c.43,0,.91.48,1.39,1.35.19.67.34,1.39.53,2.21a20.33,20.33,0,0,0,2-1.11c.19,0,.33,0,.48,0a1,1,0,0,1,.86.48,3.91,3.91,0,0,1,.19.53,1.37,1.37,0,0,1-.53,1.11,11.07,11.07,0,0,1-2.68,1.82c.09,1.2.14,2.45.14,3.7a4.54,4.54,0,0,0-.1.76,18.66,18.66,0,0,0,3.22-1.87Zm-12.72,4.95a34.57,34.57,0,0,0,3.74-.87,14.49,14.49,0,0,0,2.36-.86c0-.24.05-.48.05-.67,0-1.25-.05-2.45-.1-3.7-.67.34-1.39.62-2.11.91a20,20,0,0,1-3.65.77H797C796.94,465.41,796.89,466.85,796.79,468.39Zm3.84,14.11a2.2,2.2,0,0,1,1.49.62c.19.24.62.68,1.2,1.3.77,1,1.63,2.11,2.69,3.27a3.24,3.24,0,0,1,.33,1.29,1.2,1.2,0,0,1-.91,1.15,1.88,1.88,0,0,1-1.29-.43c-.87-.38-2.21-1.63-4.13-3.93a1.74,1.74,0,0,1-.67-.82,1.93,1.93,0,0,1-.24-1C799.14,483.22,799.67,482.74,800.63,482.5Z" transform="translate(-327.88 -391.15)"/><path class="cls-1" d="M849.4,470.26a17.29,17.29,0,0,1-7.87,3.31,26.83,26.83,0,0,1,1.05,6.15c0,1.44-.67,2.11-1.92,2.11s-1.73-.63-1.82-2a32.44,32.44,0,0,0-1.39-6.05,7.33,7.33,0,0,1-.44-1.63c0-1.1.72-1.78,2.21-2a16.23,16.23,0,0,0,6.63-2.06c2.16-1.25,3.26-2.84,3.26-4.66,0-2.45-2-3.7-5.9-3.7-.2,0-1.49.24-3.8.63a7,7,0,0,1-1.34.24,1.81,1.81,0,0,1-1.54-.67,2,2,0,0,1-.62-1.59,2.15,2.15,0,0,1,.91-1.63,2.91,2.91,0,0,1,1.78-.77s.48.15,1.29.39a17.21,17.21,0,0,1,3.84-.53,10.54,10.54,0,0,1,6.53,1.92,6.83,6.83,0,0,1,2.74,5.76C853,466.13,851.8,468.34,849.4,470.26Zm-6.67,20.35a3.36,3.36,0,0,1-2.5.87,1.81,1.81,0,0,1-1.44-.77,2.85,2.85,0,0,1-.62-1.87,3.19,3.19,0,0,1,.72-2.11,2.26,2.26,0,0,1,1.87-1,3.51,3.51,0,0,1,2,.62,2.33,2.33,0,0,1,.86,1.87A3.32,3.32,0,0,1,842.73,490.61Z" transform="translate(-327.88 -391.15)"/></svg>