<svg id="圖層_1" data-name="圖層 1" xmlns="http://www.w3.org/2000/svg" viewBox="0 0 841.03 213.91"><defs><style>.cls-1,.cls-2{fill:#27a2af;}.cls-2{stroke:#27a2af;stroke-miterlimit:10;}</style></defs><title>anotherText_add_word</title><g id="another"><path id="Path_129" data-name="Path 129" class="cls-1" d="M274.52,303.51a32.19,32.19,0,0,1-2,4.26c-1.16,2.11-2.66,4.56-4.56,7.42.14,2,.2,4.89.27,8.57a173.25,173.25,0,0,1-2.11,27.2c-.54,3.53-1.08,6.8-1.76,9.79-.28,1.22-1,1.9-2,1.9s-1.84-.74-1.84-2.24a102,102,0,0,1,2-15.27,92.48,92.48,0,0,0,1.29-15.59v-8.29c-1.08,1.56-2.17,3.19-3.26,4.82-1.42,2-2.83,4.25-4.49,7a2.66,2.66,0,0,1-1.83,1.1,1.53,1.53,0,0,1-1.75-1.27,1.62,1.62,0,0,1,0-.31,3,3,0,0,1,.61-1.77q1.13-2,3.06-5.1c1.5-2.72,3.47-6.12,5.85-10.26,1.9-3.27,3.94-6.81,6.12-10.55l2-3.94a10.5,10.5,0,0,0,.88-2,8.57,8.57,0,0,1,2.66-.34,2.1,2.1,0,0,1,1.76,2.11,5.49,5.49,0,0,1-.83,2.72Zm1,51.76a1.18,1.18,0,0,1-1.41-.91,1.06,1.06,0,0,1,0-.5,4.52,4.52,0,0,1,.41-1.29c.46-2,.95-4.25,1.41-6.46a50,50,0,0,0,1.08-7.9c0-.7,0-1.41-.13-2.11a14.62,14.62,0,0,1-.41-2.38c0-1.16.68-1.77,2.18-1.9h.91a2.3,2.3,0,0,1,1.84,1.42,16.4,16.4,0,0,1,.41,4.25,39.78,39.78,0,0,1-1.3,9.52,56.43,56.43,0,0,1-2.16,6.87,3.32,3.32,0,0,1-2.82,1.39Zm5.58-.75a1.9,1.9,0,0,1,1.49-.81,2.25,2.25,0,0,1,1.42.68,19.75,19.75,0,0,0,2.93,5.3c.95,1.09,1.76,1.7,2.58,1.7,1.7,0,2.58-6.6,2.58-19.83v-3.1c0-4.08-.2-7.09-.4-9.26s-.34-4.35-.55-6.31a11.85,11.85,0,0,1-.2-2,2.35,2.35,0,0,1,.47-1.42,2.47,2.47,0,0,1,1.57-.88,2.67,2.67,0,0,1,2.83,2,2.28,2.28,0,0,0,.13.68,2.37,2.37,0,0,0,.48-.41A29.13,29.13,0,0,0,305,309.09,87.46,87.46,0,0,1,291.21,317a17,17,0,0,1-5.92,1.64c-3.33,0-5-1.84-5-5.58a24.45,24.45,0,0,1,1.9-7.62,32.51,32.51,0,0,1,3.06-6.87,2.14,2.14,0,0,1,1.91-1.42H288a4,4,0,0,1,1.42.89,3.79,3.79,0,0,1,.27,1.49,53.53,53.53,0,0,1-2.17,6.67,31.41,31.41,0,0,0-2.25,7c.07.41.41.56.94.56,1.1,0,3.55-1.09,7.43-3.28,2.17-1.09,4.62-2.58,7.48-4.35a16.23,16.23,0,0,1,5-1.9h1.22a2.58,2.58,0,0,1,2.25,2.84,11.23,11.23,0,0,1-.75,3.75,23.06,23.06,0,0,1-3.13,6.18,28.82,28.82,0,0,1-7.68,7.21,11.19,11.19,0,0,1-1.63.89c.13,1.22.2,2.58.34,4.09,0,2.31.13,4.47.2,6.65V340c0,6.6-.14,11.15-.27,13.67A26.89,26.89,0,0,1,293.78,364a4.87,4.87,0,0,1-3.8,2.38c-2.18,0-4.42-1.56-6.74-4.69a16,16,0,0,1-2.31-4,2.26,2.26,0,0,1-.54-1.42,2.45,2.45,0,0,1,.67-1.72Zm32.24-.88a1.63,1.63,0,0,1-1.22.41,2.61,2.61,0,0,1-1.23-.28,12.94,12.94,0,0,1-1.7-2.58A65.7,65.7,0,0,1,303,335.61a4.41,4.41,0,0,1-.12-1.3,2.49,2.49,0,0,1,.46-1.29,3.51,3.51,0,0,1,1.17-.88,4.4,4.4,0,0,1,1.09-.14,2.55,2.55,0,0,1,1.75,1.29c1.09,3.27,2.26,6.67,3.47,10.14,1.5,4.08,2.46,6.93,2.94,8.57v.63a2.05,2.05,0,0,1-.48,1Z" transform="translate(-155.42 -234.68)"/><path id="Path_130" data-name="Path 130" class="cls-1" d="M367.16,327.66a101.11,101.11,0,0,1-10.54,2.83,141.66,141.66,0,0,1-14.3,2.38,3,3,0,0,1-1.08.4,1.59,1.59,0,0,1-1.42-.88c-.14-.14-.28-.27-.28-.41a4.91,4.91,0,0,1-2.24-2.51,31.36,31.36,0,0,1-3.81-8.57,22.1,22.1,0,0,1-1.42-7c0-2.58.9-3.87,2.65-3.94,2,0,3,.88,3,2.58.2,2.31.54,4.7.95,7a28.88,28.88,0,0,0,3.13,8.29.47.47,0,0,0,.13.34c2.31-.27,4.25-.61,6.05-.95a9.44,9.44,0,0,0,2-.27,1.51,1.51,0,0,1,.34-.87,21.37,21.37,0,0,0,1.49-6.68v-4a28.57,28.57,0,0,0-.27-3.2c-3.13.68-6.39,1.5-9.79,2.6-1.64,0-2.38-.83-2.38-2.46a2.52,2.52,0,0,1,1.29-2.11,47.44,47.44,0,0,1,5.3-1.84v-.13a29.27,29.27,0,0,1-4-7.21,1.79,1.79,0,0,1-.07-.61,2.61,2.61,0,0,1,.62-1.5,3.38,3.38,0,0,1,1.42-1.09,4.34,4.34,0,0,1,1.29-.2,3.06,3.06,0,0,1,2.18,1.56c.47,1.5,1,3,1.56,4.56.61,1.77,1,3,1.22,3.67h.2c1.22-.2,2.52-.41,3.81-.54a26.33,26.33,0,0,0,2.24-2.59,17.06,17.06,0,0,0,3.2-7.08,3.76,3.76,0,0,1,2.83-1c1.42.07,2.17,1,2.31,2.72-.14,2-1.41,4.42-3.74,7.08a4.22,4.22,0,0,0-.41.34h2.6a22.35,22.35,0,0,1,7.82,1.15,8.52,8.52,0,0,1,3.8,2.59,4.8,4.8,0,0,1,1,2.92,12.72,12.72,0,0,1-1.64,5.31,28.17,28.17,0,0,1-5.78,8.22.79.79,0,0,1-.54.29,4.46,4.46,0,0,1-.65.85Zm-18.5-3.26a1.65,1.65,0,0,1-1.16.4,2,2,0,0,1-1.22-.27,3.52,3.52,0,0,1-1.17-.68,14.73,14.73,0,0,1-4.25-3.81v-.27a3.11,3.11,0,0,1,.54-1.56,2.94,2.94,0,0,1,1.5-1,2.91,2.91,0,0,1,1.16-.21,3,3,0,0,1,2,1.64c.56.81,1.09,1.56,1.63,2.24a20.62,20.62,0,0,0,1.42,2v.55a1.83,1.83,0,0,1-.5.95Zm-1,39.1-.07.13A3.12,3.12,0,0,1,345,366c-1.7-.13-2.6-1.56-2.67-4.25a77.15,77.15,0,0,0,1.42-14.62c0-2.52-.13-5.44-.34-8.71a3.39,3.39,0,0,1,2.45-3.06h.95a2.72,2.72,0,0,1,1.3.75,38.15,38.15,0,0,1,10.2-2.38A8,8,0,0,1,363,335c1.63,1.09,2.65,3.61,3,7.48l.89,17.48.34,2.93c0,1.7-1.41,2.58-4.08,2.72a12.81,12.81,0,0,1-5-1.23c-3.32-.37-6.79-.64-10.46-.91Zm.61-5.1A52.21,52.21,0,0,1,360.76,360a1.55,1.55,0,0,1,.48-.13c0-3.95-.07-7.35-.14-10.48-2.92,1.09-5.57,2-8,2.66a21.16,21.16,0,0,1-4.56,1.08c-.07,2-.13,3.78-.2,5.31Zm12.38-16c-.28-2.52-1.42-3.81-3.47-3.81a18.62,18.62,0,0,0-4.83,1.16c-1.23.47-2.38.95-3.54,1.49-.13,2.66-.2,5.17-.27,7.48a4.7,4.7,0,0,0,.88-.27,115.61,115.61,0,0,1,11.43-3.13,23.74,23.74,0,0,1-.2-2.92Zm-3.81-30.75a22.85,22.85,0,0,1,.34,4c-.07,1.41-.21,2.65-.34,3.74a22.87,22.87,0,0,0,2-1.42,7.61,7.61,0,0,0,2.58-3.47,3.24,3.24,0,0,1,2.38-.89c1.16.07,1.77.82,1.91,2.25a7.82,7.82,0,0,1-2.59,4.08,14.48,14.48,0,0,1-4.35,2.72,6,6,0,0,1-2.51.68H356c-.34,1.09-.68,2-.94,2.84,2.18-.42,4.25-.76,6.12-1.17,1.23-.34,2.25-.61,2.93-.75a1,1,0,0,1,.4-.61,30,30,0,0,0,4.15-6.19,9.76,9.76,0,0,0,1.23-3.26c0-2.18-2.18-3.27-6.46-3.27a56.18,56.18,0,0,0-6.6.48c0,.21,0,.21,0,.28Z" transform="translate(-155.42 -234.68)"/><path id="Path_131" data-name="Path 131" class="cls-1" d="M395.58,345.27a2.71,2.71,0,0,1,1.9.89c.41.61,1,1.56,1.84,2.84,1.29,2.18,2.72,4.49,4.25,7.21a3.4,3.4,0,0,1,.56,1.77,2,2,0,0,1-1.42,1.63,3.18,3.18,0,0,1-1.77-.54c-1.22-.95-3.33-3.88-6.27-8.64a10.49,10.49,0,0,1-.94-1.9,2.5,2.5,0,0,1-.42-1.29C393.39,346.22,394.15,345.54,395.58,345.27ZM401.25,319c3.81-2.92,6.8-4.43,9.11-4.43.55.15.89.68,1,1.5,0,3.2-3,8.65-8.92,16.33,2.46-1.22,5.32-2.72,8.72-4.62a6.62,6.62,0,0,1,2.45-1,1.91,1.91,0,0,1,2.15,1.64,1.83,1.83,0,0,1,0,.33,10.84,10.84,0,0,1-2.11,5.9,12.69,12.69,0,0,1-3.06,3.62,2.34,2.34,0,0,1-1.56.54c-.61,0-.95-.34-.95-1a2.07,2.07,0,0,1,.47-1.22c1-2.11,1.84-4,2.38-5.44-6,5.17-10.33,7.89-13.12,8.16a1.68,1.68,0,0,1-1.85-1.46,2.41,2.41,0,0,1,0-.38,5.65,5.65,0,0,1,1.1-2.84q3.9-6.93,9.18-15.5c-3.53,3.54-7,5.58-10.28,6.12-1.09-.14-1.7-1-1.7-2.45,4.69-7.61,7.49-14.08,8.3-19.45a3,3,0,0,1,3-1.72,2,2,0,0,1,1.7,2c-.43,3.68-2.47,8.88-5.95,15.41Zm1.29,23.12a2.67,2.67,0,0,1,2,.82c.29.48.68,1.22,1.42,2.31q1.45,2.76,3.2,5.92a2.94,2.94,0,0,1,.41,1.5,1.62,1.62,0,0,1-1.16,1.42,2.83,2.83,0,0,1-1.56-.47c-1-.68-2.72-3-5.1-6.8a5.17,5.17,0,0,1-.75-1.41,2.25,2.25,0,0,1-.34-1.24c.06-1,.74-1.71,2-2.05Zm14.16,7.28a1.21,1.21,0,0,1-.6.68,1.84,1.84,0,0,1-1.1.27,6.62,6.62,0,0,1-3.6-2.24,13.61,13.61,0,0,1-3.25-3.95,2.36,2.36,0,0,1-.49-1.49,1.69,1.69,0,0,1,.54-1.16,2.18,2.18,0,0,1,1.09-.75H410a1.59,1.59,0,0,1,1,.4,9.65,9.65,0,0,0,1.22,1.41,14.42,14.42,0,0,0,4.25,4.9,1.08,1.08,0,0,1,.61,1.09,2,2,0,0,1-.35.84Zm20.62,2.45a16,16,0,0,1-1.09,2.92,35.3,35.3,0,0,1,3.54-.27c3.81-.27,7.48-.47,11.15-.75a22.2,22.2,0,0,1,2.24-.27c1.16,0,1.91.41,2.18,1.29a4.52,4.52,0,0,1-2.38,4.15c-.54.07-3.06.21-7.55.34-2.58,0-5.51.07-8.63.27a54,54,0,0,0-9.53,1.64c-1.36.28-3.95,1-7.75,2a7.66,7.66,0,0,1-1.77.27,2.55,2.55,0,0,1-.74-5,61.64,61.64,0,0,1,13.26-3.12,7.12,7.12,0,0,1,1.22-.14,1.73,1.73,0,0,1,.27-.68c.41-1.16.82-2.31,1.16-3.54a14.22,14.22,0,0,0,.34-2.84,18.06,18.06,0,0,0-.75-5.66,1.69,1.69,0,0,1-.2-.61c-1,.07-1.84.13-2.72.13h-4.83q-3.67,0-3.67-2.84c0-1.88,1.07-2.72,3.26-3.06.07.54.61.88,1.7.88h4.15a36.36,36.36,0,0,0,15.44-4.15,5.82,5.82,0,0,1,1.22-.34,2.26,2.26,0,0,1,1.5,2.45,2.53,2.53,0,0,1-1.42,2.11,23.76,23.76,0,0,1-8,3.81,11.46,11.46,0,0,1-1.42.27,26.22,26.22,0,0,1,.61,5.92,18.6,18.6,0,0,1-.68,4.75Zm-14-22.24a40.56,40.56,0,0,0-6.05-4.55,1.78,1.78,0,0,1-.9-1.58,6,6,0,0,1,1-2.91l1.85-3a70.46,70.46,0,0,0,3.06-7.09,1.83,1.83,0,0,1,1.7-1,7.14,7.14,0,0,1,1,.14,2.65,2.65,0,0,1,.94.75,1.45,1.45,0,0,1,.42,1c0,2.12-1.5,5.93-4.35,11.34.94.68,2,1.42,3.25,2.24a21.92,21.92,0,0,1,3.67,3.33,5,5,0,0,1,.56,2,2.66,2.66,0,0,1-.41,1.42,2,2,0,0,1-3.4.07,20,20,0,0,0-2.3-2.21ZM435.89,305a58.61,58.61,0,0,1-8.64,2.23,18.19,18.19,0,0,1-3.67.42h-1a2.06,2.06,0,0,1-2-2.13,1.1,1.1,0,0,1,0-.18v-1.17a3.89,3.89,0,0,1,2.25-2.31,6.93,6.93,0,0,0,1.7.13,29.16,29.16,0,0,0,7.54-1.08A65.1,65.1,0,0,0,441.6,298l1.29-.48a4.72,4.72,0,0,1,1.77.41c.75.55,1.15,1,1.15,1.41a3.41,3.41,0,0,1-.47,1.42,6,6,0,0,1-1.77,1.42,67.93,67.93,0,0,1-7.59,2.73Zm0,3.6a3.66,3.66,0,0,1,1.09,1c0,.2.07.48.07.82a17.55,17.55,0,0,1-2.45,7.08,1.4,1.4,0,0,0-.34.82,3.48,3.48,0,0,0,.68,1.7,16.94,16.94,0,0,0,4.35,4,1.44,1.44,0,0,1,.49,1.09,3.23,3.23,0,0,1-.56,1.22,2.12,2.12,0,0,1-1,.75,2,2,0,0,1-.95.13,3.67,3.67,0,0,1-1.48-.4,10.18,10.18,0,0,1-3.76-3.13,13.61,13.61,0,0,1-2.31-5,7.5,7.5,0,0,1-.21-1.76,2.57,2.57,0,0,1,.41-1.16,17.11,17.11,0,0,1,1-1.63,27.25,27.25,0,0,1,1.42-2.93,9.59,9.59,0,0,1,1.09-2.17,1.92,1.92,0,0,1,1.56-.62,5,5,0,0,1,1,.2Zm14,15.44a4.38,4.38,0,0,1-2.92-.27,13.55,13.55,0,0,1-4.7-3.13,4.63,4.63,0,0,1-1.08-3.2,3.64,3.64,0,0,1,.54-1.9l2-3.06c.48-.75,1-1.7,1.7-2.84a1.81,1.81,0,0,1,1.84-.95,6.63,6.63,0,0,1,1.08.13,2.3,2.3,0,0,1,1.23,1.7,13.41,13.41,0,0,1-2.18,5.51,7.66,7.66,0,0,1-.81,1.42,13.57,13.57,0,0,0,4.14,3.27,1.63,1.63,0,0,1,.55,1.29,2.2,2.2,0,0,1-1.35,2Z" transform="translate(-155.42 -234.68)"/><path id="Path_132" data-name="Path 132" class="cls-1" d="M513,301.74c-2.38,2.24-8.58,4.83-18.65,7.82-1.49.49-2.92.88-4.25,1.24-1.63,3.8-3.88,8.29-6.67,13.53-2.17,4-4.26,7.68-6.18,11-1.3,2.32-2.59,4.49-4,6.67a31,31,0,0,1-3.53,4.62,3.27,3.27,0,0,1-2,.82,1.3,1.3,0,0,1-.9-1.29,5.05,5.05,0,0,1,.42-1.7,11.87,11.87,0,0,1,1.77-3.88,67.9,67.9,0,0,1,4.54-8.5q4.09-7.08,8.17-15.1c.75-1.42,1.41-2.92,2.11-4.42-1.83.55-3.53,1-5.18,1.42a18.09,18.09,0,0,1-3.18.55,13.86,13.86,0,0,1-2.72.27c-1.24-.07-2-1-2.26-2.84,0-.75.63-1.5,2-2.18.81-.27,1.75-.54,3-.95,3.74-.75,7.41-1.63,11-2.58,1.08-3,1.9-5.66,2.58-8.23a2.28,2.28,0,0,1,2-1.5h.82c1.08.28,1.63,1.16,1.63,2.59a21.5,21.5,0,0,1-1.22,5.67,4.48,4.48,0,0,0,.88-.27,188.22,188.22,0,0,0,19.31-6,1.56,1.56,0,0,1,1.42.61,1.8,1.8,0,0,1,.14.68A3,3,0,0,1,513,301.74Zm-21.26,45.57c1-.4,1.77-.81,2.51-1.15a44.61,44.61,0,0,0,5.85-3.27,20.21,20.21,0,0,1,1.84-1.22,2.62,2.62,0,0,1,.95-.21,1.83,1.83,0,0,1,1.42.68,4.45,4.45,0,0,1,.14,1,4,4,0,0,1-.75,1.9,38.06,38.06,0,0,1-11.29,6.87,2,2,0,0,1-.95.27c-.14,0-.28,0-.28-.07-.27,3-.47,5.51-.54,7.48a9.6,9.6,0,0,1-.61,3,2.88,2.88,0,0,1-2,1.08,2.09,2.09,0,0,1-1.84-1.7,13.89,13.89,0,0,1,0-2c0-1.76.62-7.68,1.84-17.88,1-9,1.5-15.79,1.56-20.34v-3.81a2.37,2.37,0,0,1,1.7-2.45h1.57a2,2,0,0,1,1.15.48,34,34,0,0,1,6-1.91,28.76,28.76,0,0,1,4.69-.81c4,0,6.05,1.69,6.46,5.1-.12,4.35-.2,9.31-.2,15s.35,12.32,1,20.08c.27,3.12.68,6.52,1.1,10.13,0,2.11-.83,3.19-2.45,3.26a10.74,10.74,0,0,1-4.16-1.09,12.26,12.26,0,0,1-5.66-4.82,3.36,3.36,0,0,1-.48-1.5,1.59,1.59,0,0,1,1.41-1.63c1.09,0,3.2.95,6.19,2.84a231.14,231.14,0,0,1-1.62-27.2v-1.49c-.29.13-.56.34-.83.47-2.83,1.41-5.3,2.45-7.62,3.4a18.63,18.63,0,0,1-5,1.41c-.47,3.23-.85,6.63-1.08,10.16Zm14.7-28.15a1.7,1.7,0,0,0-1.85-1.5,27.58,27.58,0,0,0-10,2.83c-.12.82-.2,1.7-.27,2.52l-.68,6.32c-.12,1.23-.26,2.38-.4,3.54a10,10,0,0,1,1.08-.41c6.8-3.06,10.76-4.62,11.78-4.62h.12c0-2.9.1-5.76.25-8.68Z" transform="translate(-155.42 -234.68)"/><path id="Path_133" data-name="Path 133" class="cls-1" d="M554.52,338.27c-.14,2-.82,3-2.11,3a10.5,10.5,0,0,1-7.76-3.06,1.91,1.91,0,0,1-.68-.95c0-1.42.55-2,1.7-2.18,1.5.14,3.2.27,5,.48,0-2-.07-4.25-.07-6.6,0-3.26,0-6.53-.2-9.65a15.18,15.18,0,0,0-.89,1.63,35.54,35.54,0,0,1-4,6.39,41.08,41.08,0,0,1-4.35,5,1.83,1.83,0,0,1-1,.55,3.62,3.62,0,0,1-1,.2c-.68,0-1.1-.41-1.17-1.22a2.32,2.32,0,0,1,.83-1.63,54.26,54.26,0,0,0,5.22-6.94,39.06,39.06,0,0,0,3.55-7.08c.61-1.56,1.16-3.13,1.63-4.69-1.42.47-2.72.88-3.87,1.22a6.56,6.56,0,0,1-1.5.48,26.25,26.25,0,0,1-2.65.2c-1.29,0-2-.95-2.25-2.84,0-.8.62-1.56,2-2.24.74-.26,1.7-.55,2.92-.94a52.47,52.47,0,0,0,5.37-1.3,29,29,0,0,0-.81-3.46,4.52,4.52,0,0,1-.34-1.7,2.39,2.39,0,0,1,2.51-2.27l.21,0a3.09,3.09,0,0,1,2.51,2.25c.27.81.55,1.7.75,2.51a5.73,5.73,0,0,0,.14,1.23c3-.89,5.37-1.7,7.08-2.38a1.48,1.48,0,0,1,1.42.68,1.42,1.42,0,0,1,.13.61,2.82,2.82,0,0,1-.88,1.9c-1.09,1.23-3.54,2.59-7.41,4.08.07,1.3.13,2.66.27,4.08a66.13,66.13,0,0,1,7.08,11.33,11.88,11.88,0,0,1,1.42,4.16c0,1.09-.48,1.62-1.42,1.62a2.11,2.11,0,0,1-1.5-.87c-.68-1-1.63-2.45-2.83-4.42l-2.83-4.49Q554.72,334,554.52,338.27Zm-5.58,24.09a2.63,2.63,0,0,1-1.42.55A2,2,0,0,1,546,362a13,13,0,0,1-.88-1.22,12.68,12.68,0,0,1-1-4.25c-.14-1.22-.21-2.24-.34-3.06-.27-1.63-.48-3.19-.68-4.69a17.1,17.1,0,0,1-.55-3.4q0-1.86,2.25-2H546c.68,0,1.23.48,1.77,1.41.14.68.21,1.78.34,3.26.27,2.6.55,4.83.82,6.73s.47,3.62.75,5.1c.06,1.34-.22,2.14-.69,2.48Zm32.84-14.89a1.28,1.28,0,0,1-.34.14,16.75,16.75,0,0,1,4,2.92,5.42,5.42,0,0,1,1.29,3.06,7.44,7.44,0,0,1-3.47,6.32,16.69,16.69,0,0,1-7.82,2,18.12,18.12,0,0,1-9.45-3.06,21.08,21.08,0,0,1-6.94-8,3.2,3.2,0,0,1-.54-1.63,1.84,1.84,0,0,1,.47-1.42,2.48,2.48,0,0,1,4.15-.21c3.4,5.51,7.55,8.5,12.45,8.91,4.25,0,6.39-1.29,6.59-3.87a3.88,3.88,0,0,0-1.7-2.83c-.68-.41-1.29-.75-1.9-1.09a1.53,1.53,0,0,1-.75.2,8.24,8.24,0,0,1-2.72.68c-1.09,0-1.84-.74-2.18-2.24v-1a2,2,0,0,1,1.22-1.9,26.34,26.34,0,0,0,3.47-1.09,44,44,0,0,0,7.92-3.49l3.27-2a3.65,3.65,0,0,1,1.42-.34,1.67,1.67,0,0,1,1.56,1.7,2.85,2.85,0,0,1-.42,1.63c-1.23,1.73-4.42,3.91-9.6,6.56Zm-13.87-15.59c-.13-1.42-.13-3.19-.13-5.67,0-3.06,0-5.85.13-8.36s.14-5.17.34-8.17c0-1.42.07-2.92.07-4.62-.07-.48-.14-.95-.27-1.5a4.88,4.88,0,0,1,0-1.08c0-.41.27-.75.75-1.16a3.11,3.11,0,0,1,2-.88,2.46,2.46,0,0,1,2,1.18,43.85,43.85,0,0,1,6.46-.61h1.09a3.89,3.89,0,0,1,2.84,1.9,22.93,22.93,0,0,1,1.14,4.76c.15,1.64.29,3.61.42,6.06.26,4.77.48,10.2.75,16.26a3.94,3.94,0,0,1-.88,2.38,3.14,3.14,0,0,1-2.4,1.16,1.55,1.55,0,0,1-1.48-.68,41.17,41.17,0,0,1-6.39,3.06,22.11,22.11,0,0,1-4,.88,2.84,2.84,0,0,1-2.72-2.65,1.58,1.58,0,0,1,.55-1.42,2.71,2.71,0,0,1-.24-.78Zm4.25-5.5c0,1.76.07,3.6.13,5.37l.82-.21a29.76,29.76,0,0,0,7.21-3V323a6.17,6.17,0,0,1-1.5.68,20.8,20.8,0,0,1-5.44,1.9,2.56,2.56,0,0,1-1.14.34Zm.13-7.69v3.13c1-.2,1.63-.34,2.1-.49,1.5-.34,3.27-.8,5.38-1.41a1.94,1.94,0,0,0,.54-.13v-6c-1.63.68-3.53,1.5-5.66,2.38l-2,.82a5.22,5.22,0,0,0-.34,1.74Zm7.21-11.9c-.27-1-.75-1.42-1.41-1.42a28.83,28.83,0,0,0-4.55.41,47.63,47.63,0,0,1-.63,5.58,11.14,11.14,0,0,0-.2,1.83c1.56-.68,3.75-1.42,6.47-2.31l.82-.2a19.94,19.94,0,0,0-.53-3.84Z" transform="translate(-155.42 -234.68)"/><path id="Path_134" data-name="Path 134" class="cls-1" d="M618.72,355A108.63,108.63,0,0,0,636,359.62a72.23,72.23,0,0,0,7.75.95c2.31.21,4.35.34,6.19.34a43.21,43.21,0,0,0,5-.2c1.42-.14,3-.34,4.7-.54a19.37,19.37,0,0,1,2.84-.28c1.16,0,1.77.28,1.91,1a2.81,2.81,0,0,1-.48,1.29,3.47,3.47,0,0,1-1.29,1.09A57.33,57.33,0,0,1,646,365.37c-9.8,0-21-2.38-33.68-7a45.92,45.92,0,0,1-6-2.72c-1.16-.68-2.11-1.29-2.93-1.84a2.66,2.66,0,0,1-.4-1.56,3,3,0,0,1,1-2.18,2.07,2.07,0,0,1,1.56-.61,3.29,3.29,0,0,1,1.41.41c.83.41,1.9.88,3.14,1.42a11.87,11.87,0,0,0,2-6.46,5.37,5.37,0,0,0-1.28-2.93,4.4,4.4,0,0,1-1.24-2.72,8,8,0,0,1,2.38-4.77,3.82,3.82,0,0,0,.9-1.62,7.85,7.85,0,0,0-1.17-2.72,25.55,25.55,0,0,1-2.45-2.65c0-1.42,1-2.12,2.67-2.12a3.49,3.49,0,0,1,1.82.95,6.67,6.67,0,0,1,3.62,5.67c0,1.7-1,4.08-3,7.08a11.36,11.36,0,0,1-.34,14C615.59,353.71,617.15,354.39,618.72,355Zm.47-34.62a4.28,4.28,0,0,1-2.84-1.42,22.81,22.81,0,0,0-7.62-3.26,3.29,3.29,0,0,1-1.42-.48,5.48,5.48,0,0,1-.2-1.56,5,5,0,0,1,0-1c.27-1,1.22-1.57,2.72-1.64a13.32,13.32,0,0,1,5.23,1.23,18.32,18.32,0,0,1,5.31,3.6,5,5,0,0,1,.47,2c-.08,1.69-.63,2.5-1.65,2.5Zm9.39,9.46c0,.68-.21,2.92-.41,6.73-.14,2-.14,3.87-.14,5.44a38.25,38.25,0,0,0,.27,5.24,17.58,17.58,0,0,0,.82,3.74v.61a1.68,1.68,0,0,1-1.53,1.83h-.31c-.68,0-1.29-.47-1.76-1.49-1.64-2.83-2.52-7.41-2.52-13.54,0-1.63.14-4.25.54-8.09.07-.95.14-1.9.14-2.92a3,3,0,0,1,.75-1.91,3.71,3.71,0,0,1,1.56-.81h.55a2.58,2.58,0,0,1,2.17,2.24c-.07,1.23-.12,2.25-.12,2.93Zm13.39-8a19,19,0,0,1-.2-2.72c0-.95-.14-2-.14-2.92a8.33,8.33,0,0,0-.2-1.5,6.93,6.93,0,0,1-.2-.75,4.45,4.45,0,0,1-1,.14h-.47a1.33,1.33,0,0,1-.9-.68,1.81,1.81,0,0,1,.41-2.52l.22-.13a67.11,67.11,0,0,1,7.54-1.91,11.15,11.15,0,0,1,1.91-.2,1.82,1.82,0,0,1,1.15.68,2.81,2.81,0,0,1,.48,1.14c0,.56-.41,1-1.16,1.3-1.15.34-2.65.74-4.42,1.22a.28.28,0,0,0,0,.22,11.36,11.36,0,0,1,.26,1.75v6.34c3.4-.49,7-.9,10.55-1.17,1.41,0,2.83-.07,4.08-.07,2,.34,3.13,2.26,3.13,5.67,0,1.09-.2,3.19-.47,6.25-.14,1.5-.21,3.34-.21,5.38,0,2.51,0,5.3.07,8.43,0,4,.14,6.73.27,8.09s-.88,1.91-2.58,2A8.5,8.5,0,0,1,653,352a3.23,3.23,0,0,1-.34-1.5c.15-.34.34-.54.63-.54,1.07.2,2.5.47,4.35.88,0-1,0-2.17.12-3.67,0-2.11,0-5.1.15-8.91,0-4.08.14-8,.41-11.76,0-1.42-.27-2-.68-2.11a99.38,99.38,0,0,0-25.5,4.35c-1.09-.14-1.7-.88-1.77-2.38,0-.88.53-1.63,1.77-2.18a.4.4,0,0,0,.34-.13,47.64,47.64,0,0,0-1.09-8.16c-1-4.76-1.9-8.72-2.58-11.85a3.08,3.08,0,0,1,.81-1.63,1.82,1.82,0,0,1,1.57-.8,6.81,6.81,0,0,1,1.42.12,3.82,3.82,0,0,1,1.41,1.24,35.72,35.72,0,0,1,5.67-2.19,38.08,38.08,0,0,1,8.77-1.09,14.45,14.45,0,0,1,5.85,1,7.47,7.47,0,0,1,2.84,2.45,4.9,4.9,0,0,1,.75,2.65,12.72,12.72,0,0,1-1.22,4.69,25.18,25.18,0,0,1-4.25,7.09,3.78,3.78,0,0,1-1.9.61c-1.09,0-1.63-.56-1.63-1.7a1.82,1.82,0,0,1,.61-1.29A35.16,35.16,0,0,0,652,309.7a9.83,9.83,0,0,0,.81-2.92q0-3.06-4.08-3.06a34.57,34.57,0,0,0-13.73,3.4c.13,1.5.34,3.2.61,5.18.68,5.24,1.09,8.7,1.09,10.47,1.67-.22,3.37-.56,5.27-1Zm9.92,19.83a26.46,26.46,0,0,1-5.17,3.19,30.09,30.09,0,0,1-6.2,2.52,2,2,0,0,1-2,1.58,1.73,1.73,0,0,1-1.91-1.5,2,2,0,0,1,0-.35,44.42,44.42,0,0,0-.88-5.24c-.82-3-1.5-5.51-2-7.48a3,3,0,0,1,.81-1.56,1.74,1.74,0,0,1,1.41-.82,6.77,6.77,0,0,1,1.42.14c.2.13.34.27.48.34.81-.21,1.63-.41,2.45-.55a31.86,31.86,0,0,1,5.16-.4,9.85,9.85,0,0,1,4.49,1,4.83,4.83,0,0,1,2.31,2.24,8,8,0,0,1,.48,2.65,6.72,6.72,0,0,1-.41,1.63q.11.21.21.21a3.61,3.61,0,0,1,.13.81,2.92,2.92,0,0,1-.71,1.6Zm-7.34,0a10.05,10.05,0,0,0,2.92-3.2A5.2,5.2,0,0,0,648,337c0-.89-.68-1.41-1.91-1.41a29.36,29.36,0,0,0-6.59.88c.13.87.27,1.84.47,2.83.28,1.63.48,3,.61,3.94.55-.2,1.09-.41,1.5-.61.82-.34,1.63-.68,2.45-.95Z" transform="translate(-155.42 -234.68)"/><path id="Path_135" data-name="Path 135" class="cls-1" d="M268.06,402.06a31.31,31.31,0,0,1,2.31,7.75v.82a1.75,1.75,0,0,1-.88,1.16,1.42,1.42,0,0,1-1,.4,2.24,2.24,0,0,1-1.7-.88c-2.17-4.49-4.76-10.13-7.75-17.07a2.38,2.38,0,0,1-.2-1,2.12,2.12,0,0,1,.27-1,2.82,2.82,0,0,1,2.65-1.57,4,4,0,0,1,1.63.62c.55.95,1.09,2,1.64,3.06l.13.27a43.75,43.75,0,0,1,4.25-1.63c1.49-.41,3.06-.82,4.55-1.16-.34-.82-.61-1.5-.88-2.18a2.38,2.38,0,0,1,.68-1.42,2,2,0,0,1,1.56-.89,4.6,4.6,0,0,1,1.23.14,2.54,2.54,0,0,1,1.42,1.42c.21.4.41.94.68,1.62q5.31-1.23,10.2-2.25c0-.88-.13-1.83-.2-2.83a9.65,9.65,0,0,1-.07-1.42V384c-.68.14-1.29.2-1.9.34a119,119,0,0,1-12.87,2.24,45.77,45.77,0,0,1-5.37.28h-1.62a1.91,1.91,0,0,1-2-1.84,1.3,1.3,0,0,1,0-.34v-.87a4.07,4.07,0,0,1,2.16-2.3,13.88,13.88,0,0,0,1.58,0,98.7,98.7,0,0,0,11.9-.81,138.57,138.57,0,0,0,15-2.55,12.22,12.22,0,0,1,1.91-.4,4.16,4.16,0,0,1,1.7.4c.61.41.95.75.95,1.16a2.57,2.57,0,0,1-.41,1.22,4,4,0,0,1-1.5,1.09,44.79,44.79,0,0,1-5.1,1.42,8.63,8.63,0,0,1,.82,4.25,73.85,73.85,0,0,1,9.72-1.15c2.59,0,4.08,1,4.36,3a7.65,7.65,0,0,1-1.16,3.88,25.79,25.79,0,0,1-4.9,6.25,3.37,3.37,0,0,1,.14.89,3.24,3.24,0,0,1-.87,1.9A66.76,66.76,0,0,1,290,406.66c-3.06,1-6,1.9-8.9,2.65a8.26,8.26,0,0,1,.74,3.82,18.09,18.09,0,0,1-.74,4.95c-.28.68-.48,1.42-.69,2,1.23-.07,2.45-.14,3.75-.26,1.9-.15,3.6-.27,5.16-.49a23,23,0,0,0-1.08-4.15,17,17,0,0,0-1.5-3.06,2,2,0,0,1,.57-2.81l0,0a2.15,2.15,0,0,1,1.57-.61,3,3,0,0,1,2.05,1,16.18,16.18,0,0,1,2.5,5.23,32.67,32.67,0,0,1,.68,3.81,82.37,82.37,0,0,0,8.43-1.42c1.42-.27,2.6-.54,3.69-.82a21.45,21.45,0,0,1,3.94-1.15,1.62,1.62,0,0,1,1.41.88,5.74,5.74,0,0,1,1.16,2.59,1.78,1.78,0,0,1-1.41,1.7,16.82,16.82,0,0,1-4.56,1.22c-1.17.27-3.14.61-5.86,1-2.45.34-4.69.61-6.73.89a26.12,26.12,0,0,1-3.74,12c-.75,1.09-1.5,2.11-2.24,3.08h.27c1.9.55,4.08,1.16,6.59,1.7a1.79,1.79,0,0,1,.55,1.5c-.27,1.28-1.41,2.11-3.13,2.38h-1a18.7,18.7,0,0,1-5.92-1.5,9,9,0,0,1-1-.4,35.66,35.66,0,0,1-5.92,4.13,4.41,4.41,0,0,1-2.24.75,2.16,2.16,0,0,1-2.31-1.7,1.86,1.86,0,0,1,1.15-1.82,31,31,0,0,0,5.51-3.48,13.11,13.11,0,0,1-1.83-1.41c-3.47-3.06-5.17-6.19-5.17-9.52a10.64,10.64,0,0,1,.41-3.13c-2.72.46-5,.94-7.08,1.41A47.61,47.61,0,0,0,261,429.4a8.58,8.58,0,0,1-3.2.68c-1.16,0-1.84-.88-2-2.45a2.53,2.53,0,0,1,.75-2,4.84,4.84,0,0,1,2.44-1.41,42.24,42.24,0,0,1,5.51-1.58c3.62-.8,7.29-1.41,11.1-2v-.2a30.88,30.88,0,0,0,1-6.05,13.92,13.92,0,0,0-.14-1.7,9.46,9.46,0,0,1-.2-1.91.94.94,0,0,1,0-.41c-.54.14-1,.21-1.42.28a2.82,2.82,0,0,1-1.16.4,1.68,1.68,0,0,1-1.42-1.07,3.87,3.87,0,0,1-.61-2.38,2,2,0,0,1,1.42-1.7c1.9-.42,3.61-.83,5.24-1.17a30.91,30.91,0,0,0-1.5-6.12c-.34-.68-.61-1.41-.88-2.11-2.83.82-5.85,1.63-8.91,2.58a23.41,23.41,0,0,1,1.06,3.05ZM278.39,428a9.61,9.61,0,0,0,4.15,7.82,15.54,15.54,0,0,0,1.92,1.16,24.44,24.44,0,0,0,3.25-5,30.74,30.74,0,0,0,1.85-7.62c-1.42.2-2.72.34-4,.47-2.45.34-4.76.62-6.92.89a10.59,10.59,0,0,0-.29,2.31Zm2.11-32a35.53,35.53,0,0,1,1.77,8c1.58-.41,3.06-.82,4.49-1.3a58.69,58.69,0,0,1,1.56-8.22,5.16,5.16,0,0,0,.29-1c-2.6.61-5.32,1.29-8.24,2a1.13,1.13,0,0,0,.13.54ZM293.25,393a41.43,41.43,0,0,1-3.06,8,5.11,5.11,0,0,0-.41.68c1.77-.54,3.55-1,5.18-1.56.94-.41,1.77-.68,2.45-1a28,28,0,0,0,5.44-8.43c-2.6.27-5.78.83-9.47,1.5a3.82,3.82,0,0,0-.08.75Z" transform="translate(-155.42 -234.68)"/><path id="Path_136" data-name="Path 136" class="cls-1" d="M354.77,409.54a12.88,12.88,0,0,1-3-2.51,2,2,0,0,1-.55-1.57c0-.75.41-1.15,1.23-1.29,2,0,5.52,1.29,10.54,3.81.76-1.16,1.9-4.63,3.48-10.41a49.81,49.81,0,0,0,1.62-10c0-.68-.41-1.09-1.21-1.17a67.49,67.49,0,0,0-11.17,2.38,11,11,0,0,1-1.77.54,14.09,14.09,0,0,1-2.51,5.05q-10.31,15.09-15.3,17.95a2.09,2.09,0,0,1-1.29.61,2.11,2.11,0,0,1-2.31-1.89,2.62,2.62,0,0,1,0-.28c0-.55.62-1.3,1.84-2.38a79.6,79.6,0,0,0,13.46-17.48,71.54,71.54,0,0,1-11.22,2.38c-1.63,0-2.51-.68-2.58-2a2.29,2.29,0,0,1,1.08-2.19c1.22-.46,3-1.09,5.3-1.77,5-1.41,9.92-2.58,14.57-3.67a68.5,68.5,0,0,1,13.66-2,4.28,4.28,0,0,1,3.13,1.63,7.48,7.48,0,0,1,1.09,4.49,68.53,68.53,0,0,1-1.16,10,72.47,72.47,0,0,1-1.9,8.5,11.35,11.35,0,0,1-2.84,5.25,6.75,6.75,0,0,1-4.08,1.28C361,412.74,358.32,411.72,354.77,409.54ZM351,417.7c3.06-.27,5.92-.47,8.5-.47a36.52,36.52,0,0,1,6,.4,9.11,9.11,0,0,1,5.66,2.72,6.16,6.16,0,0,1,1.5,3.81,19.49,19.49,0,0,1-1.57,6.46,33.75,33.75,0,0,1-2.51,4.76,1.25,1.25,0,0,1,.47-.07,2.17,2.17,0,0,1,1.63.9,3.86,3.86,0,0,1,.14,1,3.76,3.76,0,0,1-.88,2,71,71,0,0,1-10.07,3.19A100.79,100.79,0,0,1,347,445a1.93,1.93,0,0,0,0,.34,2.09,2.09,0,0,1-1.3,2.12h-.61a2.15,2.15,0,0,1-2-1.42,26.06,26.06,0,0,1-2.11-4.35,65.19,65.19,0,0,1-2.72-17.15c-.13-2.45-.13-4.9-.13-7.28a2.66,2.66,0,0,1,2.38-1.9H341a2,2,0,0,1,1.93,2.11,1.23,1.23,0,0,1,0,.2v1.58A59.76,59.76,0,0,1,351,417.7Zm.48,21.25q5.22-.92,9.53-1.84a2.46,2.46,0,0,1,.94-1.15,17,17,0,0,0,2.84-4.08,19.92,19.92,0,0,0,2.38-6.87c0-1.42-1.91-2.18-5.58-2.31a57,57,0,0,0-9.67.88,69.68,69.68,0,0,0-8.57,1.77.48.48,0,0,1-.2.07,26.5,26.5,0,0,0,.14,3.33,41.72,41.72,0,0,0,1.9,11.08,63.49,63.49,0,0,1,6.29-.91Z" transform="translate(-155.42 -234.68)"/><path id="Path_137" data-name="Path 137" class="cls-1" d="M404.08,399.38a13,13,0,0,1,5,.95,5.67,5.67,0,0,1,3.26,5.67,19.92,19.92,0,0,1-1.83,6.39,2,2,0,0,1,.95.75,2.45,2.45,0,0,1,.14.8,3.31,3.31,0,0,1-.68,1.5,28,28,0,0,1-5.44,4.26,41.2,41.2,0,0,1-7.48,3.6,2.79,2.79,0,0,1-1,.26,1.62,1.62,0,0,1-1.42-.94,3.46,3.46,0,0,1-.55-2.19,1.92,1.92,0,0,1,1.16-1.7,53.28,53.28,0,0,0-.95-7c-1-4.62-1.7-8.5-2.38-11.49a2.4,2.4,0,0,1,.74-1.41,1.86,1.86,0,0,1,1.5-.9,6.21,6.21,0,0,1,1.29.14,3,3,0,0,1,1.5,1.5.86.86,0,0,0,.14.47A26.68,26.68,0,0,1,404.08,399.38Zm-3.81,17.82L403.1,416a5.31,5.31,0,0,1,.68-1,40.17,40.17,0,0,0,4.08-7.48,20,20,0,0,0,.27-2.18c-.48-.95-1.56-1.49-3.33-1.49a27,27,0,0,0-6,.88c.14,1.09.34,2.32.48,3.68.48,3.94.75,6.93.88,8.84Zm28.83-22.44a25.84,25.84,0,0,0,2.84-3.34c1.84-2.31,2.83-3.8,2.83-4.48-2.31.68-5,1.29-7.95,1.9a12.47,12.47,0,0,1-3.33.48,3.58,3.58,0,0,1-3.27-3.61,5.76,5.76,0,0,1,.82-2,31.43,31.43,0,0,1,3.81-5.85,1.58,1.58,0,0,1,1.15-.4h.75a2,2,0,0,1,1.42,2.11,16.38,16.38,0,0,1-2.84,5.58,78.84,78.84,0,0,1,7.82-1.91,15.17,15.17,0,0,1,3.28-.4c2.17.27,3.26,1.14,3.33,2.65a12.3,12.3,0,0,1-3.74,7.48h.14a69.35,69.35,0,0,1,8.5-1.24h1.63c2.45.42,3.74,2.12,3.74,5.1,0,2.72-.34,6.75-.89,12.19-.34,3.47-.68,6.53-1,9.25a.91.91,0,0,0,.41-.14,18.16,18.16,0,0,1,2.38-.95,6.84,6.84,0,0,1,2.18.54c1,.55,1.42,1.09,1.42,1.57a3,3,0,0,1-.68,1.63,5.78,5.78,0,0,1-2.11,1.56,83.31,83.31,0,0,1-13,4.69,103.83,103.83,0,0,1,13.53,13,10.78,10.78,0,0,1,3.06,5.17c0,1.24-.53,1.92-1.49,1.92a2.66,2.66,0,0,1-1.64-1c-1.42-1.29-3.46-3.11-5.91-5.57a121.27,121.27,0,0,0-12.86-11.43,1.56,1.56,0,0,1-.27-.4h0a29.82,29.82,0,0,1-2.84,5.5c-1.09,1.64-2.32,3.61-3.74,5.85-1,1.24-1.84,2.38-2.59,3.47a18.59,18.59,0,0,1-2.24,2.11,2.42,2.42,0,0,1-1.57.54,1.49,1.49,0,0,1-1.42-1.55h0a2.35,2.35,0,0,1,.54-1.7,13,13,0,0,1,1.5-2.11c1.08-1.41,2.24-3.06,3.46-5,.82-1.5,1.77-3.2,2.73-5,.13-.27.2-.47.33-.74-1.63.4-3.19.81-4.82,1.08a57,57,0,0,1-6.53.62h-2a2.22,2.22,0,0,1-2.2-2.25c0-.07,0-.13,0-.2V428a4.33,4.33,0,0,1,2.45-2.53,15,15,0,0,0,1.9.07,57.75,57.75,0,0,0,13.4-1.7,28.59,28.59,0,0,0,.68-5,2,2,0,0,1,1.56-1.7h1.42c1.23.13,1.84,1.21,1.91,3.33a20,20,0,0,1-.14,2c2.52-.61,5.1-1.42,7.82-2.31a3.18,3.18,0,0,1-.07-.75,9.89,9.89,0,0,1,.34-2.11c.14-.88.41-2,.68-3.26.28-2,.62-4.7,1-8.1s.62-6.25.75-9.11c0-.54-.47-.83-1.42-.83a54.67,54.67,0,0,0-10.4,2.4q-6,1.62-11.22,3.46c0,1.23.07,2.52.07,3.74,0,4.7.27,10,.68,15.85,0,1.83-.55,2.72-1.57,2.72h-1c-1.22,0-1.83-1.29-1.9-3.88-.14-1.22-.34-4.62-.75-10.2L417.24,399c-.07-.47-.2-1-.34-1.63a2.12,2.12,0,0,1,1.9-2.31h1.09a2.31,2.31,0,0,1,2.18,1.83c2-.67,4.24-1.35,7-2.16Zm8.1,7.61a7.32,7.32,0,0,1-1,2.66l-.48.88a13.27,13.27,0,0,1,5.37,5.85,6.12,6.12,0,0,1,.48,1.77c-.07.68-.55,1.08-1.41,1.08a3.42,3.42,0,0,1-1.1-.13,19.4,19.4,0,0,1-6.19-4.35,45.56,45.56,0,0,1-3.06,4.14,8.31,8.31,0,0,1-2.31,2.38,2.75,2.75,0,0,1-1.41.28c-1.09-.07-1.56-.68-1.56-1.84a2.44,2.44,0,0,1,.47-1.42,43.67,43.67,0,0,1,3.61-6c1.42-2.6,2.58-4.77,3.53-6.54a3.35,3.35,0,0,1,2.25-1.41,2.46,2.46,0,0,1,2.81,2.06,2.24,2.24,0,0,1,0,.52Z" transform="translate(-155.42 -234.68)"/><path id="Path_138" data-name="Path 138" class="cls-1" d="M465.63,426.88a2.71,2.71,0,0,1,1.9.89c.41.61,1,1.56,1.84,2.84,1.29,2.18,2.72,4.49,4.25,7.21a3.3,3.3,0,0,1,.55,1.77,2,2,0,0,1-1.41,1.63,3.18,3.18,0,0,1-1.77-.54c-1.22-.95-3.33-3.88-6.27-8.64a11.24,11.24,0,0,1-1-1.9,2.55,2.55,0,0,1-.41-1.29C463.45,427.83,464.2,427.15,465.63,426.88Zm5.67-26.25c3.81-2.92,6.8-4.42,9.11-4.42.55.14.89.68,1,1.5,0,3.18-3,8.64-8.92,16.32,2.45-1.22,5.32-2.72,8.72-4.62a6.79,6.79,0,0,1,2.45-1,1.91,1.91,0,0,1,2.15,1.64,1.83,1.83,0,0,1,0,.33,10.9,10.9,0,0,1-2.11,5.91,13,13,0,0,1-3.06,3.61,2.29,2.29,0,0,1-1.56.54c-.61,0-.95-.34-.95-1a2,2,0,0,1,.47-1.22c1-2.11,1.84-4,2.38-5.44-6,5.17-10.23,7.89-13.07,8.16-1.22-.07-1.84-.68-1.84-1.84a5.73,5.73,0,0,1,1.09-2.84q3.9-6.93,9.18-15.5c-3.53,3.54-7,5.58-10.27,6.12-1.08-.14-1.7-.95-1.7-2.45,4.7-7.62,7.48-14.08,8.3-19.45a3,3,0,0,1,2.92-1.77,2,2,0,0,1,1.7,2c-.41,3.78-2.45,8.94-6,15.47Zm1.28,23.12a2.68,2.68,0,0,1,2,.82c.29.48.68,1.23,1.42,2.31,1,1.84,2,3.81,3.2,5.92a2.94,2.94,0,0,1,.41,1.5,1.62,1.62,0,0,1-1.16,1.42,2.8,2.8,0,0,1-1.56-.47c-1-.68-2.72-3-5.1-6.8A5.36,5.36,0,0,1,471,427a2.15,2.15,0,0,1-.34-1.21,2.33,2.33,0,0,1,2-2.07ZM486.75,431c-.2.41-.4.61-.61.68a1.73,1.73,0,0,1-1.09.27,6.66,6.66,0,0,1-3.6-2.24,13.63,13.63,0,0,1-3.26-3.94,2.44,2.44,0,0,1-.48-1.5,1.71,1.71,0,0,1,.54-1.16,2.24,2.24,0,0,1,1.09-.75h.75a1.59,1.59,0,0,1,1,.4,9.73,9.73,0,0,0,1.22,1.42,14.52,14.52,0,0,0,4.25,4.9,1.06,1.06,0,0,1,.61,1.09,1.92,1.92,0,0,1-.35.83Zm21-.41a.33.33,0,0,1-.16-.07v2.66a64.06,64.06,0,0,1-.87,10.54,19.87,19.87,0,0,1-.88,2.84,2.13,2.13,0,0,1-1.65,1.5c-1.9,0-2.83-.54-2.83-1.5.88-2.1,1.42-7.27,1.49-15.59V419.44a41,41,0,0,0-5.3,3.06c-.82.68-1.7,1.42-2.58,2.11l-.82.81c.2,1.77.34,3,.34,3.74,0,1.91-.75,2.93-2.19,2.93a1.78,1.78,0,0,1-2-1.5,2.61,2.61,0,0,1,0-.4,49.28,49.28,0,0,0-.87-5.66c-.9-3.26-1.63-6-2.26-8.16a3.34,3.34,0,0,1,.75-1.56,2,2,0,0,1,1.7-.82,6.17,6.17,0,0,1,1.42.14,2.34,2.34,0,0,1,1.57,1.56,29,29,0,0,1,.81,4.35,60,60,0,0,1,6-3.87c1.22-.68,2.45-1.24,3.67-1.77,0-.95.07-2,.14-3.06a2.35,2.35,0,0,1,1.7-2.45h1.42c1.3.41,2,1.16,2,2.24v1.41a29.1,29.1,0,0,1,5.3-1.22c1.41-.26,2.72-.53,4.08-.68.75,0,1.84-.07,3.2-.07a5.25,5.25,0,0,1,2.31.75,3.2,3.2,0,0,1,.88,1.9v1.24a12.74,12.74,0,0,1-1.22,4.35,25.14,25.14,0,0,1-2.94,4.83,29,29,0,0,1-6.58,6.12,7.25,7.25,0,0,1-3.47,1.22,4.39,4.39,0,0,1-2-.36Zm-17.14-43c-1.42,0-2-.9-2-2.72a2.13,2.13,0,0,1,1.94-2.32h0c1.42,0,5.67-1.63,12.87-5,1.22,0,1.9.34,2.17.88a4.91,4.91,0,0,1-.13,1,2.85,2.85,0,0,1-1.16,1.42,19,19,0,0,1-4.35,3.27c-1.42.68-2.59,1.29-3.67,1.77h0a20.65,20.65,0,0,1,.66,2.33c.15,0,.22,0,.29-.22a39.88,39.88,0,0,1,7.48-.68,25,25,0,0,1,7.48,1.09,6.65,6.65,0,0,1,4.62,6.66,16.16,16.16,0,0,1-3.81,8.38c0,.14.07.2.07.27a2.34,2.34,0,0,1-1,2,38.63,38.63,0,0,1-9.59,3.47,29.42,29.42,0,0,1-4.48.61h-.07a2.07,2.07,0,0,1-1.92,1.28c-1.08,0-1.63-.61-1.63-1.82v-6A49.62,49.62,0,0,0,492.88,393c-.34-1.64-.68-3.13-1.09-4.56a2.62,2.62,0,0,1-.34-1,3,3,0,0,1-.73.14Zm14.76,3.86a44.54,44.54,0,0,0-7.55.95,12.34,12.34,0,0,0,.27,2.26,18.71,18.71,0,0,0,.14,2.24q1.83-.19,3.06-.42c2.45-.26,5.37-.8,8.84-1.48,1.09-.15,1.9-.27,2.51-.41-1-2-3.37-3.14-7.19-3.14Zm6.66,6.07c-1.42.4-2.84.81-4.35,1.15a72.76,72.76,0,0,1-9.25,1.84v4.82a22.42,22.42,0,0,0,2.93-.4,32.59,32.59,0,0,0,8.77-3.14h.2a41.81,41.81,0,0,0,1.78-4.27Zm-4.44,27.54v.88c.29.14.49.2.63.27a3,3,0,0,0,1.41.34,3.2,3.2,0,0,0,2-1,17.17,17.17,0,0,0,3.26-3.6,48.06,48.06,0,0,0,3.88-6.46h-1.29a42.29,42.29,0,0,0-9.39,1.83,70.54,70.54,0,0,0-.47,7.69Z" transform="translate(-155.42 -234.68)"/><path id="Path_139" data-name="Path 139" class="cls-1" d="M580.83,388.65a3.11,3.11,0,0,1,.56,1.58,1.68,1.68,0,0,1-1.09,1.41c-3.62,1-7.7,2.11-12.32,3.28v.21c-.27,3.4-.48,6.05-.48,8a87.42,87.42,0,0,1,11.56-2,2.09,2.09,0,0,1,1.65.75,2.81,2.81,0,0,1,.53,1.56,1.83,1.83,0,0,1-1.09,1.57c-3.67,1.15-7.95,2.38-12.75,3.67l-.27,8.64c10.4-2.52,18.42-4.76,24.34-6.74a1.84,1.84,0,0,1,1.58.89,1.18,1.18,0,0,1,.2.75,3.85,3.85,0,0,1-1.09,2.31c-3.26,2.45-11.7,5.44-25.24,8.84-.13,2.46-.2,4.5-.27,6.25-.41,7.36-1.41,12.75-3.06,16.47-.41,1.63-1.29,2.52-2.65,2.52-1,0-1.5-.82-1.5-2.38a79,79,0,0,0,2-14.35l.34-7.36q-9,2.14-16.93,3.88c-2,.41-3.54.68-4.49.81a13.61,13.61,0,0,1-2.84.28c-1.41-.07-2.18-1.09-2.38-3,0-.8.68-1.62,2-2.38.82-.27,1.9-.61,3.13-.95Q551.47,421,562,418.45l.29-8.5c-3.4.95-7.09,1.9-10.88,2.84a2.47,2.47,0,0,1-2.53-2.18v-.82a1.91,1.91,0,0,1,1.09-1.57,94.78,94.78,0,0,1,12.31-3.94c0-2.59.13-5.24.27-8q-6.84,1.75-14.69,3.6a2.51,2.51,0,0,1-2.65-2.16v-.83a2.23,2.23,0,0,1,1.08-1.55,135,135,0,0,1,17.68-4.9c1-.13,1.84-.34,2.73-.54a21,21,0,0,0,5.1-7.09,9.4,9.4,0,0,0,.54-2.83v-1.29a2.3,2.3,0,0,1,2.11-1.57c1.83,0,2.84,1.09,2.92,3.2V381c-.27,2.44-2.31,5.1-6.12,8a54.13,54.13,0,0,1,7.89-1.22A1.93,1.93,0,0,1,580.83,388.65ZM559.21,388a1.72,1.72,0,0,1-1.41.56,2,2,0,0,1-1.42-.41,12.17,12.17,0,0,1-1.5-.83,26.45,26.45,0,0,1-5.57-5.1.81.81,0,0,1-.07-.41,2.82,2.82,0,0,1,.54-1.49,3.08,3.08,0,0,1,1.42-1.09,3.5,3.5,0,0,1,1.28-.2,2.62,2.62,0,0,1,2,1.56c1,.95,1.92,2,2.84,3.06,1.16,1.22,1.9,2.11,2.31,2.52v.61a1.72,1.72,0,0,1-.46,1.22Z" transform="translate(-155.42 -234.68)"/><path id="Path_140" data-name="Path 140" class="cls-1" d="M625.38,412.4c-1.22-1.77-2.52-3.47-3.74-5.1a1.9,1.9,0,0,1-.41-1.23v-.68a3,3,0,0,1,.95-1.76,3.59,3.59,0,0,1,1.5-.68h.82a6.07,6.07,0,0,1,1.22.48c1.9,1.7,4.76,6.12,8.5,13.34a14.48,14.48,0,0,1,1.56,4.76c0,1.48-.68,2.24-2,2.24a2.57,2.57,0,0,1-1.9-1.15,53.83,53.83,0,0,1-3.28-5.05l-.2-.34A39.19,39.19,0,0,1,617,432.53a10.19,10.19,0,0,1-5.91,2.84,3.58,3.58,0,0,1-2.87-3.4c-.08-1-.08-2.45-.08-4.25,0-5.18.13-10.47.42-15.79A37.88,37.88,0,0,0,607,400.44a15.43,15.43,0,0,1-.88-4.56v-.95a2.43,2.43,0,0,1,2.51-2,3.15,3.15,0,0,1,2.18,1c1.85,3.33,2.84,10.13,2.84,20.4,0,4.35-.22,9.59-.48,15.59a36.49,36.49,0,0,0,9.11-10.82,23.69,23.69,0,0,0,2.38-5.37A4,4,0,0,1,625.38,412.4Zm38.25,31.17a6.49,6.49,0,0,1-2.38-.75,48.23,48.23,0,0,1-5.58-4.82,67.77,67.77,0,0,1-12-14.49,3.91,3.91,0,0,1-.74-1.22c-1.23,2.44-2.52,4.89-3.95,7.27a55.85,55.85,0,0,1-8.23,10.75c-1.22,1.09-2.46,2.11-3.67,3.06a5.94,5.94,0,0,1-2.12.47c-.87,0-1.41-.61-1.41-1.7,0-.47.41-1,1.23-1.63a63.61,63.61,0,0,0,8.16-9.92,125.37,125.37,0,0,0,15.37-39.24c.47-2.31,1-4.49,1.42-6.66a2.16,2.16,0,0,1,2.38-1.5,2.35,2.35,0,0,1,2.1,2.18,41,41,0,0,1-.74,5.51,145.09,145.09,0,0,1-7.21,23.8c-.34.81-.68,1.63-1,2.38a3.79,3.79,0,0,1,1.09.47,29.17,29.17,0,0,0,2,2.83,93.72,93.72,0,0,0,9.55,12.17c2.11,2.17,4.08,4.26,6,6.32a3.69,3.69,0,0,1,1.68,2.94,1.87,1.87,0,0,1-1.29,1.82Z" transform="translate(-155.42 -234.68)"/><path id="Path_141" data-name="Path 141" class="cls-1" d="M691.82,413.21c2.83-6.59,4.25-11.62,4.25-15.16a65.45,65.45,0,0,0-10.2,4.62c-2.45,1.41-4.08,2.25-5,2.65a2.47,2.47,0,0,1-2.66-2.26.41.41,0,0,0,0-.11,4.37,4.37,0,0,1,1.92-3,21.61,21.61,0,0,0,2.83-6.8,22.5,22.5,0,0,0,.67-5.3,2.81,2.81,0,0,1,1-2.18,3.22,3.22,0,0,1,1.83-.81,3,3,0,0,1,3.06,2.1,27,27,0,0,1-.47,4.49,18.15,18.15,0,0,1-1.7,4.25c1.83-.82,3.74-1.5,5.67-2.18a18.84,18.84,0,0,1,4.42-.68,3.53,3.53,0,0,1,2.38,1,5,5,0,0,1,1.23,3.13c0,8-2.59,16.2-7.62,24.63a57,57,0,0,1-9.59,12.58,25,25,0,0,1-4.9,3.47,9.11,9.11,0,0,1-2.58.81c-1.84,0-2.84-.61-3.06-1.76a1.25,1.25,0,0,1,.54-1.09c.82-.54,1.77-1.09,2.93-1.84a40.61,40.61,0,0,0,8.84-9.38c1-1.63,2-3.2,3-4.76a24.07,24.07,0,0,1-2.51-1.58,30.48,30.48,0,0,1-6.47-4.81,4,4,0,0,1-.81-1,1.64,1.64,0,0,1-.41-1,2.6,2.6,0,0,1,.68-1.5,2,2,0,0,1,1.16-.88,4,4,0,0,1,1.15-.14,2.77,2.77,0,0,1,1.41.48c.42.27.83.61,1.29.95a40.7,40.7,0,0,0,4.25,3.52,25.37,25.37,0,0,1,2.46,1.92C691.15,414.64,691.49,413.89,691.82,413.21Zm26-21.62V402.2a4.31,4.31,0,0,0,.8.13,121.51,121.51,0,0,1,14.84,7.08,12.09,12.09,0,0,1,1.15,1.42,3.33,3.33,0,0,1,.41,1.41,2.51,2.51,0,0,1-.27,1l-.4.34a1.14,1.14,0,0,1-.88.46,3.91,3.91,0,0,1-1.91-.6,97.68,97.68,0,0,1-13.73-5.86c0,3.89,0,8.5.27,14.09s.46,10.47.46,14.48a21.45,21.45,0,0,1-2.16,10.27,3,3,0,0,1-2.6,1.63c-1.7,0-2.5-.95-2.5-2.83a19.28,19.28,0,0,0,2.5-8.43c-.07-6-.27-12.26-.61-18.85-.34-7.89-.53-15.58-.6-23.19,0-4.56-.08-9.4-.08-14.43a2.61,2.61,0,0,1,1.92-2.72h1.5a2.7,2.7,0,0,1,2.11,2.72c0,2.19-.07,6-.21,11.3Z" transform="translate(-155.42 -234.68)"/><path id="Path_142" data-name="Path 142" class="cls-1" d="M757.93,398.93a10.26,10.26,0,0,1,5.44,1.3c2,1.36,3.19,4.08,3.47,8.16l.88,24.48.34,4.14c0,1.3-1.22,2-3.53,2.11a16.47,16.47,0,0,1-6.53-1.7c-1.42.41-3.06.89-5.1,1.42-1,.14-2,.21-2.84.27a2.93,2.93,0,0,1-.34.89,2.56,2.56,0,0,1-1.63.75,1.89,1.89,0,0,1-1.41-.55,4.24,4.24,0,0,1-.69-2c-.14-2.31-.14-5.51-.14-9.59,0-4.42,0-8.5.14-12s.2-7.61.34-11.83V398c0-.41-.14-.82-.21-1.42a1.57,1.57,0,0,1,0-.61,1.42,1.42,0,0,1-.61.13c-1.42,0-2.11-.88-2.11-2.72a2.07,2.07,0,0,1,1.92-2.23h.12c1.42,0,5.91-1.42,13.39-4.15,1.3,0,2,.34,2.18,1a2.86,2.86,0,0,1,0,1.09,2.39,2.39,0,0,1-1.15,1.29,16,16,0,0,1-4.63,2.83,36.31,36.31,0,0,1-4.49,1.7,6.52,6.52,0,0,1,.58,3.08v2.25A29.07,29.07,0,0,1,757.93,398.93Zm5.1,35.65c0-5.59,0-10.69-.13-15.3a12.62,12.62,0,0,1-2,.68c-3.52,1.14-7.08,2.16-10.81,3.11v11.58a6.88,6.88,0,0,0,1.7-.2,43.06,43.06,0,0,0,7.09-1.7h.75a1.63,1.63,0,0,1,1.5.89c.13.33.2.68.34.95s-.07.27-.07.41a15.24,15.24,0,0,1,1.61-.42Zm-.61-26.4a5,5,0,0,0-5.13-4.79,2.34,2.34,0,0,0-.38,0,13.36,13.36,0,0,0-3.6.82,22,22,0,0,1-2.31.95c-.08.63-.13,1.26-.15,1.9-.41,4.63-.6,8.16-.68,10.61v.89a105.37,105.37,0,0,0,11.34-3.06c.47-.14.88-.21,1.29-.34-.14-2.52-.24-4.83-.38-7Zm34.68,3.95c.14-5.05.34-11.34.75-18.77,0-2.12-.2-3.21-.54-3.21a55.76,55.76,0,0,0-6.4,2.12c-2.72.87-5.44,1.7-8.21,2.38a27.9,27.9,0,0,1-6.68,1h-.87A3.82,3.82,0,0,1,772,394a4.28,4.28,0,0,1-.76-2.84,59.33,59.33,0,0,0,4.43-12.31,2.84,2.84,0,0,1,2.38-1,2.38,2.38,0,0,1,1.16.48,2.31,2.31,0,0,1,.88,2,12.65,12.65,0,0,1-.68,2.92c-1.42,4.08-2.31,6.46-2.44,7.08a46.64,46.64,0,0,0,12.44-2.31,80.3,80.3,0,0,0,8.3-2.83,6.58,6.58,0,0,1,1.7-.34c.81,0,1.56,1,2.31,2.92a16.71,16.71,0,0,1,.88,5.78c0,2-.2,5-.47,9.18-.34,7.28-.48,13.55-.48,18.7,0,7.35,0,15.18.27,23.75a3.23,3.23,0,0,1-1.56,2.38,8.37,8.37,0,0,1-1.85.54,11.53,11.53,0,0,1-6.58-2.72,31.26,31.26,0,0,1-5.67-6.32,3.3,3.3,0,0,1-.61-1.85c0-.94.41-1.41,1.42-1.41a3.09,3.09,0,0,1,2,1c4.9,3.94,7.82,6.05,8.7,6.32-.47-5.67-.74-13.26-.74-22.93C797,418,797,415.32,797.1,412.13ZM788,421a3.89,3.89,0,0,1-1.56-.48,24.84,24.84,0,0,1-2.83-1.29,39.67,39.67,0,0,1-7.35-4.15c-.54-.41-.81-.61-1-.75a1.9,1.9,0,0,1-.34-1.15,3,3,0,0,1,.62-1.57,2.23,2.23,0,0,1,1.25-.87,4.83,4.83,0,0,1,1.07-.14,3.34,3.34,0,0,1,1.42.61,14.24,14.24,0,0,1,1.42.68,51.13,51.13,0,0,0,5,3c1.09.62,2,1.23,2.83,1.77a3.65,3.65,0,0,1,1.1,2.38c0,1.09-.42,1.7-1.1,1.91Z" transform="translate(-155.42 -234.68)"/><path id="Path_143" data-name="Path 143" class="cls-1" d="M861,388.65a3.19,3.19,0,0,1,.55,1.58,1.66,1.66,0,0,1-1.09,1.41c-3.61,1-7.69,2.11-12.31,3.27v.21c-.27,3.4-.48,6.05-.48,8a90.2,90.2,0,0,1,11.56-2,2.1,2.1,0,0,1,1.64.75,2.85,2.85,0,0,1,.54,1.56,1.84,1.84,0,0,1-1.09,1.58c-3.67,1.14-8,2.38-12.75,3.67l-.27,8.64c10.4-2.52,18.42-4.76,24.34-6.74a1.77,1.77,0,0,1,1.56.89,1.05,1.05,0,0,1,.21.75,3.82,3.82,0,0,1-1.09,2.31c-3.26,2.45-11.7,5.44-25.23,8.84-.13,2.45-.2,4.49-.27,6.25-.41,7.35-1.42,12.75-3.06,16.46-.41,1.63-1.29,2.52-2.65,2.52-1,0-1.5-.82-1.5-2.38a79,79,0,0,0,2.11-14.28l.34-7.35q-9,2.13-16.93,3.88c-2,.41-3.54.68-4.49.81a13.61,13.61,0,0,1-2.84.28c-1.41-.07-2.18-1.09-2.38-3,0-.81.68-1.63,2-2.38.82-.27,1.9-.61,3.13-1q11.13-2.13,21.62-4.69l.29-8.5c-3.4,1-7.09,1.9-10.9,2.84a2.46,2.46,0,0,1-2.51-2.19v-.82a1.93,1.93,0,0,1,1.09-1.56,98.47,98.47,0,0,1,12.31-3.94c0-2.59.13-5.24.27-8-4.56,1.16-9.46,2.38-14.69,3.6a2.52,2.52,0,0,1-2.65-2.17v-.82a2.27,2.27,0,0,1,1.08-1.56,136.53,136.53,0,0,1,17.68-4.9c1-.13,1.84-.34,2.73-.54a20.92,20.92,0,0,0,5.1-7.08,9.46,9.46,0,0,0,.54-2.83v-1.29a2.31,2.31,0,0,1,2.11-1.58c1.83,0,2.84,1.09,2.92,3.2v.76c-.27,2.43-2.31,5.1-6.12,7.94a55.5,55.5,0,0,1,7.89-1.21,2,2,0,0,1,1.65.82ZM839.41,388a1.72,1.72,0,0,1-1.42.56,1.93,1.93,0,0,1-1.41-.41,12.17,12.17,0,0,1-1.5-.83,26.21,26.21,0,0,1-5.57-5.1.72.72,0,0,1-.07-.41,2.82,2.82,0,0,1,.54-1.49,3.11,3.11,0,0,1,1.41-1.09,3.55,3.55,0,0,1,1.29-.2,2.62,2.62,0,0,1,2,1.56c.95.95,1.92,2,2.84,3.06s1.9,2.11,2.31,2.52v.61a1.71,1.71,0,0,1-.46,1.22Z" transform="translate(-155.42 -234.68)"/><path id="Path_144" data-name="Path 144" class="cls-1" d="M903.34,403.35a19,19,0,0,1-1.65,3.95h.15a2.56,2.56,0,0,1,1.41.81,2.38,2.38,0,0,1,.15.75,3.62,3.62,0,0,1-.68,1.63,32.59,32.59,0,0,1-6.07,4.15,35.41,35.41,0,0,1-8.09,3.81,3,3,0,0,1-1,.27,1.65,1.65,0,0,1-1.42-1,3.52,3.52,0,0,1-.53-2.24A1.7,1.7,0,0,1,886.8,414c.29-.13.56-.2.83-.34a50.58,50.58,0,0,0-1.09-6.12c-1.17-4.15-2.12-7.63-2.92-10.33a3.13,3.13,0,0,1,2.24-2.25,5.66,5.66,0,0,1,1.29.14,3.33,3.33,0,0,1,1.57,1.49.33.33,0,0,0,.07.21,32.06,32.06,0,0,1,5.78-.55,17.42,17.42,0,0,1,6.18,1.16q3.06,1.32,3.06,3.06A12.53,12.53,0,0,1,903.34,403.35Zm-9.8,8c0-.07.21-.14.34-.27a23.31,23.31,0,0,0,3.47-5.1,16.25,16.25,0,0,0,1.5-3.81,5.83,5.83,0,0,0-4.15-1.3c-1.5,0-3.2.07-5,.21.2,1,.4,2.11.61,3.33q1,5.32,1.22,7.75Zm9,21.62a2,2,0,0,1-.48-1.15c0-1.77.68-2.83,2.11-3.06a2.68,2.68,0,0,1,2,.88,34.48,34.48,0,0,1,5.92,8,5.16,5.16,0,0,1,.75,1.48,2.2,2.2,0,0,1-1.85,2.5l-.26,0a2.48,2.48,0,0,1-2.24-1.63,79.32,79.32,0,0,1-5.92-7Zm11.22-6a2.85,2.85,0,0,1,2,.88c.34.34,1,.89,1.77,1.7,1.09,1.29,2.38,2.65,3.89,4.15a4.82,4.82,0,0,1,.46,1.9,2,2,0,0,1-1.41,1.72,3.44,3.44,0,0,1-1.9-.56,24.78,24.78,0,0,1-5.78-5.17,3.76,3.76,0,0,1-.83-1.15,3,3,0,0,1-.41-1.41c.06-1,.81-1.79,2.17-2.06Zm21.09-28.43a1.41,1.41,0,0,1,1.23.68,5.31,5.31,0,0,0,.2.68,2,2,0,0,1-.61,1.5,29.94,29.94,0,0,1-6.73,4.76,37.75,37.75,0,0,1-3.06,8.57l1.29-.48c3.4-1.15,6.19-2,8.5-2.72a22.66,22.66,0,0,1,4.42-.41c2.11.14,3.4,1.77,3.87,5,0,1,.14,2,.14,3.06,0,2.44-.34,7.09-1,14a86.13,86.13,0,0,1-1.57,9.31,13.45,13.45,0,0,1-2.1,4.64,3.18,3.18,0,0,1-2.38,1.07,7.12,7.12,0,0,1-3.81-1.14A13,13,0,0,1,930,443.3a3.19,3.19,0,0,1-.4-1.42c0-.68.13-1,.47-1.14a1,1,0,0,1,.68-.41,1.61,1.61,0,0,1,1,.46,10.17,10.17,0,0,1,3.54,1.92,3.19,3.19,0,0,0,1.15.68c.29,0,.56-.83.9-2.46.2-1,.41-2.18.6-3.54.15-.87.2-1.77.34-2.65a9.93,9.93,0,0,1-3.4-2,14.15,14.15,0,0,1-4.08-3.93,2.26,2.26,0,0,1-.61-1.58,2.15,2.15,0,0,1,.68-1.29,2,2,0,0,1,1.22-.82h.75a2.32,2.32,0,0,1,1.17.41c.4.34.94.82,1.56,1.42a15.65,15.65,0,0,0,3.2,3.2c.12-2,.2-4.08.34-6.19,0-1.7.12-3.62.12-5.67v-1.63c0-.55-.27-1.09-.61-1.09a13.42,13.42,0,0,0-4.15,1.23c-3.18,1.29-5.78,2.31-7.68,3.13a76.61,76.61,0,0,1-7.62,2.84,4.14,4.14,0,0,1-1.63.34,1.42,1.42,0,0,1-1.29-.74,2.32,2.32,0,0,1-.48-1.5,2.38,2.38,0,0,1,.14-1.09,1.92,1.92,0,0,1,1.16-1.29c1.08-.54,2.31-1.09,3.8-1.77a30.87,30.87,0,0,0,3.81-8.29,10.13,10.13,0,0,1-1.55.68,21.13,21.13,0,0,1-5.86,1.49,2.73,2.73,0,0,1-.75-.07c0,1.5-.14,2.72-.14,3.81a9,9,0,0,1-.61,2.93,2.42,2.42,0,0,1-2,1.08,1.94,1.94,0,0,1-1.83-1.63,19.64,19.64,0,0,1,0-2.17c0-1.23.2-5.66.68-13.4q.4-10.31.42-15.58v-2.84a2.21,2.21,0,0,1,1.82-2.45h1.5a2,2,0,0,1,1.42.61,5.61,5.61,0,0,0,1.16.07,18.32,18.32,0,0,0,4.48-.61,40.76,40.76,0,0,0,5.67-1.84l.75-.34a7.47,7.47,0,0,1,2,.48c.8.54,1.21,1,1.21,1.49a2.84,2.84,0,0,1-.53,1.42,4.74,4.74,0,0,1-1.92,1.42,66.87,66.87,0,0,1-10.33,2.83,10.9,10.9,0,0,1-2,.2v.6l-.34,4.7a28.48,28.48,0,0,0-.2,3.33,24.8,24.8,0,0,0,4-.82l3.4-1c-.13-.68-.27-1.29-.4-1.77a7.24,7.24,0,0,1-.55-2.38A2.82,2.82,0,0,1,926.6,386c.61,0,1.29.68,2,1.91.27.95.48,2,.75,3.13a30,30,0,0,0,2.83-1.57h.68a1.39,1.39,0,0,1,1.22.68,4.78,4.78,0,0,1,.27.75,2,2,0,0,1-.75,1.57,15.64,15.64,0,0,1-3.8,2.58c.13,1.7.2,3.47.2,5.24a5.71,5.71,0,0,0-.14,1.08,27,27,0,0,0,4.56-2.65Zm-18,7a47.91,47.91,0,0,0,5.3-1.23,21,21,0,0,0,3.35-1.22c0-.34.07-.68.07-.95,0-1.77-.07-3.47-.15-5.24-.94.48-2,.87-3,1.29a29.16,29.16,0,0,1-5.17,1.09h-.11c-.09,2-.16,4.08-.3,6.26Zm5.44,20a3.17,3.17,0,0,1,2.12.88c.26.34.87,1,1.7,1.84,1.09,1.42,2.31,3,3.81,4.64a4.45,4.45,0,0,1,.46,1.82,1.67,1.67,0,0,1-1.28,1.63,2.64,2.64,0,0,1-1.83-.61c-1.23-.53-3.13-2.31-5.85-5.56a2.48,2.48,0,0,1-1-1.17,2.68,2.68,0,0,1-.34-1.41c0-1,.8-1.72,2.17-2.06Z" transform="translate(-155.42 -234.68)"/><path id="Path_145" data-name="Path 145" class="cls-1" d="M991.34,408.25a24.56,24.56,0,0,1-11.15,4.69,38.37,38.37,0,0,1,1.49,8.71c0,2-.95,3-2.72,3s-2.46-.89-2.58-2.83a45.53,45.53,0,0,0-2-8.57,9.87,9.87,0,0,1-.62-2.31c0-1.56,1-2.53,3.13-2.84a22.91,22.91,0,0,0,9.39-2.92c3.06-1.77,4.62-4,4.62-6.6,0-3.47-2.83-5.24-8.36-5.24-.28,0-2.11.34-5.38.89a9.47,9.47,0,0,1-1.9.34,2.57,2.57,0,0,1-2.18-.94,2.83,2.83,0,0,1-.88-2.26,3.08,3.08,0,0,1,1.29-2.31A4.1,4.1,0,0,1,976,388l1.82.55a23.86,23.86,0,0,1,5.45-.75,14.91,14.91,0,0,1,9.25,2.72,9.68,9.68,0,0,1,3.88,8.16C996.44,402.4,994.74,405.53,991.34,408.25Zm-9.45,28.83a4.75,4.75,0,0,1-3.54,1.23,2.51,2.51,0,0,1-2-1.09,4,4,0,0,1-.88-2.65,4.54,4.54,0,0,1,1-3,3.18,3.18,0,0,1,2.65-1.41,4.86,4.86,0,0,1,2.83.88,3.26,3.26,0,0,1,1.22,2.64,4.71,4.71,0,0,1-1.26,3.39Z" transform="translate(-155.42 -234.68)"/></g><path class="cls-2" d="M174.57,257.74a20.27,20.27,0,0,1-2,4.61,1.56,1.56,0,0,1-.31.36,1.34,1.34,0,0,0,.24,0,2.18,2.18,0,0,1,.61-.12,1.46,1.46,0,0,1,.77.47v.42a2,2,0,0,1-.35,1.08,38.21,38.21,0,0,1-6.12,3.78,41.1,41.1,0,0,1-8.28,3.3,1.47,1.47,0,0,1-.6.12,1.06,1.06,0,0,1-.9-.54,2,2,0,0,1-.3-1.32,1.15,1.15,0,0,1,.78-1,9.56,9.56,0,0,0,1.13-.41c-.17-1.8-.47-3.91-.89-6.3-1-4.2-1.74-7.74-2.46-10.56a1.23,1.23,0,0,1,.54-.9,1,1,0,0,1,.9-.54c.36,0,.6.06.78.06a1.69,1.69,0,0,1,.9.9c.12.36.18.78.3,1.2a62.66,62.66,0,0,1,7.43-.42,17.24,17.24,0,0,1,5.46.89c1.8.73,2.76,1.5,2.76,2.46A11,11,0,0,1,174.57,257.74Zm-12,9.59c1.38-.54,2.69-1.08,3.95-1.62,0-.24.19-.42.42-.66a17,17,0,0,0,3.54-5,16.63,16.63,0,0,0,1.5-3.72c-1-1.08-2.69-1.67-5.09-1.67-2.1,0-4.44,0-7,.17.24,1.26.47,2.76.84,4.45.54,3.84.84,6.59,1,8.33A4.46,4.46,0,0,0,162.58,267.33Zm41.57-20.51a1.47,1.47,0,0,1,.36,1,1,1,0,0,1-.6.84c-3.12,1-6.72,2-10.74,3.17-.18,3.19-.3,5.71-.3,7.57,5.52-1.32,8.82-2,9.9-2a1.31,1.31,0,0,1,1,.42,2.21,2.21,0,0,1,.3.89c0,.37-.24.61-.66.73-3,1.07-6.54,2.22-10.56,3.42l-.12,8.69c4.2-1.26,8.1-2.58,11.64-4a17.84,17.84,0,0,1,5.1-1.38,1.63,1.63,0,0,1,.84.25,1.4,1.4,0,0,1,.54.71,1.89,1.89,0,0,1-.54,1.2,43.5,43.5,0,0,1-8.94,3.78q-4.41,1.44-8.64,2.7-.09,4.32-.18,7.2a92.7,92.7,0,0,1-1.2,14c-.3,1-.84,1.5-1.62,1.5s-1-.54-1-1.5a121.53,121.53,0,0,0,.84-12.42l.18-8c-3.66,1.08-7.32,2-11,3a13.17,13.17,0,0,1-3.54.78h-.36a1.92,1.92,0,0,1-1.13-1.8,1.52,1.52,0,0,1,.65-1.14,18.1,18.1,0,0,1,3.19-.84q6.55-1.62,12.23-3.23l.06-8.59c-2.7.84-5.46,1.68-8.34,2.52a1.36,1.36,0,0,1-1.5-1.26v-.35a1.07,1.07,0,0,1,.54-.91,80.84,80.84,0,0,1,9.3-3.54c0-2.39.06-4.92.12-7.55-3,.84-6.18,1.68-9.54,2.58a1.41,1.41,0,0,1-1.49-1.38v-.42a1.21,1.21,0,0,1,.54-1,88.71,88.71,0,0,1,12.65-4,24,24,0,0,0,4.26-8.1,14,14,0,0,0,.36-2.94v-1.2a1.46,1.46,0,0,1,1.26-1.08c1.14,0,1.74.72,1.74,2v.84c-.12,3-1.68,6.24-4.62,9.72a63.11,63.11,0,0,1,8-1.5A1.05,1.05,0,0,1,204.15,246.82Zm-15.66.6c-.12.24-.36.3-.66.3s-.54,0-.66-.12a3.55,3.55,0,0,1-1-1.08,22.14,22.14,0,0,1-4.14-6.24,2.25,2.25,0,0,1-.06-.6,2,2,0,0,1,.24-.84,3.41,3.41,0,0,1,.84-.66c.12,0,.36-.06.66-.06a1.81,1.81,0,0,1,1.08.9q1.08,2,2.16,4.14a34.07,34.07,0,0,1,1.86,3.36v.3A.74.74,0,0,1,188.49,247.42Z" transform="translate(-155.42 -234.68)"/><path class="cls-1" d="M224.68,288.51a2.28,2.28,0,0,1-2-1.2,1.8,1.8,0,0,1-1-1.2,3.71,3.71,0,0,1-.12-1.26,2.57,2.57,0,0,1,2.88-2.7,2.42,2.42,0,0,1,1.2.48c1,.42,1.5,1.5,1.5,3.24S226.3,288.51,224.68,288.51Zm4.92-40.67a94.42,94.42,0,0,0-2.46,15.59q-.63,7.74-.73,10.62c-.11,1.44-.72,2.1-1.8,2.1s-1.67-.6-1.67-1.8c0-.36.06-2.1.24-5.28.17-3.95.35-6.9.54-8.94.35-3.71.89-7.19,1.5-10.31a2.8,2.8,0,0,1-.19-1,10.15,10.15,0,0,1,.19-1.08,10,10,0,0,1,.84-2.4A3.63,3.63,0,0,1,228.4,244c1,0,1.55.66,1.55,1.92A13.3,13.3,0,0,1,229.6,247.84Z" transform="translate(-155.42 -234.68)"/></svg>