<svg xmlns="http://www.w3.org/2000/svg" width="277.506" height="70.851" viewBox="0 0 277.506 70.851">
  <g id="anotherText_add_word" transform="translate(0.036 0.04)">
    <g id="another" transform="translate(32.3 20.59)">
      <path id="Path_129" data-name="Path 129" d="M259.738,299.246a10.606,10.606,0,0,1-.659,1.4c-.382.7-.877,1.5-1.5,2.445.046.659.066,1.612.089,2.824a57.1,57.1,0,0,1-.7,8.964c-.178,1.163-.356,2.241-.58,3.226-.092.4-.33.626-.659.626s-.606-.244-.606-.738a33.617,33.617,0,0,1,.659-5.032,30.478,30.478,0,0,0,.425-5.138V305.1c-.356.514-.715,1.051-1.074,1.588-.468.659-.933,1.4-1.48,2.307a.877.877,0,0,1-.6.362.5.5,0,0,1-.577-.418.534.534,0,0,1,0-.1.989.989,0,0,1,.2-.583q.372-.659,1.008-1.681c.494-.9,1.144-2.017,1.928-3.381.626-1.078,1.3-2.244,2.017-3.477l.659-1.3a3.462,3.462,0,0,0,.29-.659,2.825,2.825,0,0,1,.877-.112.692.692,0,0,1,.58.7,1.809,1.809,0,0,1-.273.9Zm.33,17.058a.389.389,0,0,1-.465-.3.349.349,0,0,1,0-.165,1.49,1.49,0,0,1,.135-.425c.152-.659.313-1.4.465-2.129a16.475,16.475,0,0,0,.356-2.6,3.791,3.791,0,0,0-.043-.7,4.82,4.82,0,0,1-.135-.784c0-.382.224-.583.718-.626h.3a.758.758,0,0,1,.606.468,5.4,5.4,0,0,1,.135,1.4,13.108,13.108,0,0,1-.428,3.137,18.6,18.6,0,0,1-.712,2.264,1.094,1.094,0,0,1-.929.458Zm1.839-.247a.626.626,0,0,1,.491-.267.742.742,0,0,1,.468.224,6.509,6.509,0,0,0,.966,1.747c.313.359.58.56.85.56.56,0,.85-2.175.85-6.535v-1.022c0-1.345-.066-2.337-.132-3.052s-.112-1.434-.181-2.079a3.9,3.9,0,0,1-.066-.659.774.774,0,0,1,.155-.468.814.814,0,0,1,.517-.29.88.88,0,0,1,.933.659.753.753,0,0,0,.043.224.782.782,0,0,0,.158-.135,9.6,9.6,0,0,0,2.824-3.879,28.818,28.818,0,0,1-4.545,2.607,5.6,5.6,0,0,1-1.951.54c-1.1,0-1.648-.606-1.648-1.839a8.057,8.057,0,0,1,.626-2.511,10.713,10.713,0,0,1,1.008-2.264.705.705,0,0,1,.629-.468h.277a1.318,1.318,0,0,1,.468.293,1.248,1.248,0,0,1,.089.491,17.64,17.64,0,0,1-.715,2.2,10.351,10.351,0,0,0-.742,2.307c.023.135.135.185.31.185a7.47,7.47,0,0,0,2.449-1.081c.715-.359,1.523-.85,2.465-1.434a5.35,5.35,0,0,1,1.648-.626h.4a.85.85,0,0,1,.741.936,3.7,3.7,0,0,1-.247,1.236,7.6,7.6,0,0,1-1.032,2.037,9.5,9.5,0,0,1-2.531,2.376,3.689,3.689,0,0,1-.537.293c.043.4.066.85.112,1.348,0,.761.043,1.473.066,2.192v1.371c0,2.175-.046,3.675-.089,4.505a8.861,8.861,0,0,1-.952,3.4,1.6,1.6,0,0,1-1.252.784c-.718,0-1.457-.514-2.221-1.546a5.273,5.273,0,0,1-.761-1.318.744.744,0,0,1-.178-.468.807.807,0,0,1,.221-.567Zm10.625-.29a.537.537,0,0,1-.4.135.861.861,0,0,1-.405-.092,4.264,4.264,0,0,1-.56-.85,21.651,21.651,0,0,1-2.04-5.135,1.453,1.453,0,0,1-.04-.428.821.821,0,0,1,.152-.425,1.157,1.157,0,0,1,.386-.29,1.45,1.45,0,0,1,.359-.046.841.841,0,0,1,.577.425c.359,1.078.745,2.2,1.144,3.342.494,1.345.811,2.284.969,2.824v.208a.676.676,0,0,1-.158.33Z" transform="translate(-252.473 -296.844)" fill="#27a2af"/>
      <path id="Path_130" data-name="Path 130" d="M343.634,306.582a33.32,33.32,0,0,1-3.474.933,46.7,46.7,0,0,1-4.713.784.989.989,0,0,1-.356.132.524.524,0,0,1-.468-.29c-.046-.046-.092-.089-.092-.135a1.618,1.618,0,0,1-.738-.827,10.335,10.335,0,0,1-1.256-2.824,7.284,7.284,0,0,1-.468-2.307c0-.85.3-1.275.873-1.3.659,0,.989.29.989.85.066.761.178,1.549.313,2.307a9.519,9.519,0,0,0,1.032,2.732.155.155,0,0,0,.043.112c.761-.089,1.4-.2,1.994-.313a3.108,3.108,0,0,0,.659-.089.5.5,0,0,1,.112-.287,7.043,7.043,0,0,0,.491-2.2v-1.318a9.422,9.422,0,0,0-.089-1.055c-1.032.224-2.106.494-3.226.857-.54,0-.784-.273-.784-.811a.83.83,0,0,1,.425-.7,15.63,15.63,0,0,1,1.747-.606v-.043a9.646,9.646,0,0,1-1.318-2.376.59.59,0,0,1-.023-.2.86.86,0,0,1,.2-.494,1.114,1.114,0,0,1,.468-.359,1.429,1.429,0,0,1,.425-.066,1.008,1.008,0,0,1,.718.514c.155.494.33.989.514,1.5.2.583.33.989.4,1.21h.066c.4-.066.831-.135,1.256-.178a8.679,8.679,0,0,0,.738-.854,5.622,5.622,0,0,0,1.055-2.333,1.239,1.239,0,0,1,.933-.33c.468.023.715.33.761.9a4.333,4.333,0,0,1-1.233,2.333,1.387,1.387,0,0,0-.135.112h.857a7.367,7.367,0,0,1,2.577.379,2.808,2.808,0,0,1,1.252.854,1.582,1.582,0,0,1,.33.962,4.192,4.192,0,0,1-.54,1.75,9.284,9.284,0,0,1-1.9,2.709.26.26,0,0,1-.178.1,1.469,1.469,0,0,1-.214.28Zm-6.1-1.074a.544.544,0,0,1-.382.132.659.659,0,0,1-.4-.089,1.16,1.16,0,0,1-.386-.224,4.854,4.854,0,0,1-1.4-1.256v-.089a1.025,1.025,0,0,1,.178-.514.969.969,0,0,1,.494-.33.959.959,0,0,1,.382-.069.989.989,0,0,1,.659.54c.185.267.359.514.537.738a6.8,6.8,0,0,0,.468.659v.181a.6.6,0,0,1-.165.313Zm-.33,12.886-.023.043a1.028,1.028,0,0,1-.854.781c-.56-.043-.857-.514-.88-1.4a25.424,25.424,0,0,0,.468-4.818c0-.83-.043-1.793-.112-2.87a1.117,1.117,0,0,1,.807-1.008h.313a.9.9,0,0,1,.428.247,12.572,12.572,0,0,1,3.362-.784,2.637,2.637,0,0,1,1.546.419,3.235,3.235,0,0,1,.989,2.465l.293,5.761.112.966c0,.56-.465.85-1.345.9a4.222,4.222,0,0,1-1.648-.405c-1.094-.122-2.238-.211-3.447-.3Zm.2-1.681a17.2,17.2,0,0,1,4.116.527.51.51,0,0,1,.158-.043c0-1.3-.023-2.422-.046-3.454-.962.359-1.836.659-2.636.877a6.974,6.974,0,0,1-1.5.356c-.023.659-.043,1.246-.066,1.75Zm4.08-5.273c-.092-.83-.468-1.256-1.144-1.256a6.137,6.137,0,0,0-1.592.382c-.405.155-.784.313-1.167.491-.043.877-.066,1.7-.089,2.465a1.547,1.547,0,0,0,.29-.089,38.113,38.113,0,0,1,3.767-1.031A7.824,7.824,0,0,1,341.489,311.439Zm-1.256-10.134a7.532,7.532,0,0,1,.112,1.318c-.023.465-.069.873-.112,1.233a7.539,7.539,0,0,0,.659-.468,2.508,2.508,0,0,0,.85-1.144,1.068,1.068,0,0,1,.784-.293c.382.023.583.27.629.741a2.577,2.577,0,0,1-.854,1.345,4.772,4.772,0,0,1-1.434.9,1.977,1.977,0,0,1-.827.224h-.086c-.112.359-.224.659-.31.936.718-.138,1.4-.25,2.017-.386.405-.112.741-.2.966-.247a.33.33,0,0,1,.132-.2,9.885,9.885,0,0,0,1.368-2.04,3.217,3.217,0,0,0,.405-1.074c0-.718-.718-1.078-2.129-1.078a18.514,18.514,0,0,0-2.175.158v.092Z" transform="translate(-305.838 -296.221)" fill="#27a2af"/>
      <path id="Path_131" data-name="Path 131" d="M394.058,313.256a.893.893,0,0,1,.626.293c.135.2.33.514.606.936.425.718.9,1.48,1.4,2.376a1.12,1.12,0,0,1,.185.583.659.659,0,0,1-.468.537,1.048,1.048,0,0,1-.583-.178,13.64,13.64,0,0,1-2.066-2.847,3.453,3.453,0,0,1-.31-.626.824.824,0,0,1-.138-.425C393.336,313.569,393.587,313.345,394.058,313.256Zm1.869-8.658a5.637,5.637,0,0,1,3-1.46c.181.049.293.224.33.494,0,1.055-.989,2.851-2.94,5.382.811-.4,1.753-.9,2.874-1.523a2.181,2.181,0,0,1,.807-.33.629.629,0,0,1,.709.54.6.6,0,0,1,0,.109,3.573,3.573,0,0,1-.7,1.944A4.182,4.182,0,0,1,399,310.949a.771.771,0,0,1-.514.178.288.288,0,0,1-.313-.33.682.682,0,0,1,.155-.4c.33-.7.606-1.318.784-1.793-1.977,1.7-3.4,2.6-4.324,2.689a.554.554,0,0,1-.61-.481.8.8,0,0,1,0-.125,1.862,1.862,0,0,1,.363-.936q1.285-2.284,3.025-5.108a6.5,6.5,0,0,1-3.388,2.017c-.359-.046-.56-.33-.56-.807a18.141,18.141,0,0,0,2.735-6.41.989.989,0,0,1,.989-.567.659.659,0,0,1,.56.659,16.12,16.12,0,0,1-1.961,5.078Zm.425,7.619a.88.88,0,0,1,.659.27c.1.158.224.4.468.761q.478.91,1.055,1.951a.969.969,0,0,1,.135.494.534.534,0,0,1-.382.468.933.933,0,0,1-.514-.155,9.5,9.5,0,0,1-1.681-2.241,1.7,1.7,0,0,1-.247-.465.741.741,0,0,1-.112-.409c.02-.33.244-.564.659-.676Zm4.667,2.4a.4.4,0,0,1-.2.224.607.607,0,0,1-.363.089,2.182,2.182,0,0,1-1.186-.738,4.484,4.484,0,0,1-1.071-1.3.778.778,0,0,1-.161-.491.557.557,0,0,1,.178-.382.718.718,0,0,1,.359-.247h.234a.524.524,0,0,1,.33.132,3.183,3.183,0,0,0,.4.465,4.752,4.752,0,0,0,1.4,1.615.356.356,0,0,1,.2.359.659.659,0,0,1-.115.277Zm6.8.807a5.273,5.273,0,0,1-.359.962,11.646,11.646,0,0,1,1.167-.089c1.256-.089,2.465-.155,3.675-.247a7.325,7.325,0,0,1,.738-.089c.382,0,.629.135.718.425a1.49,1.49,0,0,1-.784,1.368c-.178.023-1.008.069-2.488.112-.85,0-1.816.023-2.844.089a17.8,17.8,0,0,0-3.141.54c-.448.092-1.3.33-2.554.659a2.523,2.523,0,0,1-.583.089.84.84,0,0,1-.244-1.648,20.314,20.314,0,0,1,4.37-1.028,2.35,2.35,0,0,1,.4-.046.57.57,0,0,1,.089-.224c.135-.382.27-.761.382-1.167a4.686,4.686,0,0,0,.112-.936,5.95,5.95,0,0,0-.247-1.865.559.559,0,0,1-.066-.2c-.33.023-.606.043-.9.043h-1.592q-1.209,0-1.209-.936c0-.62.353-.9,1.074-1.008.023.178.2.29.56.29h1.368a11.983,11.983,0,0,0,5.088-1.368,1.917,1.917,0,0,1,.4-.112.745.745,0,0,1,.494.807.834.834,0,0,1-.468.7,7.83,7.83,0,0,1-2.636,1.256,3.774,3.774,0,0,1-.468.089,8.642,8.642,0,0,1,.2,1.951,6.128,6.128,0,0,1-.224,1.565ZM403.2,308.1a13.367,13.367,0,0,0-1.994-1.5.587.587,0,0,1-.3-.521,1.977,1.977,0,0,1,.33-.959l.61-.989a23.215,23.215,0,0,0,1.008-2.337.6.6,0,0,1,.56-.33,2.346,2.346,0,0,1,.33.046.873.873,0,0,1,.31.247.478.478,0,0,1,.138.33,10.336,10.336,0,0,1-1.434,3.737c.31.224.659.468,1.071.738a7.224,7.224,0,0,1,1.21,1.1,1.647,1.647,0,0,1,.185.659.876.876,0,0,1-.135.468.659.659,0,0,1-1.12.023,6.584,6.584,0,0,0-.758-.728Zm4.143-8.11a19.316,19.316,0,0,1-2.847.735,5.992,5.992,0,0,1-1.21.138h-.33a.679.679,0,0,1-.659-.7.363.363,0,0,1,0-.059v-.386a1.282,1.282,0,0,1,.741-.761,2.284,2.284,0,0,0,.56.043,9.609,9.609,0,0,0,2.485-.356,21.448,21.448,0,0,0,3.141-.959l.425-.158a1.555,1.555,0,0,1,.583.135c.247.181.379.33.379.465a1.124,1.124,0,0,1-.155.468,1.976,1.976,0,0,1-.583.468,22.375,22.375,0,0,1-2.5.9Zm0,1.186a1.207,1.207,0,0,1,.359.33c0,.066.023.158.023.27a5.784,5.784,0,0,1-.807,2.333.462.462,0,0,0-.112.27,1.148,1.148,0,0,0,.224.56,5.583,5.583,0,0,0,1.434,1.318.474.474,0,0,1,.161.359,1.064,1.064,0,0,1-.185.4.7.7,0,0,1-.33.247.659.659,0,0,1-.313.043,1.209,1.209,0,0,1-.488-.132,3.355,3.355,0,0,1-1.239-1.032,4.485,4.485,0,0,1-.761-1.648,2.472,2.472,0,0,1-.069-.58.847.847,0,0,1,.135-.382,5.633,5.633,0,0,1,.33-.537,8.995,8.995,0,0,1,.468-.966,3.161,3.161,0,0,1,.359-.715.633.633,0,0,1,.514-.2,1.651,1.651,0,0,1,.33.066Zm4.614,5.088a1.443,1.443,0,0,1-.962-.089,4.465,4.465,0,0,1-1.549-1.032,1.526,1.526,0,0,1-.356-1.055,1.2,1.2,0,0,1,.178-.626l.659-1.008c.158-.247.33-.56.56-.936a.6.6,0,0,1,.606-.313,2.181,2.181,0,0,1,.356.043.758.758,0,0,1,.405.56,4.421,4.421,0,0,1-.718,1.816,2.523,2.523,0,0,1-.267.468,4.473,4.473,0,0,0,1.364,1.078.537.537,0,0,1,.181.425.725.725,0,0,1-.445.659Z" transform="translate(-346.896 -297.092)" fill="#27a2af"/>
      <path id="Path_132" data-name="Path 132" d="M482.038,298.234c-.784.738-2.828,1.592-6.146,2.577-.491.161-.962.29-1.4.409-.537,1.252-1.279,2.732-2.2,4.459-.715,1.318-1.4,2.531-2.037,3.625-.428.765-.854,1.48-1.318,2.2a10.217,10.217,0,0,1-1.163,1.523,1.078,1.078,0,0,1-.659.27.428.428,0,0,1-.3-.425,1.664,1.664,0,0,1,.138-.56,3.911,3.911,0,0,1,.583-1.279,22.371,22.371,0,0,1,1.5-2.8q1.348-2.333,2.692-4.976c.247-.468.465-.962.7-1.457-.6.181-1.163.33-1.707.468a5.957,5.957,0,0,1-1.048.181,4.567,4.567,0,0,1-.9.089c-.409-.023-.659-.33-.745-.936,0-.247.208-.494.659-.718.267-.089.577-.178.989-.313,1.233-.247,2.442-.537,3.625-.85.356-.989.626-1.865.85-2.712a.751.751,0,0,1,.659-.494h.27c.356.092.537.382.537.854a7.081,7.081,0,0,1-.4,1.869,1.473,1.473,0,0,0,.29-.089,62.021,62.021,0,0,0,6.364-1.977.514.514,0,0,1,.468.2.594.594,0,0,1,.046.224.989.989,0,0,1-.346.643Zm-7.006,15.018c.33-.132.583-.267.827-.379a14.706,14.706,0,0,0,1.928-1.078,6.657,6.657,0,0,1,.606-.4.863.863,0,0,1,.313-.069.6.6,0,0,1,.468.224,1.469,1.469,0,0,1,.046.33,1.319,1.319,0,0,1-.247.626,12.544,12.544,0,0,1-3.721,2.264.659.659,0,0,1-.313.089c-.046,0-.092,0-.092-.023-.089.989-.155,1.816-.178,2.465a3.165,3.165,0,0,1-.2.989.949.949,0,0,1-.659.356.689.689,0,0,1-.606-.56,4.586,4.586,0,0,1,0-.659c0-.58.2-2.531.606-5.892.33-2.966.494-5.2.514-6.7v-1.256a.781.781,0,0,1,.56-.807h.517a.659.659,0,0,1,.379.158,11.2,11.2,0,0,1,1.977-.629,9.481,9.481,0,0,1,1.546-.267c1.318,0,1.994.557,2.129,1.681-.04,1.434-.066,3.068-.066,4.943s.115,4.06.33,6.617c.089,1.028.224,2.149.362,3.338,0,.7-.274,1.051-.807,1.074a3.54,3.54,0,0,1-1.371-.359,4.04,4.04,0,0,1-1.865-1.588,1.107,1.107,0,0,1-.158-.494.524.524,0,0,1,.465-.537,5.149,5.149,0,0,1,2.04.936,76.183,76.183,0,0,1-.534-8.964v-.491c-.1.043-.185.112-.274.155-.933.465-1.747.807-2.511,1.12a6.141,6.141,0,0,1-1.648.465c-.155,1.064-.28,2.185-.356,3.348Zm4.844-9.277a.56.56,0,0,0-.61-.494,9.088,9.088,0,0,0-3.3.933c-.04.27-.066.56-.089.83l-.224,2.083c-.04.405-.086.784-.132,1.167a3.294,3.294,0,0,1,.356-.135,20.35,20.35,0,0,1,3.882-1.523h.04c0-.956.033-1.9.082-2.861Z" transform="translate(-396.179 -296.415)" fill="#27a2af"/>
      <path id="Path_133" data-name="Path 133" d="M543.438,311.718c-.046.659-.27.989-.7.989a3.461,3.461,0,0,1-2.557-1.008.63.63,0,0,1-.224-.313c0-.468.181-.659.56-.718.494.046,1.055.089,1.648.158,0-.659-.023-1.4-.023-2.175,0-1.074,0-2.152-.066-3.18a5.017,5.017,0,0,0-.293.537,11.715,11.715,0,0,1-1.318,2.106,13.537,13.537,0,0,1-1.434,1.648.6.6,0,0,1-.33.181,1.191,1.191,0,0,1-.33.066c-.224,0-.362-.135-.386-.4a.765.765,0,0,1,.274-.537,17.883,17.883,0,0,0,1.72-2.287,12.876,12.876,0,0,0,1.17-2.333c.2-.514.382-1.031.537-1.546-.468.155-.9.29-1.275.4a2.163,2.163,0,0,1-.494.158,8.663,8.663,0,0,1-.873.066c-.425,0-.659-.313-.741-.936,0-.264.2-.514.659-.738.244-.086.56-.181.962-.31a17.293,17.293,0,0,0,1.77-.428,9.544,9.544,0,0,0-.267-1.14,1.49,1.49,0,0,1-.112-.56.788.788,0,0,1,.827-.748h.069a1.018,1.018,0,0,1,.827.742c.089.267.181.56.247.827a1.887,1.887,0,0,0,.046.405c.989-.293,1.77-.56,2.333-.784a.488.488,0,0,1,.468.224.468.468,0,0,1,.043.2.929.929,0,0,1-.29.626,6.773,6.773,0,0,1-2.442,1.345c.023.428.043.877.089,1.345a21.8,21.8,0,0,1,2.333,3.734,3.916,3.916,0,0,1,.468,1.371c0,.359-.158.534-.468.534a.7.7,0,0,1-.494-.287c-.224-.33-.537-.807-.933-1.457l-.933-1.48Q543.5,310.311,543.438,311.718Zm-1.839,7.939a.866.866,0,0,1-.468.181.659.659,0,0,1-.5-.3,4.287,4.287,0,0,1-.29-.4,4.181,4.181,0,0,1-.33-1.4c-.046-.4-.069-.738-.112-1.008-.089-.537-.158-1.051-.224-1.546a5.639,5.639,0,0,1-.181-1.121q0-.613.742-.659h.4c.224,0,.405.158.583.465.046.224.069.587.112,1.074.089.857.181,1.592.27,2.218s.155,1.193.247,1.681c.02.442-.073.705-.227.817Zm10.823-4.907a.423.423,0,0,1-.112.046,5.52,5.52,0,0,1,1.318.962,1.786,1.786,0,0,1,.425,1.008,2.452,2.452,0,0,1-1.144,2.083,5.5,5.5,0,0,1-2.577.659,5.972,5.972,0,0,1-3.114-1.008,6.947,6.947,0,0,1-2.287-2.636,1.054,1.054,0,0,1-.178-.537.606.606,0,0,1,.155-.468.817.817,0,0,1,1.368-.069,5.406,5.406,0,0,0,4.1,2.936c1.4,0,2.106-.425,2.172-1.275a1.279,1.279,0,0,0-.56-.933c-.224-.135-.425-.247-.626-.359a.5.5,0,0,1-.247.066,2.714,2.714,0,0,1-.9.224c-.359,0-.606-.244-.718-.738v-.33a.659.659,0,0,1,.4-.626,8.675,8.675,0,0,0,1.143-.359,14.494,14.494,0,0,0,2.61-1.15l1.078-.659a1.2,1.2,0,0,1,.468-.112.55.55,0,0,1,.514.56.939.939,0,0,1-.138.537,9.611,9.611,0,0,1-3.164,2.162Zm-4.571-5.138c-.043-.468-.043-1.051-.043-1.869,0-1.008,0-1.928.043-2.755s.046-1.7.112-2.692c0-.468.023-.962.023-1.523-.023-.158-.046-.313-.089-.494a1.606,1.606,0,0,1,0-.356c0-.135.089-.247.247-.382a1.025,1.025,0,0,1,.659-.29.811.811,0,0,1,.659.389,14.445,14.445,0,0,1,2.129-.2h.359a1.282,1.282,0,0,1,.936.626,7.553,7.553,0,0,1,.376,1.569c.049.54.1,1.19.138,2,.086,1.572.158,3.361.247,5.359a1.3,1.3,0,0,1-.29.784,1.035,1.035,0,0,1-.791.382.511.511,0,0,1-.488-.224,13.566,13.566,0,0,1-2.106,1.008,7.286,7.286,0,0,1-1.318.29.936.936,0,0,1-.9-.873.521.521,0,0,1,.181-.468.894.894,0,0,1-.079-.257Zm1.4-1.813c0,.58.023,1.186.043,1.77l.27-.069a9.807,9.807,0,0,0,2.376-.989v-1.826a2.033,2.033,0,0,1-.494.224,6.854,6.854,0,0,1-1.793.626.844.844,0,0,1-.376.112Zm.043-2.534V306.3a6.884,6.884,0,0,0,.692-.161c.494-.112,1.078-.264,1.773-.465a.641.641,0,0,0,.178-.043v-1.977c-.537.224-1.163.494-1.865.784l-.659.27a1.721,1.721,0,0,0-.112.573Zm2.376-3.922c-.089-.33-.247-.468-.465-.468a9.5,9.5,0,0,0-1.5.135,15.709,15.709,0,0,1-.208,1.839,3.666,3.666,0,0,0-.066.6c.514-.224,1.236-.468,2.132-.761l.27-.066a6.575,6.575,0,0,0-.175-1.265Z" transform="translate(-443.895 -297.861)" fill="#27a2af"/>
      <path id="Path_134" data-name="Path 134" d="M608.171,317.911a35.8,35.8,0,0,0,5.695,1.523,23.8,23.8,0,0,0,2.554.313c.761.069,1.434.112,2.04.112a14.234,14.234,0,0,0,1.648-.066c.468-.046.989-.112,1.549-.178a6.377,6.377,0,0,1,.936-.092c.382,0,.583.092.629.33a.926.926,0,0,1-.158.425,1.143,1.143,0,0,1-.425.359,18.892,18.892,0,0,1-5.477.692,33.042,33.042,0,0,1-11.1-2.307,15.14,15.14,0,0,1-1.977-.9c-.382-.224-.7-.425-.966-.606a.876.876,0,0,1-.132-.514.989.989,0,0,1,.33-.718.682.682,0,0,1,.514-.2,1.084,1.084,0,0,1,.465.135c.274.135.626.29,1.035.468a3.912,3.912,0,0,0,.659-2.129,1.77,1.77,0,0,0-.422-.966,1.45,1.45,0,0,1-.409-.9,2.637,2.637,0,0,1,.784-1.572,1.257,1.257,0,0,0,.3-.534,2.586,2.586,0,0,0-.385-.9,8.414,8.414,0,0,1-.807-.873c0-.468.33-.7.88-.7a1.15,1.15,0,0,1,.6.313,2.2,2.2,0,0,1,1.193,1.869,4.776,4.776,0,0,1-.989,2.333,3.744,3.744,0,0,1-.112,4.614C607.14,317.486,607.654,317.71,608.171,317.911Zm.155-11.409a1.41,1.41,0,0,1-.936-.468,7.518,7.518,0,0,0-2.511-1.074,1.083,1.083,0,0,1-.468-.158,1.8,1.8,0,0,1-.066-.514,1.647,1.647,0,0,1,0-.33c.089-.33.4-.517.9-.54a4.39,4.39,0,0,1,1.724.405,6.038,6.038,0,0,1,1.75,1.186,1.649,1.649,0,0,1,.155.659c-.026.557-.208.824-.544.824Zm3.095,3.118c0,.224-.069.962-.135,2.218-.046.659-.046,1.275-.046,1.793a12.617,12.617,0,0,0,.089,1.727,5.8,5.8,0,0,0,.27,1.233v.2a.554.554,0,0,1-.5.6h-.1c-.224,0-.425-.155-.58-.491a9.3,9.3,0,0,1-.831-4.462c0-.537.046-1.4.178-2.666.023-.313.046-.626.046-.962a.989.989,0,0,1,.247-.629,1.223,1.223,0,0,1,.514-.267h.181a.85.85,0,0,1,.715.738c-.023.405-.039.742-.039.966Zm4.413-2.636a6.259,6.259,0,0,1-.066-.9c0-.313-.046-.659-.046-.962a2.747,2.747,0,0,0-.066-.494,2.3,2.3,0,0,1-.066-.247,1.465,1.465,0,0,1-.33.046h-.155a.438.438,0,0,1-.3-.224.6.6,0,0,1,.135-.83l.073-.043a22.112,22.112,0,0,1,2.485-.629,3.673,3.673,0,0,1,.629-.066.6.6,0,0,1,.379.224.926.926,0,0,1,.158.376c0,.185-.135.33-.382.428-.379.112-.873.244-1.457.4a.093.093,0,0,0,0,.072,3.738,3.738,0,0,1,.086.577V306.8c1.121-.161,2.307-.3,3.477-.386.465,0,.933-.023,1.345-.023.659.112,1.031.745,1.031,1.869,0,.359-.066,1.051-.155,2.06-.046.494-.069,1.1-.069,1.773,0,.827,0,1.747.023,2.778,0,1.318.046,2.218.089,2.666s-.29.629-.85.659a2.8,2.8,0,0,1-2.337-1.279,1.063,1.063,0,0,1-.112-.494c.049-.112.112-.178.208-.178.353.066.824.155,1.434.29,0-.33,0-.715.04-1.209,0-.7,0-1.681.049-2.936q0-2.017.135-3.876c0-.468-.089-.659-.224-.7a32.752,32.752,0,0,0-8.4,1.434c-.359-.046-.56-.29-.583-.784,0-.29.175-.537.583-.718a.132.132,0,0,0,.112-.043,15.7,15.7,0,0,0-.359-2.689c-.33-1.569-.626-2.874-.85-3.905a1.016,1.016,0,0,1,.267-.537.6.6,0,0,1,.517-.264,2.243,2.243,0,0,1,.468.04,1.259,1.259,0,0,1,.465.409,11.769,11.769,0,0,1,1.869-.722,12.551,12.551,0,0,1,2.89-.359,4.763,4.763,0,0,1,1.928.33,2.461,2.461,0,0,1,.936.807,1.614,1.614,0,0,1,.247.873,4.193,4.193,0,0,1-.4,1.546,8.3,8.3,0,0,1-1.4,2.337,1.245,1.245,0,0,1-.626.2c-.359,0-.537-.185-.537-.56a.6.6,0,0,1,.2-.425,11.583,11.583,0,0,0,.821-1.809,3.239,3.239,0,0,0,.267-.962q0-1.008-1.345-1.008a11.393,11.393,0,0,0-4.525,1.121c.043.494.112,1.055.2,1.707.224,1.727.359,2.867.359,3.45.55-.073,1.111-.185,1.737-.33Zm3.269,6.535a8.719,8.719,0,0,1-1.7,1.051,9.918,9.918,0,0,1-2.043.831.659.659,0,0,1-.659.521.57.57,0,0,1-.629-.494.668.668,0,0,1,0-.115,14.638,14.638,0,0,0-.29-1.727c-.27-.989-.494-1.816-.659-2.465a.988.988,0,0,1,.267-.514.574.574,0,0,1,.465-.27,2.23,2.23,0,0,1,.468.046c.066.043.112.089.158.112.267-.069.537-.135.807-.181a10.5,10.5,0,0,1,1.7-.132,3.246,3.246,0,0,1,1.48.33,1.592,1.592,0,0,1,.761.738,2.637,2.637,0,0,1,.158.873,2.217,2.217,0,0,1-.135.537q.036.069.069.069a1.188,1.188,0,0,1,.043.267.962.962,0,0,1-.234.527Zm-2.419,0a3.312,3.312,0,0,0,.962-1.055,1.715,1.715,0,0,0,.175-.484c0-.293-.224-.465-.629-.465a9.676,9.676,0,0,0-2.172.29c.043.287.089.606.155.933.092.537.158.989.2,1.3.181-.066.359-.135.494-.2.27-.112.537-.224.807-.313Z" transform="translate(-487.471 -298.54)" fill="#27a2af"/>
      <path id="Path_135" data-name="Path 135" d="M259.835,385.762a10.317,10.317,0,0,1,.761,2.554v.27a.577.577,0,0,1-.29.382.468.468,0,0,1-.33.132.738.738,0,0,1-.56-.29c-.715-1.48-1.569-3.338-2.554-5.626a.784.784,0,0,1-.066-.33.7.7,0,0,1,.089-.33.929.929,0,0,1,.873-.517,1.318,1.318,0,0,1,.537.2c.181.313.359.659.54,1.008l.043.089a14.416,14.416,0,0,1,1.4-.537c.491-.135,1.008-.27,1.5-.382-.112-.27-.2-.494-.29-.718a.784.784,0,0,1,.224-.468.659.659,0,0,1,.514-.293,1.516,1.516,0,0,1,.405.046.837.837,0,0,1,.468.468c.069.132.135.31.224.534q1.75-.405,3.362-.741c0-.29-.043-.6-.066-.933a3.185,3.185,0,0,1-.023-.468v-.007c-.224.046-.425.066-.626.112a39.224,39.224,0,0,1-4.241.738,15.1,15.1,0,0,1-1.77.092h-.534a.629.629,0,0,1-.659-.606.428.428,0,0,1,0-.112v-.287a1.341,1.341,0,0,1,.712-.758,4.574,4.574,0,0,0,.521,0,32.523,32.523,0,0,0,3.922-.267,45.66,45.66,0,0,0,4.943-.84,4.028,4.028,0,0,1,.629-.132,1.371,1.371,0,0,1,.56.132c.2.135.313.247.313.382a.847.847,0,0,1-.135.4,1.318,1.318,0,0,1-.494.359,14.759,14.759,0,0,1-1.681.468,2.844,2.844,0,0,1,.27,1.4,24.339,24.339,0,0,1,3.2-.379c.854,0,1.345.33,1.437.989a2.522,2.522,0,0,1-.382,1.279,8.5,8.5,0,0,1-1.615,2.06,1.11,1.11,0,0,1,.046.293,1.067,1.067,0,0,1-.287.626,22,22,0,0,1-3.665,1.516c-1.008.33-1.977.626-2.933.873a2.722,2.722,0,0,1,.244,1.259,5.963,5.963,0,0,1-.244,1.631c-.092.224-.158.468-.227.659.405-.023.807-.046,1.236-.086.626-.049,1.186-.089,1.7-.161a7.581,7.581,0,0,0-.356-1.368,5.6,5.6,0,0,0-.494-1.008.659.659,0,0,1,.188-.926h0a.709.709,0,0,1,.517-.2.989.989,0,0,1,.676.33A5.332,5.332,0,0,1,268.2,390a10.775,10.775,0,0,1,.224,1.256,27.151,27.151,0,0,0,2.778-.468c.468-.089.857-.178,1.216-.27a7.068,7.068,0,0,1,1.3-.379.534.534,0,0,1,.465.29,1.891,1.891,0,0,1,.382.854.587.587,0,0,1-.465.56,5.545,5.545,0,0,1-1.5.4c-.386.089-1.035.2-1.931.33-.807.112-1.546.2-2.218.293a8.608,8.608,0,0,1-1.233,3.955c-.247.359-.494.7-.738,1.015h.089c.626.181,1.345.382,2.172.56a.59.59,0,0,1,.181.494,1.105,1.105,0,0,1-1.032.784h-.33a6.164,6.164,0,0,1-1.951-.494,2.966,2.966,0,0,1-.33-.132,11.752,11.752,0,0,1-1.951,1.361,1.454,1.454,0,0,1-.738.247.712.712,0,0,1-.761-.56.613.613,0,0,1,.379-.6,10.217,10.217,0,0,0,1.816-1.147,4.322,4.322,0,0,1-.6-.465,4.217,4.217,0,0,1-1.7-3.137,3.508,3.508,0,0,1,.135-1.032c-.9.152-1.648.31-2.333.465a15.692,15.692,0,0,0-2,.587,2.829,2.829,0,0,1-1.055.224c-.382,0-.606-.29-.659-.807a.834.834,0,0,1,.247-.659,1.6,1.6,0,0,1,.8-.465,13.923,13.923,0,0,1,1.816-.521c1.193-.264,2.4-.465,3.658-.659v-.066a10.176,10.176,0,0,0,.33-1.994,4.585,4.585,0,0,0-.046-.56,3.119,3.119,0,0,1-.066-.629.31.31,0,0,1,0-.135c-.178.046-.33.069-.468.092a.929.929,0,0,1-.382.132.554.554,0,0,1-.468-.353,1.275,1.275,0,0,1-.2-.784.659.659,0,0,1,.468-.56c.626-.138,1.19-.274,1.727-.386a10.188,10.188,0,0,0-.494-2.017c-.112-.224-.2-.465-.29-.7-.933.27-1.928.537-2.936.85a7.714,7.714,0,0,1,.349,1.005Zm3.4,8.549a3.167,3.167,0,0,0,1.368,2.577,5.126,5.126,0,0,0,.633.382,8.058,8.058,0,0,0,1.071-1.648,10.132,10.132,0,0,0,.61-2.511c-.468.066-.9.112-1.318.155-.807.112-1.569.2-2.281.293a3.489,3.489,0,0,0-.1.761Zm.7-10.546a11.71,11.71,0,0,1,.583,2.636c.521-.135,1.008-.27,1.48-.428a19.344,19.344,0,0,1,.514-2.709,1.7,1.7,0,0,0,.1-.33c-.857.2-1.753.425-2.716.659a.373.373,0,0,0,.043.178Zm4.2-.989a13.656,13.656,0,0,1-1.008,2.636,1.683,1.683,0,0,0-.135.224c.583-.178,1.17-.33,1.707-.514.31-.135.583-.224.807-.33a9.228,9.228,0,0,0,1.793-2.778c-.857.089-1.9.274-3.121.494a1.257,1.257,0,0,0-.026.247Z" transform="translate(-254.698 -350.881)" fill="#27a2af"/>
      <path id="Path_136" data-name="Path 136" d="M339.857,390.841a4.244,4.244,0,0,1-.989-.827.659.659,0,0,1-.181-.517c0-.247.135-.379.405-.425a9.737,9.737,0,0,1,3.474,1.256,17.374,17.374,0,0,0,1.147-3.431,16.415,16.415,0,0,0,.534-3.3c0-.224-.135-.359-.4-.386a22.245,22.245,0,0,0-3.681.784,3.627,3.627,0,0,1-.583.178,4.644,4.644,0,0,1-.827,1.664q-3.4,4.973-5.042,5.916a.7.7,0,0,1-1.186-.422.862.862,0,0,1,0-.092c0-.181.2-.428.606-.784a26.233,26.233,0,0,0,4.436-5.761,23.578,23.578,0,0,1-3.7.784c-.537,0-.827-.224-.85-.659a.755.755,0,0,1,.356-.722c.4-.152.989-.359,1.747-.583,1.648-.465,3.269-.85,4.8-1.21a22.578,22.578,0,0,1,4.5-.659,1.411,1.411,0,0,1,1.031.537,2.465,2.465,0,0,1,.359,1.48,22.585,22.585,0,0,1-.382,3.3,23.887,23.887,0,0,1-.626,2.8,3.74,3.74,0,0,1-.936,1.73,2.224,2.224,0,0,1-1.345.422A6.082,6.082,0,0,1,339.857,390.841Zm-1.242,2.689c1.008-.089,1.951-.155,2.8-.155a12.037,12.037,0,0,1,1.977.132,3,3,0,0,1,1.865.9,2.03,2.03,0,0,1,.494,1.256,6.422,6.422,0,0,1-.517,2.129,11.12,11.12,0,0,1-.827,1.569.412.412,0,0,1,.155-.023.715.715,0,0,1,.537.3,1.27,1.27,0,0,1,.046.33,1.239,1.239,0,0,1-.29.659,23.4,23.4,0,0,1-3.319,1.051,33.219,33.219,0,0,1-4.241.857.636.636,0,0,0,0,.112.689.689,0,0,1-.428.7h-.2a.709.709,0,0,1-.659-.468,8.588,8.588,0,0,1-.7-1.434,21.483,21.483,0,0,1-.9-5.652c-.043-.807-.043-1.615-.043-2.4a.877.877,0,0,1,.784-.626h.161a.659.659,0,0,1,.636.7.4.4,0,0,1,0,.066v.521A19.7,19.7,0,0,1,338.614,393.531Zm.158,7q1.72-.3,3.141-.606a.811.811,0,0,1,.31-.379,5.6,5.6,0,0,0,.936-1.345,6.564,6.564,0,0,0,.784-2.264c0-.468-.629-.718-1.839-.761a18.789,18.789,0,0,0-3.187.29,22.964,22.964,0,0,0-2.824.583.157.157,0,0,1-.066.023,8.734,8.734,0,0,0,.046,1.1,13.749,13.749,0,0,0,.626,3.651,20.93,20.93,0,0,1,2.073-.3Z" transform="translate(-306.144 -353.496)" fill="#27a2af"/>
      <path id="Path_137" data-name="Path 137" d="M396.558,384.682a4.286,4.286,0,0,1,1.648.313,1.869,1.869,0,0,1,1.074,1.869,6.564,6.564,0,0,1-.6,2.106.659.659,0,0,1,.313.247.808.808,0,0,1,.046.264,1.091,1.091,0,0,1-.224.494,9.228,9.228,0,0,1-1.793,1.4,13.58,13.58,0,0,1-2.465,1.186.921.921,0,0,1-.33.086.534.534,0,0,1-.468-.31,1.14,1.14,0,0,1-.181-.722.633.633,0,0,1,.382-.56,17.562,17.562,0,0,0-.313-2.307c-.33-1.523-.56-2.8-.784-3.787a.791.791,0,0,1,.244-.465.613.613,0,0,1,.494-.3,2.044,2.044,0,0,1,.425.046.989.989,0,0,1,.494.494.283.283,0,0,0,.046.155,8.792,8.792,0,0,1,1.994-.218Zm-1.256,5.873.933-.4a1.748,1.748,0,0,1,.224-.33,13.24,13.24,0,0,0,1.345-2.465,6.6,6.6,0,0,0,.089-.718c-.158-.313-.514-.491-1.1-.491a8.9,8.9,0,0,0-1.977.29c.046.359.112.765.158,1.213.158,1.3.247,2.284.29,2.913Zm9.5-7.4a8.519,8.519,0,0,0,.936-1.1,4.053,4.053,0,0,0,.933-1.476c-.761.224-1.648.425-2.62.626a4.11,4.11,0,0,1-1.1.158,1.18,1.18,0,0,1-1.078-1.19,1.9,1.9,0,0,1,.27-.659,10.357,10.357,0,0,1,1.256-1.928.521.521,0,0,1,.379-.132h.247a.659.659,0,0,1,.468.7,5.4,5.4,0,0,1-.936,1.839,25.982,25.982,0,0,1,2.577-.629,5,5,0,0,1,1.081-.132c.715.089,1.074.376,1.1.873a4.054,4.054,0,0,1-1.233,2.465h.046a22.857,22.857,0,0,1,2.8-.409h.537c.807.138,1.233.7,1.233,1.681,0,.9-.112,2.225-.293,4.017-.112,1.144-.224,2.152-.33,3.048a.3.3,0,0,0,.135-.046,5.991,5.991,0,0,1,.784-.313,2.254,2.254,0,0,1,.718.178c.33.181.468.359.468.517a.989.989,0,0,1-.224.537,1.9,1.9,0,0,1-.7.514,27.457,27.457,0,0,1-4.284,1.546,34.222,34.222,0,0,1,4.459,4.284,3.553,3.553,0,0,1,1.008,1.7c0,.409-.175.633-.491.633a.877.877,0,0,1-.54-.33c-.468-.425-1.14-1.025-1.948-1.836a39.968,39.968,0,0,0-4.238-3.767.512.512,0,0,1-.089-.132h0a9.826,9.826,0,0,1-.936,1.813c-.359.54-.765,1.19-1.233,1.928-.33.409-.606.784-.854,1.144a6.125,6.125,0,0,1-.738.7.8.8,0,0,1-.517.178.491.491,0,0,1-.468-.511h0a.775.775,0,0,1,.178-.56,4.285,4.285,0,0,1,.494-.7c.356-.465.738-1.008,1.14-1.648.27-.494.583-1.055.9-1.648.043-.089.066-.155.109-.244-.537.132-1.051.267-1.589.356a18.778,18.778,0,0,1-2.152.2h-.659a.732.732,0,0,1-.725-.742v-.554a1.427,1.427,0,0,1,.807-.834,4.936,4.936,0,0,0,.626.023,19.033,19.033,0,0,0,4.416-.56,9.421,9.421,0,0,0,.224-1.648.659.659,0,0,1,.514-.56h.468c.405.043.606.4.629,1.1a6.593,6.593,0,0,1-.046.659c.83-.2,1.681-.468,2.577-.761a1.049,1.049,0,0,1-.023-.247,3.261,3.261,0,0,1,.112-.7c.046-.29.135-.659.224-1.074.092-.659.2-1.549.33-2.669s.2-2.06.247-3c0-.178-.155-.274-.468-.274a18.015,18.015,0,0,0-3.427.791q-1.977.534-3.7,1.14c0,.405.023.83.023,1.233,0,1.549.089,3.3.224,5.224,0,.6-.181.9-.517.9h-.33c-.4,0-.6-.425-.626-1.279-.046-.4-.112-1.523-.247-3.362l-.237-3.655c-.023-.155-.066-.33-.112-.537a.7.7,0,0,1,.626-.761h.359a.761.761,0,0,1,.718.6c.659-.221,1.4-.445,2.307-.712Zm2.669,2.508a2.413,2.413,0,0,1-.33.877l-.158.29a4.373,4.373,0,0,1,1.77,1.928,2.018,2.018,0,0,1,.158.583c-.023.224-.181.356-.465.356a1.128,1.128,0,0,1-.363-.043,6.394,6.394,0,0,1-2.04-1.434,15,15,0,0,1-1.008,1.364,2.738,2.738,0,0,1-.761.784.906.906,0,0,1-.465.092c-.359-.023-.514-.224-.514-.606a.8.8,0,0,1,.155-.468,14.394,14.394,0,0,1,1.19-1.977c.468-.857.85-1.572,1.163-2.155a1.1,1.1,0,0,1,.742-.465.811.811,0,0,1,.926.679.743.743,0,0,1,0,.171Z" transform="translate(-346.594 -350.685)" fill="#27a2af"/>
      <path id="Path_138" data-name="Path 138" d="M464.075,393.807a.893.893,0,0,1,.626.293c.135.2.33.514.606.936.425.718.9,1.48,1.4,2.376a1.087,1.087,0,0,1,.181.583.659.659,0,0,1-.465.537,1.048,1.048,0,0,1-.583-.178,13.639,13.639,0,0,1-2.066-2.847,3.7,3.7,0,0,1-.33-.626.839.839,0,0,1-.135-.425C463.356,394.12,463.6,393.9,464.075,393.807Zm1.869-8.651a5.626,5.626,0,0,1,3-1.457c.181.046.293.224.33.494,0,1.048-.989,2.847-2.94,5.378.807-.4,1.753-.9,2.874-1.523a2.237,2.237,0,0,1,.807-.33.629.629,0,0,1,.709.54.6.6,0,0,1,0,.109,3.592,3.592,0,0,1-.7,1.948,4.284,4.284,0,0,1-1.008,1.19.755.755,0,0,1-.514.178.288.288,0,0,1-.313-.33.659.659,0,0,1,.155-.4c.33-.7.606-1.318.784-1.793-1.977,1.7-3.371,2.6-4.307,2.689-.4-.023-.606-.224-.606-.606a1.889,1.889,0,0,1,.359-.936q1.285-2.284,3.025-5.108a6.5,6.5,0,0,1-3.385,2.017c-.356-.046-.56-.313-.56-.807a18.166,18.166,0,0,0,2.735-6.41.989.989,0,0,1,.962-.583.659.659,0,0,1,.56.659,15.335,15.335,0,0,1-1.977,5.1Zm.422,7.619a.883.883,0,0,1,.659.27c.1.158.224.405.468.761.33.606.659,1.256,1.055,1.951a.969.969,0,0,1,.135.494.534.534,0,0,1-.382.468.923.923,0,0,1-.514-.155,9.5,9.5,0,0,1-1.681-2.241,1.768,1.768,0,0,1-.26-.478.709.709,0,0,1-.112-.4.768.768,0,0,1,.659-.682Zm4.67,2.389c-.066.135-.132.2-.2.224a.57.57,0,0,1-.359.089,2.195,2.195,0,0,1-1.186-.738,4.492,4.492,0,0,1-1.074-1.3.8.8,0,0,1-.158-.494.563.563,0,0,1,.178-.382.738.738,0,0,1,.359-.247h.247a.524.524,0,0,1,.33.132,3.206,3.206,0,0,0,.4.468,4.785,4.785,0,0,0,1.4,1.615.349.349,0,0,1,.2.359.633.633,0,0,1-.115.274Zm6.921-.135a.109.109,0,0,1-.053-.023v.877a21.112,21.112,0,0,1-.287,3.474,6.546,6.546,0,0,1-.29.936.7.7,0,0,1-.544.494c-.626,0-.933-.178-.933-.494a17.719,17.719,0,0,0,.491-5.138v-3.8a13.5,13.5,0,0,0-1.747,1.008c-.27.224-.56.468-.85.7l-.27.267c.066.583.112.989.112,1.233,0,.629-.247.966-.722.966a.587.587,0,0,1-.659-.494.864.864,0,0,1,0-.132,16.239,16.239,0,0,0-.287-1.865c-.3-1.074-.537-1.977-.745-2.689a1.1,1.1,0,0,1,.247-.514.659.659,0,0,1,.56-.27,2.033,2.033,0,0,1,.468.046.771.771,0,0,1,.517.514,9.56,9.56,0,0,1,.267,1.434,19.782,19.782,0,0,1,1.977-1.275c.4-.224.807-.409,1.21-.583,0-.313.023-.659.046-1.008a.774.774,0,0,1,.56-.807h.468c.428.135.659.382.659.738v.465a9.6,9.6,0,0,1,1.747-.4c.465-.086.9-.175,1.345-.224.247,0,.606-.023,1.055-.023a1.73,1.73,0,0,1,.761.247,1.055,1.055,0,0,1,.29.626v.409a4.2,4.2,0,0,1-.4,1.434,8.285,8.285,0,0,1-.969,1.592,9.558,9.558,0,0,1-2.169,2.017,2.389,2.389,0,0,1-1.144.4,1.447,1.447,0,0,1-.659-.119Zm-5.649-14.171c-.468,0-.659-.3-.659-.9a.7.7,0,0,1,.639-.765h0a17.489,17.489,0,0,0,4.241-1.648c.4,0,.626.112.715.29a1.62,1.62,0,0,1-.043.33.939.939,0,0,1-.382.468,6.262,6.262,0,0,1-1.434,1.078c-.468.224-.854.425-1.21.583h0a6.809,6.809,0,0,1,.217.768c.049,0,.073,0,.1-.072a13.141,13.141,0,0,1,2.465-.224,8.236,8.236,0,0,1,2.465.359,2.192,2.192,0,0,1,1.523,2.195,5.326,5.326,0,0,1-1.256,2.762c0,.046.023.066.023.089a.771.771,0,0,1-.33.659,12.728,12.728,0,0,1-3.16,1.144,9.7,9.7,0,0,1-1.476.2h-.023a.682.682,0,0,1-.633.422c-.356,0-.537-.2-.537-.6v-1.977a16.352,16.352,0,0,0-.494-3.381c-.112-.54-.224-1.032-.359-1.5a.863.863,0,0,1-.112-.33.988.988,0,0,1-.241.046Zm4.864,1.272a14.68,14.68,0,0,0-2.488.313,4.063,4.063,0,0,0,.089.745,6.167,6.167,0,0,0,.046.738q.6-.063,1.008-.138c.807-.086,1.77-.264,2.913-.488.359-.049.626-.089.827-.135-.33-.659-1.111-1.035-2.37-1.035Zm2.195,2c-.468.132-.936.267-1.434.379a23.982,23.982,0,0,1-3.048.606v1.588a7.393,7.393,0,0,0,.966-.132,10.743,10.743,0,0,0,2.89-1.035h.066a13.791,13.791,0,0,0,.587-1.407Zm-1.463,9.076v.29c.1.046.161.066.208.089a.988.988,0,0,0,.465.112,1.055,1.055,0,0,0,.659-.33,5.658,5.658,0,0,0,1.074-1.186,15.839,15.839,0,0,0,1.279-2.129h-.425a13.936,13.936,0,0,0-3.095.6,23.243,23.243,0,0,0-.155,2.534Z" transform="translate(-393.827 -350.747)" fill="#27a2af"/>
      <path id="Path_139" data-name="Path 139" d="M550.2,380.92a1.025,1.025,0,0,1,.185.521.554.554,0,0,1-.359.465c-1.193.33-2.538.7-4.06,1.081v.069c-.089,1.12-.158,1.994-.158,2.636a28.809,28.809,0,0,1,3.81-.659.689.689,0,0,1,.544.247.927.927,0,0,1,.175.514.6.6,0,0,1-.359.517c-1.209.379-2.62.784-4.2,1.209l-.089,2.847c3.427-.83,6.07-1.569,8.021-2.221a.606.606,0,0,1,.521.293.389.389,0,0,1,.066.247,1.269,1.269,0,0,1-.359.761c-1.074.807-3.856,1.793-8.318,2.913-.043.811-.066,1.483-.089,2.06a16.117,16.117,0,0,1-1.008,5.428c-.135.537-.425.83-.873.83-.33,0-.494-.27-.494-.784a26.034,26.034,0,0,0,.659-4.729l.112-2.426q-2.966.705-5.579,1.279c-.659.135-1.167.224-1.48.267a4.484,4.484,0,0,1-.936.092c-.465-.023-.718-.359-.784-.989,0-.264.224-.534.659-.784.27-.089.626-.2,1.032-.313q3.691-.712,7.161-1.552l.1-2.8c-1.12.313-2.336.626-3.586.936a.814.814,0,0,1-.834-.718v-.27a.63.63,0,0,1,.359-.517,31.236,31.236,0,0,1,4.057-1.3c0-.854.043-1.727.089-2.636q-2.254.577-4.841,1.186a.827.827,0,0,1-.873-.712v-.274a.735.735,0,0,1,.356-.511,44.49,44.49,0,0,1,5.827-1.615c.33-.043.606-.112.9-.178A6.921,6.921,0,0,0,547.222,379a3.1,3.1,0,0,0,.178-.933v-.425a.758.758,0,0,1,.7-.517c.6,0,.936.359.962,1.055v.224q-.133,1.206-2.017,2.636a17.843,17.843,0,0,1,2.6-.4.636.636,0,0,1,.557.287Zm-7.125-.214a.567.567,0,0,1-.465.185.659.659,0,0,1-.468-.135,4.008,4.008,0,0,1-.494-.274,8.718,8.718,0,0,1-1.836-1.681.268.268,0,0,1-.023-.135.93.93,0,0,1,.178-.491,1.015,1.015,0,0,1,.468-.359,1.153,1.153,0,0,1,.422-.066.863.863,0,0,1,.659.514c.33.313.633.659.936,1.008.382.4.626.7.761.831v.2a.567.567,0,0,1-.152.4Z" transform="translate(-441.985 -350.459)" fill="#27a2af"/>
      <path id="Path_140" data-name="Path 140" d="M612.467,392.8c-.4-.583-.831-1.144-1.233-1.681a.627.627,0,0,1-.135-.405v-.224a.989.989,0,0,1,.313-.58,1.183,1.183,0,0,1,.494-.224h.27a2,2,0,0,1,.4.158,18.142,18.142,0,0,1,2.8,4.4,4.775,4.775,0,0,1,.514,1.569c0,.488-.224.738-.659.738a.847.847,0,0,1-.626-.379,17.755,17.755,0,0,1-1.081-1.664l-.066-.112a12.916,12.916,0,0,1-3.757,5.042,3.359,3.359,0,0,1-1.948.936,1.18,1.18,0,0,1-.946-1.121c-.026-.33-.026-.807-.026-1.4,0-1.707.043-3.45.138-5.2a12.483,12.483,0,0,0-.514-3.787,5.084,5.084,0,0,1-.29-1.5v-.313a.8.8,0,0,1,.827-.659,1.038,1.038,0,0,1,.718.33c.61,1.1.936,3.338.936,6.723,0,1.434-.073,3.16-.158,5.138a12.026,12.026,0,0,0,3-3.566,7.81,7.81,0,0,0,.784-1.77A1.318,1.318,0,0,1,612.467,392.8Zm12.606,10.272a2.138,2.138,0,0,1-.784-.247,15.9,15.9,0,0,1-1.839-1.589,22.335,22.335,0,0,1-3.955-4.775,1.291,1.291,0,0,1-.244-.4c-.405.8-.831,1.612-1.3,2.4A18.407,18.407,0,0,1,614.237,402c-.4.359-.811.7-1.209,1.008a1.957,1.957,0,0,1-.7.155c-.287,0-.465-.2-.465-.56,0-.155.135-.33.405-.537a20.964,20.964,0,0,0,2.689-3.269,41.316,41.316,0,0,0,5.065-12.932c.155-.761.33-1.48.468-2.195a.712.712,0,0,1,.784-.494.774.774,0,0,1,.692.718,13.514,13.514,0,0,1-.244,1.816,47.815,47.815,0,0,1-2.376,7.844c-.112.267-.224.537-.33.784a1.25,1.25,0,0,1,.359.155,9.6,9.6,0,0,0,.659.933,30.892,30.892,0,0,0,3.147,4.011c.7.715,1.345,1.4,1.977,2.083a1.216,1.216,0,0,1,.554.969.616.616,0,0,1-.425.6Z" transform="translate(-489.573 -354.513)" fill="#27a2af"/>
      <path id="Path_141" data-name="Path 141" d="M679.4,389.336a14,14,0,0,0,1.4-5,21.576,21.576,0,0,0-3.361,1.523c-.807.465-1.345.742-1.648.873a.814.814,0,0,1-.877-.745.138.138,0,0,0,0-.036,1.44,1.44,0,0,1,.633-.989,7.121,7.121,0,0,0,.933-2.241,7.412,7.412,0,0,0,.221-1.747.926.926,0,0,1,.33-.718,1.061,1.061,0,0,1,.6-.267.989.989,0,0,1,1.008.692,8.9,8.9,0,0,1-.155,1.48,5.984,5.984,0,0,1-.56,1.4c.6-.27,1.233-.494,1.869-.718a6.208,6.208,0,0,1,1.457-.224,1.163,1.163,0,0,1,.784.33,1.648,1.648,0,0,1,.405,1.032,15.852,15.852,0,0,1-2.511,8.117,18.788,18.788,0,0,1-3.16,4.146,8.239,8.239,0,0,1-1.615,1.144,3,3,0,0,1-.85.267c-.606,0-.936-.2-1.008-.58a.412.412,0,0,1,.178-.359c.27-.178.583-.359.966-.606a13.386,13.386,0,0,0,2.913-3.091c.33-.537.659-1.055.989-1.569a7.944,7.944,0,0,1-.827-.521,10.047,10.047,0,0,1-2.132-1.585,1.32,1.32,0,0,1-.267-.33.54.54,0,0,1-.135-.33.856.856,0,0,1,.224-.494.659.659,0,0,1,.382-.29,1.317,1.317,0,0,1,.379-.046.912.912,0,0,1,.465.158c.138.089.274.2.425.313a13.411,13.411,0,0,0,1.4,1.16,8.363,8.363,0,0,1,.811.633A7.592,7.592,0,0,1,679.4,389.336Zm8.569-7.125v3.5a1.419,1.419,0,0,0,.264.043,40.041,40.041,0,0,1,4.891,2.333,3.976,3.976,0,0,1,.379.468,1.1,1.1,0,0,1,.135.465.827.827,0,0,1-.089.33l-.132.112a.376.376,0,0,1-.29.152,1.289,1.289,0,0,1-.63-.2,32.182,32.182,0,0,1-4.525-1.931c0,1.282,0,2.8.089,4.643s.152,3.451.152,4.772a7.068,7.068,0,0,1-.712,3.385.989.989,0,0,1-.857.537c-.56,0-.824-.313-.824-.933a6.353,6.353,0,0,0,.824-2.778c-.023-1.977-.089-4.04-.2-6.212-.112-2.6-.175-5.134-.2-7.642,0-1.5-.026-3.1-.026-4.755a.86.86,0,0,1,.633-.9h.494a.89.89,0,0,1,.7.9c0,.722-.023,1.977-.069,3.724Z" transform="translate(-534.612 -350.781)" fill="#27a2af"/>
      <path id="Path_142" data-name="Path 142" d="M748.184,384.792a2.663,2.663,0,0,1,2.936,3.118l.29,8.068.112,1.364c0,.428-.4.659-1.163.7a5.428,5.428,0,0,1-2.152-.56c-.468.135-1.008.293-1.681.468-.33.046-.659.069-.936.089a.967.967,0,0,1-.112.293.844.844,0,0,1-.537.247.623.623,0,0,1-.465-.181,1.4,1.4,0,0,1-.227-.659c-.046-.761-.046-1.816-.046-3.16,0-1.457,0-2.8.046-3.955s.066-2.508.112-3.9v-2.234c0-.135-.046-.27-.069-.468a.518.518,0,0,1,0-.2.469.469,0,0,1-.2.043c-.468,0-.7-.29-.7-.9a.682.682,0,0,1,.633-.735h.04a23.294,23.294,0,0,0,4.413-1.368c.428,0,.659.112.718.33a.943.943,0,0,1,0,.359.788.788,0,0,1-.379.425,5.274,5.274,0,0,1-1.526.933,11.964,11.964,0,0,1-1.48.56,2.148,2.148,0,0,1,.191,1.015v.742A9.581,9.581,0,0,1,748.184,384.792Zm1.681,11.749c0-1.842,0-3.523-.043-5.042a4.166,4.166,0,0,1-.659.224c-1.16.376-2.333.712-3.563,1.025v3.816a2.266,2.266,0,0,0,.56-.066,14.188,14.188,0,0,0,2.337-.56h.247a.537.537,0,0,1,.494.293c.043.109.066.224.112.313s-.023.089-.023.135a5.027,5.027,0,0,1,.531-.138Zm-.2-8.7a1.648,1.648,0,0,0-1.691-1.579.774.774,0,0,0-.125,0,4.4,4.4,0,0,0-1.186.27,7.263,7.263,0,0,1-.761.313c-.026.208-.043.415-.049.626-.135,1.526-.2,2.689-.224,3.5v.293a34.718,34.718,0,0,0,3.737-1.008c.155-.046.29-.069.425-.112-.046-.83-.079-1.592-.125-2.307Zm11.429,1.3c.046-1.664.112-3.737.247-6.186,0-.7-.066-1.058-.178-1.058a18.376,18.376,0,0,0-2.109.7c-.9.287-1.793.56-2.706.784a9.193,9.193,0,0,1-2.2.33h-.287a1.259,1.259,0,0,1-1.038-.544,1.411,1.411,0,0,1-.25-.936,19.551,19.551,0,0,0,1.46-4.057.936.936,0,0,1,.784-.33.784.784,0,0,1,.382.158.761.761,0,0,1,.29.659,4.169,4.169,0,0,1-.224.962c-.468,1.345-.761,2.129-.8,2.333a15.371,15.371,0,0,0,4.1-.761,26.453,26.453,0,0,0,2.735-.933,2.169,2.169,0,0,1,.56-.112c.267,0,.514.33.761.962a5.5,5.5,0,0,1,.29,1.9c0,.659-.066,1.648-.155,3.025-.112,2.4-.158,4.466-.158,6.163,0,2.422,0,5,.089,7.827a1.064,1.064,0,0,1-.514.784,2.756,2.756,0,0,1-.61.178,3.8,3.8,0,0,1-2.169-.9,10.3,10.3,0,0,1-1.869-2.083,1.087,1.087,0,0,1-.2-.61c0-.31.135-.465.468-.465a1.018,1.018,0,0,1,.659.33,18.011,18.011,0,0,0,2.867,2.083c-.155-1.869-.244-4.37-.244-7.557C761.06,391.077,761.06,390.193,761.093,389.142Zm-3,2.923a1.282,1.282,0,0,1-.514-.158,8.2,8.2,0,0,1-.933-.425,13.072,13.072,0,0,1-2.422-1.368c-.178-.135-.267-.2-.33-.247a.626.626,0,0,1-.112-.379.989.989,0,0,1,.2-.517.734.734,0,0,1,.412-.287,1.589,1.589,0,0,1,.353-.046,1.1,1.1,0,0,1,.468.2,4.687,4.687,0,0,1,.468.224,16.846,16.846,0,0,0,1.648.989c.359.2.659.405.933.583a1.2,1.2,0,0,1,.363.784c0,.359-.138.56-.363.629Z" transform="translate(-581.606 -350.943)" fill="#27a2af"/>
      <path id="Path_143" data-name="Path 143" d="M830.441,380.94a1.052,1.052,0,0,1,.181.521.547.547,0,0,1-.359.465c-1.19.33-2.534.7-4.057,1.078v.069c-.089,1.12-.158,1.994-.158,2.636a29.733,29.733,0,0,1,3.81-.659.692.692,0,0,1,.54.247.94.94,0,0,1,.178.514.606.606,0,0,1-.359.521c-1.21.376-2.636.784-4.2,1.209l-.089,2.847c3.427-.83,6.07-1.569,8.021-2.221a.583.583,0,0,1,.514.293.346.346,0,0,1,.069.247,1.259,1.259,0,0,1-.359.761c-1.074.807-3.856,1.793-8.315,2.913-.043.807-.066,1.48-.089,2.06a16.176,16.176,0,0,1-1.008,5.425c-.135.537-.425.831-.873.831-.33,0-.494-.27-.494-.784a26.035,26.035,0,0,0,.7-4.706l.112-2.422q-2.966.7-5.579,1.279c-.659.135-1.167.224-1.48.267a4.484,4.484,0,0,1-.936.092c-.465-.023-.718-.359-.784-.989,0-.267.224-.537.659-.784.27-.089.626-.2,1.032-.33q3.668-.7,7.125-1.546l.1-2.8c-1.121.33-2.337.626-3.592.936a.811.811,0,0,1-.827-.722v-.27a.636.636,0,0,1,.359-.514,32.443,32.443,0,0,1,4.057-1.3c0-.854.043-1.727.089-2.636-1.5.382-3.118.784-4.841,1.186a.831.831,0,0,1-.873-.715v-.27a.749.749,0,0,1,.356-.514,44.992,44.992,0,0,1,5.827-1.615c.33-.043.606-.112.9-.178a6.9,6.9,0,0,0,1.681-2.333,3.12,3.12,0,0,0,.178-.933v-.425a.761.761,0,0,1,.7-.521c.6,0,.936.359.962,1.055v.25a4.343,4.343,0,0,1-2.017,2.617,18.3,18.3,0,0,1,2.6-.4.659.659,0,0,1,.544.27Zm-7.115-.214a.567.567,0,0,1-.468.185.636.636,0,0,1-.465-.135,4.017,4.017,0,0,1-.494-.274,8.641,8.641,0,0,1-1.836-1.681.238.238,0,0,1-.023-.135.93.93,0,0,1,.178-.491,1.025,1.025,0,0,1,.465-.359,1.171,1.171,0,0,1,.425-.066.863.863,0,0,1,.659.514c.313.313.633.659.936,1.008s.626.7.761.83v.2a.564.564,0,0,1-.152.4Z" transform="translate(-629.896 -350.479)" fill="#27a2af"/>
      <path id="Path_144" data-name="Path 144" d="M890.119,386.468a6.258,6.258,0,0,1-.544,1.3h.049a.843.843,0,0,1,.465.267.783.783,0,0,1,.049.247,1.193,1.193,0,0,1-.224.537,10.737,10.737,0,0,1-2,1.368,11.673,11.673,0,0,1-2.666,1.256.987.987,0,0,1-.33.089.544.544,0,0,1-.468-.33,1.16,1.16,0,0,1-.175-.738.56.56,0,0,1,.392-.488c.1-.043.185-.066.273-.112a16.67,16.67,0,0,0-.359-2.017c-.386-1.368-.7-2.515-.962-3.4a1.031,1.031,0,0,1,.738-.742,1.867,1.867,0,0,1,.425.046,1.1,1.1,0,0,1,.517.491.109.109,0,0,0,.023.069,10.563,10.563,0,0,1,1.9-.181,5.741,5.741,0,0,1,2.037.382q1.008.435,1.008,1.008A4.13,4.13,0,0,1,890.119,386.468Zm-3.23,2.636c0-.023.069-.046.112-.089a7.683,7.683,0,0,0,1.143-1.681,5.349,5.349,0,0,0,.494-1.256,1.922,1.922,0,0,0-1.368-.428c-.494,0-1.055.023-1.648.069.066.33.132.7.2,1.1q.33,1.753.4,2.554Zm2.966,7.125a.659.659,0,0,1-.158-.379c0-.583.224-.933.7-1.008a.883.883,0,0,1,.659.29A11.365,11.365,0,0,1,893,397.769a1.7,1.7,0,0,1,.247.488.725.725,0,0,1-.61.824h-.086a.817.817,0,0,1-.738-.537,26.113,26.113,0,0,1-1.951-2.307Zm3.7-1.977a.939.939,0,0,1,.659.29c.112.112.33.293.583.56.359.425.784.873,1.282,1.368a1.588,1.588,0,0,1,.152.626.659.659,0,0,1-.465.567,1.134,1.134,0,0,1-.626-.185,8.166,8.166,0,0,1-1.9-1.7,1.238,1.238,0,0,1-.273-.379.988.988,0,0,1-.135-.465c.02-.33.267-.59.715-.679Zm6.95-9.369a.465.465,0,0,1,.405.224,1.755,1.755,0,0,0,.066.224.659.659,0,0,1-.2.494,9.865,9.865,0,0,1-2.218,1.569,12.442,12.442,0,0,1-1.008,2.824l.425-.158c1.12-.379,2.04-.659,2.8-.9a7.469,7.469,0,0,1,1.457-.135c.7.046,1.12.583,1.275,1.648,0,.33.046.659.046,1.008,0,.8-.112,2.337-.33,4.614a28.4,28.4,0,0,1-.517,3.068,4.435,4.435,0,0,1-.692,1.529,1.048,1.048,0,0,1-.784.353,2.346,2.346,0,0,1-1.256-.376,4.285,4.285,0,0,1-1.068-1.239,1.051,1.051,0,0,1-.132-.468c0-.224.043-.33.155-.376a.329.329,0,0,1,.224-.135.53.53,0,0,1,.33.152,3.351,3.351,0,0,1,1.167.633,1.051,1.051,0,0,0,.379.224c.1,0,.185-.274.3-.811.066-.33.135-.718.2-1.167.049-.287.066-.583.112-.873a3.273,3.273,0,0,1-1.12-.659,4.663,4.663,0,0,1-1.345-1.3.745.745,0,0,1-.2-.521.708.708,0,0,1,.224-.425.659.659,0,0,1,.4-.27h.247a.764.764,0,0,1,.385.135c.132.112.31.27.514.468A5.161,5.161,0,0,0,901.8,395.3c.04-.659.066-1.345.112-2.04,0-.56.04-1.193.04-1.869v-.537c0-.181-.089-.359-.2-.359a4.422,4.422,0,0,0-1.368.405c-1.048.425-1.9.761-2.531,1.032a25.256,25.256,0,0,1-2.511.936,1.365,1.365,0,0,1-.537.112.468.468,0,0,1-.425-.244.764.764,0,0,1-.158-.494.784.784,0,0,1,.046-.359.633.633,0,0,1,.382-.425c.356-.178.761-.359,1.252-.583a10.173,10.173,0,0,0,1.256-2.732,3.338,3.338,0,0,1-.511.224,6.962,6.962,0,0,1-1.931.491.9.9,0,0,1-.247-.023c0,.494-.046.9-.046,1.256a2.964,2.964,0,0,1-.2.966.8.8,0,0,1-.659.356.64.64,0,0,1-.6-.537,6.486,6.486,0,0,1,0-.715c0-.405.066-1.865.224-4.416q.132-3.4.138-5.135v-.936a.728.728,0,0,1,.6-.807h.494a.659.659,0,0,1,.468.2,1.849,1.849,0,0,0,.382.023,6.036,6.036,0,0,0,1.476-.2,13.437,13.437,0,0,0,1.869-.606l.247-.112a2.463,2.463,0,0,1,.659.158c.264.178.4.33.4.491a.936.936,0,0,1-.175.468,1.562,1.562,0,0,1-.633.468,22.041,22.041,0,0,1-3.4.933,3.589,3.589,0,0,1-.659.066v.2l-.112,1.549a9.381,9.381,0,0,0-.066,1.1,8.173,8.173,0,0,0,1.318-.27l1.12-.33c-.043-.224-.089-.425-.132-.583a2.384,2.384,0,0,1-.181-.784.929.929,0,0,1,.8-.88c.2,0,.425.224.659.629.089.313.158.659.247,1.032a9.885,9.885,0,0,0,.933-.517h.224a.458.458,0,0,1,.4.224,1.578,1.578,0,0,1,.089.247.659.659,0,0,1-.247.517,5.157,5.157,0,0,1-1.252.85c.043.56.066,1.144.066,1.727a1.879,1.879,0,0,0-.046.356,8.9,8.9,0,0,0,1.5-.873Zm-5.932,2.307a15.79,15.79,0,0,0,1.747-.405,6.92,6.92,0,0,0,1.1-.4c0-.112.023-.224.023-.313,0-.583-.023-1.144-.049-1.727-.31.158-.659.287-.989.425a9.606,9.606,0,0,1-1.7.359h-.036c-.03.659-.053,1.345-.1,2.063Zm1.793,6.591a1.045,1.045,0,0,1,.7.29,8.247,8.247,0,0,0,.56.606c.359.468.761.989,1.256,1.529a1.467,1.467,0,0,1,.152.6.55.55,0,0,1-.422.537.87.87,0,0,1-.6-.2,7.069,7.069,0,0,1-1.928-1.832.817.817,0,0,1-.33-.386.884.884,0,0,1-.112-.465c0-.33.264-.567.715-.679Z" transform="translate(-675.62 -351.163)" fill="#27a2af"/>
      <path id="Path_145" data-name="Path 145" d="M978.5,394.53a8.094,8.094,0,0,1-3.675,1.546,12.646,12.646,0,0,1,.491,2.87c0,.659-.313.989-.9.989s-.811-.293-.85-.933a15.006,15.006,0,0,0-.659-2.824,3.257,3.257,0,0,1-.2-.761c0-.514.33-.834,1.032-.936a7.549,7.549,0,0,0,3.095-.962,2.554,2.554,0,0,0,1.523-2.175c0-1.144-.933-1.727-2.755-1.727-.092,0-.7.112-1.773.293a3.121,3.121,0,0,1-.626.112.847.847,0,0,1-.718-.31.933.933,0,0,1-.29-.745,1.015,1.015,0,0,1,.425-.761,1.351,1.351,0,0,1,.827-.349l.6.181a7.866,7.866,0,0,1,1.8-.247,4.914,4.914,0,0,1,3.048.9,3.19,3.19,0,0,1,1.279,2.689A3.878,3.878,0,0,1,978.5,394.53Zm-3.114,9.5a1.565,1.565,0,0,1-1.167.405.827.827,0,0,1-.659-.359,1.319,1.319,0,0,1-.29-.873,1.5,1.5,0,0,1,.33-.989,1.048,1.048,0,0,1,.873-.465,1.6,1.6,0,0,1,.933.29,1.075,1.075,0,0,1,.4.87,1.552,1.552,0,0,1-.415,1.117Z" transform="translate(-735.003 -357.61)" fill="#27a2af"/>
    </g>
    <path id="Path_192" data-name="Path 192" d="M162.046,242.588a6.68,6.68,0,0,1-.659,1.519.513.513,0,0,1-.1.119.44.44,0,0,0,.079,0,.718.718,0,0,1,.2-.04.481.481,0,0,1,.254.155v.138a.659.659,0,0,1-.115.356,12.592,12.592,0,0,1-2.017,1.246,13.545,13.545,0,0,1-2.729,1.088.484.484,0,0,1-.2.04.349.349,0,0,1-.3-.178.659.659,0,0,1-.1-.435.379.379,0,0,1,.257-.33,3.151,3.151,0,0,0,.372-.135c-.056-.593-.155-1.289-.293-2.076-.33-1.384-.573-2.551-.811-3.48a.405.405,0,0,1,.178-.3.33.33,0,0,1,.3-.178c.119,0,.2.02.257.02a.557.557,0,0,1,.3.3c.04.119.059.257.1.4a20.645,20.645,0,0,1,2.449-.138,5.681,5.681,0,0,1,1.8.293c.593.241.91.494.91.811A3.624,3.624,0,0,1,162.046,242.588Zm-3.955,3.16c.455-.178.887-.356,1.3-.534,0-.079.063-.138.138-.217a5.6,5.6,0,0,0,1.167-1.648,5.48,5.48,0,0,0,.494-1.226,2.207,2.207,0,0,0-1.677-.55c-.692,0-1.463,0-2.307.056.079.415.155.91.277,1.467.178,1.265.277,2.172.33,2.745a1.47,1.47,0,0,0,.28-.092Zm13.7-6.759a.484.484,0,0,1,.119.33.33.33,0,0,1-.2.277c-1.028.33-2.215.659-3.539,1.045-.059,1.051-.1,1.882-.1,2.495a23.884,23.884,0,0,1,3.263-.659.432.432,0,0,1,.33.138.729.729,0,0,1,.1.293c0,.122-.079.2-.217.241-.989.353-2.155.732-3.48,1.127l-.04,2.864c1.384-.415,2.669-.85,3.836-1.318a5.88,5.88,0,0,1,1.681-.455.537.537,0,0,1,.277.082.461.461,0,0,1,.178.234.623.623,0,0,1-.178.4,14.336,14.336,0,0,1-2.946,1.246q-1.453.475-2.847.89-.03,1.424-.059,2.373a30.549,30.549,0,0,1-.4,4.614q-.148.494-.534.494c-.257,0-.33-.178-.33-.494a40.042,40.042,0,0,0,.277-4.093l.059-2.636c-1.206.356-2.412.659-3.625.989a4.34,4.34,0,0,1-1.167.257h-.119a.633.633,0,0,1-.372-.593.5.5,0,0,1,.214-.376,5.966,5.966,0,0,1,1.051-.277q2.159-.534,4.031-1.064l.02-2.831c-.89.277-1.8.554-2.749.83a.448.448,0,0,1-.494-.415v-.115a.353.353,0,0,1,.178-.3,26.636,26.636,0,0,1,3.065-1.167c0-.788.02-1.621.04-2.488-.989.277-2.037.554-3.144.85a.465.465,0,0,1-.491-.455v-.138a.4.4,0,0,1,.178-.33,29.238,29.238,0,0,1,4.169-1.318,7.909,7.909,0,0,0,1.4-2.669,4.613,4.613,0,0,0,.119-.969v-.4a.481.481,0,0,1,.415-.356c.376,0,.573.237.573.659v.277a5.512,5.512,0,0,1-1.523,3.2,20.8,20.8,0,0,1,2.636-.494.346.346,0,0,1,.339.2Zm-5.161.2c-.04.079-.119.1-.218.1s-.178,0-.218-.04a1.17,1.17,0,0,1-.33-.356,7.3,7.3,0,0,1-1.364-2.056.741.741,0,0,1-.02-.2.659.659,0,0,1,.079-.277,1.124,1.124,0,0,1,.277-.218c.04,0,.119-.02.218-.02a.6.6,0,0,1,.356.3q.356.659.712,1.364a11.232,11.232,0,0,1,.613,1.107v.1a.244.244,0,0,1-.1.2Z" transform="translate(-155.42 -234.68)" fill="#27a2af" stroke="#27a2af" stroke-miterlimit="10" stroke-width="1"/>
    <path id="Path_193" data-name="Path 193" d="M222.581,258.669a.751.751,0,0,1-.659-.4.593.593,0,0,1-.33-.4,1.222,1.222,0,0,1-.04-.415.847.847,0,0,1,.949-.89.8.8,0,0,1,.4.158q.494.208.494,1.068C223.392,258.372,223.115,258.669,222.581,258.669Zm1.621-13.4a31.119,31.119,0,0,0-.811,5.138q-.208,2.551-.241,3.5c-.036.475-.237.692-.593.692s-.55-.2-.55-.593c0-.119.02-.692.079-1.74.056-1.3.115-2.274.178-2.946.115-1.223.293-2.37.494-3.4a.923.923,0,0,1-.063-.33,3.344,3.344,0,0,1,.063-.356,3.3,3.3,0,0,1,.277-.791,1.2,1.2,0,0,1,.771-.442c.33,0,.511.218.511.633a4.381,4.381,0,0,1-.115.633Z" transform="translate(-199.441 -240.62)" fill="#27a2af"/>
  </g>
</svg>
