<svg id="圖層_1" data-name="圖層 1" xmlns="http://www.w3.org/2000/svg" viewBox="0 0 722.88 107.52"><defs><style>.cls-1{fill:#27a2af;}</style></defs><title>do_you_ever_sleep</title><path class="cls-1" d="M343.48,396.34a24,24,0,0,1-1.39,3c-.82,1.49-1.88,3.22-3.22,5.24.1,1.44.14,3.45.19,6.05a122.26,122.26,0,0,1-1.49,19.2c-.38,2.49-.76,4.8-1.24,6.91-.2.86-.68,1.34-1.44,1.34s-1.3-.52-1.3-1.58A71,71,0,0,1,335,425.72a65.2,65.2,0,0,0,.91-11v-5.85c-.76,1.1-1.53,2.25-2.3,3.4-1,1.4-2,3-3.17,4.95a1.88,1.88,0,0,1-1.29.77,1.08,1.08,0,0,1-1.25-1.11,2.08,2.08,0,0,1,.43-1.25q.79-1.44,2.16-3.6c1.06-1.92,2.45-4.32,4.13-7.24,1.34-2.31,2.78-4.81,4.32-7.45l1.39-2.78a7.23,7.23,0,0,0,.62-1.39,6,6,0,0,1,1.88-.24,1.48,1.48,0,0,1,1.24,1.49A3.85,3.85,0,0,1,343.48,396.34Zm.67,36.53a.84.84,0,0,1-1-1,3.58,3.58,0,0,1,.29-.91c.33-1.44.67-3,1-4.56a36.23,36.23,0,0,0,.76-5.57,14.89,14.89,0,0,0-.09-1.49,10,10,0,0,1-.29-1.68c0-.82.48-1.25,1.54-1.34H347a1.62,1.62,0,0,1,1.3,1,11.86,11.86,0,0,1,.29,3,28.36,28.36,0,0,1-.92,6.72,39.79,39.79,0,0,1-1.53,4.85A2.33,2.33,0,0,1,344.15,432.87Zm3.94-.53a1.31,1.31,0,0,1,1.05-.57,1.57,1.57,0,0,1,1,.48,13.79,13.79,0,0,0,2.07,3.74c.67.77,1.24,1.2,1.82,1.2,1.2,0,1.82-4.66,1.82-14V421c0-2.88-.14-5-.28-6.53s-.24-3.07-.39-4.46a8.68,8.68,0,0,1-.14-1.39,1.69,1.69,0,0,1,.33-1,1.78,1.78,0,0,1,1.11-.62,1.89,1.89,0,0,1,2,1.39,1.41,1.41,0,0,0,.09.48,2,2,0,0,0,.34-.29,20.6,20.6,0,0,0,6.05-8.31,61.86,61.86,0,0,1-9.7,5.57,12,12,0,0,1-4.18,1.16c-2.35,0-3.5-1.3-3.5-3.94a17.41,17.41,0,0,1,1.34-5.38,23,23,0,0,1,2.16-4.85,1.5,1.5,0,0,1,1.35-1c.19,0,.38,0,.57,0a2.78,2.78,0,0,1,1,.63,2.65,2.65,0,0,1,.19,1.05,38.17,38.17,0,0,1-1.53,4.71,22.19,22.19,0,0,0-1.59,4.94c.05.29.29.39.67.39.77,0,2.5-.77,5.24-2.31,1.53-.77,3.26-1.82,5.28-3.07a11.37,11.37,0,0,1,3.55-1.34h.86a1.82,1.82,0,0,1,1.59,2,8,8,0,0,1-.53,2.65,16.28,16.28,0,0,1-2.21,4.36,20.33,20.33,0,0,1-5.42,5.09,8,8,0,0,1-1.15.63c.09.86.14,1.82.24,2.88,0,1.63.09,3.16.14,4.7v2.93c0,4.66-.1,7.87-.19,9.65a19,19,0,0,1-2.07,7.29,3.43,3.43,0,0,1-2.68,1.68c-1.54,0-3.12-1.1-4.76-3.31a11.61,11.61,0,0,1-1.63-2.83,1.64,1.64,0,0,1-.38-1A1.74,1.74,0,0,1,348.09,432.34Zm22.75-.62a1.18,1.18,0,0,1-.86.29,1.89,1.89,0,0,1-.87-.2,9.51,9.51,0,0,1-1.2-1.82,46.41,46.41,0,0,1-4.32-11,3,3,0,0,1-.09-.92,1.81,1.81,0,0,1,.33-.91,2.41,2.41,0,0,1,.82-.62,3.2,3.2,0,0,1,.77-.1,1.81,1.81,0,0,1,1.24.91c.77,2.31,1.59,4.71,2.45,7.16,1.06,2.88,1.73,4.89,2.07,6.05V431A1.39,1.39,0,0,1,370.84,431.72Z" transform="translate(-327.88 -391.15)"/><path class="cls-1" d="M408.86,413.38a70.41,70.41,0,0,1-7.44,2,99.53,99.53,0,0,1-10.09,1.68,2.15,2.15,0,0,1-.76.28,1.11,1.11,0,0,1-1-.62c-.1-.1-.2-.19-.2-.29a3.5,3.5,0,0,1-1.58-1.77,22.14,22.14,0,0,1-2.69-6.05,15.62,15.62,0,0,1-1-4.95c0-1.82.63-2.73,1.87-2.78,1.4,0,2.12.62,2.12,1.82.14,1.63.38,3.32.67,4.95a20.36,20.36,0,0,0,2.21,5.85.33.33,0,0,0,.09.24c1.63-.19,3-.43,4.27-.67.44,0,.92-.09,1.4-.19a1.08,1.08,0,0,1,.24-.62,15.12,15.12,0,0,0,1.05-4.71c0-.91,0-1.87,0-2.83a19.65,19.65,0,0,0-.19-2.26c-2.21.48-4.51,1.06-6.91,1.83-1.16,0-1.68-.58-1.68-1.73a1.75,1.75,0,0,1,.91-1.49,32.35,32.35,0,0,1,3.74-1.3l0-.09a20.84,20.84,0,0,1-2.83-5.09,1.27,1.27,0,0,1-.05-.43,1.79,1.79,0,0,1,.44-1.06,2.3,2.3,0,0,1,1-.77,2.9,2.9,0,0,1,.91-.14,2.15,2.15,0,0,1,1.54,1.1c.33,1.06.71,2.12,1.1,3.22.43,1.25.72,2.11.86,2.59H397c.86-.14,1.78-.29,2.69-.38a18,18,0,0,0,1.58-1.83,12.05,12.05,0,0,0,2.26-5,2.68,2.68,0,0,1,2-.72c1,.05,1.53.68,1.63,1.92-.1,1.44-1,3.12-2.64,5-.14.1-.24.2-.29.24.63,0,1.25,0,1.83,0a15.78,15.78,0,0,1,5.52.81,6,6,0,0,1,2.68,1.83,3.35,3.35,0,0,1,.68,2.06,9,9,0,0,1-1.16,3.75,19.72,19.72,0,0,1-4.08,5.8.54.54,0,0,1-.38.2A2.94,2.94,0,0,1,408.86,413.38Zm-13.06-2.3a1.13,1.13,0,0,1-.82.28,1.39,1.39,0,0,1-.86-.19,2.34,2.34,0,0,1-.82-.48,10.28,10.28,0,0,1-3-2.69s0-.09,0-.19a2.17,2.17,0,0,1,.38-1.1,2.06,2.06,0,0,1,1.06-.72,2.18,2.18,0,0,1,.82-.15A2.13,2.13,0,0,1,394,407c.39.57.77,1.1,1.15,1.58.48.72.77,1.2,1,1.44v.39A1.26,1.26,0,0,1,395.8,411.08Zm-.67,27.6-.05.09a2.21,2.21,0,0,1-1.87,1.68c-1.2-.09-1.83-1.1-1.88-3a54.51,54.51,0,0,0,1-10.32c0-1.78-.09-3.84-.24-6.15a2.4,2.4,0,0,1,1.73-2.16h.67a2,2,0,0,1,.92.53,27,27,0,0,1,7.2-1.68,5.7,5.7,0,0,1,3.31.91c1.15.77,1.87,2.55,2.11,5.28l.63,12.34.24,2.07c0,1.2-1,1.82-2.88,1.92a9.07,9.07,0,0,1-3.51-.87C400.17,439.06,397.72,438.87,395.13,438.68Zm.43-3.6a36.6,36.6,0,0,1,8.78,1.1,1.15,1.15,0,0,1,.34-.09c0-2.79-.05-5.19-.1-7.4-2.06.77-3.93,1.4-5.66,1.88a14.63,14.63,0,0,1-3.22.76C395.65,432.77,395.61,434,395.56,435.08Zm8.74-11.33c-.2-1.78-1-2.69-2.45-2.69a13,13,0,0,0-3.41.82c-.87.33-1.68.67-2.5,1.05-.09,1.88-.14,3.65-.19,5.28a3.07,3.07,0,0,0,.62-.19,82.54,82.54,0,0,1,8.07-2.21A16.41,16.41,0,0,1,404.3,423.75Zm-2.69-21.7a15.85,15.85,0,0,1,.24,2.79c-.05,1-.15,1.87-.24,2.64.48-.29.91-.63,1.39-1a5.35,5.35,0,0,0,1.82-2.45,2.31,2.31,0,0,1,1.68-.63c.82.05,1.25.58,1.35,1.59a5.54,5.54,0,0,1-1.83,2.88,10.06,10.06,0,0,1-3.07,1.92,4.17,4.17,0,0,1-1.77.48H401c-.24.77-.48,1.44-.67,2,1.54-.29,3-.53,4.32-.82.87-.24,1.59-.43,2.07-.53a.68.68,0,0,1,.28-.43,21.28,21.28,0,0,0,2.93-4.37,6.93,6.93,0,0,0,.87-2.3c0-1.54-1.54-2.31-4.56-2.31a38.44,38.44,0,0,0-4.66.34C401.56,402,401.61,402,401.61,402.05Z" transform="translate(-327.88 -391.15)"/><path class="cls-1" d="M428.92,425.81a1.92,1.92,0,0,1,1.34.63c.29.43.72,1.1,1.3,2,.91,1.54,1.92,3.17,3,5.09a2.42,2.42,0,0,1,.39,1.25,1.39,1.39,0,0,1-1,1.15,2.25,2.25,0,0,1-1.25-.38c-.86-.67-2.35-2.74-4.42-6.1a7.27,7.27,0,0,1-.67-1.34,1.74,1.74,0,0,1-.29-.91C427.38,426.48,427.91,426,428.92,425.81Zm4-18.53c2.69-2.06,4.8-3.12,6.43-3.12.39.1.63.48.72,1.06,0,2.26-2.11,6.1-6.29,11.52,1.73-.86,3.75-1.92,6.15-3.26a4.85,4.85,0,0,1,1.73-.72,1.35,1.35,0,0,1,1.53,1.39,7.64,7.64,0,0,1-1.49,4.17,8.92,8.92,0,0,1-2.16,2.55,1.61,1.61,0,0,1-1.1.38c-.43,0-.67-.24-.67-.72a1.48,1.48,0,0,1,.33-.86c.72-1.49,1.3-2.79,1.68-3.84-4.22,3.65-7.29,5.57-9.26,5.76-.86,0-1.3-.48-1.3-1.3a4,4,0,0,1,.77-2q2.75-4.89,6.48-10.94c-2.49,2.5-4.94,3.94-7.25,4.32-.77-.1-1.2-.67-1.2-1.73,3.31-5.37,5.28-9.94,5.86-13.73A2.13,2.13,0,0,1,436,395a1.44,1.44,0,0,1,1.2,1.4C436.89,399,435.45,402.67,433,407.28Zm.91,16.32a1.93,1.93,0,0,1,1.39.58c.2.34.48.86,1,1.63.68,1.3,1.44,2.69,2.26,4.18a2.09,2.09,0,0,1,.29,1.06,1.14,1.14,0,0,1-.82,1,2,2,0,0,1-1.1-.33c-.72-.48-1.92-2.11-3.6-4.8a3.52,3.52,0,0,1-.53-1,1.51,1.51,0,0,1-.24-.87C432.52,424.32,433,423.84,433.86,423.6Zm10,5.14c-.14.29-.28.43-.43.48a1.26,1.26,0,0,1-.77.19,4.63,4.63,0,0,1-2.54-1.58,9.57,9.57,0,0,1-2.3-2.79,1.62,1.62,0,0,1-.34-1.05,1.19,1.19,0,0,1,.38-.82,1.58,1.58,0,0,1,.77-.53c.1,0,.29,0,.53,0a1.15,1.15,0,0,1,.72.28,6.73,6.73,0,0,0,.86,1,10.19,10.19,0,0,0,3,3.46.76.76,0,0,1,.43.77A1.42,1.42,0,0,1,443.89,428.74Zm14.55,1.73a11,11,0,0,1-.77,2.06c.87-.09,1.73-.19,2.5-.19,2.69-.19,5.28-.33,7.87-.53.48-.09,1-.14,1.58-.19.82,0,1.35.29,1.54.91a3.19,3.19,0,0,1-1.68,2.93c-.38.05-2.16.15-5.33.24-1.82,0-3.89.05-6.09.19a38.38,38.38,0,0,0-6.73,1.16q-1.44.29-5.47,1.44a5.45,5.45,0,0,1-1.25.19,1.8,1.8,0,0,1-.52-3.51,43.64,43.64,0,0,1,9.36-2.2,4.93,4.93,0,0,1,.86-.1,1.26,1.26,0,0,1,.19-.48c.29-.82.58-1.63.82-2.5a9.8,9.8,0,0,0,.24-2,12.79,12.79,0,0,0-.53-4,1.21,1.21,0,0,1-.14-.43c-.67.05-1.3.09-1.92.09h-3.41c-1.73,0-2.59-.67-2.59-2s.76-1.92,2.3-2.16c.05.38.43.62,1.2.62h2.93a25.69,25.69,0,0,0,10.9-2.93,4.35,4.35,0,0,1,.86-.24,1.59,1.59,0,0,1,1.06,1.73,1.79,1.79,0,0,1-1,1.49,16.84,16.84,0,0,1-5.67,2.69,8.8,8.8,0,0,1-1,.19,18.47,18.47,0,0,1,.43,4.18A13.35,13.35,0,0,1,458.44,430.47Zm-9.89-15.7a28.87,28.87,0,0,0-4.27-3.21,1.25,1.25,0,0,1-.63-1.11,4.12,4.12,0,0,1,.72-2.06l1.3-2.11a47.23,47.23,0,0,0,2.16-5,1.29,1.29,0,0,1,1.2-.72,4.87,4.87,0,0,1,.72.1,1.85,1.85,0,0,1,.67.53,1,1,0,0,1,.29.72c0,1.49-1.06,4.18-3.07,8,.67.48,1.44,1,2.3,1.58a15.76,15.76,0,0,1,2.59,2.35,3.63,3.63,0,0,1,.39,1.44,1.79,1.79,0,0,1-.29,1,1.42,1.42,0,0,1-1.15.72,1.46,1.46,0,0,1-1.25-.67C449.8,415.88,449.22,415.35,448.55,414.77Zm8.88-17.42a41.63,41.63,0,0,1-6.1,1.58,12.68,12.68,0,0,1-2.59.29H448a1.45,1.45,0,0,1-1.39-1.63v-.82a2.74,2.74,0,0,1,1.59-1.63,4.76,4.76,0,0,0,1.2.09,20.36,20.36,0,0,0,5.32-.76,45.77,45.77,0,0,0,6.68-2l.91-.34a3.57,3.57,0,0,1,1.25.29c.53.39.81.67.81,1a2.47,2.47,0,0,1-.33,1,4.25,4.25,0,0,1-1.25,1A48.65,48.65,0,0,1,457.43,397.35Zm0,2.54a2.65,2.65,0,0,1,.77.72c0,.14.05.34.05.58a12.48,12.48,0,0,1-1.73,5,.93.93,0,0,0-.24.58,2.44,2.44,0,0,0,.48,1.2,11.89,11.89,0,0,0,3.07,2.83,1,1,0,0,1,.34.77,2.26,2.26,0,0,1-.39.86,1.58,1.58,0,0,1-.72.53,1.49,1.49,0,0,1-.67.09,2.65,2.65,0,0,1-1.05-.28,7.19,7.19,0,0,1-2.65-2.21A9.64,9.64,0,0,1,453,407a5,5,0,0,1-.15-1.24,1.88,1.88,0,0,1,.29-.82,11.55,11.55,0,0,1,.72-1.15,20.07,20.07,0,0,1,1-2.07,7.16,7.16,0,0,1,.77-1.53,1.37,1.37,0,0,1,1.1-.44A3.57,3.57,0,0,1,457.43,399.89Zm9.89,10.9a3.13,3.13,0,0,1-.91.09,3.3,3.3,0,0,1-1.15-.28,9.5,9.5,0,0,1-3.32-2.21,3.27,3.27,0,0,1-.76-2.26,2.59,2.59,0,0,1,.38-1.34l1.44-2.16c.34-.53.72-1.2,1.2-2a1.27,1.27,0,0,1,1.3-.67,4.34,4.34,0,0,1,.76.09,1.62,1.62,0,0,1,.87,1.2,9.52,9.52,0,0,1-1.54,3.89,5.4,5.4,0,0,1-.57,1,9.62,9.62,0,0,0,2.92,2.31,1.14,1.14,0,0,1,.39.91A1.55,1.55,0,0,1,467.32,410.79Z" transform="translate(-327.88 -391.15)"/><path class="cls-1" d="M511.82,395.09c-1.68,1.58-6.05,3.41-13.16,5.52-1.05.34-2.06.62-3,.87-1.15,2.68-2.74,5.85-4.71,9.55-1.53,2.83-3,5.42-4.36,7.77-.92,1.64-1.83,3.17-2.79,4.71a21.74,21.74,0,0,1-2.49,3.26,2.28,2.28,0,0,1-1.44.58.91.91,0,0,1-.63-.91,3.58,3.58,0,0,1,.29-1.2,8.36,8.36,0,0,1,1.25-2.74,48.3,48.3,0,0,1,3.21-6q2.88-5,5.76-10.66c.53-1,1-2.06,1.49-3.12-1.29.39-2.49.72-3.65,1a12.73,12.73,0,0,1-2.25.39,10,10,0,0,1-1.92.19c-.87-.05-1.39-.72-1.59-2,0-.53.44-1.06,1.4-1.54.57-.19,1.24-.38,2.11-.67,2.64-.53,5.23-1.15,7.73-1.82.76-2.11,1.34-4,1.82-5.81a1.61,1.61,0,0,1,1.44-1.06h.58c.76.2,1.15.82,1.15,1.83a15.48,15.48,0,0,1-.86,4,2.94,2.94,0,0,0,.62-.19,134,134,0,0,0,13.63-4.22,1.08,1.08,0,0,1,1,.43,1.36,1.36,0,0,1,.1.48A2.11,2.11,0,0,1,511.82,395.09Zm-15,32.16c.67-.28,1.25-.57,1.77-.81a31.94,31.94,0,0,0,4.13-2.31,13.43,13.43,0,0,1,1.3-.86,1.82,1.82,0,0,1,.67-.15,1.3,1.3,0,0,1,1,.48,3.61,3.61,0,0,1,.1.68,2.91,2.91,0,0,1-.53,1.34,20.86,20.86,0,0,1-3.41,2.55,20.54,20.54,0,0,1-4.56,2.3,1.49,1.49,0,0,1-.67.19c-.1,0-.2,0-.2-.05-.19,2.12-.33,3.89-.38,5.28a6.8,6.8,0,0,1-.43,2.12,2,2,0,0,1-1.44.76,1.47,1.47,0,0,1-1.3-1.2,10.39,10.39,0,0,1,0-1.44c0-1.24.44-5.42,1.3-12.62.67-6.34,1.06-11.14,1.1-14.35v-2.69a1.67,1.67,0,0,1,1.2-1.73h1.11a1.34,1.34,0,0,1,.81.34,23.8,23.8,0,0,1,4.23-1.35,19.51,19.51,0,0,1,3.31-.57c2.79,0,4.27,1.19,4.56,3.6-.09,3.07-.14,6.57-.14,10.6s.24,8.69.72,14.17c.19,2.2.48,4.6.77,7.15,0,1.49-.58,2.25-1.73,2.3a7.56,7.56,0,0,1-2.93-.77,8.67,8.67,0,0,1-4-3.4,2.46,2.46,0,0,1-.34-1.06,1.12,1.12,0,0,1,1-1.15c.77,0,2.26.67,4.37,2a163.44,163.44,0,0,1-1.15-19.2v-1.05c-.2.09-.39.24-.58.33-2,1-3.74,1.73-5.38,2.4a13.11,13.11,0,0,1-3.5,1C497.27,422.36,497,424.76,496.84,427.25Zm10.37-19.87a1.2,1.2,0,0,0-1.3-1.06,19.44,19.44,0,0,0-7.06,2c-.09.58-.14,1.2-.19,1.78l-.48,4.46c-.09.87-.19,1.68-.28,2.5a6.15,6.15,0,0,1,.76-.29c4.8-2.16,7.59-3.26,8.31-3.26h.09C507.06,411.46,507.11,409.44,507.21,407.38Z" transform="translate(-327.88 -391.15)"/><path class="cls-1" d="M537,432.68a77.08,77.08,0,0,0,12.19,3.26,51.8,51.8,0,0,0,5.47.67c1.63.15,3.07.24,4.37.24,1.06,0,2.26,0,3.5-.14,1-.1,2.12-.24,3.32-.38a13.61,13.61,0,0,1,2-.2c.82,0,1.25.2,1.35.68a2,2,0,0,1-.34.91,2.47,2.47,0,0,1-.91.77A40.6,40.6,0,0,1,556.22,440c-6.92,0-14.84-1.68-23.77-4.94a32.2,32.2,0,0,1-4.22-1.92c-.82-.48-1.49-.91-2.06-1.3a1.8,1.8,0,0,1-.29-1.1,2.1,2.1,0,0,1,.72-1.54,1.47,1.47,0,0,1,1.1-.43,2.34,2.34,0,0,1,1,.29c.58.29,1.34.62,2.21,1a8.38,8.38,0,0,0,1.39-4.56,3.85,3.85,0,0,0-.91-2.07,3.07,3.07,0,0,1-.87-1.92,5.64,5.64,0,0,1,1.68-3.36,2.69,2.69,0,0,0,.63-1.15,5.64,5.64,0,0,0-.82-1.92,17.42,17.42,0,0,1-1.73-1.87c.05-1,.68-1.49,1.88-1.49a2.45,2.45,0,0,1,1.29.67,4.7,4.7,0,0,1,2.55,4c0,1.2-.72,2.88-2.12,5a8,8,0,0,1-.24,9.89C534.76,431.77,535.86,432.25,537,432.68Zm.33-24.44a3,3,0,0,1-2-1,16.15,16.15,0,0,0-5.38-2.3,2.25,2.25,0,0,1-1-.34,3.59,3.59,0,0,1-.14-1.1,3.51,3.51,0,0,1,0-.67c.19-.72.86-1.11,1.92-1.16a9.45,9.45,0,0,1,3.69.87,13,13,0,0,1,3.75,2.54,3.59,3.59,0,0,1,.33,1.4C538.41,407.67,538,408.24,537.3,408.24Zm6.63,6.68c0,.48-.15,2.06-.29,4.75-.1,1.44-.1,2.73-.1,3.84s.05,2.26.19,3.7a12.58,12.58,0,0,0,.58,2.64v.43q-.07,1.29-1.29,1.29c-.49,0-.92-.33-1.25-1.05-1.16-2-1.78-5.23-1.78-9.56,0-1.15.1-3,.38-5.71,0-.67.1-1.34.1-2.06a2.16,2.16,0,0,1,.53-1.35,2.7,2.7,0,0,1,1.1-.57h.39a1.82,1.82,0,0,1,1.53,1.58C544,413.72,543.93,414.44,543.93,414.92Zm9.45-5.67a12.73,12.73,0,0,1-.14-1.92c0-.67-.1-1.39-.1-2.06,0-.39-.09-.77-.14-1.06a4,4,0,0,1-.14-.53,2.73,2.73,0,0,1-.68.1h-.33a1,1,0,0,1-.63-.48,1.32,1.32,0,0,1-.24-.77,1.35,1.35,0,0,1,.68-1.1,49.17,49.17,0,0,1,5.32-1.35,8.14,8.14,0,0,1,1.35-.14,1.31,1.31,0,0,1,.81.48,1.94,1.94,0,0,1,.34.81c0,.39-.29.68-.82.92-.81.24-1.87.52-3.12.86a.22.22,0,0,0,.05.15,7.85,7.85,0,0,1,.19,1.24c0,.58.05,1.2.05,1.78,0,1.15-.05,2.06-.05,2.69,2.4-.34,4.9-.63,7.45-.82,1,0,2-.05,2.87-.05,1.45.24,2.21,1.59,2.21,4,0,.77-.14,2.25-.33,4.41-.1,1.06-.15,2.36-.15,3.8,0,1.77,0,3.74,0,5.95,0,2.83.1,4.75.19,5.71s-.62,1.35-1.82,1.39a6,6,0,0,1-5-2.73,2.28,2.28,0,0,1-.24-1.06c.1-.24.24-.38.44-.38.77.14,1.77.33,3.07.62,0-.67,0-1.53.09-2.59,0-1.49.05-3.6.1-6.29,0-2.88.1-5.62.29-8.3,0-1-.19-1.44-.48-1.49a70.24,70.24,0,0,0-18.05,3.07c-.77-.1-1.2-.62-1.25-1.68,0-.62.38-1.15,1.25-1.54.1,0,.14,0,.24-.09A33,33,0,0,0,546,405c-.72-3.36-1.34-6.15-1.82-8.36a2.26,2.26,0,0,1,.57-1.15,1.3,1.3,0,0,1,1.11-.57,4.87,4.87,0,0,1,1,.09,2.69,2.69,0,0,1,1,.87,24.47,24.47,0,0,1,4-1.54,26.63,26.63,0,0,1,6.19-.77,10.13,10.13,0,0,1,4.13.72,5.3,5.3,0,0,1,2,1.73,3.47,3.47,0,0,1,.52,1.87,8.73,8.73,0,0,1-.86,3.31,17.67,17.67,0,0,1-3,5,2.66,2.66,0,0,1-1.34.43c-.77,0-1.15-.39-1.15-1.2a1.31,1.31,0,0,1,.43-.91,25.33,25.33,0,0,0,1.73-3.85,6.86,6.86,0,0,0,.57-2.06q0-2.16-2.88-2.16a24.32,24.32,0,0,0-9.69,2.4c.09,1.06.24,2.26.43,3.65.48,3.7.77,6.14.77,7.39C550.84,409.78,552,409.54,553.38,409.25Zm7,14a18.58,18.58,0,0,1-3.65,2.25,21.42,21.42,0,0,1-4.36,1.78,1.44,1.44,0,0,1-1.44,1.11,1.21,1.21,0,0,1-1.35-1.3,31.09,31.09,0,0,0-.62-3.7c-.58-2.11-1.06-3.89-1.44-5.28a2.09,2.09,0,0,1,.57-1.1,1.25,1.25,0,0,1,1-.58,4.71,4.71,0,0,1,1,.1c.15.09.24.19.34.24.57-.15,1.15-.29,1.73-.39a22.66,22.66,0,0,1,3.64-.28,7,7,0,0,1,3.17.72,3.42,3.42,0,0,1,1.63,1.58,5.69,5.69,0,0,1,.34,1.87,4.73,4.73,0,0,1-.29,1.15q.07.15.15.15a2.82,2.82,0,0,1,.09.57A2.07,2.07,0,0,1,560.39,423.27Zm-5.18,0a7.21,7.21,0,0,0,2.06-2.26,3.68,3.68,0,0,0,.34-1.05c0-.63-.48-1-1.35-1a20.9,20.9,0,0,0-4.65.62c.09.62.19,1.3.33,2,.2,1.15.34,2.11.44,2.78.38-.14.76-.29,1-.43.58-.24,1.15-.48,1.73-.67Z" transform="translate(-327.88 -391.15)"/><path class="cls-1" d="M343.33,478.47c-.09,1.44-.57,2.11-1.48,2.11a7.43,7.43,0,0,1-5.48-2.16,1.35,1.35,0,0,1-.48-.67c0-1,.39-1.44,1.2-1.54,1.06.1,2.26.19,3.51.34,0-1.44-.05-3-.05-4.66,0-2.3-.05-4.61-.14-6.82-.24.39-.44.77-.63,1.16a24.57,24.57,0,0,1-2.83,4.51,28.42,28.42,0,0,1-3.07,3.5,1.28,1.28,0,0,1-.72.39,2.57,2.57,0,0,1-.72.14c-.48,0-.77-.29-.82-.86a1.62,1.62,0,0,1,.58-1.15,38.86,38.86,0,0,0,3.69-4.9,27.52,27.52,0,0,0,2.5-5c.43-1.11.82-2.21,1.15-3.31-1,.33-1.92.62-2.73.86a4.27,4.27,0,0,1-1.06.34,17,17,0,0,1-1.87.14c-.91,0-1.44-.67-1.59-2,0-.57.44-1.1,1.4-1.58.52-.19,1.2-.39,2.06-.67a34.81,34.81,0,0,0,3.79-.92,21.51,21.51,0,0,0-.57-2.44,3.15,3.15,0,0,1-.24-1.2,1.69,1.69,0,0,1,1.92-1.59,2.2,2.2,0,0,1,1.77,1.59c.19.57.39,1.2.53,1.77a4.17,4.17,0,0,0,.1.87c2.11-.63,3.79-1.2,5-1.68a1.06,1.06,0,0,1,1,.48.92.92,0,0,1,.09.43,2,2,0,0,1-.62,1.34c-.77.87-2.5,1.83-5.23,2.88,0,.91.09,1.87.19,2.88a46.54,46.54,0,0,1,5,8,8.19,8.19,0,0,1,1,2.93c0,.77-.34,1.15-1,1.15a1.48,1.48,0,0,1-1.06-.62c-.48-.68-1.15-1.73-2-3.12l-2-3.17Q343.48,475.44,343.33,478.47Zm-3.93,17a1.78,1.78,0,0,1-1,.39,1.4,1.4,0,0,1-1.11-.63,9.24,9.24,0,0,1-.62-.86,8.88,8.88,0,0,1-.67-3c-.1-.86-.15-1.58-.24-2.16-.19-1.15-.34-2.25-.48-3.31a12.42,12.42,0,0,1-.39-2.4c0-.86.53-1.35,1.59-1.44h.81c.48,0,.87.33,1.25,1,.1.48.15,1.24.24,2.3.19,1.82.39,3.41.58,4.75s.33,2.55.53,3.6C339.93,494.65,339.73,495.22,339.4,495.46ZM362.58,485a.66.66,0,0,1-.24.09,12.5,12.5,0,0,1,2.84,2.07,3.82,3.82,0,0,1,.91,2.16,5.25,5.25,0,0,1-2.45,4.46,11.71,11.71,0,0,1-5.52,1.44,12.67,12.67,0,0,1-6.67-2.16,14.87,14.87,0,0,1-4.9-5.66,2.27,2.27,0,0,1-.38-1.15,1.29,1.29,0,0,1,.33-1,1.9,1.9,0,0,1,1.44-.87,1.86,1.86,0,0,1,1.49.72c2.4,3.89,5.33,6,8.79,6.29,3,0,4.51-.91,4.65-2.73a2.76,2.76,0,0,0-1.2-2c-.48-.29-.91-.53-1.34-.77a1.17,1.17,0,0,1-.53.14,5.63,5.63,0,0,1-1.92.48c-.77,0-1.3-.53-1.54-1.58l0-.72a1.44,1.44,0,0,1,.86-1.35,15.89,15.89,0,0,0,2.45-.76,30.64,30.64,0,0,0,5.61-2.55l2.31-1.39a2.6,2.6,0,0,1,1-.24,1.17,1.17,0,0,1,1.1,1.2,2.06,2.06,0,0,1-.28,1.15C368.49,481.54,366.23,483.08,362.58,485ZM352.79,474c-.09-1-.09-2.25-.09-4,0-2.16,0-4.13.09-5.91s.1-3.64.24-5.76c0-1,.05-2.06.05-3.26-.05-.34-.1-.67-.19-1.06a3.45,3.45,0,0,1-.05-.76c0-.29.19-.53.53-.82a2.16,2.16,0,0,1,1.39-.62,1.73,1.73,0,0,1,1.44.81,30.9,30.9,0,0,1,4.56-.43h.77a2.75,2.75,0,0,1,2,1.34,16.25,16.25,0,0,1,.81,3.36c.1,1.16.19,2.55.29,4.28.19,3.36.34,7.2.53,11.47a2.67,2.67,0,0,1-.63,1.68,2.17,2.17,0,0,1-1.68.82,1.09,1.09,0,0,1-1.05-.48,28.62,28.62,0,0,1-4.51,2.16,15.27,15.27,0,0,1-2.84.62,2,2,0,0,1-1.92-1.87,1.1,1.1,0,0,1,.39-1A1.73,1.73,0,0,1,352.79,474Zm3-3.88c0,1.24.05,2.54.09,3.79l.58-.15a20.8,20.8,0,0,0,5.09-2.11v-.09c0-1.25,0-2.55,0-3.89a4.42,4.42,0,0,1-1.06.48,14.61,14.61,0,0,1-3.84,1.34,1.8,1.8,0,0,1-.81.24Zm.09-5.43c0,.34,0,1.06,0,2.21.67-.14,1.15-.24,1.48-.34,1.06-.24,2.31-.57,3.8-1a1.36,1.36,0,0,0,.38-.09c0-1.64-.05-3.07-.05-4.23-1.15.48-2.49,1.06-4,1.68l-1.44.58C355.91,464,355.86,464.4,355.86,464.69Zm5.09-8.4c-.19-.67-.53-1-1-1a20.61,20.61,0,0,0-3.21.29c0,.91-.2,2.21-.44,3.94a7.12,7.12,0,0,0-.14,1.29c1.1-.48,2.64-1,4.56-1.63l.58-.14A14.08,14.08,0,0,0,361,456.29Z" transform="translate(-327.88 -391.15)"/><path class="cls-1" d="M382.93,456.15a9.36,9.36,0,0,0,1.54-.87,6,6,0,0,1,1.58-.33c3.17,0,4.76,1.24,4.76,3.64,0,1.06,0,3.8.09,8.21,0,4.71.05,7.92.05,9.6,0,4.61,0,9.17.05,13.59,0,1.49-.43,2.26-1.3,2.26a1.67,1.67,0,0,1-1.39-.63,2.42,2.42,0,0,1-.67-2v-.43a37.2,37.2,0,0,1-4.42,2.93,14,14,0,0,1-3,1,2.05,2.05,0,0,1-1.59-.72,2.27,2.27,0,0,1-.77-1.58c0-.77.29-1.25.92-1.4a1.7,1.7,0,0,1-.05-.48c-.1-3.12-.1-7.49-.1-13.15,0-2.59,0-4.94.1-7.06s.09-4.46.24-7c0-1.15.05-2.49.05-3.93-.05-.29-.1-.63-.2-1a6.33,6.33,0,0,1,0-.87,1.17,1.17,0,0,1,.57-.86,2.23,2.23,0,0,1,1.49-.67,1.83,1.83,0,0,1,1.58.91l.29,1A.59.59,0,0,1,382.93,456.15Zm4.66,14.45c0-.87,0-1.68,0-2.45-1.15.72-2.49,1.58-4.08,2.54a11.15,11.15,0,0,1-1.49.82c0,1.15,0,2.59,0,4.37v1.63a57.3,57.3,0,0,1,5-2.88,3.27,3.27,0,0,1,.62-.19Zm.05,6.86c-1.2.77-2.64,1.73-4.37,2.88a14.7,14.7,0,0,1-1.3.77c0,2.49,0,4.89,0,7.29.05,0,.1,0,.15,0a17.9,17.9,0,0,0,5.47-3.46Zm-.15-17.19a3,3,0,0,0-.28-1.53,2.51,2.51,0,0,0-1.73-.43,2.94,2.94,0,0,0-1.06.52,4.85,4.85,0,0,0-1.29,1.16c-.2.19-.29.33-.39.38-.09.86-.14,1.78-.24,2.74-.19,2-.33,3.6-.43,4.85a41.33,41.33,0,0,1,5-2.6l.48-.14C387.49,462.53,387.49,460.85,387.49,460.27Zm6.58,2.07a1.54,1.54,0,0,1,1.49-1.68,67,67,0,0,0,9.89-1.59,6.78,6.78,0,0,1,.05-1.05,1.59,1.59,0,0,1,1.77-1.83c1.06.05,1.59.72,1.59,2v.14c2.25-.48,4.8-1.05,7.58-1.72,1,0,1.54.28,1.68.76,0,.24-.05.48-.05.77a1.9,1.9,0,0,1-.91,1,35.51,35.51,0,0,1-6.86,2.5,11.85,11.85,0,0,1-1.68.43c-.05.91-.05,1.68-.05,2.3l-.1,5.72c1.63-.44,3.22-.87,4.71-1.3,0-.14,0-.34,0-.53,0-.57-.09-1.29-.19-2.26a3.59,3.59,0,0,1,0-.76,1.22,1.22,0,0,1,.72-1.2,4.47,4.47,0,0,1,1.44-.34c1.11,0,1.68,1.06,1.68,3.07,0,.39,0,.68,0,1a10.26,10.26,0,0,1,2.4-.53,2.31,2.31,0,0,1,1.15.29,1.48,1.48,0,0,1,.77.92,2.44,2.44,0,0,1-.82,1.68,36.4,36.4,0,0,1-4.22,1.63,24.67,24.67,0,0,1-1.88,4,14.35,14.35,0,0,1-1.24,1.83,1.14,1.14,0,0,1-.68.28c-.19,0-.28,0-.38-.09a.65.65,0,0,1-.34-.67,17.13,17.13,0,0,1,.92-4.37c-1.4.38-2.74.77-4.08,1.1-.1,2.83-.2,5.19-.29,7.11v.28a2.44,2.44,0,0,0,.53-.09c2-.24,4.46-.67,7.39-1.3,1.15-.19,2-.38,2.4-.48a2.24,2.24,0,0,1,.86.15,1.16,1.16,0,0,1,.63,1,1.59,1.59,0,0,1-.82,1.54c-1.2.77-3.6,1.54-7.15,2.26-1.35.24-2.74.48-4.13.67a32.59,32.59,0,0,1-1.2,6.34,2.37,2.37,0,0,1,.82-.15c1.77-.29,3.93-.62,6.52-1.05,1-.2,1.73-.34,2.16-.39a2.26,2.26,0,0,1,.87.15,1,1,0,0,1,.57,1,1.67,1.67,0,0,1-.72,1.54,24.4,24.4,0,0,1-6.33,1.73c-2.5.38-5.14.77-8,1.25-1.49.28-2.93.52-4.32.81a14.61,14.61,0,0,1-1.63.24,1.7,1.7,0,0,1-1.06-.57,2.93,2.93,0,0,1-.38-1.11,3.5,3.5,0,0,1,0-.67,1.07,1.07,0,0,1,.77-1,18.62,18.62,0,0,1,4.56-1c.87-.09,1.88-.19,3.08-.33v-.1c.38-1.92.72-3.89,1-6.1-.57.1-1.1.2-1.58.25-1.73.38-3.41.71-4.94,1.05a13.91,13.91,0,0,1-1.83.29,1.32,1.32,0,0,1-1.1-.58,2.57,2.57,0,0,1-.39-1.1,3.26,3.26,0,0,1,.05-.67,1.28,1.28,0,0,1,.77-1.06,22.33,22.33,0,0,1,5.09-1.25,36.82,36.82,0,0,0,4.22-.67l.15-7.2c-1.44.38-2.84.67-4.23,1a28.82,28.82,0,0,1,.29,3.22c0,1.34-.53,2.06-1.49,2.06a1.25,1.25,0,0,1-1.39-1.34,28,28,0,0,0-.53-3.22,7.43,7.43,0,0,1-.91.19,21.61,21.61,0,0,1-2.69.43h-.38a2.16,2.16,0,0,1-1.4-2.11,1.45,1.45,0,0,1,.82-1.15,15.6,15.6,0,0,1,2.35-.53c.48-.09,1-.19,1.39-.29-.33-1.15-.62-2.2-.86-3.07a2.48,2.48,0,0,1,.53-1.15,1.36,1.36,0,0,1,1.15-.58,4.93,4.93,0,0,1,1,.1,2,2,0,0,1,1.15,1.1c.15.58.34,1.54.53,2.84,1.63-.34,3.22-.68,4.75-1.06l.1-4.27c0-1.25,0-2.55.05-3.84a66.24,66.24,0,0,1-9.65,1.48C394.55,464.35,394.07,463.68,394.07,462.34Zm8.35-8.07c-.91,0-1.34-.72-1.34-2,.19-1,.67-1.54,1.44-1.64a39.49,39.49,0,0,1,4.27.48,12.61,12.61,0,0,1,3.75,1.44,1.92,1.92,0,0,1,.67,1.59,1.35,1.35,0,0,1-1,1.25A44.68,44.68,0,0,0,402.42,454.27Z" transform="translate(-327.88 -391.15)"/><path class="cls-1" d="M432.28,475.11a14.09,14.09,0,0,1-.19,1.82,7.85,7.85,0,0,1-1.16,2.69,1.75,1.75,0,0,1-1.44.82c-.67,0-1.1-.48-1.2-1.49a2,2,0,0,1,.19-.63,7.13,7.13,0,0,0,.53-2.4,16.58,16.58,0,0,0-.43-4.12,3,3,0,0,1-.1-.92,1.58,1.58,0,0,1,.58-1.05,2.37,2.37,0,0,1,.87-.43h.57a2.09,2.09,0,0,1,.91.38,1.9,1.9,0,0,1,1.11,1.63C432.47,472.71,432.37,474,432.28,475.11Zm1.29-22.28a1.43,1.43,0,0,1,1.35-1.58c.81,0,3.31-.72,7.53-2.26.82,0,1.3.24,1.4.63s-.05.48-.05.67a2.14,2.14,0,0,1-.72.86,15.29,15.29,0,0,1-2.64,1.73c-.48.24-1,.43-1.39.63a1.57,1.57,0,0,1,.09.43c0,.53-.05,1.1-.05,1.77l0,1.2s.09,0,.14,0c.86-.24,1.63-.48,2.4-.72l.77-.29a.78.78,0,0,1,.48-.15,1.06,1.06,0,0,1,.72.48c0,.15.05.29.05.44a2.29,2.29,0,0,1-.39.91,7.88,7.88,0,0,1-1.92,1,14.23,14.23,0,0,1-2.45.87c0,1-.09,1.87-.09,2.83,1.15-.29,2.16-.62,3-.91a3,3,0,0,1,.77-.24,1.72,1.72,0,0,1,.82.24,1.08,1.08,0,0,1,.48.67,2,2,0,0,1-.53,1.3,6.25,6.25,0,0,1-1.35.57,25.9,25.9,0,0,1-3.21,1.11h-.1c-.05,1.39-.09,2.45-.09,3.16,0,.25-.05.39-.05.49,3.41-.68,7-1.35,10.65-1.92q6.63-1.15,10.66-1.59a1,1,0,0,1-.09-.48,4.62,4.62,0,0,1,.09-1c.05-.53.1-1.24.19-2.16a4,4,0,0,1-.81.43,11.49,11.49,0,0,1-2.45.92,1.87,1.87,0,0,1-.53.14.88.88,0,0,1-.77-.53,2.06,2.06,0,0,1-.28-1.15c0-.38.24-.67.72-.91s.81-.24,1.2-.34c.76-.24,1.53-.48,2.2-.72A5.83,5.83,0,0,1,460,459a.26.26,0,0,0,.19-.1c.05-1.15.09-2.21.09-3.17-1.05.58-2.35,1.2-3.79,1.87a1.41,1.41,0,0,1-1.44-1.24v-.53a1.1,1.1,0,0,1,.62-.87,16.14,16.14,0,0,1,2.55-1.05c1.06-.24,1.73-.39,2.06-.43,0-.58-.09-1.11-.09-1.59s-.29-.62-.67-.62a8.65,8.65,0,0,0-2.4.43,5.46,5.46,0,0,1-1.3.24c-.67-.05-1-.48-1.06-1.25v-.48a1.56,1.56,0,0,1,.72-1.15,15.8,15.8,0,0,1,4.37-.53c2.11.1,3.22,1,3.27,2.83,0,.48-.15,4.76-.34,12.87,0,.29-.05.48-.05.62.63,0,1.2,0,1.73,0h1a5.07,5.07,0,0,1,2.06.43,2.09,2.09,0,0,1,1,1.73,5.68,5.68,0,0,1-1.63,3.07,17.9,17.9,0,0,1-2.69,2.78,3,3,0,0,1-1.73.91h-.57c-.87,0-1.25-.33-1.25-1a1.3,1.3,0,0,1,.29-.76c1.68-1.83,2.92-3.27,3.79-4.37q-5.26,0-28,4.61a10.55,10.55,0,0,1-2.16.24,1.15,1.15,0,0,1-1-.58,3.34,3.34,0,0,1-.29-1.25c0-.38.29-.77.91-1.1.38-.1.82-.15,1.25-.24v-.91c0-.58,0-2.6.19-6.15.15-3.12.24-5.47.24-7.06v-.81a4.07,4.07,0,0,1-.81.19C434,454.61,433.57,454,433.57,452.83Zm14.93,19.64a41.86,41.86,0,0,1,6.19-.67,2.81,2.81,0,0,1,2,1c1,1.44,1.49,4,1.49,7.63,0,1.73-.05,3.41-.14,5.13a18.29,18.29,0,0,1-.44,3.61,1.8,1.8,0,0,1-1.82,1.34,1.82,1.82,0,0,1-1.2-.29,2.42,2.42,0,0,0-.72.29c0,.09.05.19.05.29a6.77,6.77,0,0,0-.05,1v.86c.1,1.92,2.06,2.88,6,3,3.41-.1,5.14-1,5.18-2.84,0-1,0-2.4,0-4.08,0-.62.43-1,1.2-1a2.62,2.62,0,0,1,1,.63,15.55,15.55,0,0,1,.91,5.71c-.39,2.88-3.51,4.37-9.27,4.46-3.55,0-6-.76-7.34-2.25a6.06,6.06,0,0,1-1.06-4,5.8,5.8,0,0,1,.05-1c-1.34.28-2.78.57-4.42.86H446a2.69,2.69,0,0,1-.48.77,33.26,33.26,0,0,1-3.75,4.41,3,3,0,0,1-1.34,1.16,2.13,2.13,0,0,1-.77.19c-.77-.1-1.1-.43-1.1-1.11a2.1,2.1,0,0,1,.29-1,24.89,24.89,0,0,1,2-2.68,14.65,14.65,0,0,1,.87-1.3h-.05a1.79,1.79,0,0,1-1.3-.58,1.82,1.82,0,0,1-.53-1.2c0-.67.24-1,.72-1.05-.09-1.11-.14-2.69-.14-4.71,0-1.29,0-2.49.1-3.6a23.68,23.68,0,0,1,.28-3.5c0-.63.05-1.3.05-2a5.63,5.63,0,0,0-.19-1,3.49,3.49,0,0,1-.05-.72,1.16,1.16,0,0,1,.58-.91,1.86,1.86,0,0,1,1.34-.62,1.49,1.49,0,0,1,1.35.86C445.09,473.24,446.68,472.85,448.5,472.47Zm-3.07,16.75a53.61,53.61,0,0,0,8.83-2.11h.1a1.27,1.27,0,0,1,.05-.43c.14-1.16.24-2.55.33-4.23,0-1.2.05-2.49.05-3.84-.05-3-.43-4.46-1.2-4.56-2.11.29-4.22.67-6.24,1.15a18.81,18.81,0,0,1-2.93.68,24.46,24.46,0,0,1-.33,2.78,3.17,3.17,0,0,0-.1.62.35.35,0,0,0,.24-.09c4.9-1.54,7.68-2.35,8.35-2.35.15,0,.34.14.58.38a2,2,0,0,1,.19.48,1.07,1.07,0,0,1-.09.34,4.17,4.17,0,0,1-1.64.91c-1.92.77-3.69,1.34-5.33,1.82-1.15.29-2.06.53-2.64.63a1.93,1.93,0,0,0,0,.43c0,.33-.05,1.2-.05,2.59.72-.14,1.29-.29,1.73-.38,1.48-.34,3.26-.82,5.37-1.49.82-.24,1.44-.39,1.87-.48.2,0,.34-.05.49-.05a.61.61,0,0,1,.52.24c0,.14,0,.29,0,.43s-.19.43-.48.77a18.81,18.81,0,0,1-4,1.54,34.61,34.61,0,0,1-5.57,1.34c0,1.1,0,2.16.05,3.12C444.18,489.36,444.81,489.32,445.43,489.22Zm7.68-39.75a7.45,7.45,0,0,1-1.82,3.7c.33.38.72.77,1.1,1.15a3.37,3.37,0,0,1,1,1.59c0,.62-.24.91-.72.91a1.1,1.1,0,0,1-.77-.48l-2.06-1.49-.72.72a24.93,24.93,0,0,1-2.36,1.82,1.36,1.36,0,0,1-.52.29,1.82,1.82,0,0,1-.68.15c-.38,0-.62-.24-.62-.72a1.26,1.26,0,0,1,.43-.92,18.94,18.94,0,0,0,2.59-2.4l.2-.19c-1-.72-2-1.39-3-2a.93.93,0,0,1-.19-.57v-.34a1.69,1.69,0,0,1,.48-.91,1.79,1.79,0,0,1,.67-.38c.14,0,.29,0,.48,0l.58.29a13.84,13.84,0,0,1,2.4,1.83.66.66,0,0,1,.14-.24,13.15,13.15,0,0,0,1-2,1.17,1.17,0,0,1,1.15-1C452.63,448.42,453.06,448.8,453.11,449.47Zm-.38,9.32a6.05,6.05,0,0,1-1.54,2.88c.29.28.62.62,1,.91a2.8,2.8,0,0,1,.91,1.2c0,.77-.33,1.1-1,1.1-.29,0-.57-.19-.91-.57a10,10,0,0,1-1.58-.91,6.53,6.53,0,0,0-.53.47,24.55,24.55,0,0,1-2.21,1.49,1.06,1.06,0,0,1-.53.34,1.19,1.19,0,0,1-.62.19c-.43,0-.67-.29-.67-.82a1.35,1.35,0,0,1,.43-.91,13.45,13.45,0,0,0,2.3-1.92c-.72-.38-1.44-.76-2.11-1.15a.79.79,0,0,1-.24-.62v-.34a1.54,1.54,0,0,1,.48-.91,2.41,2.41,0,0,1,.72-.34c.14,0,.29.05.43.05s.43.14.63.24c.43.24,1,.58,1.72,1.06a8.25,8.25,0,0,0,.77-1.64,1.29,1.29,0,0,1,2.55.2Z" transform="translate(-327.88 -391.15)"/><path class="cls-1" d="M491.27,456.24a15.59,15.59,0,0,1-1.2,3.22c-.77,1.68-1.78,3.69-3,6a3.64,3.64,0,0,1,.62.62,15.12,15.12,0,0,1,1.34,6.58,99,99,0,0,1-1.2,15.55c-.28,2.07-.62,3.94-1,5.67-.28,1-.81,1.44-1.63,1.44-1,0-1.49-.58-1.49-1.63a60.76,60.76,0,0,1,1.06-8.74,65.9,65.9,0,0,0,.62-8.93v-3.17a16,16,0,0,0-.43-3.69c-.77,1.44-1.53,2.92-2.4,4.41s-1.87,3.31-2.88,5.38a1.71,1.71,0,0,1-1.25.77,1.07,1.07,0,0,1-1.24-1.11,2.08,2.08,0,0,1,.43-1.25c.48-1,1.1-2.35,1.87-4,.91-2,2.11-4.56,3.6-7.73,1.2-2.59,2.5-5.33,3.84-8.16.38-1,.77-2,1.15-3a5.42,5.42,0,0,0,.72-1.4,8.21,8.21,0,0,1,1.83-.19,1.45,1.45,0,0,1,1.24,1.49A4.3,4.3,0,0,1,491.27,456.24Zm26.31,36.2a25.55,25.55,0,0,0-2.55.43c-1,.1-2.49.14-4.32.14a53.55,53.55,0,0,0-8.35.72,50.69,50.69,0,0,0-7,1.54,10.68,10.68,0,0,1-1.44.14,1.5,1.5,0,0,1-1.2-.67,3.18,3.18,0,0,1-.67-1.34c0-1,.62-1.68,2-2.07a34.73,34.73,0,0,1,5.37-1.2c1.88-.28,3.65-.48,5.28-.57,2.4-.2,4.56-.29,6.53-.29a29.72,29.72,0,0,0,6.29-.53c1.2.29,1.83.86,1.83,1.73A1.93,1.93,0,0,1,517.58,492.44Zm-6.24-12.82a3.57,3.57,0,0,1,.33.77,1.79,1.79,0,0,1-.81,1.53,32,32,0,0,1-7.73,2.6,20,20,0,0,1-3.65.52,1.81,1.81,0,0,1-1.34-.57,1.85,1.85,0,0,1-.63-1.3V483a4.5,4.5,0,0,1-.33-1.87v-7.44a125.13,125.13,0,0,0-1-15.27c-.1-1.2-.15-2.11-.15-2.69a1.65,1.65,0,0,1,1.59-1.34,1.92,1.92,0,0,1,1.44.72,2.92,2.92,0,0,1,.38,1.44c0,.38.05.72.05,1.06a18,18,0,0,1,4-2.4,14,14,0,0,1,5.76-1.25,5.72,5.72,0,0,1,3.55,1.2,4.92,4.92,0,0,1,1.88,2.64,10.35,10.35,0,0,1,.43,3.07,50,50,0,0,1-1.15,9.27,48.65,48.65,0,0,1-2.88,9.16A1,1,0,0,0,511.34,479.62Zm-.2-13.35a50.52,50.52,0,0,0,.53-5.85c0-1.87-.67-2.83-1.92-2.83-2.83,0-6.05,1.34-9.69,4h-.34c.09,1.83.19,3.7.24,5.57.05.72.1,1.49.14,2.35a78.81,78.81,0,0,1,8.36-2.3,10.87,10.87,0,0,1,2.2-.34.9.9,0,0,1,.39.1A3.5,3.5,0,0,1,511.14,466.27Zm-10.7,9c.09,3,.14,5.09.14,6.24.53-.1,1.11-.19,1.68-.34a35.12,35.12,0,0,0,5.24-1.44,2.08,2.08,0,0,1,.57-.81,68.66,68.66,0,0,0,2.45-8.88c-1.87.62-4.32,1.44-7.3,2.4a20.88,20.88,0,0,1-2.92.77C500.34,473.91,500.39,474.63,500.44,475.3Z" transform="translate(-327.88 -391.15)"/><path class="cls-1" d="M537.49,466.71a12.47,12.47,0,0,1,1.49,1c1.39,1.05,3.6,2.59,6.63,4.7,1.63,1.06,2.88,2,3.79,2.64a3.94,3.94,0,0,1,.86.67,2.2,2.2,0,0,1,.58,1.16c0,1-.48,1.44-1.34,1.44a1.22,1.22,0,0,1-.58-.15,25.37,25.37,0,0,1-2.69-1.53l-4.8-2.84c-1.49-.91-3.07-2-4.7-3.16a5.34,5.34,0,0,1-.82-.53,44.86,44.86,0,0,1-2.54,3.89c-1,1.34-1.83,2.54-2.64,3.6-.53.76-1.11,1.48-1.68,2.16a6.28,6.28,0,0,1-1.49,1.48,2.28,2.28,0,0,1-1.44.58.91.91,0,0,1-.63-.86,4.11,4.11,0,0,1,.29-1.25,3.48,3.48,0,0,1,.67-1.2,18.15,18.15,0,0,1,1.83-2.69c1.1-1.54,2.21-3.12,3.31-4.8a36.33,36.33,0,0,0,1.82-3.31,18.47,18.47,0,0,0,1.06-2.74,1.67,1.67,0,0,1,1.49-1.06h.53a1.76,1.76,0,0,1,1.2,1.93A5.14,5.14,0,0,1,537.49,466.71Zm-2.25-10.37a4.27,4.27,0,0,1-.77,1.73c-2,3.36-3.5,5.33-4.46,5.95a1.56,1.56,0,0,1-1,.38,1.42,1.42,0,0,1-1.59-1.49c0-.14.15-.38.48-.76a26.59,26.59,0,0,0,4-6.48,2,2,0,0,1,.68-.82,1.62,1.62,0,0,1,.91-.34h.38A1.73,1.73,0,0,1,535.24,456.34ZM547,486a16.22,16.22,0,0,1-1.06,2.35,2.87,2.87,0,0,1,.68.53,1.53,1.53,0,0,1,.09.57,2.45,2.45,0,0,1-.48,1.11,20,20,0,0,1-3.89,2.49,29.91,29.91,0,0,1-5.23,2.12c-.34.09-.58.19-.67.19h-.15a1.63,1.63,0,0,1-1.15.53,1.28,1.28,0,0,1-1.39-1.35,24.19,24.19,0,0,0-1.1-5c-1-2.93-1.78-5.38-2.45-7.3a2.22,2.22,0,0,1,.48-1.1,1.51,1.51,0,0,1,1.2-.62,5.31,5.31,0,0,1,1,.09,4.61,4.61,0,0,1,.67.43,31.94,31.94,0,0,1,5.9-.52,15.09,15.09,0,0,1,5.33.91c1.68.77,2.55,1.63,2.55,2.69A7.59,7.59,0,0,1,547,486Zm-8.31,5a7.87,7.87,0,0,1,1.44-.43.78.78,0,0,1,.34-.34,10.31,10.31,0,0,0,2.3-2.74,9.32,9.32,0,0,0,1.06-2.06,6.92,6.92,0,0,0-4.22-1c-1.44,0-3,.05-4.66.15.19.81.38,1.72.62,2.78.39,1.73.68,3.17.92,4.32C537.3,491.33,538,491.14,538.69,491Zm7.49-28.47a2.66,2.66,0,0,1-1.24-.38,17.49,17.49,0,0,1-1.59-1.06,22.83,22.83,0,0,1-4-3.45,2.3,2.3,0,0,1-.53-.68,1.32,1.32,0,0,1-.24-.81A1.9,1.9,0,0,1,539,455a2,2,0,0,1,1-.62,2.77,2.77,0,0,1,.72-.1,2.46,2.46,0,0,1,1.06.39l.72.72a18.12,18.12,0,0,0,2.59,2.4c.48.48,1,1,1.49,1.53a2.75,2.75,0,0,1,.72,1.78c0,.77-.24,1.2-.72,1.34Zm10.61,19.44c.19,3.22.29,6,.29,8.17a14.05,14.05,0,0,1-1.49,6.81,1.92,1.92,0,0,1-1.73,1.06c-1.1,0-1.63-.63-1.63-1.83a12.65,12.65,0,0,0,1.63-5.61c0-3.36-.14-6.92-.33-10.56-.24-4.42-.39-8.74-.39-13,0-2.31,0-4.81,0-7.45a11,11,0,0,1-1.73.15c-1.59,0-2.4-.77-2.4-2.26,0-1.15.62-1.77,1.87-1.77a32.69,32.69,0,0,0,3.79-.24,64.54,64.54,0,0,0,7.73-1.54,22.54,22.54,0,0,1,3.22-.62,3,3,0,0,1,1.44.28,2,2,0,0,1,1.44,2.07c0,1.05-.15,2.54-.34,4.46a105.09,105.09,0,0,1-2,11.19,34.44,34.44,0,0,1-1.44,4.51c-1.05,2.21-2.54,3.31-4.51,3.31a4.87,4.87,0,0,1-1.73-.29,9.43,9.43,0,0,1-1.77-1C556.7,479.14,556.74,480.48,556.79,481.92Zm6.48-13.05q1.15-5.19,2.16-12.53a10.1,10.1,0,0,0-2.06.48c-1.73.53-3.55,1.05-5.38,1.63a9.87,9.87,0,0,1-1.2.38V459c0,1.25,0,3.31-.09,6.29-.05,2.4-.05,5.09-.05,8V475a12.48,12.48,0,0,0,3.31.87C561.06,475.88,562.17,473.57,563.27,468.87Z" transform="translate(-327.88 -391.15)"/><path class="cls-1" d="M596.2,462c-.53.68-1,1.35-1.49,2a3.4,3.4,0,0,1,1.1-.19c.58,0,1,.77,1.25,2.21.19.86.39,1.82.67,2.88.39,2.69.87,5.66,1.4,8.93a39.18,39.18,0,0,1,.43,5.52,54,54,0,0,1-.58,7.87c-.38,1.92-.72,3.5-1.05,4.8s-.87,1.82-1.59,1.82a1.14,1.14,0,0,1-1.29-1.29c.14-.87.38-2.21.76-3.94a54.57,54.57,0,0,0,.68-7.3,61.64,61.64,0,0,0-1.88-12.86c-.33-1.58-.76-3.17-1.24-4.8a5,5,0,0,1-.29-1.44,34.4,34.4,0,0,0-2.16,3c-3.36,4.71-6.87,9.84-10.61,15.51a1.8,1.8,0,0,1-1.68,1,1.24,1.24,0,0,1-1.11-1.06,5,5,0,0,1,.58-1.87c.67-1.1,1.39-2.3,2.16-3.55q1.59-2.6,3.6-5.47c3.46-5.09,7.54-10.71,12.2-16.76a52,52,0,0,1-9.22,1,19.48,19.48,0,0,1-3-.19c-1.24-.29-1.82-.77-1.82-1.54v-1a1.05,1.05,0,0,1,1.2-1.06,27.19,27.19,0,0,0,8.3-.29,43.51,43.51,0,0,0,5.43-1.39c1.39-.48,2.73-1,4-1.54a3,3,0,0,1,1.59-.57c.91.09,1.39.62,1.49,1.68a2.61,2.61,0,0,1-1.4,2C601.38,455.28,599.27,457.92,596.2,462Zm6.72,6.2a1.14,1.14,0,0,1,.24-.67,2.65,2.65,0,0,1,.77-.72,1,1,0,0,1,.62-.29,4.5,4.5,0,0,1,1,.14c1.54.87,5.09,4.23,10.66,10a4.09,4.09,0,0,1,.72,1,2.39,2.39,0,0,1,.38,1.06,1,1,0,0,1-.24.62l-.29.29a.83.83,0,0,1-.57.29,3.28,3.28,0,0,1-1.44-.38c-2.4-1.44-6.2-5-11.33-10.52C603.06,468.68,602.92,468.44,602.92,468.15Z" transform="translate(-327.88 -391.15)"/><path class="cls-1" d="M640.36,464.88a9,9,0,0,1-1.25,2c-.62.82-1.3,1.68-2.06,2.59a5.21,5.21,0,0,1,.19,1.25,30,30,0,0,0-.34,3.94l-.19,6.28c-.1,2-.14,3.7-.19,5a26.31,26.31,0,0,1-1.2,7.34c-.34,1.15-1,1.78-1.92,1.78-.72,0-1.06-.58-1.06-1.73a49.87,49.87,0,0,0,.72-6l.19-4.85v-5.38c0-1.05,0-2.16.1-3.36-.67.77-1.34,1.49-2,2.21q-1.29,1.51-2.88,3.46a1.71,1.71,0,0,1-1.25.77,1.13,1.13,0,0,1-1.29-1.16,2.26,2.26,0,0,1,.43-1.24c.48-.68,1.15-1.54,2-2.55,1-1.25,2.25-2.88,3.89-4.89,1.24-1.64,2.54-3.32,4-5.14.43-.62.87-1.25,1.25-1.92.19-.39.43-.82.62-1.3a4,4,0,0,1,1.64-.29,1.48,1.48,0,0,1,1.2,1.4A4.57,4.57,0,0,1,640.36,464.88Zm-2.07-8.78a19.59,19.59,0,0,1-2.49,3l-6.2,7a1.5,1.5,0,0,1-.91.29c-.57,0-.81-.24-.81-.67a2.64,2.64,0,0,1,.33-1.34,5.18,5.18,0,0,1,.82-1,5,5,0,0,1,.82-1.35c.14-.24,2.39-3.21,6.72-8.88a2.9,2.9,0,0,1,1.1-.29,1.71,1.71,0,0,1,1.25.58,2.41,2.41,0,0,1,.38,1.39C639.3,455.19,639,455.62,638.29,456.1Zm22.61,18.48a22.57,22.57,0,0,0-.14,2.5,45,45,0,0,0,5.57-2.07H667a1.43,1.43,0,0,1,1.2.67,3.2,3.2,0,0,1,.19.72,1.63,1.63,0,0,1-.67,1.35,42.61,42.61,0,0,1-7,2.88q0,1.29.15,2.88c.19,2.4.28,4.51.28,6.29a29.15,29.15,0,0,1-.24,4.27,5,5,0,0,1-.76,2.21,2.7,2.7,0,0,1-1.64.91H658a8,8,0,0,1-4.18-1.68c-.77-.86-1.15-1.44-1.15-1.68,0-.43.62-.62,1.87-.62a7.07,7.07,0,0,1,3.36.81,7.07,7.07,0,0,0,.19-1.77c0-.48-.05-1.16-.05-2-.09-1.25-.24-3.65-.48-7.2a8,8,0,0,1-.09-1.39c-2.26.67-4.71,1.34-7.35,2a55.66,55.66,0,0,1-8.25,1.16,1.85,1.85,0,0,1-1.54-.68,2.08,2.08,0,0,1-.77-1.53,1.38,1.38,0,0,1,1.15-1.54,74.27,74.27,0,0,0,8.88-1.2c2.79-.48,5.33-1.05,7.73-1.68a12.93,12.93,0,0,1,.05-1.44,5.75,5.75,0,0,1,.63-2.88,1.71,1.71,0,0,1,1.48-1A1.6,1.6,0,0,1,660.9,474.58ZM646.55,451.3c.19-.1.38-.15.58-.24a65.06,65.06,0,0,1,8.16-.48,14.64,14.64,0,0,1,4.51.67,4.3,4.3,0,0,1,2.78,4.27,11.47,11.47,0,0,1-2.3,5.62,2.14,2.14,0,0,1,.72.57c.1.24.14.48.24.68a1.65,1.65,0,0,1-.62,1.34c-1.88,1.15-5,2.3-9.51,3.55a27.62,27.62,0,0,1-4.51.68,1.58,1.58,0,0,1-1.39-.68,1.74,1.74,0,0,1-.72-1.39,1.24,1.24,0,0,1,1-1.39,7.81,7.81,0,0,1-.05-1.1v-3.85a13.85,13.85,0,0,0-.82-3.93c-.24-.63-.48-1.2-.67-1.78a5.48,5.48,0,0,1-.29-1.39,1.65,1.65,0,0,1,.77-1.34,2.16,2.16,0,0,1,1.2-.29A1.25,1.25,0,0,1,646.55,451.3Zm6.05,37.87a1.12,1.12,0,0,1-1,1.16,31.53,31.53,0,0,1-4.37-.29,8.73,8.73,0,0,1-2.88-.77,2.87,2.87,0,0,1-.38-1.73c0-.77.38-1.2,1-1.2a17.82,17.82,0,0,1,2.55.48,42.17,42.17,0,0,0,4.22.91A1.59,1.59,0,0,1,652.6,489.17Zm-7-16.61a1.46,1.46,0,0,1,1.44-1.53c1.29,0,5.18-1,11.62-2.88.91,0,1.44.24,1.58.72,0,.29,0,.53,0,.72a1.86,1.86,0,0,1-.86,1,14.81,14.81,0,0,1-3.89,1.92,43.91,43.91,0,0,1-8.35,2C646.12,474.53,645.64,473.91,645.64,472.56Zm10.56-10.94a20.58,20.58,0,0,0,3.07-5.09,5.48,5.48,0,0,0,.29-1.39c-.58-1.06-1.83-1.59-3.79-1.59a57,57,0,0,0-7.92.72c.09.44.19.87.28,1.25.15,1,.24,1.73.29,2.31.87-.15,1.59-.29,2.07-.39,1.15-.19,2.54-.53,4.27-1l1.49-.29a5.86,5.86,0,0,1,.72-.09.8.8,0,0,1,.76.38,2.35,2.35,0,0,1,.1.58,2.48,2.48,0,0,1-.67,1.15,15.27,15.27,0,0,1-3.12,1.3,29,29,0,0,1-4.47,1.2,4.17,4.17,0,0,1-1.1.19h-.1v1.2c-.09.86-.14,1.54-.14,2a11.46,11.46,0,0,0,2.11-.33,42.38,42.38,0,0,0,5.38-1.3A2.49,2.49,0,0,1,656.2,461.62Z" transform="translate(-327.88 -391.15)"/><path class="cls-1" d="M695.08,462c-.53.68-1,1.35-1.49,2a3.4,3.4,0,0,1,1.1-.19c.58,0,1,.77,1.25,2.21.19.86.39,1.82.67,2.88.39,2.69.87,5.66,1.4,8.93a40.74,40.74,0,0,1,.43,5.52,54,54,0,0,1-.58,7.87c-.38,1.92-.72,3.5-1.05,4.8s-.87,1.82-1.59,1.82a1.14,1.14,0,0,1-1.29-1.29c.14-.87.38-2.21.76-3.94a54.57,54.57,0,0,0,.68-7.3,61.64,61.64,0,0,0-1.88-12.86c-.33-1.58-.76-3.17-1.24-4.8a5,5,0,0,1-.29-1.44,34.4,34.4,0,0,0-2.16,3c-3.36,4.71-6.87,9.84-10.61,15.51a1.8,1.8,0,0,1-1.68,1,1.24,1.24,0,0,1-1.11-1.06,5,5,0,0,1,.58-1.87c.67-1.1,1.39-2.3,2.16-3.55q1.59-2.6,3.6-5.47c3.46-5.09,7.54-10.71,12.2-16.76a52,52,0,0,1-9.22,1,19.48,19.48,0,0,1-3-.19c-1.24-.29-1.82-.77-1.82-1.54v-1a1.05,1.05,0,0,1,1.2-1.06,27.19,27.19,0,0,0,8.3-.29,43.51,43.51,0,0,0,5.43-1.39c1.39-.48,2.73-1,4-1.54a3,3,0,0,1,1.59-.57c.91.09,1.39.62,1.48,1.68a2.59,2.59,0,0,1-1.39,2C700.26,455.28,698.15,457.92,695.08,462Zm6.72,6.2a1.14,1.14,0,0,1,.24-.67,2.65,2.65,0,0,1,.77-.72,1,1,0,0,1,.62-.29,4.5,4.5,0,0,1,1,.14c1.54.87,5.09,4.23,10.66,10a4.09,4.09,0,0,1,.72,1,2.39,2.39,0,0,1,.38,1.06,1,1,0,0,1-.24.62l-.29.29a.83.83,0,0,1-.57.29,3.28,3.28,0,0,1-1.44-.38c-2.4-1.44-6.2-5-11.33-10.52C701.94,468.68,701.8,468.44,701.8,468.15Z" transform="translate(-327.88 -391.15)"/><path class="cls-1" d="M729.83,456.58a17.23,17.23,0,0,0,2.06-.77,10.6,10.6,0,0,1,2.16-.34c3.12,0,4.71,1.3,4.71,3.7v7.73c0,4.51,0,7.54,0,9.07v12.87c0,1.53-.43,2.3-1.3,2.3a1.5,1.5,0,0,1-1.34-.67,2.34,2.34,0,0,1-.72-2v-.43a45.13,45.13,0,0,1-5.52,3,13.18,13.18,0,0,1-3.55.82,2.2,2.2,0,0,1-1.59-.67,2.26,2.26,0,0,1-.76-1.59,1.36,1.36,0,0,1,1.2-1.53h.09a.59.59,0,0,1-.05-.29c-.09-3-.09-7.11-.09-12.43,0-2.4,0-4.61.09-6.63s.1-4.22.24-6.58c0-1.15.05-2.4.05-3.74a9.56,9.56,0,0,0-.19-1.06,4.15,4.15,0,0,1,0-.81,1.29,1.29,0,0,1,.63-.91,2.14,2.14,0,0,1,1.44-.63,2,2,0,0,1,1.58.91c.14.34.24.63.34.92C729.4,456.77,729.64,456.67,729.83,456.58Zm5.57,11.47c-1.39.72-3.12,1.59-5.23,2.55-.82.38-1.44.67-1.83.81,0,1.11-.05,2.5-.05,4.13v1.54a53.91,53.91,0,0,1,6.2-2.69,9.57,9.57,0,0,1,.91-.34Zm0,8.93c-1.44.72-3.26,1.63-5.42,2.74-.72.38-1.25.62-1.59.76,0,2.31,0,4.61.1,6.92a1.43,1.43,0,0,0,.38-.1,23.89,23.89,0,0,0,6.53-3.26Zm.1-16.13a2.9,2.9,0,0,0-.29-1.54,2.56,2.56,0,0,0-1.73-.43,6.08,6.08,0,0,0-1.54.48,6.48,6.48,0,0,0-2.06,1,4.51,4.51,0,0,1-.62.53c-.1.77-.2,1.63-.29,2.59-.19,1.83-.34,3.32-.43,4.52a58,58,0,0,1,6.14-2.55c.29-.1.53-.14.82-.24Zm17.85-6.43a73.51,73.51,0,0,1-7.73,1.34c-1.1.1-2.16.19-3.21.19H741.3a1.49,1.49,0,0,1-1.44-1.63v-.81a3.06,3.06,0,0,1,1.59-1.68,11.94,11.94,0,0,0,1.24,0,47.56,47.56,0,0,0,7.06-.52c2.69-.34,5.62-.87,8.74-1.54.43-.1.81-.19,1.15-.29a4.24,4.24,0,0,1,1.34.34c.48.38.77.67.77,1a2.05,2.05,0,0,1-.38,1,2.6,2.6,0,0,1-1.2.91A58.2,58.2,0,0,1,753.3,454.42Zm3.7,28a22.67,22.67,0,0,1-2.45.72l.19,1.83a88.86,88.86,0,0,1,.53,9,4.22,4.22,0,0,1-1,2.88,4.34,4.34,0,0,1-2.93,1.24,5.48,5.48,0,0,1-3.69-1.72c-.77-.68-1.11-1.25-1.11-1.68,0-.77.39-1.16,1.2-1.16.48.15,1.44.39,2.93.72.82,0,1.25-.24,1.25-.72a80.67,80.67,0,0,0-.48-8.06c-.05-.48-.1-.91-.14-1.3-1.73.48-3.41,1-5.09,1.35a7,7,0,0,1-1.73.33h-.38a2.1,2.1,0,0,1-1.4-2.06,1.63,1.63,0,0,1,.77-1.2l1.49-.39c2.21-.48,4.18-1,6-1.53-.14-1.35-.29-2.64-.38-3.79-.68.19-1.35.33-2,.48a57,57,0,0,1-6.77,1.63h-.38a1.22,1.22,0,0,1-.77-.58,1.43,1.43,0,0,1,.53-2.16,91.22,91.22,0,0,1,9-2.88c-.14-1.53-.24-2.83-.24-4-1.82.38-3.69.91-5.61,1.49-1.25,0-1.83-.63-1.83-1.88a1.94,1.94,0,0,1,1-1.58,30.36,30.36,0,0,1,6.2-1.73A51.83,51.83,0,0,1,758,465a9,9,0,0,1,3.93.72,5,5,0,0,1,2,1.78,3.76,3.76,0,0,1,.48,1.92c0,.28,0,.52,0,.76a21.63,21.63,0,0,1,2.25-.14,1.5,1.5,0,0,1,.87.43,2.54,2.54,0,0,1,.33.87c0,.38-.29.76-.86,1.05-1.06.29-2.26.63-3.56,1a5.45,5.45,0,0,1-.28.72,25.94,25.94,0,0,1-2.07,3.84.41.41,0,0,0,.29.15,1.85,1.85,0,0,1,.77.91,2.44,2.44,0,0,1-.82,1.68A19,19,0,0,1,757,482.4Zm-14.31-22.65a2.66,2.66,0,0,1-.62-1.16,1.35,1.35,0,0,1,.48-.86,2.06,2.06,0,0,1,1.06-.53,1.63,1.63,0,0,1,1.68,1,23.61,23.61,0,0,1,1.73,2.93,5.41,5.41,0,0,1,.52,1.58c0,1-.33,1.49-.91,1.68l-.33.1a1.57,1.57,0,0,1-1.64-1.44Zm6.39-1.2a2.48,2.48,0,0,1-.48-1.06,1.37,1.37,0,0,1,.53-.91,2.25,2.25,0,0,1,1.1-.58,1.76,1.76,0,0,1,1.83,1.11c.33,1,.62,1.82.86,2.68a15.35,15.35,0,0,1,.24,1.59c0,.86-.29,1.39-.77,1.58L752,463c-.77,0-1.25-.43-1.44-1.34Zm4.27,10.65c0,1,0,2.07.1,3.32,2.16-.53,4.56-1.11,7.25-1.73,0-.19,0-.34,0-.53,0-1.25-.86-1.87-2.49-1.87a45.52,45.52,0,0,0-5,.33C753.3,468.92,753.35,469.06,753.35,469.2Zm.77,10.52c1.25-.39,2.45-.82,3.5-1.25.68-1.35,1.3-2.69,1.83-4-1.83.48-3.75,1-5.81,1.53Zm7-23.29a4.92,4.92,0,0,1-.34,1.3,38.35,38.35,0,0,1-2.25,4.61,4.07,4.07,0,0,1-.82,1.25,2,2,0,0,1-.91.19,1.13,1.13,0,0,1-1.15-1.3,1.74,1.74,0,0,1,.33-.91c.2-.62.58-1.54,1.06-2.78s.82-2.16,1.1-3a2.09,2.09,0,0,1,1.35-.77A1.44,1.44,0,0,1,761.08,456.43Z" transform="translate(-327.88 -391.15)"/><path class="cls-1" d="M779.65,456.63a14.62,14.62,0,0,0,1.92-.72,11.2,11.2,0,0,1,1.92-.29c3.12.05,4.71,1.29,4.71,3.74,0,1,0,3.46,0,7.49,0,4.32,0,7.25,0,8.79v12.43c0,1.49-.43,2.26-1.29,2.26a1.57,1.57,0,0,1-1.35-.63,2.27,2.27,0,0,1-.72-2v-.29a31.14,31.14,0,0,1-5.18,2.88,13.26,13.26,0,0,1-3.27.91,2,2,0,0,1-1.58-.72,2.39,2.39,0,0,1-.72-1.58,1.32,1.32,0,0,1,1.15-1.49.72.72,0,0,1-.05-.34c-.09-2.83-.14-6.86-.14-12.05,0-2.35.05-4.51.14-6.43s.1-4,.2-6.34c0-1.15,0-2.35,0-3.65,0-.28-.09-.67-.14-1a3.74,3.74,0,0,1,0-.77,1.3,1.3,0,0,1,.53-1,2.43,2.43,0,0,1,1.54-.62,2,2,0,0,1,1.58,1c.1.28.15.52.24.72C779.37,456.77,779.51,456.72,779.65,456.63ZM784.93,468l-4.84,2.4a13.36,13.36,0,0,1-1.69.76c0,1.06,0,2.36,0,4v1.44a59.59,59.59,0,0,1,5.76-2.59c.29-.1.57-.15.81-.24Zm0,8.64c-1.39.76-3.07,1.63-5.08,2.64a11.25,11.25,0,0,1-1.45.72c0,2.3.05,4.51.15,6.72a.67.67,0,0,0,.29-.1,20.22,20.22,0,0,0,6.09-3.17Zm0-15.61a2.88,2.88,0,0,0-.29-1.53,2.51,2.51,0,0,0-1.73-.43,4.27,4.27,0,0,0-1.34.43,6,6,0,0,0-1.83.91l-.43.43c-.1.77-.14,1.68-.24,2.64-.19,1.73-.34,3.12-.43,4.18a55.2,55.2,0,0,1,5.61-2.31,4.38,4.38,0,0,0,.68-.24ZM807,467a11.25,11.25,0,0,1-2.69,2.25,69,69,0,0,1-7,4,4.86,4.86,0,0,1-1,.43c-.1,1.82-.19,3.36-.24,4.61-.14,4.32-.24,7.87-.24,10.75,0,1.49,0,2.49,0,3a24,24,0,0,0,3.93-4,1,1,0,0,1,.87-.43c.43.05.67.38.67,1.06a5,5,0,0,1-.77,2.3,17.54,17.54,0,0,1-3.07,3.65,4.76,4.76,0,0,1-2.88,1.25c-1.3,0-2-1.44-2-4.23,0-4.18.1-8.83.34-13.92.34-6.43.53-11.95.58-16.66a16.59,16.59,0,0,0-.15-1.92c0-1.15.77-1.73,2.11-1.82a1.62,1.62,0,0,1,1.59,1.68c-.1,1.15-.14,2.25-.14,3.26a25.63,25.63,0,0,1,3.26-1.87,19.42,19.42,0,0,1,4.08-1.54,1.17,1.17,0,0,1,1,.48,1.59,1.59,0,0,1,.29.87.93.93,0,0,1-.58.86c-2.11,1.35-4.85,2.93-8.21,4.8-.14,1.54-.24,2.93-.29,4.18a46.56,46.56,0,0,0,7.92-4.75c.1,0,.15-.1.2-.1a18.87,18.87,0,0,0,3.07-10,.88.88,0,0,0-.67-.53,8.08,8.08,0,0,0-1.3.33c-1.78.44-3.55.87-5.33,1.25a12.25,12.25,0,0,1-3,.39c-1-.05-1.48-.58-1.48-1.64a1.82,1.82,0,0,1,1.15-2,11.06,11.06,0,0,0,2.45-.2c.77-.09,2.06-.33,3.89-.72a22.92,22.92,0,0,0,2.59-.48,17.11,17.11,0,0,1,2-.19c1.92.1,2.92,1.35,3,3.75a22.5,22.5,0,0,1-.53,4.32,18.2,18.2,0,0,1-2.83,6.52A2.48,2.48,0,0,1,807,467Zm5.85,5.66a3.59,3.59,0,0,1-1.2,1.82c-3.55,3.46-6.14,5.48-7.77,6.15-.15.14-.24.24-.34.24a59.72,59.72,0,0,0,6,6.48,43.29,43.29,0,0,0,7.2,5.47c.68.39,1.06.77,1.06,1.25,0,.86-.67,1.3-2,1.3-2.21-.29-5-1.92-8.4-4.95a56.2,56.2,0,0,1-9.17-10.32,3.86,3.86,0,0,1-1-2.64,1.76,1.76,0,0,1,1.58-1.82A2.4,2.4,0,0,1,800,476c.38.43.77.91,1.2,1.49a8.24,8.24,0,0,0,.86,1.34c.05,0,.1-.05.15-.09a30.5,30.5,0,0,0,7-6.77,2.25,2.25,0,0,1,.86-1,1.57,1.57,0,0,1,1-.34h.43C812.3,470.84,812.78,471.51,812.82,472.66Z" transform="translate(-327.88 -391.15)"/><path class="cls-1" d="M838,453.22a1.37,1.37,0,0,1,1.2.72,2.87,2.87,0,0,0,.19.72,1.92,1.92,0,0,1-.67,1.49,32,32,0,0,1-6.14,2.35,1.76,1.76,0,0,1,.14.62v.43a17.13,17.13,0,0,1-1,3c-.68,1.53-1.3,3-1.92,4.42a17.72,17.72,0,0,0-.87,2.11,4.48,4.48,0,0,0,1.49-.53,27.59,27.59,0,0,0,2.93-1.92,27,27,0,0,0,3.79-3.55.63.63,0,0,0,.19-.15,2.07,2.07,0,0,1,1.39-.86,2.15,2.15,0,0,1,1.54.67c.29.38.72,1,1.3,1.87.91,1.44,1.92,3,3,4.71a2.66,2.66,0,0,1,.39,1.25,1.42,1.42,0,0,1-1,1.2,2.13,2.13,0,0,1-1.3-.44c-.86-.57-2.35-2.3-4.41-5.28l-.24.24a20.85,20.85,0,0,1-3.27,2.93,28.52,28.52,0,0,1-3.65,2.31,9.19,9.19,0,0,1-3.55,1.05h-.58a2.08,2.08,0,0,1-2.16-2.25,4.5,4.5,0,0,1,.53-1.92c.53-1,1.11-2.17,1.73-3.51s1.15-2.54,1.63-3.79c.24-.62.43-1.2.63-1.73a28.18,28.18,0,0,1-3.65.43,2.1,2.1,0,0,1-1.54-.62,2,2,0,0,1-.72-1.54,1.36,1.36,0,0,1,1.11-1.53,45.41,45.41,0,0,0,4.51-.58,44.34,44.34,0,0,0,8.4-2.3C837.54,453.27,837.78,453.22,838,453.22Zm1.83,22.08a1.14,1.14,0,0,1,1,.67c.1.24.19.48.29.67a1.57,1.57,0,0,1-.67,1.25,20.44,20.44,0,0,1-5.14,3.12,34,34,0,0,1-.24,4.08,20.74,20.74,0,0,1-.33,2.55c1.24-.58,2.4-1.11,3.55-1.68,1.25-.77,2.06-1.2,2.35-1.35a2.14,2.14,0,0,1,.72-.19,1.48,1.48,0,0,1,1.06.62,3.54,3.54,0,0,1,.09.63A2.6,2.6,0,0,1,842,487a35.43,35.43,0,0,1-6.1,4,43.25,43.25,0,0,1-8.26,3.45,2.16,2.16,0,0,1-.72.24,1.5,1.5,0,0,1-1.2-.67,3.59,3.59,0,0,1-.38-1.87c0-.53.33-.91,1-1.2,1.72-.62,3.16-1.15,4.41-1.54a3.31,3.31,0,0,1,.67-.24,1.08,1.08,0,0,1,0-.33c.09-.58.29-1.35.48-2.4.09-1.59.19-2.93.19-4a17.37,17.37,0,0,1-4,.87,1.9,1.9,0,0,1-1.58-.67,2.29,2.29,0,0,1-.77-1.59,1.45,1.45,0,0,1,1.2-1.58,36.19,36.19,0,0,0,4.23-.82,1,1,0,0,0,.53-.14c-.1-.48-.15-.92-.2-1.3a4.06,4.06,0,0,1-.38-1.49,1.68,1.68,0,0,1,.91-1.49,2.41,2.41,0,0,1,1.3-.38,1.77,1.77,0,0,1,1.68,1.49c.09.62.14,1.29.24,2a26.43,26.43,0,0,0,4-2C839.46,475.35,839.65,475.3,839.85,475.3Zm12-12.05a30.7,30.7,0,0,1,.62,4.51c.1,1.44.14,2.6.14,3.36,0,1,0,1.92-.09,2.79s-.19,1.68-.29,2.16c-.24,1.15-.82,1.73-1.68,1.73s-1.39-.44-1.39-1.4c0-.28.05-.76.09-1.34,0-.91,0-1.68,0-2.3a41.91,41.91,0,0,0-.43-5.28c-.1-.87-.24-1.64-.34-2.41a6.84,6.84,0,0,1-.28-1.48,1.64,1.64,0,0,1,.81-1.44,2.16,2.16,0,0,1,1.25-.39C851.08,461.76,851.56,462.29,851.85,463.25Zm9.36,34.52a18.21,18.21,0,0,1-5.62-3.56c-.33-.38-.62-.72-.91-1.1,0-.38.53-.53,1.68-.53a14.48,14.48,0,0,1,4.7,1.35,7.11,7.11,0,0,0,.15-1.78c0-2.79-.15-6.29-.39-10.66-.28-4.65-.38-9.5-.38-14.54,0-3.08,0-6.43.24-10.08v-4.42a14,14,0,0,0-.34-2.4,2.31,2.31,0,0,1,1.49-1.49h.77c1,.29,1.44,1.15,1.44,2.69v5.09c0,3.55,0,7,0,10.13,0,2.64,0,5,.1,7.25s.09,5,.33,8.35c.29,6.24.48,10.9.48,14.06-.09,1.4-.57,2.12-1.53,2.16A4.84,4.84,0,0,1,861.21,497.77Z" transform="translate(-327.88 -391.15)"/><path class="cls-1" d="M910.79,464.6a1.3,1.3,0,0,1,1.15.71c.1.25.2.49.29.68a1.79,1.79,0,0,1-.72,1.44q-5.25,2.37-16.27,4.89c-.1.48-.15.87-.24,1.25.24.29.53.58.81,1,1.06,1.39,2.21,2.93,3.46,4.66s2.59,3.55,4,5.23a43,43,0,0,0,10.32,9.31l2,1.16c.72.33,1.11.72,1.11,1.2a1.35,1.35,0,0,1-1,.86c-.38,0-.86.05-1.44.05a11.5,11.5,0,0,1-2.83-.91,22.51,22.51,0,0,1-5.86-4.18,54.67,54.67,0,0,1-7-7.73c-1.53-2-3.12-4.18-4.85-6.67a46.77,46.77,0,0,1-2.16,4.37,51.1,51.1,0,0,1-7.49,9.69,59.88,59.88,0,0,1-5.52,4.61,1.61,1.61,0,0,1-1,.48,1.41,1.41,0,0,1-1-.33,1.32,1.32,0,0,1-.29-.82,2.55,2.55,0,0,1,.63-1.34A54.54,54.54,0,0,0,888,481.78a28.93,28.93,0,0,0,2.88-5.52,15.91,15.91,0,0,0,.77-3.17c-.92.19-1.78.34-2.6.53a72.9,72.9,0,0,1-10.61,1.15,2.14,2.14,0,0,1-1.58-.67,2.36,2.36,0,0,1-.67-1.58c0-.87.33-1.35,1.1-1.49,3.46-.24,7.25-.63,11.38-1.2,1.06-.19,2.06-.34,3.07-.53,0-3.84-.19-7.06-.38-9.65a9,9,0,0,1,0-1.3c-.62.15-1.2.29-1.73.39a44.55,44.55,0,0,1-7.15.77,2,2,0,0,1-1.58-.63,2,2,0,0,1-.68-1.49c0-.91.34-1.44,1.11-1.58,2.3-.1,4.89-.38,7.73-.77a83.78,83.78,0,0,0,14.54-3.31c.24,0,.43-.05.63-.05a1.22,1.22,0,0,1,1.1.67c.1.24.19.48.29.68a1.72,1.72,0,0,1-.67,1.39,58.39,58.39,0,0,1-9.85,3.07c.2,2.54.34,6.24.39,11.14a107.69,107.69,0,0,0,14.69-4C910.41,464.64,910.6,464.6,910.79,464.6Z" transform="translate(-327.88 -391.15)"/><path class="cls-1" d="M929.89,480.87a12.67,12.67,0,0,1-.52,2.45,9.59,9.59,0,0,1-.48,1.15,2,2,0,0,1-1.54.77c-.77-.1-1.15-.48-1.15-1.2a7.12,7.12,0,0,1,.14-1.2c.1-.87.19-1.73.29-2.64s.1-1.44.1-2.07a3,3,0,0,0-.34-1.49.64.64,0,0,1-.24-.43,2,2,0,0,1,.62-1.63,2.93,2.93,0,0,1,1.11-.43,1.67,1.67,0,0,1,1.2.43,4.29,4.29,0,0,1,.81,1.25,2.66,2.66,0,0,1,.39,1.44A21.13,21.13,0,0,1,929.89,480.87ZM954.47,453c-1.44,1.05-5.23,2.35-11.33,3.88-3.36.77-6.53,1.49-9.45,2.12-1,.19-1.59.33-2,.38a13,13,0,0,1-1.87.1c-.92,0-1.44-.63-1.64-2q0-.8,1.44-1.59c.53-.19,1.2-.38,2.07-.67,3.65-.53,7.25-1.2,10.7-2,5-1,8.93-1.87,11.67-2.64a1.29,1.29,0,0,1,1,.48,1.2,1.2,0,0,1,.09.48A2.13,2.13,0,0,1,954.47,453Zm-16.22,32.45a43,43,0,0,1-1.88,4.75,46.53,46.53,0,0,1-2.44,5.14,9.56,9.56,0,0,1-1,1.24,1.48,1.48,0,0,1-1.35.77c-.67-.09-1-.48-1-1.25a2.55,2.55,0,0,1,.19-1c.48-1.1,1-2.2,1.44-3.36.53-1.44,1-2.68,1.44-3.79s.72-2.45,1-3.5.48-1.83.63-2.5a1.63,1.63,0,0,1,1.53-1.1h.67c.82.19,1.25.86,1.25,2A11.13,11.13,0,0,1,938.25,485.48Zm14-6.05a57.27,57.27,0,0,0,4.46-6.29c-2.88.53-10.08,2.69-21.7,6.53a5.78,5.78,0,0,1-2.16.48,1.31,1.31,0,0,1-1.15-.48,2.21,2.21,0,0,1-.62-1.44,1.22,1.22,0,0,1,.67-1.06,9.08,9.08,0,0,1,2.16-1c4-1.39,9.89-3.07,17.76-5a36.38,36.38,0,0,1,7.73-1.49,5.85,5.85,0,0,1,1,.1,1.69,1.69,0,0,1,1,1.54c0,2-2.26,4.56-6.72,7.82a12.11,12.11,0,0,1-1.64,1.15.94.94,0,0,1-.52.24.43.43,0,0,1-.44-.24.48.48,0,0,1-.14-.38C951.88,479.76,952,479.62,952.22,479.43ZM938.39,461c1.87-.62,4.71-1.39,8.45-2.3a15.82,15.82,0,0,1,3.7-.72,4.43,4.43,0,0,1,.72.09,1.54,1.54,0,0,1,.81,1.44c0,1.68-.91,3.89-2.64,6.58a1.73,1.73,0,0,1,.1.58,2.57,2.57,0,0,1-.48,1.2,19.13,19.13,0,0,1-3.51,1.63,28.36,28.36,0,0,1-4.8,1.44c-.09,0-.14.1-.19.1a1.42,1.42,0,0,1-1.44,1,1.33,1.33,0,0,1-1.49-1.44,19.45,19.45,0,0,0-.72-3.27c-.72-1.92-1.29-3.5-1.77-4.75a2,2,0,0,1,.52-1.06,1.35,1.35,0,0,1,1.11-.62,6.41,6.41,0,0,1,1,.09.89.89,0,0,0,.29.2A3,3,0,0,1,938.39,461Zm2.78-12.48a15.06,15.06,0,0,1,2,.43,8.45,8.45,0,0,1,1.63.53,3.19,3.19,0,0,1,.44,1.63,1.43,1.43,0,0,1-.82,1.25h-.24a3.78,3.78,0,0,1-.67,0c-1.25-.14-2.26-.28-3-.38s-1.58-.1-2.3-.19c-.67-.29-1-1-1-2a1.88,1.88,0,0,1,1.92-1.53A13.45,13.45,0,0,1,941.17,448.56Zm1.06,19c1.49-.38,2.83-.81,4.08-1.25a3,3,0,0,1,.53-.47c.58-1.45,1.15-3,1.63-4.52a77.86,77.86,0,0,0-9,2.74c.15.48.29,1.05.44,1.63q.36,1.37.57,2.31A14.67,14.67,0,0,1,942.23,467.52Zm4.56,11.14a1.7,1.7,0,0,1,1.54.77,5.06,5.06,0,0,1,.29,1.73c0,2.92,0,5.85,0,8.73a3.77,3.77,0,0,0,2.21,3.36,12.88,12.88,0,0,0,4.51.82c3.69-.1,5.57-1,5.66-2.55a12.75,12.75,0,0,0-1.49-4.17,4.48,4.48,0,0,1,.1-1.15,2.1,2.1,0,0,1,1.44-.92,1.78,1.78,0,0,1,1.39.63,11,11,0,0,1,2,5.86,4.75,4.75,0,0,1-1.25,3.07c-1.73,1.73-4.61,2.69-8.54,2.83a15.85,15.85,0,0,1-4.51-.62,7.14,7.14,0,0,1-4.66-4.56,9,9,0,0,1-.48-3.13l.1-8.25C945,479.48,945.59,478.66,946.79,478.66Z" transform="translate(-327.88 -391.15)"/><path class="cls-1" d="M985,466.8a12.78,12.78,0,0,1-1.15,2.79h.1a1.81,1.81,0,0,1,1,.57,1.73,1.73,0,0,1,.09.53,2.31,2.31,0,0,1-.47,1.15,22.87,22.87,0,0,1-4.28,2.93,25.31,25.31,0,0,1-5.71,2.69,2.09,2.09,0,0,1-.72.19,1.16,1.16,0,0,1-1-.67,2.4,2.4,0,0,1-.38-1.58,1.21,1.21,0,0,1,.86-1.11c.19-.09.39-.14.58-.24a40,40,0,0,0-.77-4.32c-.82-2.93-1.49-5.38-2.06-7.29a1.3,1.3,0,0,1,.52-1,1.32,1.32,0,0,1,1.06-.63,4.26,4.26,0,0,1,.91.1,2.36,2.36,0,0,1,1.11,1.05.25.25,0,0,0,0,.15,23.26,23.26,0,0,1,4.08-.39,12.46,12.46,0,0,1,4.37.82q2.16.93,2.16,2.16A8.45,8.45,0,0,1,985,466.8Zm-6.91,5.67c0-.05.15-.1.24-.19a16.94,16.94,0,0,0,2.45-3.6,11.69,11.69,0,0,0,1.06-2.69,4.1,4.1,0,0,0-2.93-.92c-1.06,0-2.26.05-3.51.15.15.72.29,1.49.44,2.35.48,2.5.76,4.32.86,5.47Zm6.34,15.26a1.38,1.38,0,0,1-.34-.81c0-1.25.48-2,1.49-2.16a1.88,1.88,0,0,1,1.39.62,24.29,24.29,0,0,1,4.18,5.62,3.73,3.73,0,0,1,.53,1.05,1.55,1.55,0,0,1-1.49,1.78,1.74,1.74,0,0,1-1.58-1.15A55.15,55.15,0,0,1,984.47,487.73Zm7.92-4.22a2,2,0,0,1,1.44.62c.24.24.67.63,1.25,1.2.77.91,1.68,1.87,2.73,2.93a3.17,3.17,0,0,1,.34,1.34,1.41,1.41,0,0,1-1,1.21,2.43,2.43,0,0,1-1.34-.39,17.75,17.75,0,0,1-4.08-3.65,2.63,2.63,0,0,1-.58-.81,2.05,2.05,0,0,1-.29-1C990.9,484.23,991.43,483.7,992.39,483.51Zm14.88-20.07a1,1,0,0,1,.86.48c0,.19.1.34.15.48a1.44,1.44,0,0,1-.43,1.06,20.8,20.8,0,0,1-4.76,3.36,25.63,25.63,0,0,1-2.16,6.05l.92-.34c2.4-.81,4.36-1.44,6-1.92a16.14,16.14,0,0,1,3.12-.29c1.49.1,2.4,1.25,2.73,3.56,0,.67.1,1.39.1,2.16,0,1.72-.24,5-.67,9.89a60.5,60.5,0,0,1-1.11,6.57,9.53,9.53,0,0,1-1.48,3.27,2.23,2.23,0,0,1-1.68.76,5,5,0,0,1-2.69-.81,9.06,9.06,0,0,1-2.31-2.74,2.13,2.13,0,0,1-.28-1c0-.48.09-.72.33-.81a.69.69,0,0,1,.48-.29,1.18,1.18,0,0,1,.72.33,7.23,7.23,0,0,1,2.5,1.35,2.17,2.17,0,0,0,.81.48c.2,0,.39-.58.63-1.73.14-.72.28-1.54.43-2.5.1-.62.14-1.25.24-1.87a7.11,7.11,0,0,1-2.4-1.39,9.75,9.75,0,0,1-2.88-2.78,1.53,1.53,0,0,1-.43-1.11,1.48,1.48,0,0,1,.48-.91,1.41,1.41,0,0,1,.86-.58c.1,0,.29,0,.53,0a1.57,1.57,0,0,1,.82.29c.28.24.67.58,1.1,1a11.2,11.2,0,0,0,2.26,2.26c.09-1.44.14-2.88.24-4.37,0-1.2.09-2.55.09-4,0-.38,0-.76,0-1.15s-.19-.77-.43-.77a9.19,9.19,0,0,0-2.93.87c-2.25.91-4.08,1.63-5.42,2.21a55.67,55.67,0,0,1-5.38,2,2.9,2.9,0,0,1-1.15.24,1,1,0,0,1-.91-.52,1.65,1.65,0,0,1-.34-1.06,1.69,1.69,0,0,1,.1-.77,1.37,1.37,0,0,1,.81-.91c.77-.38,1.64-.77,2.69-1.25a21.91,21.91,0,0,0,2.69-5.85,7.67,7.67,0,0,1-1.1.48,14.93,14.93,0,0,1-4.13,1.05,1.91,1.91,0,0,1-.53-.05c0,1.06-.1,1.92-.1,2.69a6.41,6.41,0,0,1-.43,2.07,1.7,1.7,0,0,1-1.44.76,1.36,1.36,0,0,1-1.29-1.15,11.34,11.34,0,0,1,0-1.53c0-.87.14-4,.48-9.46q.28-7.28.29-11v-2a1.56,1.56,0,0,1,1.29-1.73h1.06a1.4,1.4,0,0,1,1,.43,4.2,4.2,0,0,0,.81.05,13,13,0,0,0,3.17-.43,29.09,29.09,0,0,0,4-1.3l.53-.24a4.93,4.93,0,0,1,1.39.34c.57.38.86.72.86,1.05a2,2,0,0,1-.38,1,3.25,3.25,0,0,1-1.35,1,47.79,47.79,0,0,1-7.29,2,7.72,7.72,0,0,1-1.4.14V455l-.24,3.32a20.44,20.44,0,0,0-.14,2.35,17.82,17.82,0,0,0,2.83-.58l2.4-.72c-.09-.48-.19-.91-.29-1.25a5.29,5.29,0,0,1-.38-1.68,1.7,1.7,0,0,1,.53-1.29,1.72,1.72,0,0,1,1.2-.63c.43,0,.91.48,1.39,1.35.19.67.34,1.39.53,2.21a19.09,19.09,0,0,0,2-1.11c.2,0,.34,0,.49,0a1,1,0,0,1,.86.48,3.91,3.91,0,0,1,.19.53,1.37,1.37,0,0,1-.53,1.11,11.07,11.07,0,0,1-2.68,1.82c.09,1.2.14,2.45.14,3.7a4.54,4.54,0,0,0-.1.76,18.66,18.66,0,0,0,3.22-1.87Zm-12.72,4.95a34.57,34.57,0,0,0,3.74-.87,14.49,14.49,0,0,0,2.36-.86c0-.24,0-.48,0-.67,0-1.25,0-2.45-.09-3.7-.67.34-1.39.62-2.11.91a20,20,0,0,1-3.65.77h-.05C994.69,465.41,994.65,466.85,994.55,468.39Zm3.84,14.11a2.2,2.2,0,0,1,1.49.62c.19.24.62.68,1.2,1.3.77,1,1.63,2.11,2.69,3.27a3.24,3.24,0,0,1,.33,1.29,1.21,1.21,0,0,1-.91,1.15,1.92,1.92,0,0,1-1.3-.43c-.86-.38-2.2-1.63-4.12-3.93a1.83,1.83,0,0,1-.68-.82,2,2,0,0,1-.24-1C996.9,483.22,997.43,482.74,998.39,482.5Z" transform="translate(-327.88 -391.15)"/><path class="cls-1" d="M1047.16,470.26a17.29,17.29,0,0,1-7.87,3.31,26.83,26.83,0,0,1,1,6.15c0,1.44-.67,2.11-1.92,2.11s-1.73-.63-1.82-2a32.44,32.44,0,0,0-1.39-6.05,7.33,7.33,0,0,1-.44-1.63c0-1.1.72-1.78,2.21-2a16.23,16.23,0,0,0,6.63-2.06c2.16-1.25,3.26-2.84,3.26-4.66,0-2.45-2-3.7-5.91-3.7-.19,0-1.48.24-3.79.63a7,7,0,0,1-1.34.24,1.81,1.81,0,0,1-1.54-.67,2,2,0,0,1-.62-1.59,2.15,2.15,0,0,1,.91-1.63,2.91,2.91,0,0,1,1.78-.77c.05,0,.48.15,1.29.39a17.21,17.21,0,0,1,3.84-.53,10.54,10.54,0,0,1,6.53,1.92,6.83,6.83,0,0,1,2.74,5.76C1050.76,466.13,1049.56,468.34,1047.16,470.26Zm-6.67,20.35a3.36,3.36,0,0,1-2.5.87,1.81,1.81,0,0,1-1.44-.77,2.86,2.86,0,0,1-.63-1.87,3.25,3.25,0,0,1,.72-2.11,2.27,2.27,0,0,1,1.88-1,3.51,3.51,0,0,1,2,.62,2.33,2.33,0,0,1,.86,1.87A3.32,3.32,0,0,1,1040.49,490.61Z" transform="translate(-327.88 -391.15)"/></svg>