<svg id="圖層_1" data-name="圖層 1" xmlns="http://www.w3.org/2000/svg" viewBox="0 0 68.92 66.01"><defs><style>.cls-1,.cls-8{fill:#707070;}.cls-1,.cls-2,.cls-3,.cls-4,.cls-5,.cls-7{stroke:#27a2af;stroke-miterlimit:10;}.cls-1{stroke-width:0.76px;}.cls-2,.cls-4,.cls-6{fill:#fff;}.cls-2{stroke-width:0.54px;}.cls-3{fill:#ededed;stroke-width:0.42px;}.cls-4,.cls-5{stroke-width:0.38px;}.cls-5{fill:none;}.cls-10,.cls-7,.cls-9{fill:#27a2af;}.cls-7{stroke-width:0.18px;}.cls-8{font-size:4.49px;font-family:Copperplate-Light, Copperplate;}.cls-10,.cls-9{font-size:2.8px;}.cls-9{letter-spacing:0em;}</style></defs><title>GMS_logo_two-small</title><ellipse class="cls-1" cx="34.46" cy="33" rx="34.08" ry="32.62"/><path class="cls-2" d="M283.78,299c-1.61-.37,8.5,2.55,11.21,1.53,1.69-.63-7.83-4.78-7.83-4.78Z" transform="translate(-235.21 -267.71)"/><path class="cls-2" d="M282.41,302.51c-1.14-.85,5.66,4.9,8.57,5.21,1.82.2-4.81-7.3-4.81-7.3Z" transform="translate(-235.21 -267.71)"/><path class="cls-3" d="M290.64,314.89,286.1,317a5.18,5.18,0,0,0-.73.4l-4.09,2.68a2,2,0,0,1-2.6-.67l-1.39-2.29-1.4-2.34a1.77,1.77,0,0,1,.38-2.27,1.74,1.74,0,0,1,.49-.3l4-1.73a8.36,8.36,0,0,0,1.34-.75l3.67-2.51a1.68,1.68,0,0,1,.37-.21,2,2,0,0,1,2.37.78l1.34,2.22,1.45,2.41A1.78,1.78,0,0,1,290.64,314.89Z" transform="translate(-235.21 -267.71)"/><path class="cls-3" d="M243.92,313c.73-.57,2.52-5.57,2.52-5.57s1.16-4.71,1.48-5.51a1,1,0,0,1,.21-.7.63.63,0,0,1,.45.4c.16.45,2.25.2,3.8.91s3.53,1.51,3.53,1.51a.49.49,0,0,1,.32.63l-4,11.08a.53.53,0,0,1-.66.31s-6.64-2.5-7.33-2.43S243.19,313.52,243.92,313Z" transform="translate(-235.21 -267.71)"/><path class="cls-3" d="M255,309.84l-4.85-1.29a5.79,5.79,0,0,0-.83-.16l-5.12-.9c-1,.4-1.41-.12-.67-1l.57-3.42.34-3.06c-.44-1-.22-1.45,1-.79.17.08.75-.25.93-.19l4.23,1.23a7.28,7.28,0,0,0,1.52.29l4.49.42a2,2,0,0,1,.42.08,1.82,1.82,0,0,1,1.25,2.08l-.52,2.52-.57,2.73A1.9,1.9,0,0,1,255,309.84Z" transform="translate(-235.21 -267.71)"/><path class="cls-3" d="M261.85,316.13l-9.75.37a1.75,1.75,0,0,1-1.83-1.62l-.2-5.05a1.71,1.71,0,0,1,1.69-1.74l9.75-.36a1.73,1.73,0,0,1,1.83,1.61l.2,5.05A1.71,1.71,0,0,1,261.85,316.13Z" transform="translate(-235.21 -267.71)"/><path class="cls-3" d="M283.24,305.52c.46.79,5.29,3.34,5.29,3.34s4.64,1.91,5.41,2.36a1.13,1.13,0,0,1,.69.31.62.62,0,0,1-.49.36c-.49.07-.59,2.08-1.6,3.42s-2.17,3.07-2.17,3.07.11.53-.19.62-.38-.36-.51-.43l-10.7-5.7a.48.48,0,0,1-.2-.67s3.72-5.82,3.76-6.49S282.78,304.73,283.24,305.52Z" transform="translate(-235.21 -267.71)"/><path class="cls-3" d="M283.41,314.27l-5.05-.25-4.71.61a1.72,1.72,0,0,1-1.82-1.62l-.21-5c0-.92.51-2.09,1.69-1.75a31.93,31.93,0,0,0,5.27.39,29.56,29.56,0,0,0,5.74-.62c.83-.32.57.09.56.55l-.16,2.06a8.62,8.62,0,0,0,.06,1.76l.32,2.16A1.73,1.73,0,0,1,283.41,314.27Z" transform="translate(-235.21 -267.71)"/><path class="cls-3" d="M263.26,318.34c-.78-.9-7.31-.91-7.31-.91s-6.1.31-7.18.21c0,0-.28.2-.31.21a.57.57,0,0,1-.65-.81l.21-.18c.35-.58-.36-2.4,0-4.37s.64-4.43.64-4.43a.61.61,0,0,1,.65-.57l14.78.7a.6.6,0,0,1,.59.62s-1.28,8.29-.61,8.82c.1.08.56.43.12.79A.74.74,0,0,1,263.26,318.34Z" transform="translate(-235.21 -267.71)"/><path class="cls-3" d="M254.48,315c-.45-.79-5.23-3.42-5.23-3.42s-4.62-2-5.38-2.44a1.13,1.13,0,0,1-.68-.32.63.63,0,0,1,.49-.35c.5-.07.63-2.08,1.66-3.4s2.22-3,2.22-3a.53.53,0,0,1,.71-.18l10.6,5.86a.47.47,0,0,1,.19.67s-3.82,5.77-3.87,6.43S254.93,315.77,254.48,315Z" transform="translate(-235.21 -267.71)"/><path class="cls-3" d="M279.14,312.06l2.57,2.9a3.38,3.38,0,0,1-.42,4.89l-.17.14c-1.52,1.24-2.16,3.3-5.1-.4l-2.58-2.91a3.38,3.38,0,0,1,.42-4.89l.17-.13C276.41,309.61,277.85,310.6,279.14,312.06Z" transform="translate(-235.21 -267.71)"/><path class="cls-3" d="M293.83,317.4a55.4,55.4,0,0,1-5.1,3.3c-1.59.77-4.89,2.18-4.89,2.18-1.43,1.28-2.07,1.11-2.11-.55l-1.21-1.74a9.24,9.24,0,0,1-.8-1.44l-1.13-2.61c-.67-.92-.88-1.4.27-1.49.19,0,3.19-2.13,5.49-3.31s5.12-2,5.23-2.12c1-.93,1.47-.91,1.55.72l1.75,2.33,1.46,2.77C295.61,316.48,295.44,317,293.83,317.4Z" transform="translate(-235.21 -267.71)"/><path class="cls-3" d="M274.21,323.08l-11.3-4.33c-1.41.12-1.56-.5-.35-1.42l1.35-3.16a6,6,0,0,0,.61-1.34l1.21-2.4c0-.91.7-1.1,1.19-.35l11.51,4.7c1.28-.16,1.52.35.57,1.42,0,0-.89,2.42-1.11,3.09l-1.65,3.33C276.17,324.31,275.39,324.26,274.21,323.08Z" transform="translate(-235.21 -267.71)"/><path class="cls-2" d="M264.06,311.29c.58-1.62-2.52,8.95-5,10.67-1.55,1.07.09-9.77.09-9.77Z" transform="translate(-235.21 -267.71)"/><path class="cls-2" d="M256.16,310.78c.9-1.29-4.44,7.3-6.87,8.16-1.52.54,2.73-8.69,2.73-8.69Z" transform="translate(-235.21 -267.71)"/><path class="cls-2" d="M277.65,282.32s15.26-1.89,17.73,4.53-11.89,13.93-11.89,13.93" transform="translate(-235.21 -267.71)"/><path class="cls-2" d="M247.73,293c1.4-1.76,4.27-1.93,5.28-3.6,1.9-3.15,6.25-5.21,11-5.14,2.47,0,2.54-2.86,6.86-3.17,1.58-.11,3.44-1.82,5.6-1.63a9.46,9.46,0,0,1,4.5,1.36c1.92,1.26,2.36,3,3.5,4s1.3,2.39,1.87,3.9c.36.93,1.19,1.7,1.31,2.78.19,1.74-.35,4.13-.06,6.42a5.7,5.7,0,0,1-1.1,4.16,6.58,6.58,0,0,1-3.05,2.23,14.29,14.29,0,0,0-3.69,1.88c-1.1.81-2.14,2.21-3.51,2.74-2.68,1-1.88.18-3.81.78-2.39.75-2.71,2.21-4.2,2.12-2.21-.12-4.16,1.09-6,1.81-2.91,1.13-3.33-.61-5.64-.48-1.93.12-2.41-1.28-3.33-1.5-2-.49-2.16-2.86-3.6-3.53a4.11,4.11,0,0,1-2.42-2.55c-.93-1.9.66-2.41-1.16-5.14C245.29,299.35,244.42,297.19,247.73,293Z" transform="translate(-235.21 -267.71)"/><path class="cls-4" d="M278.22,292.75a4.26,4.26,0,0,1,2.45-2.76,2.24,2.24,0,0,1,1.5.06,1.71,1.71,0,0,1,.8,2.26,3.6,3.6,0,0,1-4,1.55,3.65,3.65,0,0,1-2.7-3.09,4.11,4.11,0,0,1,1.8-3.4,5,5,0,0,1,4-1.3s-.41-1.85-.63-3.55a8.18,8.18,0,0,0-5.54,2.37,7.27,7.27,0,0,0-2.37,3.78,6.36,6.36,0,0,0,.48,4.53,6.54,6.54,0,0,0,5,3.37,6.07,6.07,0,0,0,3.91-1.17,5,5,0,0,0,2.21-3.27c.05-.34.28-2.41-1.16-3.38a4,4,0,0,0-2.86-.45,4.21,4.21,0,0,0-2.13,1.32A3.68,3.68,0,0,0,278.22,292.75Z" transform="translate(-235.21 -267.71)"/><path class="cls-5" d="M274.37,286.64a4.43,4.43,0,0,0,1.28,1.38,2.19,2.19,0,0,0,1.42.34" transform="translate(-235.21 -267.71)"/><path class="cls-5" d="M274.82,285.94a4.16,4.16,0,0,0,1.26,1.44,2.36,2.36,0,0,0,1.63.3" transform="translate(-235.21 -267.71)"/><path class="cls-5" d="M273.65,292.33c.07.08.47.37,1.42.27a2.62,2.62,0,0,0,1.48-.81" transform="translate(-235.21 -267.71)"/><path class="cls-5" d="M273.41,291.57a1.66,1.66,0,0,0,1.45.43,2.73,2.73,0,0,0,1.48-.75" transform="translate(-235.21 -267.71)"/><path class="cls-5" d="M282.52,292.94a1.53,1.53,0,0,1,1,.58c.46.55.5.83.48.93" transform="translate(-235.21 -267.71)"/><path class="cls-5" d="M279.36,293.93a1.93,1.93,0,0,1-.06,1.55,1.73,1.73,0,0,1-1.11,1" transform="translate(-235.21 -267.71)"/><path class="cls-5" d="M278.82,293.79a1.68,1.68,0,0,1,0,1.49,1.9,1.9,0,0,1-1.29,1" transform="translate(-235.21 -267.71)"/><path class="cls-5" d="M282.14,293.29a1.44,1.44,0,0,1,1,.55,1.21,1.21,0,0,1,.36,1.07" transform="translate(-235.21 -267.71)"/><path class="cls-5" d="M282.37,290.11a1.71,1.71,0,0,1,.95-.78,1.45,1.45,0,0,1,1.18,0" transform="translate(-235.21 -267.71)"/><path class="cls-5" d="M282.71,290.41a1.28,1.28,0,0,1,.84-.75,1.41,1.41,0,0,1,1.21.08" transform="translate(-235.21 -267.71)"/><path class="cls-6" d="M280.63,281.58c-1.33.56-1.95,1.43-1.27,2.41.47.69,1.35.6,1.55,1.25s-.49.91-.31,1.47,1.15.79,1.89.5c1.28-.51,1.86-.39,1.36-1.46C281.66,281.09,280.92,281.46,280.63,281.58Z" transform="translate(-235.21 -267.71)"/><ellipse class="cls-7" cx="53.01" cy="17.92" rx="1" ry="0.95"/><path class="cls-5" d="M293.15,287.16c1.43-.12,1.27-.14,1.27-.14a6.5,6.5,0,0,0,.11-1" transform="translate(-235.21 -267.71)"/><line class="cls-5" x1="60.01" y1="20.25" x2="59.22" y2="19.3"/><text class="cls-8" transform="translate(28.92 49.41) scale(1.04 1)">G<tspan class="cls-9" x="3.24" y="0">ive</tspan></text><text class="cls-8" transform="translate(44.69 49.41) scale(1.04 1)">S<tspan class="cls-9" x="2.99" y="0">hhheep</tspan></text><text class="cls-8" transform="translate(37.24 49.41) scale(1.04 1)">M<tspan class="cls-10" x="3.74" y="0">e</tspan></text></svg>