<svg id="圖層_1" data-name="圖層 1" xmlns="http://www.w3.org/2000/svg" viewBox="0 0 452.14 452.14"><defs><style>.cls-1,.cls-8{fill:#707070;}.cls-1,.cls-2,.cls-3,.cls-4,.cls-5,.cls-7{stroke:#27a2af;stroke-miterlimit:10;}.cls-1{stroke-width:2.9px;}.cls-2,.cls-4,.cls-6{fill:#fff;}.cls-2{stroke-width:1.93px;}.cls-3{fill:#ededed;}.cls-3,.cls-4,.cls-5{stroke-width:0.97px;}.cls-5{fill:none;}.cls-10,.cls-7,.cls-9{fill:#27a2af;}.cls-7{stroke-width:1.21px;}.cls-8{font-size:30.89px;font-family:Copperplate-Light, Copperplate;}.cls-10,.cls-9{font-size:19.31px;}.cls-10{letter-spacing:0em;}</style></defs><title>GMS_loading1</title><circle class="cls-1" cx="226.07" cy="226.07" r="224.62"/><path class="cls-2" d="M1041.62,490.22c-10.9-.23,58.45,5.1,74.42-5.56,9.94-6.65-57.51-21.08-57.51-21.08Z" transform="translate(-722.51 -268.22)"/><path class="cls-2" d="M1029.93,521.6c-9.38-1.59,48.86,11.92,66.79,4.67,11.18-4.51-51.81-29.08-51.81-29.08Z" transform="translate(-722.51 -268.22)"/><path class="cls-3" d="M1086.75,591.91l-29.89,14.35a35.19,35.19,0,0,0-4.83,2.79l-26.92,18.45a12.6,12.6,0,0,1-17.17-4.6l-9.14-15.82L989.53,591a12.35,12.35,0,0,1,5.74-17.68l26.59-12a51.25,51.25,0,0,0,8.85-5.11l24.15-17.34a11.6,11.6,0,0,1,2.44-1.4,12.6,12.6,0,0,1,15.64,5.35l8.85,15.32,9.56,16.56A12.6,12.6,0,0,1,1086.75,591.91Z" transform="translate(-722.51 -268.22)"/><path class="cls-3" d="M778.85,578.55c4.8-3.93,16.6-38.34,16.6-38.34s7.63-32.45,9.79-38c.08-3.12.75-4.06,1.34-4.82a4.11,4.11,0,0,1,3,2.71c1.05,3.13,14.81,1.37,25,6.32,9.9,4.8,23.3,10.39,23.3,10.39a3.42,3.42,0,0,1,2.1,4.33l-26.39,76.3a3.41,3.41,0,0,1-4.32,2.1S785.52,582.35,781,582.88,774,582.48,778.85,578.55Z" transform="translate(-722.51 -268.22)"/><path class="cls-3" d="M852,557.14l-31.93-8.92a36.25,36.25,0,0,0-5.47-1.08l-33.76-6.2c-6.78,2.72-9.33-.8-4.42-6.67l3.74-23.53,2.25-21.08c-2.89-7.08-1.44-10,6.92-5.47,1.11.6,4.93-1.69,6.14-1.32l27.88,8.52a51.12,51.12,0,0,0,10,2L863,496.27a11.93,11.93,0,0,1,2.77.55A12.62,12.62,0,0,1,874,511.15l-3.45,17.36-3.73,18.76A12.6,12.6,0,0,1,852,557.14Z" transform="translate(-722.51 -268.22)"/><rect class="cls-3" x="820.01" y="543.79" width="87.53" height="57.93" rx="11.59" ry="11.59" transform="translate(-744.03 -234.36) rotate(-2.22)"/><path class="cls-3" d="M1038,527.37c3,5.41,34.88,23,34.88,23s30.63,13.14,35.67,16.22c3.06.63,3.87,1.46,4.51,2.17a4.1,4.1,0,0,1-3.19,2.46c-3.26.49-3.92,14.34-10.56,23.54-6.45,8.92-14.28,21.14-14.28,21.14-.43.77.73,3.68-1.23,4.28-2.14.66-2.53-2.48-3.4-3L1009.83,578a3.4,3.4,0,0,1-1.32-4.62s24.57-40.09,24.84-44.68S1034.94,522,1038,527.37Z" transform="translate(-722.51 -268.22)"/><path class="cls-3" d="M1039.11,587.61l-33.28-1.69-31,4.18a11.62,11.62,0,0,1-12-11.13l-1.35-34.73c-.24-6.37,3.37-14.36,11.13-12s20.88,1.85,34.72,2.65,37.59-4.18,37.83-4.28c5.51-2.16,3.8.61,3.7,3.83l-1,14.16a57.91,57.91,0,0,0,.4,12.13l2.07,14.87A11.63,11.63,0,0,1,1039.11,587.61Z" transform="translate(-722.51 -268.22)"/><path class="cls-3" d="M906.33,615.64c-5.17-6.22-48.2-6.28-48.2-6.28s-40.21,2.13-47.33,1.49c-.23.06-1.84,1.34-2,1.39a3.86,3.86,0,0,1-4.27-5.53s1.4-1.26,1.41-1.28c2.26-3.94-2.41-16.52-.13-30,2.22-13.12,4.17-30.54,4.17-30.54a4.13,4.13,0,0,1,4.31-3.91l97.43,4.79a4.13,4.13,0,0,1,3.9,4.31s-8.48,57.06-4.06,60.68c.7.57,3.67,3,.82,5.49C911.51,616.93,908.19,617.87,906.33,615.64Z" transform="translate(-722.51 -268.22)"/><path class="cls-3" d="M848.44,592.47c-2.94-5.46-34.5-23.56-34.5-23.56s-30.41-13.64-35.41-16.8c-3-.68-3.84-1.52-4.48-2.24a4.12,4.12,0,0,1,3.23-2.41c3.27-.44,4.16-14.27,11-23.37,6.59-8.81,14.62-20.9,14.62-20.9a3.41,3.41,0,0,1,4.64-1.25l69.92,40.37a3.4,3.4,0,0,1,1.24,4.64s-25.21,39.69-25.56,44.28S851.39,597.94,848.44,592.47Z" transform="translate(-722.51 -268.22)"/><path class="cls-3" d="M1011,572.39l17,20a24,24,0,0,1-2.77,33.66l-1.13,1c-10,8.5-14.22,22.7-33.66-2.77l-17-20a24,24,0,0,1,2.78-33.66l1.12-1C993,555.56,1002.49,562.37,1011,572.39Z" transform="translate(-722.51 -268.22)"/><path class="cls-3" d="M1107.78,609.16s-23.16,17.39-33.62,22.7-32.23,15-32.23,15c-9.39,8.84-13.64,7.63-13.9-3.78l-7.94-12a58.14,58.14,0,0,1-5.26-9.88l-7.48-18c-4.43-6.36-5.8-9.65,1.77-10.3,1.28-.11,21-14.66,36.21-22.74s33.75-14,34.45-14.61c6.88-6.4,9.71-6.27,10.24,5l11.51,16,9.66,19.09C1119.52,602.86,1118.42,606.61,1107.78,609.16Z" transform="translate(-722.51 -268.22)"/><path class="cls-3" d="M978.49,648.25,904,618.49c-9.32.78-10.28-3.48-2.32-9.78L910.58,587a41.37,41.37,0,0,0,4-9.28l8-16.49c.23-6.25,4.6-7.55,7.85-2.4l75.86,32.37c8.41-1.14,10,2.37,3.79,9.77,0,0-5.9,16.63-7.36,21.24l-10.86,23C991.38,656.76,986.29,656.39,978.49,648.25Z" transform="translate(-722.51 -268.22)"/><path class="cls-2" d="M911.34,571c7.06-9.47-34.75,53.52-54,59.74-12,3.88,21.21-63.83,21.21-63.83Z" transform="translate(-722.51 -268.22)"/><path class="cls-2" d="M845.13,552.55c7.93-7.18-40.64,41.59-57.66,43.38-10.6,1.11,32.12-53.64,32.12-53.64Z" transform="translate(-722.51 -268.22)"/><path class="cls-2" d="M1001.18,367.62s100.57-13,116.86,31.2c16.4,44.53-78.36,95.9-78.36,95.9" transform="translate(-722.51 -268.22)"/><path class="cls-2" d="M804,441.29c9.19-12.09,28.12-13.23,34.77-24.78,12.51-21.7,41.19-35.88,72.37-35.34,16.28.27,16.74-19.75,45.21-21.87,10.4-.77,22.71-12.49,36.95-11.19,13.86,1.28,23.08,4.82,29.66,9.33,12.63,8.66,15.55,20.89,23,27.4,6.84,6,8.59,16.5,12.35,26.84,2.35,6.45,7.83,11.73,8.61,19.15,1.26,12-2.31,28.48-.37,44.19a40.47,40.47,0,0,1-7.24,28.65,43.88,43.88,0,0,1-20.11,15.4c-11.29,4.33-18.66,8.5-24.35,12.92-7.2,5.61-14.12,15.18-23.09,18.84-17.69,7.2-12.43,1.26-25.13,5.42-15.75,5.16-17.89,15.16-27.66,14.6-14.63-.85-27.44,7.45-39.81,12.45-19.21,7.76-22-4.25-37.19-3.3-12.74.8-15.92-8.82-22-10.35-13.3-3.37-14.25-19.68-23.74-24.3-12.22-6-13.53-12.41-15.93-17.54-6.14-13.13,4.32-16.6-7.68-35.42C787.9,484.91,782.13,470,804,441.29Z" transform="translate(-722.51 -268.22)"/><path class="cls-4" d="M1004.94,439.43c.76-2.67,4.86-14.93,16.11-19,1.94-.71,6.5-1.25,9.91.47a11.89,11.89,0,0,1,5.25,15.54c-4.14,8.81-16.19,13.34-26.32,10.63a24.74,24.74,0,0,1-17.83-21.23c-1.1-12.18,8.34-20.39,11.84-23.43,13.59-11.81,26.3-9,26.3-9s-2.68-12.69-4.09-24.44c-18.39,0-30.18,10.45-36.53,16.31a50.52,50.52,0,0,0-15.67,26.05c-1,4.23-3.79,17.42,3.22,31.16,1,1.92,11.5,21.74,32.63,23.23,13.5.95,23.24-6.15,25.77-8.05,3.25-2.45,13-9.76,14.61-22.5.3-2.33,1.85-16.59-7.65-23.27-6.71-4.71-15.48-3.87-18.83-3.14a27.54,27.54,0,0,0-14.06,9.1C1002.26,426.68,1004.59,437.9,1004.94,439.43Z" transform="translate(-722.51 -268.22)"/><path class="cls-5" d="M979.57,397.36c.25.63,4.35,7.21,8.41,9.56,4.41,2.54,8.54,2.79,9.33,2.31" transform="translate(-722.51 -268.22)"/><path class="cls-5" d="M982.52,392.58a28,28,0,0,0,8.32,9.89c3.91,2.76,9.94,2.53,10.73,2" transform="translate(-722.51 -268.22)"/><path class="cls-5" d="M974.78,436.59c.47.49,3.1,2.55,9.37,1.84,5-.55,9.24-4.82,9.78-5.57" transform="translate(-722.51 -268.22)"/><path class="cls-5" d="M973.19,431.35c.47.49,3.29,3.63,9.56,2.92a17.41,17.41,0,0,0,9.77-5.17" transform="translate(-722.51 -268.22)"/><path class="cls-5" d="M1033.24,440.78c.8.09,3.61.53,6.38,4,3.08,3.81,3.3,5.76,3.17,6.45" transform="translate(-722.51 -268.22)"/><path class="cls-5" d="M1012.46,447.58a13.85,13.85,0,0,1-.44,10.64c-2.72,5.6-6.48,6.62-7.33,6.86" transform="translate(-722.51 -268.22)"/><path class="cls-5" d="M1008.89,446.61a12.06,12.06,0,0,1,.06,10.24,12.43,12.43,0,0,1-8.52,6.81" transform="translate(-722.51 -268.22)"/><path class="cls-5" d="M1030.76,443.18a9.42,9.42,0,0,1,6.68,3.76c3.07,3.81,2.46,6.72,2.34,7.41" transform="translate(-722.51 -268.22)"/><path class="cls-5" d="M1032.29,421.28a11,11,0,0,1,6.25-5.39c4.62-1.61,7.18-.39,7.79,0" transform="translate(-722.51 -268.22)"/><path class="cls-5" d="M1034.5,423.34a8.7,8.7,0,0,1,5.53-5.15c4.62-1.61,7.41.17,8,.52" transform="translate(-722.51 -268.22)"/><path class="cls-6" d="M1020.83,362.56c-8.81,3.81-12.88,9.85-8.43,16.56,3.14,4.74,8.93,4.14,10.22,8.63,1.17,4.12-3.23,6.24-2,10.12,1.35,4.41,7.61,5.42,12.46,3.43,8.49-3.47,12.3-2.7,9-10.05C1027.61,359.18,1022.73,361.74,1020.83,362.56Z" transform="translate(-722.51 -268.22)"/><circle class="cls-7" cx="348.33" cy="122.19" r="6.57"/><path class="cls-5" d="M1105.6,400.68c9.39-.78,8.35-1,8.35-1s1-6.1.75-7.1" transform="translate(-722.51 -268.22)"/><line class="cls-5" x1="396.77" y1="138.02" x2="391.53" y2="131.46"/><text class="cls-8" transform="translate(189.57 339.06)">G<tspan class="cls-9" x="22.3" y="0">ive</tspan></text><text class="cls-8" transform="translate(293.54 339.06)">S<tspan class="cls-9" x="20.61" y="0">hhheep</tspan></text><text class="cls-8" transform="translate(244.44 339.06)">M<tspan class="cls-10" x="25.73" y="0">e</tspan></text></svg>