<svg id="圖層_1" data-name="圖層 1" xmlns="http://www.w3.org/2000/svg" viewBox="0 0 68.92 66.01"><defs><style>.cls-1,.cls-8{fill:#707070;}.cls-1,.cls-2,.cls-3,.cls-4,.cls-5,.cls-7{stroke:#27a2af;stroke-miterlimit:10;}.cls-1{stroke-width:0.76px;}.cls-2,.cls-4,.cls-6{fill:#fff;}.cls-2{stroke-width:0.54px;}.cls-3{fill:#dcf9f8;stroke-width:0.42px;}.cls-4,.cls-5{stroke-width:0.38px;}.cls-5{fill:none;}.cls-10,.cls-7,.cls-9{fill:#27a2af;}.cls-7{stroke-width:0.18px;}.cls-8{font-size:4.49px;font-family:Copperplate-Light, Copperplate;}.cls-10,.cls-9{font-size:2.8px;}.cls-9{letter-spacing:0em;}</style></defs><title>GMS_logo_blue-small</title><ellipse class="cls-1" cx="34.46" cy="33" rx="34.08" ry="32.62"/><path class="cls-2" d="M357.65,299c-1.61-.38,8.5,2.55,11.21,1.53,1.69-.63-7.83-4.78-7.83-4.78Z" transform="translate(-309.08 -267.72)"/><path class="cls-2" d="M356.28,302.52c-1.14-.86,5.66,4.9,8.57,5.21,1.82.2-4.81-7.3-4.81-7.3Z" transform="translate(-309.08 -267.72)"/><path class="cls-3" d="M364.5,314.9,360,317a4.68,4.68,0,0,0-.73.4l-4.09,2.68a2,2,0,0,1-2.6-.67l-1.39-2.3-1.41-2.33a1.79,1.79,0,0,1,.39-2.28,2,2,0,0,1,.49-.29l4-1.74a7.61,7.61,0,0,0,1.34-.74l3.67-2.52a1.46,1.46,0,0,1,.37-.2,2,2,0,0,1,2.37.78l1.34,2.22,1.45,2.41A1.78,1.78,0,0,1,364.5,314.9Z" transform="translate(-309.08 -267.72)"/><path class="cls-3" d="M317.79,313c.73-.57,2.52-5.57,2.52-5.57s1.16-4.71,1.48-5.51a1,1,0,0,1,.21-.7.65.65,0,0,1,.45.39c.16.46,2.25.2,3.8.92s3.53,1.51,3.53,1.51a.49.49,0,0,1,.32.63l-4,11.08a.53.53,0,0,1-.66.31s-6.64-2.51-7.33-2.43S317.06,313.53,317.79,313Z" transform="translate(-309.08 -267.72)"/><path class="cls-3" d="M328.89,309.85,324,308.56a4.68,4.68,0,0,0-.83-.16l-5.12-.9c-1,.39-1.41-.12-.67-1l.57-3.42.34-3.06c-.44-1-.22-1.45,1.05-.79.17.08.75-.25.93-.2l4.23,1.24a8,8,0,0,0,1.52.29l4.49.42a2.07,2.07,0,0,1,.42.08,1.82,1.82,0,0,1,1.25,2.08l-.52,2.52-.57,2.73A1.9,1.9,0,0,1,328.89,309.85Z" transform="translate(-309.08 -267.72)"/><path class="cls-3" d="M335.72,316.14l-9.75.36a1.73,1.73,0,0,1-1.83-1.61l-.2-5.05a1.71,1.71,0,0,1,1.69-1.74l9.75-.36a1.73,1.73,0,0,1,1.83,1.61l.2,5A1.71,1.71,0,0,1,335.72,316.14Z" transform="translate(-309.08 -267.72)"/><path class="cls-3" d="M357.11,305.53c.46.78,5.29,3.34,5.29,3.34s4.64,1.91,5.41,2.36a1.06,1.06,0,0,1,.68.31.61.61,0,0,1-.48.36c-.49.07-.59,2.08-1.6,3.42s-2.17,3.07-2.17,3.07.11.53-.19.62-.38-.36-.51-.43l-10.71-5.7a.49.49,0,0,1-.2-.67s3.73-5.82,3.77-6.49S356.65,304.74,357.11,305.53Z" transform="translate(-309.08 -267.72)"/><path class="cls-3" d="M357.28,314.28l-5-.25-4.71.61a1.74,1.74,0,0,1-1.83-1.62l-.2-5c0-.93.51-2.09,1.69-1.75a31.93,31.93,0,0,0,5.27.39,30.42,30.42,0,0,0,5.74-.62c.83-.32.57.08.56.55l-.16,2.06a8.62,8.62,0,0,0,.06,1.76l.32,2.16A1.73,1.73,0,0,1,357.28,314.28Z" transform="translate(-309.08 -267.72)"/><path class="cls-3" d="M337.13,318.35c-.78-.91-7.31-.91-7.31-.91s-6.1.31-7.18.21c0,0-.28.2-.31.2a.57.57,0,0,1-.65-.8l.21-.18c.35-.58-.36-2.4,0-4.37s.64-4.43.64-4.43a.61.61,0,0,1,.65-.57l14.78.7a.6.6,0,0,1,.59.62s-1.28,8.29-.61,8.81c.1.09.55.44.12.8A.74.74,0,0,1,337.13,318.35Z" transform="translate(-309.08 -267.72)"/><path class="cls-3" d="M328.35,315c-.45-.79-5.24-3.42-5.24-3.42s-4.61-2-5.37-2.44a1.13,1.13,0,0,1-.68-.32.61.61,0,0,1,.49-.35c.5-.07.63-2.08,1.66-3.4s2.22-3,2.22-3a.54.54,0,0,1,.71-.19l10.6,5.87a.48.48,0,0,1,.19.67s-3.82,5.77-3.88,6.43S328.8,315.78,328.35,315Z" transform="translate(-309.08 -267.72)"/><path class="cls-3" d="M353,312.07l2.57,2.9a3.38,3.38,0,0,1-.42,4.89L355,320c-1.52,1.23-2.16,3.3-5.11-.4l-2.57-2.91a3.38,3.38,0,0,1,.42-4.89l.17-.14C350.28,309.62,351.72,310.61,353,312.07Z" transform="translate(-309.08 -267.72)"/><path class="cls-3" d="M367.7,317.41a55.94,55.94,0,0,1-5.1,3.29c-1.59.78-4.9,2.19-4.9,2.19-1.42,1.28-2.06,1.11-2.1-.55l-1.21-1.74a9.24,9.24,0,0,1-.8-1.44l-1.13-2.61c-.67-.92-.88-1.4.27-1.5.19,0,3.18-2.12,5.49-3.3a54.47,54.47,0,0,1,5.23-2.12c1-.93,1.47-.91,1.55.72l1.75,2.33,1.46,2.77C369.48,316.49,369.31,317,367.7,317.41Z" transform="translate(-309.08 -267.72)"/><path class="cls-3" d="M348.08,323.09l-11.3-4.33c-1.41.12-1.56-.5-.35-1.42l1.35-3.16a6,6,0,0,0,.61-1.34l1.21-2.4c0-.91.7-1.1,1.19-.35l11.51,4.7c1.28-.16,1.52.35.57,1.42,0,0-.89,2.42-1.11,3.09l-1.65,3.33C350,324.32,349.26,324.27,348.08,323.09Z" transform="translate(-309.08 -267.72)"/><path class="cls-2" d="M337.93,311.3c.58-1.63-2.52,8.95-5,10.67-1.55,1.07.09-9.77.09-9.77Z" transform="translate(-309.08 -267.72)"/><path class="cls-2" d="M330,310.79c.9-1.29-4.44,7.3-6.87,8.16-1.52.53,2.73-8.7,2.73-8.7Z" transform="translate(-309.08 -267.72)"/><path class="cls-2" d="M351.52,282.32s15.26-1.89,17.73,4.54-11.89,13.93-11.89,13.93" transform="translate(-309.08 -267.72)"/><path class="cls-2" d="M321.6,293c1.4-1.76,4.27-1.93,5.28-3.6,1.9-3.16,6.25-5.21,11-5.14,2.47,0,2.54-2.86,6.86-3.17,1.58-.12,3.44-1.82,5.6-1.63a9.46,9.46,0,0,1,4.5,1.36c1.92,1.26,2.36,3,3.5,4s1.3,2.39,1.87,3.89c.36.94,1.19,1.71,1.31,2.79.19,1.73-.35,4.13-.06,6.41a5.71,5.71,0,0,1-1.1,4.17,6.58,6.58,0,0,1-3,2.23,14.29,14.29,0,0,0-3.69,1.88c-1.1.81-2.15,2.2-3.51,2.73-2.68,1.05-1.88.19-3.81.79-2.39.75-2.71,2.2-4.2,2.12-2.22-.12-4.16,1.09-6,1.81-2.91,1.13-3.33-.62-5.64-.48-1.93.12-2.41-1.28-3.33-1.5-2-.49-2.16-2.86-3.6-3.53a4.11,4.11,0,0,1-2.42-2.55c-.93-1.9.66-2.41-1.16-5.14C319.16,299.36,318.29,297.2,321.6,293Z" transform="translate(-309.08 -267.72)"/><path class="cls-4" d="M352.09,292.76a4.26,4.26,0,0,1,2.45-2.76,2.18,2.18,0,0,1,1.5.06,1.71,1.71,0,0,1,.8,2.26,3.58,3.58,0,0,1-4,1.54,3.63,3.63,0,0,1-2.7-3.08,4.11,4.11,0,0,1,1.79-3.4,5,5,0,0,1,4-1.3s-.41-1.85-.63-3.55a8.18,8.18,0,0,0-5.54,2.36,7.37,7.37,0,0,0-2.38,3.79,6.41,6.41,0,0,0,.49,4.52,6.51,6.51,0,0,0,4.95,3.38,6.09,6.09,0,0,0,3.91-1.17,5,5,0,0,0,2.22-3.27c.05-.34.28-2.41-1.16-3.38a4,4,0,0,0-2.86-.45,4.17,4.17,0,0,0-2.13,1.32A3.67,3.67,0,0,0,352.09,292.76Z" transform="translate(-309.08 -267.72)"/><path class="cls-5" d="M348.24,286.65a4.43,4.43,0,0,0,1.28,1.38,2.17,2.17,0,0,0,1.41.34" transform="translate(-309.08 -267.72)"/><path class="cls-5" d="M348.69,286a4.16,4.16,0,0,0,1.26,1.44,2.34,2.34,0,0,0,1.63.29" transform="translate(-309.08 -267.72)"/><path class="cls-5" d="M347.52,292.34a1.8,1.8,0,0,0,1.42.27,2.62,2.62,0,0,0,1.48-.81" transform="translate(-309.08 -267.72)"/><path class="cls-5" d="M347.28,291.58a1.66,1.66,0,0,0,1.45.43,2.65,2.65,0,0,0,1.48-.76" transform="translate(-309.08 -267.72)"/><path class="cls-5" d="M356.39,293a1.46,1.46,0,0,1,1,.58c.47.55.5.83.49.93" transform="translate(-309.08 -267.72)"/><path class="cls-5" d="M353.23,293.94a1.91,1.91,0,0,1-.06,1.54,1.73,1.73,0,0,1-1.12,1" transform="translate(-309.08 -267.72)"/><path class="cls-5" d="M352.69,293.8a1.66,1.66,0,0,1,0,1.48,1.83,1.83,0,0,1-1.29,1" transform="translate(-309.08 -267.72)"/><path class="cls-5" d="M356,293.3a1.44,1.44,0,0,1,1,.55,1.21,1.21,0,0,1,.36,1.07" transform="translate(-309.08 -267.72)"/><path class="cls-5" d="M356.24,290.12a1.67,1.67,0,0,1,.95-.78,1.45,1.45,0,0,1,1.18,0" transform="translate(-309.08 -267.72)"/><path class="cls-5" d="M356.58,290.42a1.25,1.25,0,0,1,.84-.75,1.41,1.41,0,0,1,1.21.08" transform="translate(-309.08 -267.72)"/><path class="cls-6" d="M354.5,281.59c-1.33.55-1.95,1.43-1.28,2.41.48.68,1.36.6,1.55,1.25s-.48.91-.31,1.47,1.16.79,1.89.5c1.29-.51,1.87-.39,1.37-1.46C355.53,281.1,354.79,281.47,354.5,281.59Z" transform="translate(-309.08 -267.72)"/><ellipse class="cls-7" cx="53.01" cy="17.92" rx="1" ry="0.95"/><path class="cls-5" d="M367,287.16c1.42-.11,1.27-.14,1.27-.14a6.36,6.36,0,0,0,.11-1" transform="translate(-309.08 -267.72)"/><line class="cls-5" x1="60.01" y1="20.25" x2="59.22" y2="19.3"/><text class="cls-8" transform="translate(28.92 49.41) scale(1.04 1)">G<tspan class="cls-9" x="3.24" y="0">ive</tspan></text><text class="cls-8" transform="translate(44.69 49.41) scale(1.04 1)">S<tspan class="cls-9" x="2.99" y="0">hhheep</tspan></text><text class="cls-8" transform="translate(37.24 49.41) scale(1.04 1)">M<tspan class="cls-10" x="3.74" y="0">e</tspan></text></svg>