<svg xmlns="http://www.w3.org/2000/svg" xmlns:xlink="http://www.w3.org/1999/xlink" width="804" height="286" viewBox="0 0 804 286">
  <defs>
    <clipPath id="clip-path">
      <rect id="Rectangle_24" data-name="Rectangle 24" width="804" height="286" rx="10" transform="translate(975 1682)" fill="#fff" stroke="#707070" stroke-width="1"/>
    </clipPath>
  </defs>
  <g id="Mask_Group_2" data-name="Mask Group 2" transform="translate(-975 -1682)" clip-path="url(#clip-path)">
    <g id="no_sheep_img" transform="translate(1158.359 1679.01)">
      <path id="Path_176" data-name="Path 176" d="M442.91,245.833c-8.387-11.026,41.161,62.025,64.15,70.027,14.312,4.98-24.926-72.942-24.926-72.942Z" transform="translate(-126.543 -73.03)" stroke="#fff" stroke-miterlimit="10" stroke-width="1.193"/>
      <path id="Path_177" data-name="Path 177" d="M426.6,268.1c-2.7-11.613,10.041,62.031,27.119,79.764,10.641,11.046,8.32-72.915,8.32-72.915Z" transform="translate(-130.561 -66.912)" stroke="#fff" stroke-miterlimit="10" stroke-width="1.193"/>
      <path id="Path_178" data-name="Path 178" d="M285.861,264c2.794-14.2-9.858,77.423-28.4,94.771-11.552,10.8-11.377-81.215-11.377-81.215Z" transform="translate(-176.6 -68.024)" stroke="#fff" stroke-miterlimit="10" stroke-width="1.193"/>
      <path id="Path_179" data-name="Path 179" d="M251.349,247.234c7.51-10.891-36.95,61.458-57.355,68.745-12.719,4.541,22.611-73.1,22.611-73.1Z" transform="translate(-190.617 -73.041)" stroke="#fff" stroke-miterlimit="10" stroke-width="1.193"/>
      <path id="Path_180" data-name="Path 180" d="M433.463,144.058s137.187,27.463,136.3,80.581c-.9,53.475-149.663,68.644-149.663,68.644" transform="translate(-132.13 -98.293)" stroke="#fff" stroke-miterlimit="10" stroke-width="1.198"/>
      <path id="Path_181" data-name="Path 181" d="M233.821,136.611c16.248-9.507,39.224-2.085,52.22-12.146,24.427-18.893,64.724-21.808,101.519-6.829,19.211,7.814,28.583-14.73,63.327-4.049,12.692,3.907,32.477-3.738,48.806,4.305,15.9,7.834,25.284,16.113,31.107,24.292,11.181,15.668,9.258,30.911,15.25,41.761,5.486,9.926,2.915,22.706,2.827,36.188-.054,8.421,4.123,16.95,1.775,25.736-3.785,14.17-15.31,31.316-19.939,50.061a47.773,47.773,0,0,1-21.228,29.231,55.641,55.641,0,0,1-30.675,8.252c-15.324-.283-25.9,1.059-34.609,3.468-11.026,3.05-23.462,10.742-35.763,10.763-24.17.04-15.3-4.285-32.22-5.4-20.985-1.39-27.935,8.988-39.292,3.846-16.991-7.7-35.871-4.17-52.767-4.19-26.228-.034-24.2-14.953-42.7-20.918-15.479-4.966-15.014-17.362-21.5-21.876-14.305-9.966-8.246-28.941-17.47-38.563-11.883-12.4-10.594-20.344-11.181-27.281-1.5-17.753,12.449-16.869,6.511-43.806C195.487,178.777,195.19,159.222,233.821,136.611Z" transform="translate(-190.626 -107.486)" stroke="#fff" stroke-miterlimit="10" stroke-width="1.193"/>
      <path id="Path_182" data-name="Path 182" d="M422.914,218.036c2.092-2.7,12.368-14.73,27.51-14.17,2.618.094,8.279,1.572,11.566,5.094,4.791,5.135,5.688,14.3-.621,20.095-8.772,8.1-25.115,7.7-35.945-.054-10.452-7.51-15.007-21.039-11.8-32.355,4.049-14.352,18.893-19.325,24.386-21.167,21.356-7.166,35.189,1.923,35.189,1.923s2.422-15.661,5.924-29.69c-21.829-8.462-40.439-2.024-50.567,1.707-5.4,1.977-19.818,7.524-30.1,22.389-3.023,4.366-12.146,18.064-9.919,36.91.317,2.638,4.049,30.007,28.5,41.437,15.614,7.308,30.317,3.725,34.157,2.7,4.933-1.282,19.7-5.115,27.267-18.833,1.39-2.517,9.514-18.016,1.181-29.98-5.891-8.448-16.667-11.532-20.972-12.24a35.556,35.556,0,0,0-20.709,3.853C425.364,202.307,423.184,216.133,422.914,218.036Z" transform="translate(-140.285 -98.425)" stroke="#fff" stroke-miterlimit="10" stroke-width="1.193"/>
      <path id="Path_183" data-name="Path 183" d="M388.325,189.234c.344.769,2.551,4.325,10.31,6.41,6.134,1.653,13.1-1.221,14.069-1.822" transform="translate(-140.251 -86.749)" stroke="#fff" stroke-miterlimit="10" stroke-width="1.193"/>
      <path id="Path_184" data-name="Path 184" d="M388.658,183.9c.344.776,2.314,5.641,10.068,7.733,6.134,1.653,12.915-.776,13.887-1.35" transform="translate(-140.165 -88.111)" stroke="#fff" stroke-miterlimit="10" stroke-width="1.193"/>
      <path id="Path_185" data-name="Path 185" d="M442.137,214.477c.918.479,4.049,2.267,5.837,7.422,1.97,5.742,1.349,8.063.918,8.772" transform="translate(-126.499 -80.298)" stroke="#fff" stroke-miterlimit="10" stroke-width="1.193"/>
      <path id="Path_186" data-name="Path 186" d="M423.547,213.01a16.191,16.191,0,0,1-5.216,11.889c-5.7,5.108-10.607,4.541-11.734,4.426" transform="translate(-135.581 -80.673)" stroke="#fff" stroke-miterlimit="10" stroke-width="1.193"/>
      <path id="Path_187" data-name="Path 187" d="M420.616,210.817c-.047,1.248.675,7.065-4.447,11.667a15.729,15.729,0,0,1-13.1,3.819" transform="translate(-136.482 -81.233)" stroke="#fff" stroke-miterlimit="10" stroke-width="1.193"/>
      <path id="Path_188" data-name="Path 188" d="M438.95,215.745a12.193,12.193,0,0,1,6.269,7.348c1.97,5.742,0,8.772-.479,9.5" transform="translate(-127.313 -79.974)" stroke="#fff" stroke-miterlimit="10" stroke-width="1.193"/>
      <path id="Path_189" data-name="Path 189" d="M448.087,197.153a13.839,13.839,0,0,1,9.8-3.259c6.194.3,8.7,2.868,9.271,3.549" transform="translate(-124.979 -85.565)" stroke="#fff" stroke-miterlimit="10" stroke-width="1.193"/>
      <path id="Path_190" data-name="Path 190" d="M449.457,199.84a10.817,10.817,0,0,1,8.839-3.32c6.2.31,8.725,3.617,9.3,4.3" transform="translate(-124.628 -84.891)" stroke="#fff" stroke-miterlimit="10" stroke-width="1.193"/>
      <path id="Path_191" data-name="Path 191" d="M461.5,139.115c-12.146.27-19.649,5.256-17.321,14.933,1.64,6.842,8.772,8.819,8.32,14.521-.425,5.223-6.579,5.607-6.883,10.56-.351,5.634,6.64,9.663,13.279,9.642,11.606-.034,15.79,2.6,15.115-7.281C471.042,138.393,464.112,139.054,461.5,139.115Z" transform="translate(-126.085 -99.558)"/>
      <text id="_" data-name="?" transform="translate(74.784 181.036) rotate(4.75)" fill="#fff" stroke="#000" stroke-miterlimit="10" stroke-width="2.488" font-size="224" font-family="Helvetica"><tspan x="0" y="0">?</tspan></text>
    </g>
  </g>
</svg>
