<svg id="圖層_1" data-name="圖層 1" xmlns="http://www.w3.org/2000/svg" viewBox="0 0 649.9 433.53"><defs><style>.cls-1,.cls-2{stroke:#fff;}.cls-1,.cls-2,.cls-3{stroke-miterlimit:10;}.cls-1{stroke-width:2.22px;}.cls-2{stroke-width:2.23px;}.cls-3{font-size:333.13px;fill:#fff;stroke:#000;stroke-width:4.63px;font-family:HannotateTC-W5-B5pc-H, Hannotate TC;}</style></defs><title>no_sheep_img</title><path class="cls-1" d="M823.77,456.32c-12.43-16.34,61,91.92,95.07,103.78C940.05,567.48,881.9,452,881.9,452Z" transform="translate(-354.7 -200)"/><path class="cls-1" d="M793.65,498.38c-4-17.21,14.88,91.93,40.19,118.21,15.77,16.37,12.33-108.06,12.33-108.06Z" transform="translate(-354.7 -200)"/><path class="cls-1" d="M516.84,490.66c4.14-21.05-14.61,114.74-42.09,140.45-17.12,16-16.86-120.36-16.86-120.36Z" transform="translate(-354.7 -200)"/><path class="cls-1" d="M444.92,458.38c11.13-16.14-54.76,91.08-85,101.88-18.85,6.73,33.51-108.34,33.51-108.34Z" transform="translate(-354.7 -200)"/><path class="cls-2" d="M801.49,268.05s203.31,40.7,202,119.42c-1.33,79.25-221.8,101.73-221.8,101.73" transform="translate(-354.7 -200)"/><path class="cls-1" d="M418.93,243.39c24.08-14.09,58.13-3.09,77.39-18,36.2-28,95.92-32.32,150.45-10.12,28.47,11.58,42.36-21.83,93.85-6,18.81,5.79,48.13-5.54,72.33,6.38,23.57,11.61,37.47,23.88,46.1,36,16.57,23.22,13.72,45.81,22.6,61.89,8.13,14.71,4.32,33.65,4.19,53.63-.08,12.48,6.11,25.12,2.63,38.14-5.61,21-22.69,46.41-29.55,74.19a70.8,70.8,0,0,1-31.46,43.32A82.46,82.46,0,0,1,782,535.05c-22.71-.42-38.39,1.57-51.29,5.14-16.34,4.52-34.77,15.92-53,15.95-35.82.06-22.68-6.35-47.75-8-31.1-2.06-41.4,13.32-58.23,5.7-25.18-11.41-53.16-6.18-78.2-6.21-38.87-.05-35.86-22.16-63.28-31-22.94-7.36-22.25-25.73-31.86-32.42-21.2-14.77-12.22-42.89-25.89-57.15-17.61-18.38-15.7-30.15-16.57-40.43-2.22-26.31,18.45-25,9.65-64.92C362.12,305.88,361.68,276.9,418.93,243.39Z" transform="translate(-354.7 -200)"/><path class="cls-1" d="M773.77,377.49c3.1-4,18.33-21.83,40.77-21,3.88.14,12.27,2.33,17.14,7.55,7.1,7.61,8.43,21.19-.92,29.78-13,12-37.22,11.41-53.27-.08C762,382.61,755.25,362.56,760,345.79c6-21.27,28-28.64,36.14-31.37,31.65-10.62,52.15,2.85,52.15,2.85s3.59-23.21,8.78-44c-32.35-12.54-59.93-3-74.94,2.53-8,2.93-29.37,11.15-44.61,33.18-4.48,6.47-18,26.77-14.7,54.7.47,3.91,6,44.47,42.23,61.41,23.14,10.83,44.93,5.52,50.62,4,7.31-1.9,29.19-7.58,40.41-27.91,2.06-3.73,14.1-26.7,1.75-44.43-8.73-12.52-24.7-17.09-31.08-18.14-5.12-.85-17.84-1-30.69,5.71C777.4,354.18,774.17,374.67,773.77,377.49Z" transform="translate(-354.7 -200)"/><path class="cls-1" d="M722.56,352.11c.51,1.14,3.78,6.41,15.28,9.5,9.09,2.45,19.41-1.81,20.85-2.7" transform="translate(-354.7 -200)"/><path class="cls-1" d="M723.18,342.19c.51,1.15,3.43,8.36,14.92,11.46,9.09,2.45,19.14-1.15,20.58-2" transform="translate(-354.7 -200)"/><path class="cls-1" d="M822.69,399.08c1.36.71,6,3.36,8.65,11,2.92,8.51,2,11.95,1.36,13" transform="translate(-354.7 -200)"/><path class="cls-1" d="M781.68,396.35c-.07,1.85-.11,10.8-7.73,17.62-8.45,7.57-15.72,6.73-17.39,6.56" transform="translate(-354.7 -200)"/><path class="cls-1" d="M776,392.27c-.07,1.85,1,10.47-6.59,17.29A23.31,23.31,0,0,1,750,415.22" transform="translate(-354.7 -200)"/><path class="cls-1" d="M816.76,401.44a18.07,18.07,0,0,1,9.29,10.89c2.92,8.51,0,13-.71,14.08" transform="translate(-354.7 -200)"/><path class="cls-1" d="M833.76,365.6a20.51,20.51,0,0,1,14.53-4.83c9.18.45,12.89,4.25,13.74,5.26" transform="translate(-354.7 -200)"/><path class="cls-1" d="M836.31,370.58c1.11-1,4.82-5.32,13.1-4.92,9.19.46,12.93,5.36,13.78,6.37" transform="translate(-354.7 -200)"/><path d="M852,258.85c-18,.4-29.12,7.79-25.67,22.13,2.43,10.14,13,13.07,12.33,21.52-.63,7.74-9.75,8.31-10.2,15.65-.52,8.35,9.84,14.32,19.68,14.29,17.2-.05,23.4,3.85,22.4-10.79C866.14,257.78,855.87,258.76,852,258.85Z" transform="translate(-354.7 -200)"/><text class="cls-3" transform="translate(110.89 270.39) rotate(4.75)">?</text></svg>