<svg xmlns="http://www.w3.org/2000/svg" xmlns:xlink="http://www.w3.org/1999/xlink" width="375" height="133.396" viewBox="0 0 375 133.396">
  <defs>
    <clipPath id="clip-path">
      <rect id="Rectangle_39" data-name="Rectangle 39" width="375" height="133.395" rx="10" transform="translate(0)" fill="#fff" stroke="#707070" stroke-width="1"/>
    </clipPath>
  </defs>
  <g id="Mask_Group_3" data-name="Mask Group 3" clip-path="url(#clip-path)">
    <g id="no_sheep_img" transform="translate(85.788 -1.114)">
      <path id="Path_224" data-name="Path 224" d="M442.406,244.277c-3.912-5.143,19.2,28.929,29.921,32.662C479,279.262,460.7,242.918,460.7,242.918Z" transform="translate(-295.113 -163.959)" stroke="#fff" stroke-miterlimit="10" stroke-width="1.193"/>
      <path id="Path_225" data-name="Path 225" d="M426.411,267.436c-1.259-5.416,4.683,28.933,12.649,37.2,4.963,5.152,3.88-34.009,3.88-34.009Z" transform="translate(-288.597 -173.88)" stroke="#fff" stroke-miterlimit="10" stroke-width="1.193"/>
      <path id="Path_226" data-name="Path 226" d="M264.636,263.2c1.3-6.625-4.6,36.111-13.247,44.2-5.388,5.036-5.306-37.88-5.306-37.88Z" transform="translate(-213.941 -172.077)" stroke="#fff" stroke-miterlimit="10" stroke-width="1.193"/>
      <path id="Path_227" data-name="Path 227" d="M219.271,244.908c3.5-5.08-17.234,28.665-26.752,32.064-5.933,2.118,10.546-34.1,10.546-34.1Z" transform="translate(-191.211 -163.941)" stroke="#fff" stroke-miterlimit="10" stroke-width="1.193"/>
      <path id="Path_228" data-name="Path 228" d="M426.334,144.058s63.986,12.809,63.574,37.584c-.419,24.942-69.806,32.017-69.806,32.017" transform="translate(-286.053 -122.992)" stroke="#fff" stroke-miterlimit="10" stroke-width="1.198"/>
      <path id="Path_229" data-name="Path 229" d="M211.077,121.39c7.579-4.434,18.295-.973,24.356-5.665,11.393-8.812,30.188-10.172,47.35-3.185,8.96,3.645,13.332-6.87,29.537-1.888,5.92,1.822,15.148-1.744,22.764,2.008,7.418,3.654,11.793,7.516,14.509,11.33,5.215,7.308,4.318,14.418,7.113,19.478,2.559,4.63,1.36,10.59,1.319,16.879-.025,3.928,1.923,7.906.828,12-1.766,6.609-7.141,14.606-9.3,23.349a22.282,22.282,0,0,1-9.9,13.634,25.952,25.952,0,0,1-14.307,3.849c-7.147-.132-12.082.494-16.142,1.618-5.143,1.423-10.943,5.01-16.68,5.02-11.273.019-7.138-2-15.028-2.518-9.788-.648-13.03,4.192-18.326,1.794-7.925-3.591-16.731-1.945-24.611-1.954-12.233-.016-11.286-6.974-19.916-9.756-7.22-2.316-7-8.1-10.027-10.2-6.672-4.648-3.846-13.5-8.148-17.986-5.542-5.785-4.941-9.489-5.215-12.724-.7-8.28,5.807-7.868,3.037-20.432C193.2,141.057,193.059,131.937,211.077,121.39Z" transform="translate(-191.197 -108.086)" stroke="#fff" stroke-miterlimit="10" stroke-width="1.193"/>
      <path id="Path_230" data-name="Path 230" d="M404.385,178.288c.976-1.259,5.769-6.87,12.831-6.609a8.8,8.8,0,0,1,5.394,2.376,6.637,6.637,0,0,1-.29,9.372c-4.091,3.777-11.714,3.591-16.765-.025a14.277,14.277,0,0,1-5.5-15.091c1.888-6.694,8.812-9.014,11.374-9.873,9.961-3.342,16.413.9,16.413.9s1.13-7.3,2.763-13.848c-10.181-3.947-18.861-.944-23.585.8a28.6,28.6,0,0,0-14.04,10.443,25.017,25.017,0,0,0-4.626,17.215c.148,1.231,1.888,14,13.291,19.327a23.657,23.657,0,0,0,15.931,1.259c2.3-.6,9.187-2.386,12.718-8.784.648-1.174,4.438-8.4.551-13.983-2.748-3.94-7.774-5.379-9.782-5.709a16.584,16.584,0,0,0-9.659,1.8C405.528,170.952,404.511,177.4,404.385,178.288Z" transform="translate(-272.828 -122.779)" stroke="#fff" stroke-miterlimit="10" stroke-width="1.193"/>
      <path id="Path_231" data-name="Path 231" d="M388.325,189.234c.16.359,1.19,2.017,4.809,2.99a10.381,10.381,0,0,0,6.562-.85" transform="translate(-272.885 -141.713)" stroke="#fff" stroke-miterlimit="10" stroke-width="1.193"/>
      <path id="Path_232" data-name="Path 232" d="M388.658,183.9c.161.362,1.08,2.631,4.7,3.607a10.637,10.637,0,0,0,6.477-.629" transform="translate(-273.023 -139.504)" stroke="#fff" stroke-miterlimit="10" stroke-width="1.193"/>
      <path id="Path_233" data-name="Path 233" d="M442.137,214.477a5.819,5.819,0,0,1,2.722,3.462c.919,2.678.629,3.761.428,4.091" transform="translate(-295.184 -152.173)" stroke="#fff" stroke-miterlimit="10" stroke-width="1.193"/>
      <path id="Path_234" data-name="Path 234" d="M414.5,213.01a7.552,7.552,0,0,1-2.433,5.545c-2.659,2.382-4.947,2.118-5.473,2.065" transform="translate(-280.457 -151.565)" stroke="#fff" stroke-miterlimit="10" stroke-width="1.193"/>
      <path id="Path_235" data-name="Path 235" d="M411.255,210.817a6.6,6.6,0,0,1-2.074,5.442,7.336,7.336,0,0,1-6.109,1.781" transform="translate(-278.996 -150.657)" stroke="#fff" stroke-miterlimit="10" stroke-width="1.193"/>
      <path id="Path_236" data-name="Path 236" d="M438.951,215.745a5.687,5.687,0,0,1,2.924,3.427c.919,2.678,0,4.091-.223,4.431" transform="translate(-293.864 -152.699)" stroke="#fff" stroke-miterlimit="10" stroke-width="1.193"/>
      <path id="Path_237" data-name="Path 237" d="M448.087,195.4a6.455,6.455,0,0,1,4.573-1.52c2.889.142,4.057,1.338,4.324,1.655" transform="translate(-297.65 -143.633)" stroke="#fff" stroke-miterlimit="10" stroke-width="1.193"/>
      <path id="Path_238" data-name="Path 238" d="M449.457,198.059a5.046,5.046,0,0,1,4.123-1.548,5.555,5.555,0,0,1,4.337,2" transform="translate(-298.217 -144.725)" stroke="#fff" stroke-miterlimit="10" stroke-width="1.193"/>
      <path id="Path_239" data-name="Path 239" d="M452.033,139.111c-5.665.126-9.165,2.452-8.079,6.965.765,3.191,4.091,4.113,3.881,6.773-.2,2.436-3.069,2.615-3.21,4.925-.164,2.628,3.1,4.507,6.194,4.5,5.413-.016,7.365,1.212,7.05-3.4C456.483,138.774,453.251,139.082,452.033,139.111Z" transform="translate(-295.855 -120.941)"/>
      <text id="_" data-name="?" transform="translate(34.716 82.939) rotate(4.75)" fill="#fff" stroke="#000" stroke-miterlimit="10" stroke-width="2.488" font-size="103" font-family="Helvetica"><tspan x="0" y="0">?</tspan></text>
    </g>
  </g>
</svg>
