<svg id="圖層_1" data-name="圖層 1" xmlns="http://www.w3.org/2000/svg" viewBox="0 0 722.88 107.91"><defs><style>.cls-1{fill:#27a2af;}</style></defs><title>no_sheep</title><path class="cls-1" d="M175.48,378.34a24,24,0,0,1-1.39,3c-.82,1.49-1.88,3.22-3.22,5.24.1,1.44.14,3.45.19,6.05a122.26,122.26,0,0,1-1.49,19.2c-.38,2.49-.76,4.8-1.24,6.91-.2.86-.68,1.34-1.44,1.34s-1.3-.52-1.3-1.58A71,71,0,0,1,167,407.72a65.2,65.2,0,0,0,.91-11v-5.85c-.76,1.1-1.53,2.25-2.3,3.4-1,1.4-2,3-3.17,4.95a1.88,1.88,0,0,1-1.29.77,1.08,1.08,0,0,1-1.25-1.11,2.08,2.08,0,0,1,.43-1.25q.8-1.44,2.16-3.6c1.06-1.92,2.45-4.32,4.13-7.24,1.34-2.31,2.78-4.81,4.32-7.45l1.39-2.78a7.23,7.23,0,0,0,.62-1.39,6,6,0,0,1,1.88-.24,1.48,1.48,0,0,1,1.24,1.49A3.85,3.85,0,0,1,175.48,378.34Zm.67,36.53a.84.84,0,0,1-1-1,3.58,3.58,0,0,1,.29-.91c.33-1.44.67-3,1-4.56a36.23,36.23,0,0,0,.76-5.57,14.89,14.89,0,0,0-.09-1.49,10,10,0,0,1-.29-1.68c0-.82.48-1.25,1.54-1.34H179a1.62,1.62,0,0,1,1.3,1,11.86,11.86,0,0,1,.29,3,28.36,28.36,0,0,1-.92,6.72,39.79,39.79,0,0,1-1.53,4.85A2.33,2.33,0,0,1,176.15,414.87Zm3.94-.53a1.31,1.31,0,0,1,1-.57,1.57,1.57,0,0,1,1,.48,13.79,13.79,0,0,0,2.07,3.74c.67.77,1.24,1.2,1.82,1.2,1.2,0,1.82-4.66,1.82-14V403c0-2.88-.14-5-.28-6.53s-.24-3.07-.39-4.46a8.68,8.68,0,0,1-.14-1.39,1.69,1.69,0,0,1,.33-1,1.78,1.78,0,0,1,1.11-.62,1.89,1.89,0,0,1,2,1.39,1.41,1.41,0,0,0,.09.48,2,2,0,0,0,.34-.29,20.6,20.6,0,0,0,6.05-8.31,61.86,61.86,0,0,1-9.7,5.57,12,12,0,0,1-4.18,1.16c-2.35,0-3.5-1.3-3.5-3.94a17.41,17.41,0,0,1,1.34-5.38,23,23,0,0,1,2.16-4.85,1.5,1.5,0,0,1,1.35-1c.19,0,.38,0,.57,0a2.78,2.78,0,0,1,1,.63,2.65,2.65,0,0,1,.19,1.05,38.17,38.17,0,0,1-1.53,4.71,22.19,22.19,0,0,0-1.59,4.94c.05.29.29.39.67.39.77,0,2.5-.77,5.24-2.31,1.53-.77,3.26-1.82,5.28-3.07a11.37,11.37,0,0,1,3.55-1.34h.86a1.82,1.82,0,0,1,1.59,2,8,8,0,0,1-.53,2.65,16.28,16.28,0,0,1-2.21,4.36,20.33,20.33,0,0,1-5.42,5.09,8,8,0,0,1-1.15.63c.09.86.14,1.82.24,2.88,0,1.63.09,3.16.14,4.7v2.93c0,4.66-.1,7.87-.19,9.65a19,19,0,0,1-2.07,7.29,3.43,3.43,0,0,1-2.68,1.68c-1.54,0-3.12-1.1-4.76-3.31a11.61,11.61,0,0,1-1.63-2.83,1.64,1.64,0,0,1-.38-1A1.74,1.74,0,0,1,180.09,414.34Zm22.75-.62a1.18,1.18,0,0,1-.86.29,1.89,1.89,0,0,1-.87-.2,9.51,9.51,0,0,1-1.2-1.82,46.41,46.41,0,0,1-4.32-11,3,3,0,0,1-.09-.92,1.81,1.81,0,0,1,.33-.91,2.41,2.41,0,0,1,.82-.62,3.2,3.2,0,0,1,.77-.1,1.81,1.81,0,0,1,1.24.91c.77,2.31,1.59,4.71,2.45,7.16,1.06,2.88,1.73,4.89,2.07,6.05V413A1.39,1.39,0,0,1,202.84,413.72Z" transform="translate(-159.88 -372.77)"/><path class="cls-1" d="M240.86,395.38a70.41,70.41,0,0,1-7.44,2,99.53,99.53,0,0,1-10.09,1.68,2.15,2.15,0,0,1-.76.28,1.11,1.11,0,0,1-1-.62c-.1-.1-.2-.19-.2-.29a3.5,3.5,0,0,1-1.58-1.77,22.14,22.14,0,0,1-2.69-6.05,15.62,15.62,0,0,1-1-4.95c0-1.82.63-2.73,1.87-2.78,1.4,0,2.12.62,2.12,1.82.14,1.63.38,3.32.67,4.95a20.36,20.36,0,0,0,2.21,5.85.33.33,0,0,0,.09.24c1.63-.19,3-.43,4.27-.67.44,0,.92-.09,1.4-.19a1.08,1.08,0,0,1,.24-.62,15.12,15.12,0,0,0,1-4.71c0-.91.05-1.87.05-2.83a19.65,19.65,0,0,0-.19-2.26c-2.21.48-4.51,1.06-6.91,1.83-1.16,0-1.68-.58-1.68-1.73a1.75,1.75,0,0,1,.91-1.49,32.35,32.35,0,0,1,3.74-1.3l-.05-.09a20.84,20.84,0,0,1-2.83-5.09,1.27,1.27,0,0,1,0-.43,1.79,1.79,0,0,1,.44-1.06,2.3,2.3,0,0,1,1-.77,2.9,2.9,0,0,1,.91-.14,2.15,2.15,0,0,1,1.54,1.1c.33,1.06.71,2.12,1.1,3.22.43,1.25.72,2.11.86,2.59h0c.86-.14,1.78-.29,2.69-.38a18,18,0,0,0,1.58-1.83,12.05,12.05,0,0,0,2.26-5,2.68,2.68,0,0,1,2-.72c1,.05,1.53.68,1.63,1.92-.1,1.44-1,3.12-2.64,5-.14.1-.24.2-.29.24.63,0,1.25,0,1.83,0a15.78,15.78,0,0,1,5.52.81,6,6,0,0,1,2.68,1.83,3.35,3.35,0,0,1,.68,2.06,9,9,0,0,1-1.16,3.75,19.72,19.72,0,0,1-4.08,5.8.54.54,0,0,1-.38.2A2.94,2.94,0,0,1,240.86,395.38Zm-13.06-2.3a1.13,1.13,0,0,1-.82.28,1.39,1.39,0,0,1-.86-.19,2.34,2.34,0,0,1-.82-.48,10.28,10.28,0,0,1-3-2.69c-.05,0-.05-.09-.05-.19a2.17,2.17,0,0,1,.38-1.1,2.06,2.06,0,0,1,1.06-.72,2.18,2.18,0,0,1,.82-.15A2.13,2.13,0,0,1,226,389c.39.57.77,1.1,1.15,1.58.48.72.77,1.2,1,1.44v.39A1.26,1.26,0,0,1,227.8,393.08Zm-.67,27.6,0,.09a2.21,2.21,0,0,1-1.87,1.68c-1.2-.09-1.83-1.1-1.88-3a54.51,54.51,0,0,0,1-10.32c0-1.78-.09-3.84-.24-6.15a2.4,2.4,0,0,1,1.73-2.16h.67a2,2,0,0,1,.92.53,27,27,0,0,1,7.2-1.68,5.7,5.7,0,0,1,3.31.91c1.15.77,1.87,2.55,2.11,5.28l.63,12.34.24,2.07c0,1.2-1,1.82-2.88,1.92a9.07,9.07,0,0,1-3.51-.87C232.17,421.06,229.72,420.87,227.13,420.68Zm.43-3.6a36.6,36.6,0,0,1,8.78,1.1,1.15,1.15,0,0,1,.34-.09c0-2.79-.05-5.19-.1-7.4-2.06.77-3.93,1.4-5.66,1.88a14.63,14.63,0,0,1-3.22.76C227.65,414.77,227.61,416,227.56,417.08Zm8.74-11.33c-.2-1.78-1-2.69-2.45-2.69a13,13,0,0,0-3.41.82c-.87.33-1.68.67-2.5,1.05-.09,1.88-.14,3.65-.19,5.28a3.07,3.07,0,0,0,.62-.19,82.54,82.54,0,0,1,8.07-2.21A16.41,16.41,0,0,1,236.3,405.75Zm-2.69-21.7a15.85,15.85,0,0,1,.24,2.79c0,1-.15,1.87-.24,2.64.48-.29.91-.63,1.39-1a5.35,5.35,0,0,0,1.82-2.45,2.31,2.31,0,0,1,1.68-.63c.82.05,1.25.58,1.35,1.59a5.54,5.54,0,0,1-1.83,2.88,10.06,10.06,0,0,1-3.07,1.92,4.17,4.17,0,0,1-1.77.48H233c-.24.77-.48,1.44-.67,2,1.54-.29,3-.53,4.32-.82.87-.24,1.59-.43,2.07-.53a.68.68,0,0,1,.28-.43,21.28,21.28,0,0,0,2.93-4.37,6.93,6.93,0,0,0,.87-2.3c0-1.54-1.54-2.31-4.56-2.31a38.44,38.44,0,0,0-4.66.34C233.56,384,233.61,384,233.61,384.05Z" transform="translate(-159.88 -372.77)"/><path class="cls-1" d="M260.92,407.81a1.92,1.92,0,0,1,1.34.63c.29.43.72,1.1,1.3,2,.91,1.54,1.92,3.17,3,5.09a2.42,2.42,0,0,1,.39,1.25,1.39,1.39,0,0,1-1,1.15,2.25,2.25,0,0,1-1.25-.38c-.86-.67-2.35-2.74-4.42-6.1a7.27,7.27,0,0,1-.67-1.34,1.74,1.74,0,0,1-.29-.91C259.38,408.48,259.91,408,260.92,407.81Zm4-18.53c2.69-2.06,4.8-3.12,6.43-3.12.39.1.63.48.72,1.06,0,2.26-2.11,6.1-6.29,11.52,1.73-.86,3.75-1.92,6.15-3.26a4.85,4.85,0,0,1,1.73-.72,1.35,1.35,0,0,1,1.53,1.39,7.64,7.64,0,0,1-1.49,4.17,8.92,8.92,0,0,1-2.16,2.55,1.61,1.61,0,0,1-1.1.38c-.43,0-.67-.24-.67-.72a1.48,1.48,0,0,1,.33-.86c.72-1.49,1.3-2.79,1.68-3.84-4.22,3.65-7.29,5.57-9.26,5.76-.86,0-1.3-.48-1.3-1.3a4,4,0,0,1,.77-2q2.75-4.89,6.48-10.94c-2.49,2.5-4.94,3.94-7.25,4.32-.77-.1-1.2-.67-1.2-1.73,3.31-5.37,5.28-9.94,5.86-13.73A2.13,2.13,0,0,1,268,377a1.44,1.44,0,0,1,1.2,1.4C268.89,381,267.45,384.67,265,389.28Zm.91,16.32a1.93,1.93,0,0,1,1.39.58c.2.34.48.86,1,1.63.68,1.3,1.44,2.69,2.26,4.18a2.09,2.09,0,0,1,.29,1.06,1.14,1.14,0,0,1-.82,1,2,2,0,0,1-1.1-.33c-.72-.48-1.92-2.11-3.6-4.8a3.52,3.52,0,0,1-.53-1,1.51,1.51,0,0,1-.24-.87C264.52,406.32,265,405.84,265.86,405.6Zm10,5.14c-.14.29-.28.43-.43.48a1.26,1.26,0,0,1-.77.19,4.63,4.63,0,0,1-2.54-1.58,9.57,9.57,0,0,1-2.3-2.79,1.62,1.62,0,0,1-.34-1.05,1.19,1.19,0,0,1,.38-.82,1.58,1.58,0,0,1,.77-.53c.1,0,.29,0,.53,0a1.15,1.15,0,0,1,.72.28,6.73,6.73,0,0,0,.86,1,10.19,10.19,0,0,0,3,3.46.76.76,0,0,1,.43.77A1.42,1.42,0,0,1,275.89,410.74Zm14.55,1.73a11,11,0,0,1-.77,2.06c.87-.09,1.73-.19,2.5-.19,2.69-.19,5.28-.33,7.87-.53.48-.09,1-.14,1.58-.19.82,0,1.35.29,1.54.91a3.19,3.19,0,0,1-1.68,2.93c-.38.05-2.16.15-5.33.24-1.82,0-3.89.05-6.09.19a38.38,38.38,0,0,0-6.73,1.16q-1.44.29-5.47,1.44a5.45,5.45,0,0,1-1.25.19,1.8,1.8,0,0,1-.52-3.51,43.64,43.64,0,0,1,9.36-2.2,4.93,4.93,0,0,1,.86-.1,1.26,1.26,0,0,1,.19-.48c.29-.82.58-1.63.82-2.5a9.8,9.8,0,0,0,.24-2,12.79,12.79,0,0,0-.53-4,1.21,1.21,0,0,1-.14-.43c-.67.05-1.3.09-1.92.09h-3.41c-1.73,0-2.59-.67-2.59-2s.76-1.92,2.3-2.16c.05.38.43.62,1.2.62h2.93a25.69,25.69,0,0,0,10.9-2.93,4.35,4.35,0,0,1,.86-.24,1.59,1.59,0,0,1,1.06,1.73,1.79,1.79,0,0,1-1,1.49,16.84,16.84,0,0,1-5.67,2.69,8.8,8.8,0,0,1-1,.19,18.47,18.47,0,0,1,.43,4.18A13.35,13.35,0,0,1,290.44,412.47Zm-9.89-15.7a28.87,28.87,0,0,0-4.27-3.21,1.25,1.25,0,0,1-.63-1.11,4.12,4.12,0,0,1,.72-2.06l1.3-2.11a47.23,47.23,0,0,0,2.16-5,1.29,1.29,0,0,1,1.2-.72,4.87,4.87,0,0,1,.72.1,1.85,1.85,0,0,1,.67.53,1,1,0,0,1,.29.72c0,1.49-1.06,4.18-3.07,8,.67.48,1.44,1,2.3,1.58a15.76,15.76,0,0,1,2.59,2.35,3.63,3.63,0,0,1,.39,1.44,1.79,1.79,0,0,1-.29,1,1.42,1.42,0,0,1-1.15.72,1.46,1.46,0,0,1-1.25-.67C281.8,397.88,281.22,397.35,280.55,396.77Zm8.88-17.42a41.63,41.63,0,0,1-6.1,1.58,12.68,12.68,0,0,1-2.59.29H280a1.45,1.45,0,0,1-1.39-1.63v-.82a2.74,2.74,0,0,1,1.59-1.63,4.76,4.76,0,0,0,1.2.09,20.36,20.36,0,0,0,5.32-.76,45.77,45.77,0,0,0,6.68-2l.91-.34a3.57,3.57,0,0,1,1.25.29c.53.39.81.67.81,1a2.47,2.47,0,0,1-.33,1,4.25,4.25,0,0,1-1.25,1A48.65,48.65,0,0,1,289.43,379.35Zm0,2.54a2.65,2.65,0,0,1,.77.72c0,.14.05.34.05.58a12.48,12.48,0,0,1-1.73,5,.93.93,0,0,0-.24.58,2.44,2.44,0,0,0,.48,1.2,11.89,11.89,0,0,0,3.07,2.83,1,1,0,0,1,.34.77,2.26,2.26,0,0,1-.39.86,1.58,1.58,0,0,1-.72.53,1.49,1.49,0,0,1-.67.09,2.65,2.65,0,0,1-1.05-.28,7.19,7.19,0,0,1-2.65-2.21A9.64,9.64,0,0,1,285,389a5,5,0,0,1-.15-1.24,1.88,1.88,0,0,1,.29-.82,11.55,11.55,0,0,1,.72-1.15,20.07,20.07,0,0,1,1-2.07,7.16,7.16,0,0,1,.77-1.53,1.37,1.37,0,0,1,1.1-.44A3.57,3.57,0,0,1,289.43,381.89Zm9.89,10.9a3.13,3.13,0,0,1-.91.09,3.3,3.3,0,0,1-1.15-.28,9.5,9.5,0,0,1-3.32-2.21,3.27,3.27,0,0,1-.76-2.26,2.59,2.59,0,0,1,.38-1.34l1.44-2.16c.34-.53.72-1.2,1.2-2a1.27,1.27,0,0,1,1.3-.67,4.34,4.34,0,0,1,.76.09,1.62,1.62,0,0,1,.87,1.2,9.52,9.52,0,0,1-1.54,3.89,5.4,5.4,0,0,1-.57,1,9.62,9.62,0,0,0,2.92,2.31,1.14,1.14,0,0,1,.39.91A1.55,1.55,0,0,1,299.32,392.79Z" transform="translate(-159.88 -372.77)"/><path class="cls-1" d="M309.35,400.71a.9.9,0,0,1-.67-.39,1.7,1.7,0,0,1-.53-1.29,3,3,0,0,1,.38-1.25,33.24,33.24,0,0,0,.34-4.56,31,31,0,0,0-.53-4.7.92.92,0,0,1,.34-.68,2.73,2.73,0,0,1,1.77-.48,1,1,0,0,1,.87.63,12.23,12.23,0,0,1,.57,2.69c.39-.1.77-.24,1.2-.34-.09-1.54-.28-3.26-.57-5.28-.63-3.27-1.15-5.95-1.54-8.07a1.57,1.57,0,0,1,.48-.91,1.14,1.14,0,0,1,1-.57,4.12,4.12,0,0,1,.82.09,1.82,1.82,0,0,1,1,.91.74.74,0,0,0,.09.39c.39-.15.72-.34,1.11-.53a16.1,16.1,0,0,1,5.61-1,8.48,8.48,0,0,1,3.94.72,3.6,3.6,0,0,1,2,3.46,11.13,11.13,0,0,1-1.35,4.6,9.34,9.34,0,0,1-1.63,2.12,1.87,1.87,0,0,1-1,.38,1.19,1.19,0,0,1-1-.53,1,1,0,0,1-.33-.86c0-.19.19-.48.67-.91a21,21,0,0,0,1.3-2.4c-1.06.33-2.26.72-3.7,1.15a4.88,4.88,0,0,1,.19.91c0,.48,0,1,0,1.44,0,1.35,0,2.35-.1,3,.77-.15,1.49-.29,2.21-.48,1.3-.29,2.74-.58,4.37-1,.48-.1.77-.2.91-.2a1.42,1.42,0,0,1,1.59,1.4,3.12,3.12,0,0,1-.34,1.15,10.19,10.19,0,0,1-2.54,3.26,2.55,2.55,0,0,1-.92.58,1.85,1.85,0,0,1-.67.09c-.67,0-1-.33-1.05-.81a.83.83,0,0,1,.28-.58c.1-.14.24-.33.44-.57a5.6,5.6,0,0,0,.81-1.35c-.86.19-1.92.39-3.17.67-.28.1-1.63.48-4,1.11-1.53.43-3.26.91-5.09,1.39a4.43,4.43,0,0,0-.86.29h-.1a32.13,32.13,0,0,1-.43,3.26,20.19,20.19,0,0,1-1,3.27A1.22,1.22,0,0,1,309.35,400.71ZM320.77,395a7,7,0,0,1,1.06-.15,1.67,1.67,0,0,1,1.3.72,7.19,7.19,0,0,1,1,3.17c.29,2,.53,4.46.72,7.34.29,5.57.63,10.66,1.06,15.32,0,.91-.53,1.39-1.49,1.39a5.08,5.08,0,0,1-1.68-.34,5.52,5.52,0,0,1-3.41-3,8.48,8.48,0,0,1-.14-1.54,3.59,3.59,0,0,1,1.1-.14,6.84,6.84,0,0,1,1.92.29c0-1.54-.14-3.56-.24-6,0-.53,0-1.06,0-1.59-.48.48-.92.92-1.35,1.3a21.45,21.45,0,0,1-4.61,3.17c-.19,1.58-.33,2.93-.38,4a5.47,5.47,0,0,1-.43,1.92,1.74,1.74,0,0,1-1.35.77,1.2,1.2,0,0,1-1.15-1.1,9.81,9.81,0,0,1-.05-1.4c0-.91.34-4.08,1.06-9.45q.93-7.27,1-10.95v-2a1.5,1.5,0,0,1,1.2-1.68h1.05a1.27,1.27,0,0,1,1.11,1.05A22.09,22.09,0,0,1,320.77,395Zm.48-17.09a7.82,7.82,0,0,0-2.2.38,9.2,9.2,0,0,0-2.64.72c-.77.29-1.35.48-1.73.58.09,1,.19,2,.29,3.21.28,3.27.48,5.52.57,6.87.72-.19,1.44-.43,2.21-.63a2.2,2.2,0,0,0,.29,0,16.67,16.67,0,0,1-.19-2.5c-.05-.53-.1-1.1-.15-1.73a3.7,3.7,0,0,0-.19-.81c-.05-.1-.1-.15-.1-.2h-.19c-.19,0-.38-.14-.53-.43a1.35,1.35,0,0,1-.19-.67,1.19,1.19,0,0,1,.48-1,45.66,45.66,0,0,1,6.24-1.87c.39-.1.67-.15,1-.2C324,378.48,323,377.91,321.25,377.91Zm.44,27.41c-1.16.52-2.16,1-3.08,1.34a11.58,11.58,0,0,1-1.77.63c-.19,1.58-.39,3.16-.58,4.7.48-.24.91-.48,1.3-.72a30.13,30.13,0,0,0,4.27-3.07C321.78,407.29,321.73,406.32,321.69,405.32Zm-.15-2.31c-.29-3.12-.57-4.7-1-4.7a13.08,13.08,0,0,0-2.73,1.39l-.39,3c-.09.68-.19,1.35-.24,2C319.14,403.92,320.58,403.35,321.54,403Zm26-13.53a27.37,27.37,0,0,1-5.23,2A52,52,0,0,1,334,393.6a2.5,2.5,0,0,1-.81.2.8.8,0,0,1-.68-.44,1.17,1.17,0,0,1-.23-.86v-.05a.92.92,0,0,1-.15-.53,33.64,33.64,0,0,0-.77-4.75c-.67-2.69-1.29-5-1.82-6.82a2,2,0,0,1,.53-1,1.54,1.54,0,0,1,1.15-.63,5.77,5.77,0,0,1,1,.1,1.2,1.2,0,0,0,.29.19,20.41,20.41,0,0,1,3.65-1.44,9.29,9.29,0,0,1-.2-1.06,3.94,3.94,0,0,1-.19-1,1.11,1.11,0,0,1,.53-1,1.66,1.66,0,0,1,.91-.24,1.15,1.15,0,0,1,1.06.91c.09.57.19,1.15.29,1.73,1.34-.2,2.54-.34,3.6-.44a5.39,5.39,0,0,0-.2-.76,1.78,1.78,0,0,1-.24-.92c0-.57.34-.91,1.11-1a1.27,1.27,0,0,1,1.2.52,7.06,7.06,0,0,1,.81,2.16c.92.1,1.68.15,2.36.2a7.16,7.16,0,0,1,3.79,1.48,3.21,3.21,0,0,1,1,2.16,12.59,12.59,0,0,1-.82,3.8,22.05,22.05,0,0,1-1.68,3.65,10.75,10.75,0,0,1-.91,1.29,1.67,1.67,0,0,1-1,.39Zm-7.3,10.46a24.36,24.36,0,0,1,6.44-.86,2.59,2.59,0,0,1,1.29.33,1.4,1.4,0,0,1,.63,1.15A6.59,6.59,0,0,1,347,404.5a13.4,13.4,0,0,1-1,1.15,2.69,2.69,0,0,1-.33.63,3.2,3.2,0,0,1-.91.53c.28.23.52.48.72.67a8.67,8.67,0,0,1,1.05,4,8.16,8.16,0,0,1-2.21,5.33c1.83-.1,3.56-.24,5.28-.34a5.19,5.19,0,0,1,1.2-.14,1.35,1.35,0,0,1,1.45.86,2.92,2.92,0,0,1-1.54,2.74c-.29,0-1.68.1-4.08.19-1.35,0-2.88,0-4.56.1a35.55,35.55,0,0,0-5,.67c-.72.1-2.11.34-4.13.82a5.19,5.19,0,0,1-1.2.14,1.69,1.69,0,0,1-1.54-1.39,1.74,1.74,0,0,1,1.16-1.68,23.05,23.05,0,0,1,4.32-1.06l.14-4.17a6.64,6.64,0,0,0-1.1-3.08,1.23,1.23,0,0,1-.44-1,25.25,25.25,0,0,0-.43-3.27c-.48-1.82-.81-3.36-1.1-4.61a1.63,1.63,0,0,1,.48-.91,1.13,1.13,0,0,1,1-.58,4.15,4.15,0,0,1,.86.1,1.71,1.71,0,0,1,1,1c0,.1,0,.14,0,.14C337.43,400.8,338.82,400.37,340.26,399.94ZM333,397a1.11,1.11,0,0,1,1.1-1.24c1.34,0,5.42-1,12.19-3,.72,0,1.15.19,1.25.53s-.05.43-.05.58a1.6,1.6,0,0,1-.62.76,16.6,16.6,0,0,1-4.08,1.92,39.61,39.61,0,0,1-8.64,2C333.4,398.5,333,398,333,397Zm1-11.76c0,.1,0,.2.05.24a28.31,28.31,0,0,1,3-1,37.61,37.61,0,0,0-.53-4.52,16.65,16.65,0,0,0-3.07,1.2C333.64,382.18,333.83,383.57,334,385.2Zm.53,6.05c1-.19,1.83-.43,2.5-.62v-.15a15.71,15.71,0,0,1,.09-1.82v-2c-1.39.39-2.35.67-2.83.77C334.46,389.28,334.55,390.58,334.55,391.25ZM338.34,407c1.83-.57,3.46-1.1,5-1.68a2.28,2.28,0,0,0,.62-.24,32.7,32.7,0,0,0,1.39-3.64,46.13,46.13,0,0,0-8.83,2,4.48,4.48,0,0,0,.15,1.15c.14,1.16.28,2.07.38,2.74C337.48,407.29,338,407.14,338.34,407Zm4.28,7.78a5.13,5.13,0,0,0,1-3.21,5.89,5.89,0,0,0-.72-2.79,1.53,1.53,0,0,1-.48-.86,2.42,2.42,0,0,1-.72.29,26.21,26.21,0,0,1-3.75,1.29,8.22,8.22,0,0,1,.77,3.65,28.07,28.07,0,0,1-.34,4.08h.1a13.67,13.67,0,0,1,2-.19A17.52,17.52,0,0,0,342.62,414.82ZM339,380.5c0,1.39.09,2.49.14,3.36,1-.29,2-.53,3.07-.77a8.18,8.18,0,0,1,.1-1.1c.05-1.06.1-2.12.1-3.27a21.6,21.6,0,0,0-3.51.58A9.87,9.87,0,0,0,339,380.5Zm.09,7.3c-.09,1.05-.14,1.82-.19,2.4l2.69-.82a4,4,0,0,1,.05-.72c.05-.67.14-1.54.24-2.59,0-.29.09-.58.14-.82l-2.88.87C339.11,386.74,339.06,387.32,339.06,387.8Zm5.62-5.29a10.86,10.86,0,0,1,2.5-.38,1.16,1.16,0,0,1,.57.34,1.21,1.21,0,0,1,.15.48c0,.28-.2.48-.48.67l-3.17,1A31.35,31.35,0,0,1,342.9,389c.58-.2,1.16-.39,1.78-.58,1.06-.29,1.87-.53,2.45-.62a18.58,18.58,0,0,0,.86-2.55,27.23,27.23,0,0,0,.82-4.51c0-1.15-1.3-1.83-3.79-2A31.58,31.58,0,0,1,344.68,382.51Z" transform="translate(-159.88 -372.77)"/><path class="cls-1" d="M382.46,383.33c-2.5.72-5,1.39-7.69,2a5,5,0,0,1-1.15.19h-.33a1.67,1.67,0,0,1-1.06-1.63.8.8,0,0,1,0-.29,82.85,82.85,0,0,1-8.31,5.86c-1.39.81-2.59,1.53-3.64,2.11a2.17,2.17,0,0,1-1.4.67,1.08,1.08,0,0,1-1.2-1.15,2.19,2.19,0,0,1,.72-1.54,91.74,91.74,0,0,0,16.47-12.77c.91-.91,1.73-1.73,2.4-2.49.43-1,1-1.54,1.53-1.54a2.27,2.27,0,0,1,1.25.43,4.3,4.3,0,0,0,.34.43,1.66,1.66,0,0,0,.43.2c.39.19,1,.43,1.68.72l4.37,2.35a51.12,51.12,0,0,0,9.07,3.84,46.87,46.87,0,0,0,5.81,1.53,1.54,1.54,0,0,1,.63,1.3,1.46,1.46,0,0,1-1.4,1.3h-.81a23.8,23.8,0,0,1-7.11-1.64,62.41,62.41,0,0,1-7.87-3.5l-4.75-2.35a5.42,5.42,0,0,1-.68-.43,45.91,45.91,0,0,1-3.35,3.16c-1,.92-2,1.78-3,2.64.14,0,.29,0,.48,0a88.7,88.7,0,0,0,9-2.16,6.63,6.63,0,0,1,1.82-.44,2,2,0,0,1,.72.2,1.54,1.54,0,0,1,.53.67,1.49,1.49,0,0,1-.58,1.15A14.5,14.5,0,0,1,382.46,383.33Zm9.5,1.92h.67a3,3,0,0,1,1.92.63,2.42,2.42,0,0,1,1,2.11,10.05,10.05,0,0,1-1.87,4.8,17.56,17.56,0,0,1-1.92,2.83,1.16,1.16,0,0,1,.43.67,1.75,1.75,0,0,1-.58,1.25,29.8,29.8,0,0,1-5.18,1.49c-4.32,1-8.79,1.77-13.39,2.54a2.32,2.32,0,0,1-.77.1,1.75,1.75,0,0,1-.91,1,1.6,1.6,0,0,1-.43,0,1.51,1.51,0,0,1-1.4-1.05,7.87,7.87,0,0,1-1.05-1.92,20.73,20.73,0,0,1-1.54-7.54c-.1-1.15-.1-2.21-.1-3.26.15-.67.68-1.11,1.64-1.3h.38a1.42,1.42,0,0,1,1.34,1.59v0Q386.06,385.76,392,385.25Zm-12.82,8.26c0-1.06-.14-2.11-.24-3.12-2.59.57-5.47,1.2-8.64,1.87a15.85,15.85,0,0,0,.1,1.63,15.14,15.14,0,0,0,1.15,5.19c.24,0,.43-.05.58-.05,2.44-.39,4.75-.77,7-1.25C379.1,396.58,379.14,395.14,379.14,393.51Zm-4.41,29.18a1.86,1.86,0,0,1-1.06.48c-1.1-.09-1.68-1-1.73-2.73a43.92,43.92,0,0,0,.87-8.74c0-1.92-.1-4.08-.24-6.48a2.16,2.16,0,0,1,1.58-2h.62a1.76,1.76,0,0,1,1.35,1.35,34.28,34.28,0,0,1,8.54-1.78,7.18,7.18,0,0,1,3.17.62c1.15.72,1.83,2.16,2.07,4.28l.57,11.71.24,2c0,.86-.86,1.34-2.54,1.39a9.84,9.84,0,0,1-4.23-1.15C381,422,377.9,422.31,374.73,422.69Zm-2.07-28.17a1.12,1.12,0,0,1,.15-.44,1.56,1.56,0,0,1,.57-.57.86.86,0,0,1,.48-.24,2.49,2.49,0,0,1,.72.19,18.32,18.32,0,0,1,2.16,1.49c.1.14.24.33.39.57a1.52,1.52,0,0,1,.19.58.48.48,0,0,1-.14.34l-.15.24a.42.42,0,0,1-.29.14,1.54,1.54,0,0,1-.81-.29,15.33,15.33,0,0,1-2.93-1.39A.82.82,0,0,1,372.66,394.52Zm3.07,24.86A60.19,60.19,0,0,0,387,418.13c0-2-.05-3.79-.1-5.42h-.05c-2.44.58-4.7,1-6.72,1.39s-3.36.48-4.17.53C375.88,416.6,375.83,418.18,375.73,419.38Zm10.9-11.81c-.24-1.15-1.1-1.77-2.64-1.77a18.59,18.59,0,0,0-4.08.81c-1.29.43-2.54.87-3.74,1.35-.1,1.34-.15,2.64-.15,3.79a5.39,5.39,0,0,0,1.2-.14c4.85-.82,8-1.35,9.56-1.54C386.73,409.21,386.68,408.34,386.63,407.57Zm1.2-11.66c.39-.1.77-.15,1.06-.24a47.75,47.75,0,0,0,3.41-7.39,71.68,71.68,0,0,0-10.71,1.53c.1,1,.15,1.92.15,2.74,0,2-.1,3.6-.2,4.8.48-.1.92-.24,1.4-.34a12.76,12.76,0,0,0,2.25-4.08,7.45,7.45,0,0,0,.24-1.68v-.77a1,1,0,0,1,.87-.62c.76,0,1.15.43,1.2,1.3v.52a9.23,9.23,0,0,1-2.07,4.8A18.65,18.65,0,0,0,387.83,395.91Z" transform="translate(-159.88 -372.77)"/><path class="cls-1" d="M418.41,414.68a77.08,77.08,0,0,0,12.19,3.26,51.8,51.8,0,0,0,5.47.67c1.63.15,3.07.24,4.37.24,1.06,0,2.26,0,3.5-.14,1-.1,2.12-.24,3.32-.38a13.61,13.61,0,0,1,2-.2c.82,0,1.25.2,1.35.68a2,2,0,0,1-.34.91,2.47,2.47,0,0,1-.91.77A40.6,40.6,0,0,1,437.66,422c-6.92,0-14.84-1.68-23.77-4.94a32.2,32.2,0,0,1-4.22-1.92c-.82-.48-1.49-.91-2.07-1.3a1.87,1.87,0,0,1-.28-1.1,2.1,2.1,0,0,1,.72-1.54,1.45,1.45,0,0,1,1.1-.43,2.34,2.34,0,0,1,1,.29c.58.29,1.34.62,2.21,1a8.38,8.38,0,0,0,1.39-4.56,3.85,3.85,0,0,0-.91-2.07,3.07,3.07,0,0,1-.87-1.92,5.64,5.64,0,0,1,1.68-3.36,2.69,2.69,0,0,0,.63-1.15,5.64,5.64,0,0,0-.82-1.92,17.42,17.42,0,0,1-1.73-1.87c0-1,.68-1.49,1.88-1.49a2.45,2.45,0,0,1,1.29.67,4.7,4.7,0,0,1,2.55,4c0,1.2-.72,2.88-2.12,5a8,8,0,0,1-.24,9.89C416.2,413.77,417.3,414.25,418.41,414.68Zm.33-24.44a3,3,0,0,1-2-1,16.15,16.15,0,0,0-5.38-2.3,2.25,2.25,0,0,1-1-.34,3.59,3.59,0,0,1-.14-1.1,3.51,3.51,0,0,1,.05-.67c.19-.72.86-1.11,1.92-1.16a9.45,9.45,0,0,1,3.69.87,13,13,0,0,1,3.75,2.54,3.59,3.59,0,0,1,.33,1.4C419.85,389.67,419.46,390.24,418.74,390.24Zm6.63,6.68c-.05.48-.15,2.06-.29,4.75-.1,1.44-.1,2.73-.1,3.84s0,2.26.19,3.7a12.58,12.58,0,0,0,.58,2.64v.43a1.19,1.19,0,0,1-1.3,1.29c-.48,0-.91-.33-1.24-1.05-1.16-2-1.78-5.23-1.78-9.56,0-1.15.1-3,.38-5.71.05-.67.1-1.34.1-2.06a2.16,2.16,0,0,1,.53-1.35,2.7,2.7,0,0,1,1.1-.57h.39a1.82,1.82,0,0,1,1.53,1.58C425.41,395.72,425.37,396.44,425.37,396.92Zm9.45-5.67a12.73,12.73,0,0,1-.14-1.92c-.05-.67-.1-1.39-.1-2.06,0-.39-.09-.77-.14-1.06a4,4,0,0,1-.14-.53,2.73,2.73,0,0,1-.68.1h-.33a.93.93,0,0,1-.63-.48,1.27,1.27,0,0,1,.44-1.87,49.17,49.17,0,0,1,5.32-1.35,8.14,8.14,0,0,1,1.35-.14,1.31,1.31,0,0,1,.81.48,1.94,1.94,0,0,1,.34.81c0,.39-.29.68-.82.92-.81.24-1.87.52-3.12.86a.22.22,0,0,0,0,.15,7.85,7.85,0,0,1,.19,1.24c0,.58,0,1.2,0,1.78,0,1.15,0,2.06,0,2.69,2.4-.34,4.9-.63,7.44-.82,1,0,2-.05,2.88-.05,1.44.24,2.21,1.59,2.21,4,0,.77-.14,2.25-.33,4.41-.1,1.06-.15,2.36-.15,3.8,0,1.77,0,3.74.05,5.95.05,2.83.1,4.75.19,5.71s-.62,1.35-1.82,1.39a6,6,0,0,1-4.95-2.73,2.28,2.28,0,0,1-.24-1.06c.1-.24.24-.38.44-.38.76.14,1.77.33,3.07.62,0-.67.05-1.53.09-2.59,0-1.49,0-3.6.1-6.29,0-2.88.1-5.62.29-8.3,0-1-.19-1.44-.48-1.49A70.24,70.24,0,0,0,428,396.1c-.77-.1-1.2-.62-1.25-1.68,0-.62.38-1.15,1.25-1.54.1,0,.14,0,.24-.09a33,33,0,0,0-.77-5.76c-.72-3.36-1.34-6.15-1.82-8.36a2.18,2.18,0,0,1,.57-1.15,1.3,1.3,0,0,1,1.11-.57,4.87,4.87,0,0,1,1,.09,2.69,2.69,0,0,1,1,.87,24.47,24.47,0,0,1,4-1.54,26.63,26.63,0,0,1,6.19-.77,10.13,10.13,0,0,1,4.13.72,5.19,5.19,0,0,1,2,1.73,3.39,3.39,0,0,1,.53,1.87,8.92,8.92,0,0,1-.86,3.31,17.67,17.67,0,0,1-3,5,2.66,2.66,0,0,1-1.34.43c-.77,0-1.15-.39-1.15-1.2a1.31,1.31,0,0,1,.43-.91,25.33,25.33,0,0,0,1.73-3.85,6.86,6.86,0,0,0,.57-2.06q0-2.16-2.88-2.16a24.32,24.32,0,0,0-9.69,2.4c.09,1.06.24,2.26.43,3.65.48,3.7.77,6.14.77,7.39C432.28,391.78,433.48,391.54,434.82,391.25Zm7,14a18.58,18.58,0,0,1-3.65,2.25,21.26,21.26,0,0,1-4.37,1.78,1.42,1.42,0,0,1-1.43,1.11,1.21,1.21,0,0,1-1.35-1.3,31.09,31.09,0,0,0-.62-3.7c-.58-2.11-1.06-3.89-1.44-5.28a2.09,2.09,0,0,1,.57-1.1,1.25,1.25,0,0,1,1-.58,4.71,4.71,0,0,1,1,.1c.14.09.24.19.34.24.57-.15,1.15-.29,1.73-.39a22.66,22.66,0,0,1,3.64-.28,7,7,0,0,1,3.17.72,3.42,3.42,0,0,1,1.63,1.58,5.69,5.69,0,0,1,.34,1.87,4.73,4.73,0,0,1-.29,1.15q.07.15.15.15a2.82,2.82,0,0,1,.09.57A2.07,2.07,0,0,1,441.83,405.27Zm-5.18,0a7.21,7.21,0,0,0,2.06-2.26,3.68,3.68,0,0,0,.34-1.05c0-.63-.48-1-1.35-1a20.9,20.9,0,0,0-4.65.62c.09.62.19,1.3.33,2,.2,1.15.34,2.11.43,2.78.39-.14.77-.29,1.06-.43.58-.24,1.15-.48,1.73-.67Z" transform="translate(-159.88 -372.77)"/><path class="cls-1" d="M175.33,460.47c-.09,1.44-.57,2.11-1.48,2.11a7.43,7.43,0,0,1-5.48-2.16,1.35,1.35,0,0,1-.48-.67c0-1,.39-1.44,1.2-1.54,1.06.1,2.26.19,3.51.34,0-1.44,0-3,0-4.66,0-2.3-.05-4.61-.14-6.82-.24.39-.44.77-.63,1.16a24.57,24.57,0,0,1-2.83,4.51,28.42,28.42,0,0,1-3.07,3.5,1.28,1.28,0,0,1-.72.39,2.57,2.57,0,0,1-.72.14c-.48,0-.77-.29-.82-.86a1.62,1.62,0,0,1,.58-1.15,38.86,38.86,0,0,0,3.69-4.9,27.52,27.52,0,0,0,2.5-5c.43-1.11.82-2.21,1.15-3.31-1,.33-1.92.62-2.73.86a4.27,4.27,0,0,1-1.06.34,17,17,0,0,1-1.87.14c-.91,0-1.44-.67-1.59-2,0-.57.44-1.1,1.4-1.58.52-.19,1.2-.39,2.06-.67a34.81,34.81,0,0,0,3.79-.92,21.51,21.51,0,0,0-.57-2.44,3.15,3.15,0,0,1-.24-1.2,1.69,1.69,0,0,1,1.92-1.59,2.2,2.2,0,0,1,1.77,1.59c.19.57.39,1.2.53,1.77a4.17,4.17,0,0,0,.1.87c2.11-.63,3.79-1.2,5-1.68a1.06,1.06,0,0,1,1,.48.92.92,0,0,1,.09.43,2,2,0,0,1-.62,1.34c-.77.87-2.5,1.83-5.23,2.88,0,.91.09,1.87.19,2.88a46.54,46.54,0,0,1,5,8,8.19,8.19,0,0,1,1,2.93c0,.77-.34,1.15-1,1.15a1.48,1.48,0,0,1-1.06-.62c-.48-.68-1.15-1.73-2-3.12l-2-3.17Q175.48,457.44,175.33,460.47Zm-3.93,17a1.78,1.78,0,0,1-1,.39,1.4,1.4,0,0,1-1.11-.63,9.24,9.24,0,0,1-.62-.86,8.88,8.88,0,0,1-.67-3c-.1-.86-.15-1.58-.24-2.16-.19-1.15-.34-2.25-.48-3.31a12.42,12.42,0,0,1-.39-2.4c0-.86.53-1.35,1.59-1.44h.81c.48,0,.87.33,1.25,1,.1.48.15,1.24.24,2.3.19,1.82.39,3.41.58,4.75s.33,2.55.53,3.6C171.93,476.65,171.73,477.22,171.4,477.46ZM194.58,467a.66.66,0,0,1-.24.09,12.5,12.5,0,0,1,2.84,2.07,3.82,3.82,0,0,1,.91,2.16,5.25,5.25,0,0,1-2.45,4.46,11.71,11.71,0,0,1-5.52,1.44,12.67,12.67,0,0,1-6.67-2.16,14.87,14.87,0,0,1-4.9-5.66,2.27,2.27,0,0,1-.38-1.15,1.29,1.29,0,0,1,.33-1,1.9,1.9,0,0,1,1.44-.87,1.86,1.86,0,0,1,1.49.72c2.4,3.89,5.33,6,8.79,6.29,3,0,4.51-.91,4.65-2.73a2.76,2.76,0,0,0-1.2-2c-.48-.29-.91-.53-1.34-.77a1.17,1.17,0,0,1-.53.14,5.63,5.63,0,0,1-1.92.48c-.77,0-1.3-.53-1.54-1.58l0-.72a1.44,1.44,0,0,1,.86-1.35,15.89,15.89,0,0,0,2.45-.76,30.64,30.64,0,0,0,5.61-2.55l2.31-1.39a2.6,2.6,0,0,1,1-.24,1.17,1.17,0,0,1,1.1,1.2,2.06,2.06,0,0,1-.28,1.15C200.49,463.54,198.23,465.08,194.58,467ZM184.79,456c-.09-1-.09-2.25-.09-4,0-2.16,0-4.13.09-5.91s.1-3.64.24-5.76c0-1,.05-2.06.05-3.26-.05-.34-.1-.67-.19-1.06a3.45,3.45,0,0,1,0-.76c0-.29.19-.53.53-.82a2.16,2.16,0,0,1,1.39-.62,1.73,1.73,0,0,1,1.44.81,30.9,30.9,0,0,1,4.56-.43h.77a2.75,2.75,0,0,1,2,1.34,16.25,16.25,0,0,1,.81,3.36c.1,1.16.19,2.55.29,4.28.19,3.36.34,7.2.53,11.47a2.67,2.67,0,0,1-.63,1.68,2.17,2.17,0,0,1-1.68.82,1.09,1.09,0,0,1-1-.48,28.62,28.62,0,0,1-4.51,2.16,15.27,15.27,0,0,1-2.84.62,2,2,0,0,1-1.92-1.87,1.1,1.1,0,0,1,.39-1A1.73,1.73,0,0,1,184.79,456Zm3-3.88c0,1.24,0,2.54.09,3.79l.58-.15a20.8,20.8,0,0,0,5.09-2.11v-.09c0-1.25-.05-2.55-.05-3.89a4.42,4.42,0,0,1-1.06.48,14.61,14.61,0,0,1-3.84,1.34,1.8,1.8,0,0,1-.81.24Zm.09-5.43c0,.34,0,1.06,0,2.21.67-.14,1.15-.24,1.48-.34,1.06-.24,2.31-.57,3.8-1a1.36,1.36,0,0,0,.38-.09c0-1.64,0-3.07,0-4.23-1.15.48-2.49,1.06-4,1.68l-1.44.58C187.91,446,187.86,446.4,187.86,446.69Zm5.09-8.4c-.19-.67-.53-1-1-1a20.61,20.61,0,0,0-3.21.29c-.05.91-.2,2.21-.44,3.94a7.12,7.12,0,0,0-.14,1.29c1.1-.48,2.64-1,4.56-1.63l.58-.14A14.08,14.08,0,0,0,193,438.29Z" transform="translate(-159.88 -372.77)"/><path class="cls-1" d="M232.12,453.17A8.93,8.93,0,0,1,230,451.4a1.43,1.43,0,0,1-.39-1.11c0-.53.29-.81.87-.91,1.44,0,3.89.91,7.44,2.69.53-.82,1.34-3.27,2.45-7.35a35,35,0,0,0,1.15-7.05c0-.48-.29-.77-.86-.82a47.25,47.25,0,0,0-7.88,1.68,8.16,8.16,0,0,1-1.25.38,9.94,9.94,0,0,1-1.77,3.56q-7.28,10.65-10.8,12.67a1.45,1.45,0,0,1-.91.43,1.49,1.49,0,0,1-1.64-1.53c0-.39.44-.92,1.3-1.68a56.41,56.41,0,0,0,9.5-12.34,49.48,49.48,0,0,1-7.92,1.68c-1.15,0-1.77-.48-1.82-1.44a1.6,1.6,0,0,1,.77-1.54c.86-.33,2.11-.77,3.74-1.25,3.55-1,7-1.82,10.28-2.59a48.32,48.32,0,0,1,9.64-1.44,3,3,0,0,1,2.21,1.15,5.29,5.29,0,0,1,.77,3.17,47.93,47.93,0,0,1-.82,7.06,50.44,50.44,0,0,1-1.34,6,8,8,0,0,1-2,3.7,4.79,4.79,0,0,1-2.88.91C236.49,455.43,234.62,454.71,232.12,453.17Zm-2.69,5.76c2.16-.19,4.18-.33,6-.33a25.73,25.73,0,0,1,4.23.28,6.44,6.44,0,0,1,4,1.92,4.36,4.36,0,0,1,1.06,2.69,13.93,13.93,0,0,1-1.11,4.56,23.68,23.68,0,0,1-1.77,3.36.76.76,0,0,1,.33-.05,1.54,1.54,0,0,1,1.15.63,2.77,2.77,0,0,1,.1.72,2.61,2.61,0,0,1-.62,1.39,50.3,50.3,0,0,1-7.11,2.26,72,72,0,0,1-9.07,1.82,1.92,1.92,0,0,0,.05.24,1.46,1.46,0,0,1-.92,1.49c-.14,0-.28,0-.43,0a1.51,1.51,0,0,1-1.39-1,18.39,18.39,0,0,1-1.49-3.07,46.05,46.05,0,0,1-1.92-12.1c-.09-1.73-.09-3.46-.09-5.14a1.88,1.88,0,0,1,1.68-1.34h.33a1.43,1.43,0,0,1,1.35,1.63V460A42.62,42.62,0,0,1,229.43,458.93Zm.34,15c2.45-.43,4.7-.86,6.72-1.3a1.72,1.72,0,0,1,.67-.81,12,12,0,0,0,2-2.88,14.11,14.11,0,0,0,1.68-4.85c0-1-1.35-1.54-3.94-1.63a40.51,40.51,0,0,0-6.82.62,50.23,50.23,0,0,0-6,1.25.33.33,0,0,1-.14.05c0,.81.05,1.58.1,2.35a29.3,29.3,0,0,0,1.34,7.82C227,474.25,228.52,474,229.77,473.91Z" transform="translate(-159.88 -372.77)"/><path class="cls-1" d="M266.92,446a9.24,9.24,0,0,1,3.55.67,4,4,0,0,1,2.3,4,14,14,0,0,1-1.29,4.51,1.45,1.45,0,0,1,.67.53,1.67,1.67,0,0,1,.1.57,2.36,2.36,0,0,1-.48,1.06,19.81,19.81,0,0,1-3.84,3,28.67,28.67,0,0,1-5.28,2.54,2.09,2.09,0,0,1-.72.19,1.14,1.14,0,0,1-1-.67,2.41,2.41,0,0,1-.39-1.54,1.34,1.34,0,0,1,.82-1.2,37.57,37.57,0,0,0-.67-4.94c-.68-3.26-1.2-6-1.68-8.11a1.71,1.71,0,0,1,.52-1,1.32,1.32,0,0,1,1.06-.63,3.89,3.89,0,0,1,.91.1,2.07,2.07,0,0,1,1.06,1.06.64.64,0,0,0,.1.33A18.73,18.73,0,0,1,266.92,446Zm-2.69,12.58c.67-.29,1.34-.58,2-.87a3.73,3.73,0,0,1,.48-.67,29,29,0,0,0,2.88-5.28,14.31,14.31,0,0,0,.19-1.54c-.34-.67-1.1-1.05-2.35-1.05a19.14,19.14,0,0,0-4.23.62c.1.77.24,1.64.34,2.6.34,2.78.53,4.89.62,6.24Zm20.35-15.84a18.48,18.48,0,0,0,2-2.36c1.3-1.63,2-2.68,2-3.16-1.63.48-3.5.91-5.61,1.34a9,9,0,0,1-2.35.34,2.53,2.53,0,0,1-2.31-2.55,4.08,4.08,0,0,1,.58-1.44,22.37,22.37,0,0,1,2.69-4.13,1.13,1.13,0,0,1,.81-.28c.19,0,.34,0,.53,0a1.4,1.4,0,0,1,1,1.49,11.47,11.47,0,0,1-2,3.94,54.5,54.5,0,0,1,5.52-1.35,10.94,10.94,0,0,1,2.31-.28c1.53.19,2.3.81,2.35,1.87a8.66,8.66,0,0,1-2.64,5.28h.1a49,49,0,0,1,6-.87h1.15c1.73.29,2.64,1.49,2.64,3.6,0,1.92-.24,4.76-.63,8.6-.24,2.45-.48,4.61-.72,6.53a.63.63,0,0,0,.29-.1,13,13,0,0,1,1.68-.67,4.72,4.72,0,0,1,1.54.38c.67.39,1,.77,1,1.11a2.07,2.07,0,0,1-.48,1.15,4,4,0,0,1-1.49,1.1,58.25,58.25,0,0,1-9.17,3.31,73.55,73.55,0,0,1,9.55,9.17,7.66,7.66,0,0,1,2.16,3.65c0,.87-.38,1.35-1.05,1.35a1.84,1.84,0,0,1-1.16-.68c-1-.91-2.44-2.2-4.17-3.93a84.85,84.85,0,0,0-9.08-8.07,1.16,1.16,0,0,1-.19-.28h0a21.35,21.35,0,0,1-2,3.88c-.77,1.16-1.64,2.55-2.64,4.13-.68.87-1.3,1.68-1.83,2.45a13.41,13.41,0,0,1-1.58,1.49,1.71,1.71,0,0,1-1.11.38,1.05,1.05,0,0,1-1-1.1,1.64,1.64,0,0,1,.38-1.2,9.13,9.13,0,0,1,1.06-1.49c.76-1,1.58-2.16,2.44-3.5.58-1.06,1.25-2.26,1.93-3.56.09-.19.14-.33.23-.52-1.15.28-2.25.57-3.4.76a39.81,39.81,0,0,1-4.61.44h-1.44a1.57,1.57,0,0,1-1.54-1.73v-1a3.06,3.06,0,0,1,1.73-1.78,11.14,11.14,0,0,0,1.34.05,41.17,41.17,0,0,0,9.46-1.2,19.73,19.73,0,0,0,.48-3.51,1.38,1.38,0,0,1,1.1-1.2c.24,0,.58,0,1,0,.87.09,1.3.86,1.35,2.35a13.93,13.93,0,0,1-.1,1.44c1.78-.43,3.6-1,5.52-1.63a2.13,2.13,0,0,1-.05-.53,7.27,7.27,0,0,1,.24-1.49c.1-.62.29-1.39.48-2.3.2-1.4.44-3.32.72-5.72s.44-4.41.53-6.43c0-.38-.33-.58-1-.58a38,38,0,0,0-7.34,1.69c-2.83.76-5.47,1.58-7.92,2.44,0,.87.05,1.78.05,2.64,0,3.32.19,7.06.48,11.19,0,1.29-.39,1.92-1.11,1.92h-.72c-.86,0-1.29-.91-1.34-2.74-.1-.86-.24-3.26-.53-7.2l-.48-7.92c-.05-.33-.14-.72-.24-1.15a1.5,1.5,0,0,1,1.34-1.63h.77a1.64,1.64,0,0,1,1.54,1.29C281,443.76,282.61,443.28,284.58,442.71Zm5.72,5.37a5.3,5.3,0,0,1-.72,1.88l-.34.62a9.39,9.39,0,0,1,3.79,4.13,4.55,4.55,0,0,1,.34,1.25c-.05.48-.39.76-1,.76a2.4,2.4,0,0,1-.77-.09,13.7,13.7,0,0,1-4.37-3.07c-.67,1-1.39,2-2.16,2.92a6,6,0,0,1-1.63,1.68,2,2,0,0,1-1,.2c-.77-.05-1.1-.48-1.1-1.3a1.75,1.75,0,0,1,.33-1,30.6,30.6,0,0,1,2.55-4.22c1-1.83,1.82-3.36,2.49-4.61a2.39,2.39,0,0,1,1.59-1A1.74,1.74,0,0,1,290.3,448.08Z" transform="translate(-159.88 -372.77)"/><path class="cls-1" d="M310.36,465.41a1.92,1.92,0,0,1,1.34.63c.29.43.72,1.1,1.3,2,.91,1.54,1.92,3.17,3,5.09a2.39,2.39,0,0,1,.39,1.25,1.39,1.39,0,0,1-1,1.15,2.25,2.25,0,0,1-1.25-.38c-.86-.67-2.35-2.74-4.42-6.1a7.27,7.27,0,0,1-.67-1.34,1.74,1.74,0,0,1-.29-.91C308.82,466.08,309.35,465.6,310.36,465.41Zm4-18.53c2.69-2.06,4.8-3.12,6.43-3.12.39.1.63.48.72,1.06,0,2.25-2.11,6.1-6.29,11.52,1.73-.86,3.75-1.92,6.15-3.26a4.85,4.85,0,0,1,1.73-.72,1.35,1.35,0,0,1,1.53,1.39,7.64,7.64,0,0,1-1.49,4.17,8.92,8.92,0,0,1-2.16,2.55,1.61,1.61,0,0,1-1.1.38c-.43,0-.67-.24-.67-.72a1.48,1.48,0,0,1,.33-.86c.72-1.49,1.3-2.79,1.68-3.84C317,459.08,314,461,312,461.19c-.86-.05-1.3-.48-1.3-1.3a4,4,0,0,1,.77-2q2.75-4.89,6.48-10.94c-2.49,2.5-4.94,3.94-7.25,4.32-.76-.1-1.2-.67-1.2-1.73,3.32-5.38,5.28-9.94,5.86-13.73a2.13,2.13,0,0,1,2.06-1.25,1.44,1.44,0,0,1,1.2,1.4C318.33,438.63,316.89,442.27,314.39,446.88Zm.91,16.32a1.93,1.93,0,0,1,1.39.58c.2.34.48.87,1,1.63.68,1.3,1.44,2.69,2.26,4.18a2.09,2.09,0,0,1,.29,1.06,1.14,1.14,0,0,1-.82,1,2,2,0,0,1-1.1-.33c-.72-.48-1.92-2.12-3.6-4.8a3.65,3.65,0,0,1-.53-1,1.5,1.5,0,0,1-.24-.86C314,463.92,314.44,463.44,315.3,463.2Zm10,5.14c-.14.29-.28.43-.43.48a1.26,1.26,0,0,1-.77.19,4.7,4.7,0,0,1-2.54-1.58,9.65,9.65,0,0,1-2.3-2.78,1.66,1.66,0,0,1-.34-1.06,1.19,1.19,0,0,1,.38-.82,1.58,1.58,0,0,1,.77-.53c.1,0,.29,0,.53,0a1.15,1.15,0,0,1,.72.28,6.73,6.73,0,0,0,.86,1,10.19,10.19,0,0,0,3,3.46.76.76,0,0,1,.43.77A1.42,1.42,0,0,1,325.33,468.34Zm14.84-.29A.22.22,0,0,1,340,468v1.88a45.55,45.55,0,0,1-.62,7.44,13.78,13.78,0,0,1-.62,2c-.29.68-.68,1-1.16,1.06-1.34,0-2-.38-2-1.06.62-1.48,1-5.13,1.05-11v-8.16a28.54,28.54,0,0,0-3.74,2.16c-.58.48-1.2,1-1.82,1.49l-.58.57c.14,1.25.24,2.12.24,2.64,0,1.35-.53,2.07-1.54,2.07a1.26,1.26,0,0,1-1.44-1.34,35.9,35.9,0,0,0-.62-4c-.63-2.3-1.15-4.22-1.59-5.76a2.33,2.33,0,0,1,.53-1.1,1.45,1.45,0,0,1,1.2-.58,5.06,5.06,0,0,1,1,.1,1.67,1.67,0,0,1,1.11,1.1,20.93,20.93,0,0,1,.57,3.07,42.49,42.49,0,0,1,4.23-2.73c.86-.48,1.73-.87,2.59-1.25,0-.67.05-1.39.1-2.16a1.66,1.66,0,0,1,1.2-1.73h1c.92.29,1.4.82,1.4,1.58v1a20.45,20.45,0,0,1,3.74-.86c1-.19,1.92-.38,2.88-.48.53,0,1.3-.05,2.26-.05a3.66,3.66,0,0,1,1.63.53,2.19,2.19,0,0,1,.62,1.34v.87a8.84,8.84,0,0,1-.86,3.07,17.52,17.52,0,0,1-2.07,3.41,20.46,20.46,0,0,1-4.65,4.32,5.08,5.08,0,0,1-2.45.86A3.15,3.15,0,0,1,340.17,468.05Zm-12.1-30.38c-1,0-1.44-.63-1.44-1.92a1.51,1.51,0,0,1,1.39-1.64c1,0,4-1.15,9.08-3.5.86,0,1.34.24,1.53.62a3.35,3.35,0,0,1-.09.72,2,2,0,0,1-.82,1,13.37,13.37,0,0,1-3.07,2.31c-1,.48-1.83.91-2.59,1.25v0a15.7,15.7,0,0,1,.47,1.64c.1,0,.15,0,.2-.15a27.74,27.74,0,0,1,5.28-.48,17.53,17.53,0,0,1,5.28.77,4.69,4.69,0,0,1,3.26,4.7,11.4,11.4,0,0,1-2.69,5.91c0,.1.05.14.05.19a1.65,1.65,0,0,1-.72,1.44,27,27,0,0,1-6.77,2.45,20.82,20.82,0,0,1-3.16.43h-.05a1.46,1.46,0,0,1-1.35.91c-.76,0-1.15-.43-1.15-1.29,0-.39,0-.87,0-1.54v-2.73a35.33,35.33,0,0,0-1.05-7.25c-.24-1.16-.48-2.21-.77-3.22a1.72,1.72,0,0,1-.24-.72A2.42,2.42,0,0,1,328.07,437.67Zm10.42,2.73a30.47,30.47,0,0,0-5.33.67c0,.53.1,1.06.19,1.59a15,15,0,0,0,.1,1.58c.86-.09,1.58-.19,2.16-.29,1.73-.19,3.79-.57,6.24-1.05.77-.1,1.34-.19,1.77-.29C342.86,441.17,341.18,440.4,338.49,440.4Zm4.7,4.28c-1,.28-2,.57-3.07.81a51.07,51.07,0,0,1-6.53,1.3v.52c0,1.06,0,2,0,2.88a15.53,15.53,0,0,0,2.07-.28,22.9,22.9,0,0,0,6.19-2.21h.14A29.65,29.65,0,0,0,343.19,444.68ZM340,464.12v.62c.2.1.34.14.44.19a2.16,2.16,0,0,0,1,.24,2.28,2.28,0,0,0,1.39-.67,12.31,12.31,0,0,0,2.3-2.54,34.74,34.74,0,0,0,2.74-4.56c-.24,0-.53,0-.91,0a30,30,0,0,0-6.63,1.29A48.92,48.92,0,0,0,340,464.12Z" transform="translate(-159.88 -372.77)"/><path class="cls-1" d="M391.67,438.43a2.22,2.22,0,0,1,.39,1.11,1.17,1.17,0,0,1-.77,1c-2.55.72-5.43,1.49-8.69,2.31V443c-.19,2.4-.34,4.27-.34,5.66a62.39,62.39,0,0,1,8.16-1.44,1.47,1.47,0,0,1,1.16.53,2,2,0,0,1,.38,1.1,1.3,1.3,0,0,1-.77,1.11c-2.59.81-5.61,1.68-9,2.59l-.19,6.1c7.34-1.78,13-3.36,17.18-4.76a1.28,1.28,0,0,1,1.11.63.8.8,0,0,1,.14.53,2.7,2.7,0,0,1-.77,1.63c-2.3,1.73-8.26,3.84-17.81,6.24-.09,1.73-.14,3.17-.19,4.41-.29,5.19-1,9-2.16,11.62-.29,1.15-.91,1.78-1.87,1.78-.72,0-1.06-.58-1.06-1.68A55.76,55.76,0,0,0,378,468.92l.24-5.19q-6.33,1.51-11.95,2.74c-1.44.29-2.5.48-3.17.57a9.67,9.67,0,0,1-2,.2c-1-.05-1.54-.77-1.68-2.12,0-.57.48-1.15,1.44-1.68.58-.19,1.34-.43,2.21-.67q7.84-1.51,15.26-3.31l.2-6c-2.4.67-5,1.34-7.68,2a1.74,1.74,0,0,1-1.78-1.54v-.58a1.35,1.35,0,0,1,.77-1.1,68.21,68.21,0,0,1,8.69-2.78c0-1.83.09-3.7.19-5.67-3.22.82-6.68,1.68-10.37,2.54a1.78,1.78,0,0,1-1.87-1.53v-.58a1.6,1.6,0,0,1,.76-1.1,96,96,0,0,1,12.48-3.46c.68-.09,1.3-.24,1.93-.38a14.88,14.88,0,0,0,3.6-5,6.77,6.77,0,0,0,.38-2v-.91a1.62,1.62,0,0,1,1.49-1.11c1.29,0,2,.77,2.06,2.26v.53c-.19,1.72-1.63,3.6-4.32,5.61a39.19,39.19,0,0,1,5.57-.86A1.37,1.37,0,0,1,391.67,438.43ZM376.41,438a1.21,1.21,0,0,1-1,.39,1.36,1.36,0,0,1-1-.29,8.84,8.84,0,0,1-1.06-.58,18.81,18.81,0,0,1-3.93-3.6.58.58,0,0,1-.05-.29,2,2,0,0,1,.38-1.05,2.13,2.13,0,0,1,1-.77,2.35,2.35,0,0,1,.91-.14,1.86,1.86,0,0,1,1.44,1.1c.67.67,1.35,1.39,2,2.16s1.34,1.49,1.63,1.78v.43A1.2,1.2,0,0,1,376.41,438Z" transform="translate(-159.88 -372.77)"/><path class="cls-1" d="M418.93,448.71a12.47,12.47,0,0,1,1.49,1c1.39,1.05,3.6,2.59,6.63,4.7,1.63,1.06,2.88,2,3.79,2.64a3.94,3.94,0,0,1,.86.67,2.2,2.2,0,0,1,.58,1.16c0,1-.48,1.44-1.34,1.44a1.22,1.22,0,0,1-.58-.15,25.37,25.37,0,0,1-2.69-1.53l-4.8-2.84c-1.49-.91-3.07-2-4.7-3.16a5.34,5.34,0,0,1-.82-.53,44.86,44.86,0,0,1-2.54,3.89c-1,1.34-1.83,2.54-2.64,3.6-.53.76-1.11,1.48-1.69,2.16A6.1,6.1,0,0,1,409,463.2a2.28,2.28,0,0,1-1.44.58.89.89,0,0,1-.63-.86,4.11,4.11,0,0,1,.29-1.25,3.48,3.48,0,0,1,.67-1.2,18.15,18.15,0,0,1,1.83-2.69c1.1-1.54,2.21-3.12,3.31-4.8a36.33,36.33,0,0,0,1.82-3.31,18.47,18.47,0,0,0,1.06-2.74,1.67,1.67,0,0,1,1.49-1.06h.53a1.76,1.76,0,0,1,1.2,1.93A5.14,5.14,0,0,1,418.93,448.71Zm-2.25-10.37a4.27,4.27,0,0,1-.77,1.73c-2,3.36-3.5,5.33-4.47,5.95a1.52,1.52,0,0,1-1,.38,1.42,1.42,0,0,1-1.58-1.49c0-.14.15-.38.48-.76a26.59,26.59,0,0,0,4-6.48,2,2,0,0,1,.68-.82,1.62,1.62,0,0,1,.91-.34h.38A1.73,1.73,0,0,1,416.68,438.34ZM428.44,468a17.38,17.38,0,0,1-1.06,2.35,2.87,2.87,0,0,1,.68.53,1.53,1.53,0,0,1,.09.57,2.45,2.45,0,0,1-.48,1.11,20,20,0,0,1-3.89,2.49,29.91,29.91,0,0,1-5.23,2.12c-.34.09-.58.19-.67.19h-.15a1.63,1.63,0,0,1-1.15.53,1.28,1.28,0,0,1-1.39-1.35,24.19,24.19,0,0,0-1.1-5c-1-2.93-1.78-5.38-2.45-7.3a2.22,2.22,0,0,1,.48-1.1,1.51,1.51,0,0,1,1.2-.62,5.31,5.31,0,0,1,1,.09,4.61,4.61,0,0,1,.67.43,31.94,31.94,0,0,1,5.9-.52,15.09,15.09,0,0,1,5.33.91c1.68.77,2.55,1.63,2.55,2.69A7.59,7.59,0,0,1,428.44,468Zm-8.31,5a7.87,7.87,0,0,1,1.44-.43.78.78,0,0,1,.34-.34,10.31,10.31,0,0,0,2.3-2.74,9.32,9.32,0,0,0,1.06-2.06,6.92,6.92,0,0,0-4.22-1c-1.44,0-3,.05-4.66.15.19.81.38,1.72.62,2.78.39,1.73.68,3.17.92,4.32C418.74,473.33,419.46,473.14,420.13,473Zm7.49-28.47a2.69,2.69,0,0,1-1.25-.38,19,19,0,0,1-1.58-1.06,22.83,22.83,0,0,1-4-3.45,2.3,2.3,0,0,1-.53-.68,1.32,1.32,0,0,1-.24-.81,1.9,1.9,0,0,1,.43-1.06,2,2,0,0,1,1-.62,2.77,2.77,0,0,1,.72-.1,2.46,2.46,0,0,1,1.06.39l.72.72a17.6,17.6,0,0,0,2.59,2.4c.48.48,1,1,1.49,1.53a2.75,2.75,0,0,1,.72,1.78c0,.77-.24,1.2-.72,1.34Zm10.61,19.44c.19,3.22.29,6,.29,8.17A14.05,14.05,0,0,1,437,478.9,1.92,1.92,0,0,1,435.3,480c-1.1,0-1.63-.63-1.63-1.83a12.65,12.65,0,0,0,1.63-5.61c0-3.36-.14-6.92-.33-10.56-.24-4.42-.39-8.74-.39-13,0-2.31,0-4.81,0-7.45a11,11,0,0,1-1.73.15c-1.59,0-2.4-.77-2.4-2.26,0-1.15.62-1.77,1.87-1.77a32.69,32.69,0,0,0,3.79-.24,64.54,64.54,0,0,0,7.73-1.54,22.54,22.54,0,0,1,3.22-.62,3,3,0,0,1,1.44.28,2,2,0,0,1,1.44,2.07c0,1.05-.15,2.54-.34,4.46a107.7,107.7,0,0,1-2,11.19,34.44,34.44,0,0,1-1.44,4.51c-1,2.21-2.54,3.31-4.51,3.31a4.87,4.87,0,0,1-1.73-.29,9.43,9.43,0,0,1-1.77-1C438.14,461.14,438.18,462.48,438.23,463.92Zm6.48-13.05q1.16-5.19,2.16-12.53a10.1,10.1,0,0,0-2.06.48c-1.73.53-3.55,1.05-5.38,1.63a9.87,9.87,0,0,1-1.2.38V441c0,1.25-.05,3.31-.09,6.29-.05,2.4-.05,5.09-.05,8V457a12.48,12.48,0,0,0,3.31.87C442.5,457.88,443.61,455.57,444.71,450.87Z" transform="translate(-159.88 -372.77)"/><path class="cls-1" d="M467.37,453a12.63,12.63,0,0,1-3.17,2.26,20.42,20.42,0,0,1-4.56,2.11,4.07,4.07,0,0,1-1.35.33,1.38,1.38,0,0,1-1.2-.67,2.76,2.76,0,0,1-.33-1.58c0-.63.48-1.11,1.34-1.39s1.73-.68,2.26-.87a37,37,0,0,0,4.46-1.92,9.27,9.27,0,0,1,1.54-.67,4.6,4.6,0,0,1,.81-.1,1,1,0,0,1,.87.44,3.55,3.55,0,0,1,.09.67A3,3,0,0,1,467.37,453Zm1.68,7.58a40.82,40.82,0,0,1-5.33,8.84,12.77,12.77,0,0,1-3.22,2.93,7.79,7.79,0,0,1-1.25.19c-.91,0-1.44-.58-1.63-1.63a1.65,1.65,0,0,1,.24-1.06,4.77,4.77,0,0,1,1.58-1.92,18.57,18.57,0,0,0,2.36-2.21,58.62,58.62,0,0,0,5.47-7.1,3.72,3.72,0,0,1,1.54-1.06,1,1,0,0,1,1,1A4.56,4.56,0,0,1,469.05,460.56ZM460,441a1.73,1.73,0,0,1,1.63-1.73l7.49,1.78c.77.24,1.16.57,1.16,1.05-.2,1.06-1.4,1.59-3.7,1.59A29.37,29.37,0,0,1,461,443C460.31,442.75,460,442.08,460,441Zm34.76-5a14.88,14.88,0,0,1-.72,3.36,58.94,58.94,0,0,1-3.07,7.3,27,27,0,0,1-2.12,3.5,3.68,3.68,0,0,1-3.12,1.73,4.22,4.22,0,0,1-2.35-.76,5.81,5.81,0,0,1-2.3-3.89c0-.77.38-1.16,1.05-1.2a1.14,1.14,0,0,1,.87.48c1.24,1.15,2.16,1.77,2.64,1.77a12.65,12.65,0,0,0,1.1-1.34,25.91,25.91,0,0,0,1.49-2.69c.82-1.63,1.68-3.65,2.64-6.1l.29-.76a14.22,14.22,0,0,1-8,2,2.5,2.5,0,0,1-.86-.09,21.85,21.85,0,0,1-2,4.08c-.62,1.06-1.39,2.26-2.3,3.65-.53.81-1.06,1.53-1.54,2.2a5.82,5.82,0,0,1-1.39,1.35,1.57,1.57,0,0,1-1.06.34,1,1,0,0,1-1-1.06,2,2,0,0,1,.34-1.2,14.65,14.65,0,0,1,1-1.3c.62-.91,1.3-2,2-3.17a34.35,34.35,0,0,0,1.63-3.16,28.22,28.22,0,0,0,1.44-4,16.45,16.45,0,0,0,.43-3.6c.05-.57.43-1,1.15-1.15.24,0,.58-.05,1-.05.87.1,1.35.87,1.4,2.31a9.58,9.58,0,0,1-.1,1.24c.87,0,1.87.1,3,.1a13.7,13.7,0,0,0,6-1.82C493.86,434.07,494.73,434.74,494.73,436Zm-4.56,25.59a37,37,0,0,1-3.32,6.15,14,14,0,0,1-.91,1.43,10.46,10.46,0,0,0,1.4,1,45.79,45.79,0,0,0,10.32,5.62,14.5,14.5,0,0,1,1.87.67c.86.39,1.34.82,1.34,1.39s-.48.77-1.15.92A7.88,7.88,0,0,1,498,479a16.25,16.25,0,0,1-2.78-.58,23.47,23.47,0,0,1-5.86-2.49,33.23,33.23,0,0,1-5.67-3.6,31.37,31.37,0,0,1-2.4,2.78,22.75,22.75,0,0,1-3.31,3.07,3.11,3.11,0,0,1-1.63.63.9.9,0,0,1-.82-.34.91.91,0,0,1-.38-.81,1.8,1.8,0,0,1,.67-1.2,36.63,36.63,0,0,0,3.46-3.32c.57-.76,1.25-1.63,2-2.69-1.53-1.2-3.21-2.59-4.94-4.17a2,2,0,0,1-.62-1,2.31,2.31,0,0,1,.57-1.54,1.4,1.4,0,0,1,1.2-.57,1.88,1.88,0,0,1,1.06.33,6.59,6.59,0,0,1,1.2.82c1.05.86,2.25,1.78,3.5,2.83.05.1.1.19.19.19a7.56,7.56,0,0,0,.68-1,35.42,35.42,0,0,0,4.13-9.7c-3,.77-6.34,1.68-9.94,2.64a2.37,2.37,0,0,1-1,.43,1.37,1.37,0,0,1-1.11-.57,1.75,1.75,0,0,1-.43-1.25,2.06,2.06,0,0,1,.58-1.39,47.31,47.31,0,0,1,5.76-1.87,42.08,42.08,0,0,1,6.48-1.49h.67a2.28,2.28,0,0,1,1.73,1,3.15,3.15,0,0,1,.67,2.16A14.33,14.33,0,0,1,490.17,461.62Z" transform="translate(-159.88 -372.77)"/><path class="cls-1" d="M541.58,434.69c-1.68,1.58-6.05,3.41-13.16,5.52-1,.34-2.06.62-3,.86-1.15,2.69-2.74,5.86-4.71,9.56-1.53,2.83-3,5.42-4.36,7.77-.92,1.64-1.83,3.17-2.79,4.71a21.22,21.22,0,0,1-2.49,3.26,2.3,2.3,0,0,1-1.45.58A.92.92,0,0,1,509,466a3.58,3.58,0,0,1,.29-1.2,8.36,8.36,0,0,1,1.25-2.74,48.3,48.3,0,0,1,3.21-6q2.88-5,5.76-10.66c.53-1,1-2.06,1.49-3.12-1.29.39-2.49.72-3.65,1a12.44,12.44,0,0,1-2.25.38,9.28,9.28,0,0,1-1.92.2c-.87-.05-1.39-.72-1.59-2,0-.53.44-1.06,1.4-1.54.57-.19,1.24-.38,2.11-.67,2.64-.53,5.23-1.15,7.73-1.82.76-2.11,1.34-4,1.82-5.81a1.61,1.61,0,0,1,1.44-1.06h.58c.76.2,1.15.82,1.15,1.83a15.48,15.48,0,0,1-.86,4,2.94,2.94,0,0,0,.62-.19,134,134,0,0,0,13.63-4.22,1.08,1.08,0,0,1,1,.43,1.36,1.36,0,0,1,.1.48A2.11,2.11,0,0,1,541.58,434.69Zm-15,32.16c.67-.29,1.25-.57,1.77-.81a31.94,31.94,0,0,0,4.13-2.31,13.43,13.43,0,0,1,1.3-.86,1.82,1.82,0,0,1,.67-.15,1.3,1.3,0,0,1,1,.48,3.61,3.61,0,0,1,.1.68,2.91,2.91,0,0,1-.53,1.34,20.86,20.86,0,0,1-3.41,2.55,20.54,20.54,0,0,1-4.56,2.3,1.49,1.49,0,0,1-.67.19c-.1,0-.2,0-.2-.05-.19,2.12-.33,3.89-.38,5.28a7.11,7.11,0,0,1-.43,2.12,2,2,0,0,1-1.44.76,1.47,1.47,0,0,1-1.3-1.2,10.39,10.39,0,0,1,0-1.44c0-1.24.44-5.42,1.3-12.62.67-6.34,1.06-11.14,1.1-14.35v-2.69a1.67,1.67,0,0,1,1.2-1.73h1.11a1.37,1.37,0,0,1,.81.34,22.26,22.26,0,0,1,4.23-1.35,19.92,19.92,0,0,1,3.31-.58c2.79,0,4.27,1.2,4.56,3.6-.09,3.08-.14,6.58-.14,10.61s.24,8.69.72,14.17c.19,2.2.48,4.6.77,7.15,0,1.49-.58,2.25-1.73,2.3a7.56,7.56,0,0,1-2.93-.77,8.67,8.67,0,0,1-4-3.4,2.46,2.46,0,0,1-.34-1.06,1.12,1.12,0,0,1,1-1.15c.77,0,2.25.67,4.37,2a163.44,163.44,0,0,1-1.15-19.2V456c-.2.09-.39.24-.58.33-2,1-3.74,1.73-5.38,2.4a13.11,13.11,0,0,1-3.5,1C527,462,526.79,464.36,526.6,466.85ZM537,447a1.2,1.2,0,0,0-1.3-1.06,19.44,19.44,0,0,0-7.06,2c-.09.58-.14,1.2-.19,1.78l-.48,4.46c-.09.87-.19,1.68-.29,2.5a7.08,7.08,0,0,1,.77-.29c4.8-2.16,7.59-3.26,8.31-3.26h.09C536.82,451.06,536.87,449,537,447Z" transform="translate(-159.88 -372.77)"/><path class="cls-1" d="M557.56,465.41a1.92,1.92,0,0,1,1.34.63c.29.43.72,1.1,1.3,2,.91,1.54,1.92,3.17,3,5.09a2.39,2.39,0,0,1,.39,1.25,1.39,1.39,0,0,1-1,1.15,2.25,2.25,0,0,1-1.25-.38c-.86-.67-2.35-2.74-4.42-6.1a8,8,0,0,1-.67-1.34,1.74,1.74,0,0,1-.29-.91C556,466.08,556.55,465.6,557.56,465.41Zm4-18.53c2.69-2.06,4.8-3.12,6.43-3.12.39.1.63.48.72,1.06,0,2.25-2.11,6.1-6.29,11.52,1.73-.86,3.75-1.92,6.15-3.26a4.85,4.85,0,0,1,1.73-.72,1.35,1.35,0,0,1,1.53,1.39,7.64,7.64,0,0,1-1.49,4.17,8.92,8.92,0,0,1-2.16,2.55,1.61,1.61,0,0,1-1.1.38c-.43,0-.67-.24-.67-.72a1.48,1.48,0,0,1,.33-.86c.72-1.49,1.3-2.79,1.68-3.84-4.22,3.65-7.29,5.57-9.26,5.76-.86-.05-1.3-.48-1.3-1.3a4,4,0,0,1,.77-2q2.75-4.89,6.48-10.94c-2.49,2.5-4.94,3.94-7.25,4.32-.76-.1-1.2-.67-1.2-1.73,3.32-5.38,5.28-9.94,5.86-13.73a2.13,2.13,0,0,1,2.06-1.25,1.44,1.44,0,0,1,1.2,1.4C565.53,438.63,564.09,442.27,561.59,446.88Zm.91,16.32a1.93,1.93,0,0,1,1.39.58c.2.34.48.87,1,1.63.68,1.3,1.44,2.69,2.26,4.18a2.09,2.09,0,0,1,.29,1.06,1.14,1.14,0,0,1-.82,1,2,2,0,0,1-1.1-.33c-.72-.48-1.92-2.12-3.6-4.8a3.65,3.65,0,0,1-.53-1,1.5,1.5,0,0,1-.24-.86C561.16,463.92,561.64,463.44,562.5,463.2Zm10,5.14c-.14.29-.28.43-.43.48a1.26,1.26,0,0,1-.77.19,4.7,4.7,0,0,1-2.54-1.58,9.65,9.65,0,0,1-2.3-2.78,1.66,1.66,0,0,1-.34-1.06,1.19,1.19,0,0,1,.38-.82,1.58,1.58,0,0,1,.77-.53c.1,0,.29,0,.53,0a1.15,1.15,0,0,1,.72.28,6.73,6.73,0,0,0,.86,1,10.19,10.19,0,0,0,3,3.46.76.76,0,0,1,.43.77A1.42,1.42,0,0,1,572.53,468.34Zm14.84-.29a.22.22,0,0,1-.15-.05v1.88a45.55,45.55,0,0,1-.62,7.44,13.78,13.78,0,0,1-.62,2c-.29.68-.68,1-1.16,1.06-1.34,0-2-.38-2-1.06.62-1.48,1-5.13,1.05-11v-8.16a28.54,28.54,0,0,0-3.74,2.16c-.58.48-1.2,1-1.82,1.49l-.58.57c.14,1.25.24,2.12.24,2.64,0,1.35-.53,2.07-1.54,2.07a1.26,1.26,0,0,1-1.44-1.34,35.9,35.9,0,0,0-.62-4c-.63-2.3-1.15-4.22-1.59-5.76a2.43,2.43,0,0,1,.53-1.1,1.45,1.45,0,0,1,1.2-.58,5.06,5.06,0,0,1,1,.1,1.67,1.67,0,0,1,1.11,1.1,20.93,20.93,0,0,1,.57,3.07,42.49,42.49,0,0,1,4.23-2.73c.86-.48,1.73-.87,2.59-1.25,0-.67,0-1.39.1-2.16a1.66,1.66,0,0,1,1.2-1.73h1c.92.29,1.4.82,1.4,1.58v1a20.45,20.45,0,0,1,3.74-.86c1-.19,1.92-.38,2.88-.48.53,0,1.3-.05,2.26-.05a3.66,3.66,0,0,1,1.63.53,2.19,2.19,0,0,1,.62,1.34v.87a8.84,8.84,0,0,1-.86,3.07,17.52,17.52,0,0,1-2.07,3.41,20.46,20.46,0,0,1-4.65,4.32,5.08,5.08,0,0,1-2.45.86A3.15,3.15,0,0,1,587.37,468.05Zm-12.1-30.38c-1,0-1.44-.63-1.44-1.92a1.51,1.51,0,0,1,1.39-1.64c1,0,4-1.15,9.08-3.5.86,0,1.34.24,1.53.62a3.35,3.35,0,0,1-.09.72,2,2,0,0,1-.82,1,13.37,13.37,0,0,1-3.07,2.31c-1,.48-1.83.91-2.59,1.25v0c.19.53.33,1.06.48,1.64.09,0,.14,0,.19-.15a27.74,27.74,0,0,1,5.28-.48,17.53,17.53,0,0,1,5.28.77,4.69,4.69,0,0,1,3.26,4.7,11.4,11.4,0,0,1-2.69,5.91c0,.1.05.14.05.19a1.65,1.65,0,0,1-.72,1.44,27,27,0,0,1-6.77,2.45,20.82,20.82,0,0,1-3.16.43h-.05a1.46,1.46,0,0,1-1.35.91c-.76,0-1.15-.43-1.15-1.29,0-.39,0-.87,0-1.54v-2.73a35.33,35.33,0,0,0-1.05-7.25c-.24-1.16-.48-2.21-.77-3.22a1.88,1.88,0,0,1-.24-.72A2.42,2.42,0,0,1,575.27,437.67Zm10.42,2.73a30.47,30.47,0,0,0-5.33.67c0,.53.1,1.06.19,1.59a15,15,0,0,0,.1,1.58c.86-.09,1.58-.19,2.16-.29,1.73-.19,3.79-.57,6.24-1.05.77-.1,1.34-.19,1.77-.29C590.06,441.17,588.38,440.4,585.69,440.4Zm4.7,4.28c-1,.28-2,.57-3.07.81a51.07,51.07,0,0,1-6.53,1.3v.52c0,1.06,0,2,0,2.88a15.53,15.53,0,0,0,2.07-.28A22.9,22.9,0,0,0,589,447.7h.14A29.65,29.65,0,0,0,590.39,444.68Zm-3.17,19.44v.62c.2.1.34.14.44.19a2.16,2.16,0,0,0,1,.24,2.28,2.28,0,0,0,1.39-.67,12.31,12.31,0,0,0,2.3-2.54,34.74,34.74,0,0,0,2.74-4.56c-.24,0-.53,0-.91,0a30,30,0,0,0-6.63,1.29A48.92,48.92,0,0,0,587.22,464.12Z" transform="translate(-159.88 -372.77)"/><path class="cls-1" d="M638.87,438.43a2.22,2.22,0,0,1,.39,1.11,1.17,1.17,0,0,1-.77,1c-2.55.72-5.43,1.49-8.69,2.31V443c-.19,2.4-.34,4.27-.34,5.66a62.39,62.39,0,0,1,8.16-1.44,1.47,1.47,0,0,1,1.16.53,2,2,0,0,1,.38,1.1,1.3,1.3,0,0,1-.77,1.11c-2.59.81-5.62,1.68-9,2.59l-.19,6.1c7.34-1.78,13.05-3.36,17.18-4.76a1.26,1.26,0,0,1,1.1.63.75.75,0,0,1,.15.53,2.7,2.7,0,0,1-.77,1.63c-2.3,1.73-8.26,3.84-17.81,6.24-.09,1.73-.14,3.17-.19,4.41-.29,5.19-1,9-2.16,11.62-.29,1.15-.91,1.78-1.87,1.78-.72,0-1.06-.58-1.06-1.68a55.76,55.76,0,0,0,1.49-10.08l.24-5.19q-6.35,1.51-12,2.74c-1.44.29-2.5.48-3.17.57a9.67,9.67,0,0,1-2,.2c-1-.05-1.54-.77-1.68-2.12,0-.57.48-1.15,1.44-1.68.58-.19,1.34-.43,2.21-.67q7.85-1.51,15.26-3.31l.19-6c-2.4.67-5,1.34-7.68,2a1.73,1.73,0,0,1-1.77-1.54v-.58a1.35,1.35,0,0,1,.77-1.1,68.49,68.49,0,0,1,8.68-2.78c0-1.83.1-3.7.2-5.67-3.22.82-6.68,1.68-10.37,2.54a1.78,1.78,0,0,1-1.87-1.53v-.58a1.6,1.6,0,0,1,.76-1.1A96,96,0,0,1,627,439.68c.68-.09,1.3-.24,1.93-.38a15,15,0,0,0,3.59-5,6.82,6.82,0,0,0,.39-2v-.91a1.62,1.62,0,0,1,1.49-1.11c1.29,0,2,.77,2.06,2.26v.53c-.19,1.72-1.63,3.6-4.32,5.61a39.19,39.19,0,0,1,5.57-.86A1.37,1.37,0,0,1,638.87,438.43ZM623.61,438a1.21,1.21,0,0,1-1,.39,1.36,1.36,0,0,1-1-.29,8.84,8.84,0,0,1-1.06-.58,18.81,18.81,0,0,1-3.93-3.6.58.58,0,0,1,0-.29,2,2,0,0,1,.38-1.05,2.13,2.13,0,0,1,1-.77,2.35,2.35,0,0,1,.91-.14,1.86,1.86,0,0,1,1.44,1.1c.67.67,1.35,1.39,2,2.16s1.34,1.49,1.63,1.78v.43A1.2,1.2,0,0,1,623.61,438Z" transform="translate(-159.88 -372.77)"/><path class="cls-1" d="M665,445.68a7.29,7.29,0,0,1,3.84.92q2.16,1.44,2.45,5.76l.62,17.28.24,2.92c0,.92-.86,1.4-2.49,1.49a11.68,11.68,0,0,1-4.61-1.2c-1,.29-2.16.63-3.6,1-.72.1-1.39.15-2,.19a2.36,2.36,0,0,1-.24.63,1.83,1.83,0,0,1-1.15.53,1.35,1.35,0,0,1-1-.39,3,3,0,0,1-.48-1.39c-.1-1.63-.1-3.89-.1-6.77,0-3.12,0-6,.1-8.45s.14-5.37.24-8.35c0-1.44,0-3.07,0-4.8,0-.29-.1-.58-.15-1a1.27,1.27,0,0,1,0-.43,1,1,0,0,1-.44.09c-1,0-1.48-.62-1.48-1.92a1.47,1.47,0,0,1,1.44-1.58c1,0,4.17-1,9.45-2.93.91,0,1.44.24,1.54.67s-.05.53-.05.77a1.7,1.7,0,0,1-.81.91,11.35,11.35,0,0,1-3.27,2,26.26,26.26,0,0,1-3.17,1.2,4.51,4.51,0,0,1,.43,2.06c0,.48,0,1,0,1.59A21,21,0,0,1,665,445.68Zm3.6,25.16c0-3.94-.05-7.54-.09-10.8a8.59,8.59,0,0,1-1.4.48c-2.49.81-5,1.53-7.63,2.2,0,1.16-.05,2.5-.05,4s.05,2.83.05,4.17a4.92,4.92,0,0,0,1.2-.14,30.17,30.17,0,0,0,5-1.2c.19,0,.34,0,.53,0a1.15,1.15,0,0,1,1.06.63c.09.23.14.48.23.67s0,.19,0,.29A9.52,9.52,0,0,1,668.58,470.84Zm-.43-18.63a3.51,3.51,0,0,0-3.89-3.36,9.8,9.8,0,0,0-2.54.58,14.2,14.2,0,0,1-1.64.67c0,.48-.09.91-.09,1.34-.29,3.27-.43,5.76-.48,7.49v.63a74.87,74.87,0,0,0,8-2.16c.33-.1.62-.15.91-.24C668.29,455.38,668.25,453.75,668.15,452.21ZM692.63,455c.1-3.56.24-8,.53-13.25,0-1.49-.14-2.26-.38-2.26a39.34,39.34,0,0,0-4.52,1.49c-1.92.62-3.84,1.2-5.81,1.68a19.23,19.23,0,0,1-4.7.67h-.62a2.68,2.68,0,0,1-2.26-1.15,3,3,0,0,1-.53-2,42.11,42.11,0,0,0,3.12-8.69,2,2,0,0,1,1.68-.72,1.69,1.69,0,0,1,.82.34,1.62,1.62,0,0,1,.62,1.39,8.84,8.84,0,0,1-.48,2.06c-1.05,2.88-1.63,4.56-1.73,5a33.34,33.34,0,0,0,8.79-1.63c1.92-.53,3.84-1.2,5.86-2a4.8,4.8,0,0,1,1.2-.24c.57,0,1.1.72,1.63,2.06a11.66,11.66,0,0,1,.62,4.08c0,1.39-.14,3.56-.33,6.48-.24,5.14-.34,9.56-.34,13.2,0,5.19.05,10.71.19,16.76a2.24,2.24,0,0,1-1.1,1.68,5.6,5.6,0,0,1-1.3.38,8.13,8.13,0,0,1-4.65-1.92,21.64,21.64,0,0,1-4-4.46,2.34,2.34,0,0,1-.43-1.3c0-.67.29-1,1-1a2.19,2.19,0,0,1,1.44.68c3.46,2.78,5.52,4.27,6.14,4.46-.33-4-.52-9.36-.52-16.18C692.54,459.12,692.54,457.25,692.63,455Zm-6.43,6.24a2.67,2.67,0,0,1-1.1-.34,18,18,0,0,1-2-.91,27.94,27.94,0,0,1-5.19-2.93c-.38-.29-.57-.43-.67-.53a1.36,1.36,0,0,1-.24-.81,2.24,2.24,0,0,1,.43-1.11,1.61,1.61,0,0,1,.92-.57,3.19,3.19,0,0,1,.76-.1,2.28,2.28,0,0,1,1,.43,9.48,9.48,0,0,1,1,.48,36.26,36.26,0,0,0,3.51,2.11c.76.44,1.44.87,2,1.25a2.59,2.59,0,0,1,.77,1.68c0,.77-.29,1.2-.77,1.35Z" transform="translate(-159.88 -372.77)"/><path class="cls-1" d="M728.73,441.6a67,67,0,0,1-9.56,2.5,11.23,11.23,0,0,1-1.68.19,21.58,21.58,0,0,1,1.2,4.18,34.19,34.19,0,0,1,.87,7.44,39.32,39.32,0,0,1-1.68,10.7,62.19,62.19,0,0,1-2.21,6,33.15,33.15,0,0,1-1.68,3.6,1.63,1.63,0,0,1-1.34.63c-.87,0-1.25-.48-1.25-1.35a2.13,2.13,0,0,1,.48-1c.67-1.64,1.34-3.56,2-5.81.39-1.44.82-3,1.2-4.66-1.24,1-2.44,1.87-3.5,2.64a9,9,0,0,1-3.41,1.63,1.07,1.07,0,0,1-.91-.38,2.33,2.33,0,0,1-.53-.63,2,2,0,0,1-.19-1,1.18,1.18,0,0,1,.57-1c.53-.38,1.2-.86,2-1.44,3.12-2.11,5.38-3.5,6.72-4.27a21.19,21.19,0,0,0,.29-3.36c0-.38-.05-.72-.05-1-2.2-.28-4.65-.52-7.44-.67-.86-.05-1.29-.72-1.29-2a1.61,1.61,0,0,1,1.44-1.58c1.53.1,3,.19,4.37.38,1.1.24,2,.44,2.64.63a25,25,0,0,0-1.73-6.2,5.36,5.36,0,0,1-.67-1.53,1.48,1.48,0,0,1-.92-1.49V442a3.25,3.25,0,0,1,1.64-1.68,9.49,9.49,0,0,0,1.24,0,33.74,33.74,0,0,0,8.79-1.29,73,73,0,0,0,10.94-3.84c.53-.24,1-.48,1.44-.68a4,4,0,0,1,1.59.44c.67.38,1,.76,1,1.15a2.27,2.27,0,0,1-.48,1.15,3.45,3.45,0,0,1-1.48,1.15A57,57,0,0,1,728.73,441.6Zm-6.44-6.43c-.86-.05-1.29-.72-1.29-2a1.6,1.6,0,0,1,1.44-1.58c1.53.09,3,.24,4.41.43a15.47,15.47,0,0,1,3.84,1.25,2,2,0,0,1,.68,1.63,1.43,1.43,0,0,1-1,1.25A59.1,59.1,0,0,0,722.29,435.17Zm3.94,23.91-.24,2.73c-.29,2.64-.53,5.67-.72,9.12-.14,1.73-.24,3.12-.24,4.18a7,7,0,0,1-.38,2,2,2,0,0,1-1.4.76,1.41,1.41,0,0,1-1.24-1.2,9.65,9.65,0,0,1,0-1.39c0-.77.14-3.41.43-7.82.24-3.94.38-6.92.38-8.93v-1.68a1.61,1.61,0,0,1,1.2-1.68H725c.77.09,1.2.62,1.3,1.68C726.28,457.54,726.23,458.26,726.23,459.08Zm9.36-8.4a14.36,14.36,0,0,0,1.68.24,1.46,1.46,0,0,1,.67,1.29,1.45,1.45,0,0,1-1.39,1.3h-.86a12.17,12.17,0,0,1-2.26-.29,13.06,13.06,0,0,1-2.45-.58l-1.58-.43a1.14,1.14,0,0,1-.58-.19,2,2,0,0,1-.33-1.06,1.4,1.4,0,0,1,.38-1.1,1.55,1.55,0,0,1,1.2-.53,2.59,2.59,0,0,1,1.11.29,2.07,2.07,0,0,0,.47.14l.49.15c.47-.43.91-.87,1.29-1.25a10.72,10.72,0,0,0,2-2.64,45.06,45.06,0,0,0-4.61.62,51.15,51.15,0,0,0-5.91,1.44,2.09,2.09,0,0,1-1,.48c-.81,0-1.24-.57-1.29-1.63a1.48,1.48,0,0,1,.29-1,3.1,3.1,0,0,1,.72-.67,27.13,27.13,0,0,1,3.5-1.2c1.92-.39,3.75-.72,5.47-1,1.25-.1,2.31-.19,3.27-.19a3.6,3.6,0,0,1,2.4.67,2,2,0,0,1,.67,1.44,5.3,5.3,0,0,1-.91,2.35A28.19,28.19,0,0,1,736,450a8.9,8.9,0,0,1-.76.67A.76.76,0,0,0,735.59,450.68Zm-7.49,5.66a1.34,1.34,0,0,1,.39-1.1c1.82-.48,5.13-1.11,9.84-1.88a23.79,23.79,0,0,1,2.93-.24c1.87.05,2.88,1.11,3.07,3.12,0,.29,0,2.5.09,6.63.05,2,.15,4.46.29,7.44,0,1.05.1,2.3.24,3.65,0,1.68-.53,2.54-1.53,2.59a7.1,7.1,0,0,1-2.55-.62,7,7,0,0,1-3.07-2.64,3.14,3.14,0,0,1-.43-1.06,1.19,1.19,0,0,1,1-1.25,7.13,7.13,0,0,1,3.21,1.68c-.19-4.32-.33-9.65-.33-15.94a.84.84,0,0,0-.82-.72,47.54,47.54,0,0,0-5.52.77,2.51,2.51,0,0,1,.24,1.06c-.1,1.05-.19,1.82-.19,2.4a16.51,16.51,0,0,0,2-.91c.14,0,.28-.05.38-.05a1,1,0,0,1,.82.48,2.58,2.58,0,0,1,.19.53,1,1,0,0,1-.48.91,16.77,16.77,0,0,1-2.88,1.29l-.05,3.46a30.16,30.16,0,0,0,3.46-1.29,1.28,1.28,0,0,1,.43-.1.93.93,0,0,1,.77.48c.09.19.14.38.19.48a1.11,1.11,0,0,1-.48,1,20.1,20.1,0,0,1-4.37,1.63V471c0,3-.15,5.33-.24,6.86-.24.87-.72,1.35-1.49,1.35-.58,0-.81-.43-.81-1.3a50.58,50.58,0,0,1-.29-5.76l-.05-3.31c-.19.05-.29.1-.34.1a20.55,20.55,0,0,1-3.55.47,1.07,1.07,0,0,1-.91-.38,1.16,1.16,0,0,1-.34-.86.72.72,0,0,1,.58-.82,31.45,31.45,0,0,0,3.79-.53,6.15,6.15,0,0,0,.72-.14V463.4a1.15,1.15,0,0,1-.48.14,25.77,25.77,0,0,1-2.93.48,1,1,0,0,1-.86-.38,1.15,1.15,0,0,1-.43-.82.83.83,0,0,1,.67-.91c.91-.1,1.92-.24,3.07-.48l1-.29c0-1.06.05-2.26.14-3.5a.7.7,0,0,1,.05-.34c-.82.19-1.68.34-2.54.48A1.39,1.39,0,0,1,728.1,456.34Z" transform="translate(-159.88 -372.77)"/><path class="cls-1" d="M787.14,473.72a5,5,0,0,1,.29.77,1.88,1.88,0,0,1-.81,1.58,66,66,0,0,1-11.19,2.54c-1.92.29-3.65.44-5.28.53h-.24a1.63,1.63,0,0,1-1.63,1.3,1.22,1.22,0,0,1-1.39-1.39c0-.39.14-.92.24-1.59,0-1.15.09-2.06.09-2.78a31.91,31.91,0,0,0-1-6.72c-.19-1.06-.43-2-.67-3a5.69,5.69,0,0,1-.43-1.63,2,2,0,0,1,.91-1.59,3,3,0,0,1,1.39-.33c.67,0,1.15.43,1.54,1.2.77-.34,1.68-.67,2.69-1,.67-.19,1.39-.34,2.11-.48l.38-5.76c-3.55.82-7,1.58-10.17,2.26-1.25.19-2.12.33-2.6.38a10.49,10.49,0,0,1-1.87.19c-1,0-1.49-.67-1.63-2,0-.57.48-1.15,1.44-1.63.48-.14,1.2-.33,2.06-.62,4.37-.77,8.6-1.59,12.73-2.45a27.91,27.91,0,0,0-1.25-4.75,2.42,2.42,0,0,1,.67-1.78,2.2,2.2,0,0,1,1.58-.72c.48.1.92.62,1.39,1.58a15.89,15.89,0,0,1,1.06,4.95c5.76-1.2,10.27-2.3,13.54-3.26a1.17,1.17,0,0,1,1,.47,1.43,1.43,0,0,1,.09.49,2,2,0,0,1-.72,1.39c-1.82,1.34-6.43,2.88-13.87,4.65a32.26,32.26,0,0,1-.87,6.1c1.45-.14,3-.24,4.52-.24a11,11,0,0,1,4.8.82,4.73,4.73,0,0,1,2.35,4.46,16.13,16.13,0,0,1-2.21,7.06.62.62,0,0,0-.14.19A1.66,1.66,0,0,1,787.14,473.72Zm-18.29-28.61a1,1,0,0,1-1.05-.72,11.47,11.47,0,0,1-.34-2.93,1.7,1.7,0,0,1-.48.05,51.67,51.67,0,0,1-5.33.33H760a1.36,1.36,0,0,1-1.34-1.53v-.82a3,3,0,0,1,1.49-1.58,11.54,11.54,0,0,0,1.2,0,56.27,56.27,0,0,0,5.71-.24v-.19a3.91,3.91,0,0,0-.72-1.77c-.24-.39-.43-.72-.62-1a1.93,1.93,0,0,1-.24-1.11,1.26,1.26,0,0,1,.57-1.05,2,2,0,0,1,1.44-.43,1.81,1.81,0,0,1,1,.62,3.93,3.93,0,0,1,1.1,1.54,5.39,5.39,0,0,1,.68,2.35c0,.29,0,.57,0,.77l3.08-.44c2.49-.33,5-.76,7.63-1.34a6.77,6.77,0,0,0-.53-1.87,2.83,2.83,0,0,1-.48-1.25,2.11,2.11,0,0,1,.63-1.68,2.13,2.13,0,0,1,1.1-.34,2.06,2.06,0,0,1,1.15.34,7.15,7.15,0,0,1,.91,1.3,13.13,13.13,0,0,1,.77,2.78c1.25-.29,2.55-.62,3.84-1,.77-.19,1.49-.38,2.07-.58a3.82,3.82,0,0,1,1.24.34c.58.38.87.67.87,1a2.32,2.32,0,0,1-.34,1,2.88,2.88,0,0,1-1.25.91,51.49,51.49,0,0,1-6.38,1.73c-.1.58-.19,1.25-.34,1.92a10.82,10.82,0,0,1-1,2.16,4,4,0,0,1-.72,1.06,1.6,1.6,0,0,1-1.4.57.9.9,0,0,1-1-1c.05-.19.15-.52.29-1,.19-.68.38-1.44.58-2.31a4,4,0,0,1,.09-.62c-.48.09-1,.24-1.44.33-3,.68-6.09,1.2-9.26,1.64-.05,1.44-.1,2.49-.19,3.07S769.72,445.11,768.85,445.11Zm1.4,23.62c.19,1.87.28,3.26.28,4.27s0,1.77-.09,2.54c1.29-.09,2.69-.24,4.17-.38,2.55-.39,4.9-.82,7.11-1.3,2.21-3.5,3.31-6.14,3.31-7.87-.14-1.44-1.29-2.16-3.5-2.16a18.74,18.74,0,0,0-3.94.53,17.28,17.28,0,0,0-4.51,1c-1.44.38-2.5.62-3.17.76C770.05,467,770.15,467.81,770.25,468.73Z" transform="translate(-159.88 -372.77)"/><path class="cls-1" d="M817.05,448.8a13.32,13.32,0,0,1-1.16,2.79h.1a1.81,1.81,0,0,1,1,.57,1.72,1.72,0,0,1,.1.53,2.43,2.43,0,0,1-.48,1.15,22.87,22.87,0,0,1-4.28,2.93,25.31,25.31,0,0,1-5.71,2.69,2.09,2.09,0,0,1-.72.19,1.16,1.16,0,0,1-1-.67,2.4,2.4,0,0,1-.38-1.58,1.21,1.21,0,0,1,.86-1.11c.19-.09.39-.14.58-.24a37.69,37.69,0,0,0-.77-4.32c-.82-2.93-1.49-5.38-2.06-7.29a1.3,1.3,0,0,1,.52-1,1.32,1.32,0,0,1,1.06-.63,4.26,4.26,0,0,1,.91.1,2.36,2.36,0,0,1,1.11,1.05.22.22,0,0,0,.05.15,23,23,0,0,1,4.08-.39,12.45,12.45,0,0,1,4.36.82q2.16.93,2.16,2.16A8.9,8.9,0,0,1,817.05,448.8Zm-6.92,5.67c0-.05.15-.1.24-.19a16.58,16.58,0,0,0,2.45-3.6,11.69,11.69,0,0,0,1.06-2.69,4.1,4.1,0,0,0-2.93-.92c-1.06,0-2.26.05-3.51.15.15.72.29,1.49.44,2.35q.72,3.75.86,5.47Zm6.34,15.26a1.38,1.38,0,0,1-.34-.81c0-1.25.48-2,1.49-2.16a1.88,1.88,0,0,1,1.39.62,24.29,24.29,0,0,1,4.18,5.62,3.73,3.73,0,0,1,.53,1.05,1.55,1.55,0,0,1-1.49,1.78,1.74,1.74,0,0,1-1.58-1.15A55.15,55.15,0,0,1,816.47,469.73Zm7.92-4.22a2,2,0,0,1,1.44.62c.24.24.67.63,1.25,1.2.77.91,1.68,1.87,2.73,2.93a3.17,3.17,0,0,1,.34,1.34,1.39,1.39,0,0,1-1,1.21,2.43,2.43,0,0,1-1.34-.39,17.75,17.75,0,0,1-4.08-3.65,2.63,2.63,0,0,1-.58-.81,2.05,2.05,0,0,1-.29-1C822.9,466.23,823.43,465.7,824.39,465.51Zm14.88-20.07a1,1,0,0,1,.87.48,3.52,3.52,0,0,0,.14.48,1.4,1.4,0,0,1-.43,1.06,20.94,20.94,0,0,1-4.75,3.36,26.55,26.55,0,0,1-2.16,6.05l.91-.34c2.4-.81,4.37-1.44,6-1.92a16.14,16.14,0,0,1,3.12-.29c1.49.1,2.4,1.25,2.73,3.56,0,.67.1,1.39.1,2.16,0,1.72-.24,5-.67,9.89A60.5,60.5,0,0,1,844,476.5a9.53,9.53,0,0,1-1.48,3.27,2.23,2.23,0,0,1-1.68.76,5,5,0,0,1-2.69-.81,9.06,9.06,0,0,1-2.31-2.74,2.13,2.13,0,0,1-.28-1c0-.48.09-.72.33-.81a.69.69,0,0,1,.48-.29,1.18,1.18,0,0,1,.72.33,7.23,7.23,0,0,1,2.5,1.35,2.17,2.17,0,0,0,.81.48c.2,0,.39-.58.63-1.73.14-.72.29-1.54.43-2.5.1-.62.14-1.25.24-1.87a7.11,7.11,0,0,1-2.4-1.39,10,10,0,0,1-2.88-2.78,1.53,1.53,0,0,1-.43-1.11,1.48,1.48,0,0,1,.48-.91,1.41,1.41,0,0,1,.86-.58c.1,0,.29,0,.53,0a1.57,1.57,0,0,1,.82.29c.28.24.67.58,1.1,1a11.2,11.2,0,0,0,2.26,2.26c.09-1.44.14-2.88.24-4.37,0-1.2.09-2.55.09-4,0-.38,0-.76,0-1.15s-.19-.77-.43-.77a9.26,9.26,0,0,0-2.93.87c-2.25.91-4.08,1.63-5.42,2.21a55.67,55.67,0,0,1-5.38,2,2.9,2.9,0,0,1-1.15.24,1,1,0,0,1-.91-.52,1.65,1.65,0,0,1-.34-1.06,1.69,1.69,0,0,1,.1-.77,1.37,1.37,0,0,1,.81-.91c.77-.38,1.64-.77,2.69-1.25a21.91,21.91,0,0,0,2.69-5.85,7.67,7.67,0,0,1-1.1.48,14.93,14.93,0,0,1-4.13,1.05,1.91,1.91,0,0,1-.53-.05c0,1.06-.1,1.92-.1,2.69a6.41,6.41,0,0,1-.43,2.07,1.7,1.7,0,0,1-1.44.76,1.36,1.36,0,0,1-1.29-1.15,11.34,11.34,0,0,1,0-1.53c0-.87.14-4,.48-9.46q.28-7.28.29-11v-2a1.56,1.56,0,0,1,1.29-1.73h1.06a1.4,1.4,0,0,1,1,.43,4.25,4.25,0,0,0,.82.05,13,13,0,0,0,3.16-.43,29.09,29.09,0,0,0,4-1.3l.53-.24a4.93,4.93,0,0,1,1.39.34c.57.38.86.72.86,1.05a2,2,0,0,1-.38,1,3.25,3.25,0,0,1-1.35,1,47.79,47.79,0,0,1-7.29,2,7.72,7.72,0,0,1-1.4.14V437l-.24,3.32a20.44,20.44,0,0,0-.14,2.35,17.6,17.6,0,0,0,2.83-.58l2.4-.72c-.09-.48-.19-.91-.28-1.25a5.1,5.1,0,0,1-.39-1.68,1.7,1.7,0,0,1,.53-1.29,1.72,1.72,0,0,1,1.2-.63c.43,0,.91.48,1.39,1.35.19.67.34,1.39.53,2.21a20.33,20.33,0,0,0,2-1.11c.19,0,.33,0,.48,0a1,1,0,0,1,.86.48,3.91,3.91,0,0,1,.19.53,1.37,1.37,0,0,1-.53,1.11,11.07,11.07,0,0,1-2.68,1.82c.09,1.2.14,2.45.14,3.7a4.54,4.54,0,0,0-.1.76,18.66,18.66,0,0,0,3.22-1.87Zm-12.72,4.95a34.57,34.57,0,0,0,3.74-.87,14.49,14.49,0,0,0,2.36-.86c0-.24,0-.48,0-.67,0-1.25,0-2.45-.09-3.7-.67.34-1.39.62-2.11.91a20,20,0,0,1-3.65.77h-.05C826.69,447.41,826.65,448.85,826.55,450.39Zm3.84,14.11a2.2,2.2,0,0,1,1.49.62c.19.24.62.68,1.2,1.3.77,1,1.63,2.11,2.69,3.27a3.24,3.24,0,0,1,.33,1.29,1.2,1.2,0,0,1-.91,1.15,1.88,1.88,0,0,1-1.29-.43c-.87-.38-2.21-1.63-4.13-3.93a1.74,1.74,0,0,1-.67-.82,2,2,0,0,1-.25-1C828.9,465.22,829.43,464.74,830.39,464.5Z" transform="translate(-159.88 -372.77)"/><path class="cls-1" d="M879.16,452.26a17.29,17.29,0,0,1-7.87,3.31,26.83,26.83,0,0,1,1.05,6.15c0,1.44-.67,2.11-1.92,2.11-1.1,0-1.73-.63-1.82-2a32.44,32.44,0,0,0-1.39-6.05,7.33,7.33,0,0,1-.44-1.63c0-1.1.72-1.78,2.21-2a16.23,16.23,0,0,0,6.63-2.06c2.16-1.25,3.26-2.84,3.26-4.66,0-2.45-2-3.7-5.9-3.7-.2,0-1.49.24-3.8.63a7,7,0,0,1-1.34.24,1.81,1.81,0,0,1-1.54-.67,2,2,0,0,1-.62-1.59,2.15,2.15,0,0,1,.91-1.63,2.91,2.91,0,0,1,1.78-.77s.48.15,1.29.39a17.21,17.21,0,0,1,3.84-.53,10.54,10.54,0,0,1,6.53,1.92,6.83,6.83,0,0,1,2.74,5.76C882.76,448.13,881.56,450.34,879.16,452.26Zm-6.67,20.35a3.36,3.36,0,0,1-2.5.87,1.81,1.81,0,0,1-1.44-.77,2.85,2.85,0,0,1-.62-1.87,3.19,3.19,0,0,1,.72-2.11,2.26,2.26,0,0,1,1.87-1,3.51,3.51,0,0,1,2,.62,2.33,2.33,0,0,1,.86,1.87A3.32,3.32,0,0,1,872.49,472.61Z" transform="translate(-159.88 -372.77)"/></svg>