<svg id="圖層_1" data-name="圖層 1" xmlns="http://www.w3.org/2000/svg" viewBox="0 0 897.12 214.17"><defs><style>.cls-1{fill:#27a2af;}.cls-2{fill:#707070;}</style></defs><title>story_text</title><path class="cls-1" d="M271.26,590.56a.7.7,0,0,0-.07.28l8.68,3.43c4.69,1.82,9.24,3.29,13.72,4.62.14-3.22.21-6.65.35-10.36-2.45.91-4.76,1.75-6.93,2.45l-2.59.7a17,17,0,0,1-2.52.14c-1.33,0-2.1-.91-2.24-2.73,0-.7.63-1.4,2-2.1.7-.28,1.61-.56,2.8-.91,3.29-.84,6.51-1.82,9.66-2.87v-.07l.07-4.55c-2.31.84-4.62,1.68-6.86,2.45a11.87,11.87,0,0,1-2.59.7h-.42a2.51,2.51,0,0,1-1.61-2.38,1.84,1.84,0,0,1,1-1.33,16.28,16.28,0,0,1,2.24-.77c3-.91,5.74-1.82,8.26-2.8l.07-4.2v-1.12l-3.43,1.26a39.83,39.83,0,0,1-6.51,2.17h-.35c-.28,0-.49-.21-.77-.49a2.16,2.16,0,0,1-.21-.91,1.48,1.48,0,0,1,.7-1.26,66.36,66.36,0,0,1,10.57-5V559.2q-4.31,1.57-8.4,3.15a23.41,23.41,0,0,1-6.09,1.75q-1.26,0-1.26-1.89a2.29,2.29,0,0,1,1.12-2.17c3.15-1.26,8.05-3,14.63-5.11,0-2.31,0-4.69.14-7.08-2.24.28-4.48.57-6.58,1-1.61,0-2.38-.91-2.38-2.79,0-1,.56-1.69,1.82-2.25a44.68,44.68,0,0,1,7.28-.77,17.06,17.06,0,0,1,.07-1.89,2.41,2.41,0,0,1,2.73-2.73c1.47.07,2.24,1.05,2.24,3-.07.63-.14,1.19-.14,1.61a34.45,34.45,0,0,1,7,1.05c3.5,1,5.53,2.81,6,5.26a27.57,27.57,0,0,1,3.85-.91,2.77,2.77,0,0,1,1.61.83c.56.71.91,1.13.91,1.41q0,.74-1.05,1.26c-1.89.49-3.78,1-5.67,1.54a22.18,22.18,0,0,1-3.64,7.42l.49.49a2.28,2.28,0,0,1,.49,1c0,.42-.42.84-1.12,1.19-2.46,1-5.61,2.31-9.39,3.71v.91c0,1.68-.07,3.15-.07,4.55,2.38-1,4.48-1.89,6.45-2.8a11.06,11.06,0,0,1,3.64-1.33,2,2,0,0,1,.91.28,1.79,1.79,0,0,1,.56.77,2,2,0,0,1-.63,1.4,27.14,27.14,0,0,1-6.31,3.64c-1.54.7-3.15,1.33-4.69,2,0,1.54-.07,2.94-.07,4.13v.84a119.72,119.72,0,0,0,15.48-5.95,1.4,1.4,0,0,1,1.19.56,2,2,0,0,1,.14.63,2.85,2.85,0,0,1-.84,1.82c-2,2.24-6.93,4.83-15.06,7.77a8.83,8.83,0,0,0-1.12.49c-.28,5.25-.56,9.38-1,12.32a3.25,3.25,0,0,1-.21.63c2.8.84,5.53,1.61,8.26,2.31,4.28,1,9.74,2.1,16.32,3.22a1.81,1.81,0,0,1,.84,1.75c-.14,1-.77,1.54-2,1.82h-1.12c-5-.14-11.62-1.26-19.89-3.36-6.72-1.68-14.07-4-22.05-6.79l-9-3.22c-.28.35-.56.7-.77,1a23.9,23.9,0,0,1-4.76,5,3.36,3.36,0,0,1-2.38,1c-1.33,0-2-.56-2.17-1.54a2.17,2.17,0,0,1,.63-1.54,14.48,14.48,0,0,1,2.31-2.38q1.26-1.57,2.52-3.36a34.14,34.14,0,0,1-4.83-2.17,3.14,3.14,0,0,1-.63-1.68,2.28,2.28,0,0,1,.7-1.82,2.64,2.64,0,0,1,2-.91,3.2,3.2,0,0,1,1.68.56c1,.28,2.24.63,3.78,1.19a13.8,13.8,0,0,0,.7-3.36,2.24,2.24,0,0,0-1.19-2,5.35,5.35,0,0,1-2-1.12,3.34,3.34,0,0,1-1.19-2.87A7.53,7.53,0,0,1,264.4,576a27.21,27.21,0,0,1,2.1-3.5,4.71,4.71,0,0,0,1.26-2.45c0-.42-.63-.77-1.82-1a8.09,8.09,0,0,1-2.52-.77,2.09,2.09,0,0,1-1.26-1.89,3.23,3.23,0,0,1,.84-1.75,3.43,3.43,0,0,1,2.38-1.05,10.88,10.88,0,0,1,6.09,1.47,3.91,3.91,0,0,1,1.61,3.15q-.21,4.3-4.62,10.92c2.59,1.82,3.92,4,3.92,6.44A12.58,12.58,0,0,1,271.26,590.56ZM303,561.72c.63-.14,1.26-.35,1.9-.56a5.11,5.11,0,0,1,.56-.84c.62-2,1.12-3.78,1.54-5.32-2.66.84-5.4,1.68-8.06,2.59l-.07,5.53C300.17,562.7,301.57,562.28,303,561.72Zm4.27-10.93a1.68,1.68,0,0,0,.5-.13v-.57c-1.33-1.39-4.21-2.24-8.62-2.38-.14,1.9-.14,3.44-.14,4.7v1C301.78,552.54,304.51,551.63,307.31,550.79Z" transform="translate(-216.43 -538.4)"/><path class="cls-1" d="M346,545.4c4.62,1.12,7,2.66,7,4.77s-1.4,4.9-3.85,7.84a2.1,2.1,0,0,1,.84,1.19,3.74,3.74,0,0,1-1.12,2.45,7.56,7.56,0,0,1-1.4,1.12l-.07.07a39.39,39.39,0,0,0-2.66,7.14,36.45,36.45,0,0,0-1.4,9.59,63.14,63.14,0,0,0,.42,6.93,9.92,9.92,0,0,0,1.26-.56,53.44,53.44,0,0,0,3.36-7.7,37.28,37.28,0,0,0,1.26-10.15,18.51,18.51,0,0,0-.63-4.41,2,2,0,0,1,2.24-2.17h.49a2.91,2.91,0,0,1,2.59,1.61,20.69,20.69,0,0,1,.56,5,38.32,38.32,0,0,1-1.82,11c-.42,1.26-.84,2.38-1.26,3.43.84-.42,1.68-.91,2.52-1.4a41.48,41.48,0,0,1,4.9-2.17,7.79,7.79,0,0,1,1.19-.14,1.41,1.41,0,0,1,1.26.63,4.13,4.13,0,0,1,.14,1,4.93,4.93,0,0,1-1.12,2,43.15,43.15,0,0,1-10.29,6.86,62.73,62.73,0,0,1-14.91,6.51,7.8,7.8,0,0,1-1.89.42,2.12,2.12,0,0,1-1.82-1,3.52,3.52,0,0,1-.56-2.31c0-.84.7-1.54,2-2,2.45-1,4.41-1.82,5.88-2.38a4.1,4.1,0,0,1-.49-1.89,53.51,53.51,0,0,1-.28-6,36.52,36.52,0,0,1,2.66-14.42c-2.1.91-4.13,1.75-6.16,2.59a4.92,4.92,0,0,1-1.61.56h-.56a3.18,3.18,0,0,1-2-3,2.3,2.3,0,0,1,1.19-1.82c.35-.14.84-.35,1.4-.63a58.11,58.11,0,0,0,6.58-2.8q7.14-6.72,8.19-9.88c-.7-.42-2.8-.63-6.3-.76a2.52,2.52,0,0,1-1.68-2.66,2.79,2.79,0,0,1,2.59-2.95A15,15,0,0,1,346,545.4Zm44.74,48.38c.14.42.28.77.42,1.19a3,3,0,0,1-1.12,2.38c-2.66,1.4-7.14,2.87-13.38,4.41a47.08,47.08,0,0,1-6.3.91,2.43,2.43,0,0,1-2.31,1.68c-1.4,0-2-.77-2-2.17.07-.56.21-1.33.35-2.31.07-1.61.14-2.87.14-4a71.94,71.94,0,0,0-1.4-12.11c-.49-2-.91-3.71-1.26-5.39a13.31,13.31,0,0,1-.42-2.45,2.75,2.75,0,0,1,1.33-2.38,3.52,3.52,0,0,1,1.89-.56c1.26,0,2.1.77,2.59,2.31.35,1.12.63,2.24.91,3.43a12.25,12.25,0,0,1,2.38-1.05,34.57,34.57,0,0,1,11.06-1.75,14.49,14.49,0,0,1,6.87,1.33c2.24,1.33,3.43,3.64,3.43,7a18,18,0,0,1-3.71,8.89C390.41,593.43,390.55,593.64,390.69,593.78ZM374.37,575.3h-.77c-1.05-.21-1.54-1-1.54-2.24l.63-13.09a59.59,59.59,0,0,0-1.75-12.12,3.47,3.47,0,0,1,1.05-2.52,3.17,3.17,0,0,1,2.31-1c.56.14,1.19,1,1.75,2.66a41.35,41.35,0,0,1,1.47,10.58c.35-.14.77-.28,1.19-.42A41.17,41.17,0,0,0,384,556a44.11,44.11,0,0,0,5.53-1.75,1.42,1.42,0,0,1,1.33.77,1,1,0,0,1,.21.7,2.79,2.79,0,0,1-1,2c-.7.84-2.59,1.89-5.6,3-1.69.7-3.29,1.26-4.7,1.75a6,6,0,0,1-1.05.28,7.61,7.61,0,0,1-1.26.07,82,82,0,0,1-1.26,10.15C375.84,574.46,375.21,575.23,374.37,575.3ZM371,585.59c.28,3.36.42,5.88.42,7.7,0,1.47-.07,2.8-.14,4.06,1.26-.21,2.59-.42,4.06-.7,2-.42,3.92-.91,5.74-1.47a1.63,1.63,0,0,0,.14-.14c5.19-4.62,7.78-8.12,7.78-10.43-.21-2.1-1.89-3.15-5-3.15a16.84,16.84,0,0,0-4.56.77,16.65,16.65,0,0,0-5,1.26,23.86,23.86,0,0,1-3.5,1C370.94,585,371,585.31,371,585.59Z" transform="translate(-216.43 -538.4)"/><path class="cls-1" d="M430.79,559.13c-.77,3.15-1.61,6.16-2.59,9,1.12,1.33,2.31,2.66,3.43,3.92a164.82,164.82,0,0,0,18.27,19.32c4.2,3.57,8.06,6.86,11.7,10a3.85,3.85,0,0,1,1.75,3.08,1.84,1.84,0,0,1-1.33,1.89h-.49a6,6,0,0,1-2.45-.77,90.32,90.32,0,0,1-10.3-7.77,112.7,112.7,0,0,1-22-23.52,2.66,2.66,0,0,1-.63-.91c-.28.84-.63,1.61-.91,2.31-1.54,3.29-3.36,7.14-5.53,11.48-1.33,2.59-2.59,4.9-3.71,6.86a17.66,17.66,0,0,1-3.29,4.27,3.29,3.29,0,0,1-1.82.56,1.91,1.91,0,0,1-1.75-1.89,3.08,3.08,0,0,1,.56-2c.77-1.26,1.61-2.73,2.52-4.27,1.68-2.94,3.5-6.23,5.46-10,1.33-3.08,2.73-6.44,4.2-10.22a102.12,102.12,0,0,0,3.78-12.67,78.45,78.45,0,0,0,1.19-11.28,2,2,0,0,1,1.75-1.89c.42,0,.91-.07,1.54-.07q2,.11,2.1,3.57A50.86,50.86,0,0,1,430.79,559.13Z" transform="translate(-216.43 -538.4)"/><path class="cls-1" d="M497.43,574c-1.26-1.82-2.59-3.57-3.85-5.25a2,2,0,0,1-.42-1.26v-.7a3.14,3.14,0,0,1,1-1.82,3.87,3.87,0,0,1,1.54-.7c.28,0,.56.07.84.07a5.26,5.26,0,0,1,1.26.49c2,1.75,4.9,6.3,8.82,13.72a14.76,14.76,0,0,1,1.61,4.9c0,1.54-.7,2.31-2,2.31a2.64,2.64,0,0,1-2-1.19,57,57,0,0,1-3.36-5.18c-.07-.14-.14-.21-.21-.35q-3.25,8.4-11.76,15.75a10.54,10.54,0,0,1-6.09,2.87c-1.68-.28-2.73-1.4-3.08-3.5-.07-1.05-.07-2.52-.07-4.41,0-5.32.14-10.78.42-16.24a39,39,0,0,0-1.61-11.83,15.9,15.9,0,0,1-.91-4.69v-1a2.52,2.52,0,0,1,2.59-2,3.26,3.26,0,0,1,2.24,1c1.89,3.43,2.87,10.43,2.87,21,0,4.48-.21,9.87-.49,16.1,3.22-2.38,6.37-6.09,9.38-11.13a24.15,24.15,0,0,0,2.45-5.53A4,4,0,0,1,497.43,574Zm39.42,32.13a6.7,6.7,0,0,1-2.45-.77,49.9,49.9,0,0,1-5.74-5,69.27,69.27,0,0,1-12.4-14.91,4.08,4.08,0,0,1-.77-1.26c-1.26,2.52-2.59,5-4.06,7.49A57.63,57.63,0,0,1,503,602.81q-1.89,1.68-3.78,3.15a6.09,6.09,0,0,1-2.17.49c-.91-.07-1.4-.63-1.47-1.75q0-.74,1.26-1.68a65.22,65.22,0,0,0,8.4-10.15c7-11.27,12.32-24.71,15.82-40.39.49-2.39,1-4.63,1.47-6.87.28-1,1-1.54,2.46-1.54a2.46,2.46,0,0,1,2.17,2.24,43,43,0,0,1-.77,5.68,147.87,147.87,0,0,1-7.43,24.5c-.35.84-.7,1.68-1,2.45a4.15,4.15,0,0,1,1.12.49,31.42,31.42,0,0,0,2,2.87,98.85,98.85,0,0,0,9.74,12.46c2.17,2.24,4.2,4.41,6.16,6.51a3.74,3.74,0,0,1,1.75,3,2,2,0,0,1-1.33,1.89Z" transform="translate(-216.43 -538.4)"/><path class="cls-1" d="M588.78,598.47c3.15-.14,6.23-.28,9.24-.35,2.39-.07,4.7-.07,6.94-.07s3.36.84,3.64,2.38a2.87,2.87,0,0,1-2.52,2.94c-2,.07-4.13.14-6.52.28-2.8.07-5.74.21-9,.35l-19.18.84c-5.95.28-11.41.63-16.45,1a24,24,0,0,1-3.29.35c-.7,0-1.19-.56-1.54-1.61a8.71,8.71,0,0,1-.14-2.24c.28-.84,1.75-1.61,4.55-2.24,3-.35,7-.63,12-.77L573,599a124.54,124.54,0,0,0,1.68-20.44q0-8-.63-16a70.46,70.46,0,0,0-2.66-14,9.19,9.19,0,0,1-.7-2.8,2.74,2.74,0,0,1,1-2.17,2.41,2.41,0,0,1,1.89-1.05c.7,0,1.54.77,2.38,2.24A78.47,78.47,0,0,1,579,559.48c.14,1.26.21,2.52.35,3.78,2.38-.21,7.56-1.12,15.61-2.66q2.2,0,2.52,1c0,.42-.07.77-.07,1.19a4.71,4.71,0,0,1-1.33,1.54,24.8,24.8,0,0,1-5.53,2.31,64.52,64.52,0,0,1-10.92,2.24c.07,2.38.14,4.76.14,7.14a168.09,168.09,0,0,1-1.89,22.68C581.64,598.61,585.28,598.54,588.78,598.47Z" transform="translate(-216.43 -538.4)"/><path class="cls-1" d="M639.6,551.08q0,4.83-.21,9.45c.42-.14.77-.21,1.12-.35.28-.42.56-.91.84-1.4a82,82,0,0,0,3.29-8,2.09,2.09,0,0,1,1.89-1.4h.7a2.22,2.22,0,0,1,1.68,2.45c0,1.4-.77,3.71-2.31,7.07.84-.14,1.75-.35,2.59-.56a32.12,32.12,0,0,1,4.13-.42c1.75.14,2.66,1,2.8,2.59a2.86,2.86,0,0,1-2.45,2.94l-3.5.42c-2,.35-3.92.77-6,1.19a2.67,2.67,0,0,1-.91.28c-1.4,2.45-3.15,5.11-5.11,8.05a5.83,5.83,0,0,0,1-.28,19.51,19.51,0,0,1,4.62-.7,7.41,7.41,0,0,1,3.64.77q1.78,1.15,2.73,4.83a39.07,39.07,0,0,1,.7,7.7c-.07,3.57-.07,7.07-.07,10.43s.07,6.44.21,9.38c-.07,2.31-1,3.5-3,3.5a4.23,4.23,0,0,1-1.68-.56,6.51,6.51,0,0,1-3.29-3.15l-1.89.84a32.94,32.94,0,0,1-5.6,1.26,1.51,1.51,0,0,1-.7-.14,3.09,3.09,0,0,1-1.68.77c-1.68-.14-2.52-1.54-2.59-4.2a179.38,179.38,0,0,0,1.4-21.56c-.91,1.12-1.75,2.24-2.45,3.29-1.47,2-3,4.06-4.69,6.16A30.65,30.65,0,0,1,620.7,596a3,3,0,0,1-2,.77,1.32,1.32,0,0,1-.84-1.19,4.92,4.92,0,0,1,.42-1.61,14.94,14.94,0,0,1,2-3.64,86.52,86.52,0,0,1,5.53-7.84c2-2.59,3.92-5.32,5.88-8.12l.77-1.12c1.12-1.54,2.17-3.15,3.29-4.83l.84-1.26c-1.4.35-2.73.77-4.06,1.19-2.8.91-5.6,2-8.4,3.08a5.87,5.87,0,0,1-2,.56,1.72,1.72,0,0,1-1.68-1.12,2.85,2.85,0,0,1-.35-1.75c0-.84.63-1.54,1.89-2.24a44.52,44.52,0,0,1,7.07-3.15c2.24-.7,4.2-1.33,5.95-1.89l-.28-8.4a16.41,16.41,0,0,1-3.36,1.26,9.48,9.48,0,0,1-3,.56h-.84a2.24,2.24,0,0,1-2.17-2.45v-1.19a4.57,4.57,0,0,1,2.38-2.39,12.44,12.44,0,0,0,1.75.07,13.5,13.5,0,0,0,5-1,52.07,52.07,0,0,0-1.54-6.17,3.88,3.88,0,0,1,1-2.59,3.17,3.17,0,0,1,2.31-1c.56.14,1.12.91,1.82,2.24a18,18,0,0,1,1.26,5.26,30.9,30.9,0,0,0,3.43-2,12,12,0,0,1,1-.77,5.4,5.4,0,0,1,1.89.49c.77.56,1.19,1,1.19,1.33a3.62,3.62,0,0,1-.49,1.47,3.18,3.18,0,0,1-1.75,1.27A32,32,0,0,1,639.6,551.08Zm3.08,50.19c1.4,0,2.17.28,2.38,1,0,.14-.07.42-.07.7h.28a3.67,3.67,0,0,1,1.19-.14c-.28-3.15-.42-7.21-.42-12.25v-.84c-1.89.49-4.13,1-6.79,1.75a17.61,17.61,0,0,1-2.59.56c-.14,4.41-.28,7.7-.42,10.08Zm-5.88-17.85c0,1.4-.07,2.73-.07,4q2.73-.74,7.77-1.68a10.44,10.44,0,0,0,1.47-.14,63.43,63.43,0,0,0-.56-6.37c-.28-1.12-.77-1.68-1.4-1.68a11.15,11.15,0,0,0-3,.42,37.45,37.45,0,0,0-3.92,1.26h-.14C636.87,580.76,636.8,582.16,636.8,583.42Zm29.68,24.85c-.28,1.68-1.05,2.59-2.38,2.59-1.54,0-2.24-.91-2.24-2.59-.07-4.06-.14-7.84-.14-11.34s-.07-7.42-.07-12c0-3.92-.28-8-.7-12.39a71.92,71.92,0,0,0-1.68-8.89c-.14-.42-.35-1-.56-1.68a2.74,2.74,0,0,1,2.24-2.1h.49c1.12.07,2,.84,2.66,2.38a52.41,52.41,0,0,1,1.68,9c.42,4.2.63,8.54.63,12.88C666.41,593.64,666.41,601.69,666.48,608.27Zm2-67.49c6,.56,9,2.38,9,5.32a11.19,11.19,0,0,1-1.05,4.35c-.7,1.82-1.47,3.85-2.45,5.95a6.25,6.25,0,0,0-.7,2.24c0,.7.49,1.12,1.4,1.26a17.74,17.74,0,0,1,5.11,2,4.39,4.39,0,0,1,2.1,3.64,17.56,17.56,0,0,1-.91,4.69,21.94,21.94,0,0,1-5.74,9.31,15.51,15.51,0,0,1-2.32,1.47,3.55,3.55,0,0,1-1.75.56,1.83,1.83,0,0,1-2.09-2,1.48,1.48,0,0,1,.42-1.26,3.1,3.1,0,0,1,1-1,14.33,14.33,0,0,0,4.7-4.9,13.48,13.48,0,0,0,1.89-5.74c0-.49-.63-1-1.82-1.54s-2.45-.84-3.92-1.33c-1.9-.42-2.81-1.75-2.81-3.92,0-1.33.84-3.92,2.6-7.7,1-2.24,1.68-3.71,2-4.28,0-.7-2.87-1-8.62-1.12a2.86,2.86,0,0,1-2-3,3.11,3.11,0,0,1,2.38-3.08C666.13,540.71,667.32,540.78,668.44,540.78Z" transform="translate(-216.43 -538.4)"/><path class="cls-1" d="M742.29,544.14c-2.45,2.32-8.82,5-19.18,8.06q-2.31.74-4.41,1.26c-1.68,3.92-4,8.54-6.86,13.93-2.24,4.13-4.41,7.91-6.37,11.34-1.33,2.38-2.66,4.62-4.06,6.86a31.05,31.05,0,0,1-3.64,4.76,3.36,3.36,0,0,1-2.1.84,1.34,1.34,0,0,1-.91-1.33,5.15,5.15,0,0,1,.42-1.75,12.49,12.49,0,0,1,1.82-4,70.87,70.87,0,0,1,4.69-8.75q4.2-7.35,8.4-15.54c.77-1.47,1.47-3,2.17-4.55-1.89.56-3.64,1.05-5.32,1.47a18.45,18.45,0,0,1-3.29.56,14,14,0,0,1-2.8.28q-1.89-.11-2.31-2.94c0-.77.63-1.54,2-2.24.84-.29,1.82-.56,3.08-1,3.85-.76,7.63-1.67,11.27-2.66,1.12-3.08,2-5.88,2.66-8.47a2.32,2.32,0,0,1,2.1-1.54h.84c1.12.28,1.68,1.19,1.68,2.66a22.27,22.27,0,0,1-1.26,5.81,4.53,4.53,0,0,0,.91-.28,192,192,0,0,0,19.88-6.16,1.58,1.58,0,0,1,1.4.63,1.85,1.85,0,0,1,.14.7A3.07,3.07,0,0,1,742.29,544.14Zm-21.84,46.91c1-.42,1.82-.84,2.59-1.19a48.47,48.47,0,0,0,6-3.36,20.24,20.24,0,0,1,1.89-1.26,2.75,2.75,0,0,1,1-.21,1.85,1.85,0,0,1,1.47.7,5.49,5.49,0,0,1,.14,1,4.27,4.27,0,0,1-.77,2,39.42,39.42,0,0,1-11.62,7.07,2.11,2.11,0,0,1-1,.28c-.14,0-.28,0-.28-.07-.28,3.08-.49,5.67-.56,7.7a9.94,9.94,0,0,1-.63,3.08,2.88,2.88,0,0,1-2.1,1.12,2.15,2.15,0,0,1-1.89-1.75,16,16,0,0,1-.07-2.1c0-1.82.63-7.91,1.89-18.41,1-9.24,1.54-16.24,1.61-20.93v-3.92a2.43,2.43,0,0,1,1.75-2.52h1.61a2.06,2.06,0,0,1,1.19.49,33.8,33.8,0,0,1,6.16-2,28.24,28.24,0,0,1,4.83-.84c4.06,0,6.23,1.75,6.65,5.25-.14,4.48-.21,9.59-.21,15.47s.35,12.67,1,20.65c.28,3.22.7,6.72,1.12,10.43q0,3.25-2.52,3.36A11.07,11.07,0,0,1,735.5,610a12.79,12.79,0,0,1-5.81-5,3.63,3.63,0,0,1-.49-1.54,1.64,1.64,0,0,1,1.4-1.68c1.12,0,3.29,1,6.37,2.94a240.9,240.9,0,0,1-1.68-28v-1.54c-.28.14-.56.35-.84.49-2.87,1.4-5.46,2.52-7.84,3.5a19.12,19.12,0,0,1-5.11,1.47C721.08,583.91,720.73,587.41,720.45,591.05Zm15.12-29c-.14-1-.77-1.47-1.89-1.54-2.52,0-5.95,1-10.29,2.87-.14.84-.21,1.75-.28,2.59l-.7,6.51c-.14,1.26-.28,2.45-.42,3.64a9.65,9.65,0,0,1,1.12-.42c7-3.15,11.06-4.76,12.11-4.76h.14C735.36,568,735.43,565.08,735.57,562.07Z" transform="translate(-216.43 -538.4)"/><path class="cls-1" d="M784.71,541.06a12.5,12.5,0,0,1,1.61-.14q2.2.21,2.31,1.89a11.8,11.8,0,0,1-.84,3.15c-2.31,6-8.12,13.94-17.5,23.95-1.89,2-3.57,3.64-5,4.9a2.54,2.54,0,0,1-1.68,1.05c-.91,0-1.4-.49-1.47-1.54a3.76,3.76,0,0,1,.28-1.33l.77-1A147.51,147.51,0,0,0,774,559.55a2.44,2.44,0,0,1-.63-.42,20.8,20.8,0,0,1-5.18-5,1,1,0,0,1-.07-.49,2.38,2.38,0,0,1,.56-1.33,3.27,3.27,0,0,1,1.26-1.06,5.72,5.72,0,0,1,1.19-.13,2.43,2.43,0,0,1,1.82,1.46l2.52,3.16.77.77c2.38-3.36,4.62-6.8,6.72-10.37-2.1.57-4.62,1.27-7.7,2.18a8.47,8.47,0,0,1-2.31.42c-1.47,0-2.24-.78-2.38-2.45a2.27,2.27,0,0,1,1.82-2.18C776.45,543.09,780.58,542,784.71,541.06Zm-2.24,44.39a9.5,9.5,0,0,1,3.92-1.26,2.85,2.85,0,0,1,1.26.35,3.69,3.69,0,0,1,1.19,1.68,14.88,14.88,0,0,1,.56,4.2,40.81,40.81,0,0,1-2.31,13.65q-2.1,5.67-5.88,6.3h-1.05a5.09,5.09,0,0,1-2.66-1,9.06,9.06,0,0,1-3.22-4.34,4.84,4.84,0,0,1-.42-1.68,1.51,1.51,0,0,1,.63-1.4,1.38,1.38,0,0,1,.7-.14,1.55,1.55,0,0,1,1.12.56,11.61,11.61,0,0,1,3.92,2.59c2-1.68,3.29-5.95,4.06-12.81v-2.52a70.57,70.57,0,0,0-7.91,4.06,2.59,2.59,0,0,1-1.47.42,3,3,0,0,1-1.68-.42,2,2,0,0,1-1-1.75,4,4,0,0,1,.42-1.75,44.14,44.14,0,0,0,3.57-8.19c-1.4,0-2.17-.77-2.17-2.31a2.17,2.17,0,0,1,.63-1.54c2.66-2.24,5-4.27,6.93-6,2.66-2.31,4.06-3.64,4.06-4a10.42,10.42,0,0,0-1.33-.07c-2.59.14-5.6,1.47-9,3.85-1.68,0-2.45-.91-2.45-2.87a2.15,2.15,0,0,1,1-1.89,15,15,0,0,1,4.48-2.8,17.66,17.66,0,0,1,6.58-1.4,14,14,0,0,1,4.13.56,4.89,4.89,0,0,1,2.24,1.19,2.38,2.38,0,0,1,.49,1.26q0,2.52-2.94,6.3a31.17,31.17,0,0,1-6.65,6.58,7.75,7.75,0,0,1-.14,1.33c-.42,2.24-.84,4.34-1.33,6.3A15.23,15.23,0,0,0,782.47,585.45Zm18.76-21.14a33.93,33.93,0,0,1,4.48-5,4.16,4.16,0,0,1,2-.7,2.46,2.46,0,0,1,2,1.05,4.48,4.48,0,0,1,.41,1.54,34.77,34.77,0,0,0,.14,3.71,9.93,9.93,0,0,0,1.2,5.11c.49.77.91,1.19,1.33,1.19s2-.77,4.69-2.31a1.57,1.57,0,0,1,1-.56c.84,0,1.33.56,1.61,1.54a4.17,4.17,0,0,1-.42,1.89,12.26,12.26,0,0,1-4.06,3.08,9,9,0,0,1-3.86,1c-3.5,0-5.67-3.5-6.44-10.57q-1.58,2.52-6.09,9.66a3.44,3.44,0,0,1-3.08,1.54q-2.31,0-2.31-8.82a3.52,3.52,0,0,1-.84-2,3.3,3.3,0,0,1,.35-1.68,2.7,2.7,0,0,1,2-1,3.12,3.12,0,0,1,2.45,1.54c.21,1.12.35,2.38.49,3.85C799.2,567.18,800.11,565.85,801.23,564.31Zm11,24.15a60,60,0,0,1-3.57,7.56q-.63,1.05-1,1.89c.7.7,1.4,1.33,2.11,2a46.72,46.72,0,0,0,12,7.42c.7.28,1.47.63,2.17.91,1.12.49,1.68,1,1.68,1.75a1.78,1.78,0,0,1-1.47,1.19c-.56,0-1.26.07-2.1.07a30.09,30.09,0,0,1-3.29-.63,28,28,0,0,1-6.87-3.29,49.48,49.48,0,0,1-7-5q-1.15,1.47-2.1,2.73a24.2,24.2,0,0,1-3.5,3.85,4.23,4.23,0,0,1-2.38,1,1.32,1.32,0,0,1-1.19-.56,1.5,1.5,0,0,1-.49-1.26,2.67,2.67,0,0,1,1-1.68c1.12-1.19,2.24-2.52,3.5-4.06.56-.84,1.12-1.75,1.82-2.87l-4.9-4.69a3.54,3.54,0,0,1-.77-1.4,3.05,3.05,0,0,1,.7-2.1,2.13,2.13,0,0,1,1.68-.77,2.3,2.3,0,0,1,1.47.42A10.22,10.22,0,0,1,801,592c1,.91,2,1.89,3.15,2.87.14-.28.35-.56.49-.84a53.06,53.06,0,0,0,4.13-11.76c-3.43,1.47-7.14,3.15-11.13,5.11a3.65,3.65,0,0,1-1.47.63,2.17,2.17,0,0,1-1.61-.84,2.74,2.74,0,0,1-.63-1.82,3.11,3.11,0,0,1,.91-2.1,42.53,42.53,0,0,1,6.79-3.43c4.2-1.82,6.72-2.73,7.7-2.73h1a3.23,3.23,0,0,1,2.52,1.47,4.53,4.53,0,0,1,1,3.15A21.11,21.11,0,0,1,812.22,588.46Zm-2-36a2.67,2.67,0,0,0,.63.63,37.49,37.49,0,0,0,4.35-7.36,17.9,17.9,0,0,1,.77-1.68,2.2,2.2,0,0,1,1.33-.91,4,4,0,0,1,2,.56,2.59,2.59,0,0,1,1,2.1,2.78,2.78,0,0,1-.35,1.26,12,12,0,0,1-.63,1.54,31.93,31.93,0,0,1-5,7.29,46.26,46.26,0,0,0,9.67,6c.84.42,1.61.84,2.45,1.19,1.19.49,1.82,1.12,1.82,1.82a1.72,1.72,0,0,1-1.47,1.33,19.77,19.77,0,0,1-2.24.07,12.27,12.27,0,0,1-3.78-.91A32.87,32.87,0,0,1,813,561a53.2,53.2,0,0,1-9.32-7.77,110.53,110.53,0,0,1-7.91-8.62,2.61,2.61,0,0,1-.84-1.33,2.39,2.39,0,0,1,.77-2,1.63,1.63,0,0,1,1.4-.7,2.94,2.94,0,0,1,1.54.35c.35.28.84.7,1.54,1.33,1.4,1.47,3,3.08,4.69,4.76l.07.14c.28-1.4.56-2.73.77-4.13.14-1,.35-1.89.49-2.87a2.21,2.21,0,0,1,2.24-1.47c1.61.07,2.45.84,2.52,2.24a22.35,22.35,0,0,1-1.25,4.55c-.85,1.83-1.55,3.37-2.11,4.49C808.44,550.87,809.28,551.71,810.19,552.48Z" transform="translate(-216.43 -538.4)"/><path class="cls-1" d="M872.91,579.92a11.72,11.72,0,0,1-2.38.77c-.35,6.3-.84,11.9-1.47,16.87q4.2-.21,8-.21a133,133,0,0,1,14.63.56c1.62.28,2.45,1.05,2.45,2.31a2.39,2.39,0,0,1-2.24,2.52c-1.26-.14-3.14-.28-5.74-.42-2.45-.14-5.74-.14-9.8-.14A148.89,148.89,0,0,0,843.72,606c-.91.07-1.54.14-1.89.14a2.4,2.4,0,0,1-1.61-.91,2.85,2.85,0,0,1-.91-1.75c0-1.4.84-2.31,2.59-2.73a83.37,83.37,0,0,1,11.06-2,101.43,101.43,0,0,1,10.71-1c.28,0,.49-.07.7-.07.63-5.32,1.12-10.71,1.4-16a41,41,0,0,1-5.81.63H853.1c-2.52,0-3.78-1-3.78-3,0-1.75,1.12-2.8,3.36-3.22.07.56.63.91,1.75.91h6a29.23,29.23,0,0,0,5.53-.77c.07-2.66.14-5.25.14-7.84,0-2.31-.14-4.62-.28-6.93a51.94,51.94,0,0,1-9.66,1.75h-3.43a3.33,3.33,0,0,1-2.45-.91,4.6,4.6,0,0,1-1.47-3.64c0-1.12,0-2.59.14-4.34.14-1.26.35-2.45.49-3.58a2.36,2.36,0,0,1,2.17-1.46h.49a2.57,2.57,0,0,1,2.38,2.73c-.14,3.15-.14,4.9-.14,5.32s.35.49,1,.49c1.68,0,4.9-.77,9.73-2.31a33,33,0,0,0-2.17-6.73,9.31,9.31,0,0,1-.56-2.58,2.86,2.86,0,0,1,.84-2.11,2.4,2.4,0,0,1,1.82-1c.63,0,1.4.77,2.24,2.17a39.85,39.85,0,0,1,2.66,8.76,81.55,81.55,0,0,0,11.83-4.91c1.54.36,2.38,1.12,2.52,2.32a2.67,2.67,0,0,1-1.12,2.1A48.61,48.61,0,0,1,871,559.83a.54.54,0,0,1-.21.07c.14,2.1.21,4.13.21,6.23q-.11,4.73-.21,8.82a40,40,0,0,0,12.18-6.65,6.57,6.57,0,0,1,1.33-.49,2.47,2.47,0,0,1,1.47,2.52,2.78,2.78,0,0,1-1.4,2.24A29.81,29.81,0,0,1,872.91,579.92Z" transform="translate(-216.43 -538.4)"/><path class="cls-1" d="M923.17,599A112.69,112.69,0,0,0,941,603.72a77.73,77.73,0,0,0,8,1c2.38.21,4.48.35,6.37.35,1.54,0,3.29-.07,5.11-.21,1.47-.14,3.09-.35,4.84-.56a20.7,20.7,0,0,1,2.87-.28c1.19,0,1.82.28,2,1a2.83,2.83,0,0,1-.49,1.33,3.59,3.59,0,0,1-1.34,1.12,59.15,59.15,0,0,1-17,2.17c-10.08,0-21.63-2.45-34.65-7.21a45.45,45.45,0,0,1-6.16-2.8c-1.19-.7-2.17-1.33-3-1.89a2.74,2.74,0,0,1-.42-1.61,3.07,3.07,0,0,1,1-2.24,2.11,2.11,0,0,1,1.61-.63,3.38,3.38,0,0,1,1.47.42c.84.42,2,.91,3.22,1.47a12.08,12.08,0,0,0,2-6.65,5.54,5.54,0,0,0-1.33-3,4.51,4.51,0,0,1-1.26-2.8c0-1.33.77-2.94,2.45-4.9a4,4,0,0,0,.91-1.68,8.08,8.08,0,0,0-1.19-2.8,25.15,25.15,0,0,1-2.52-2.73c.07-1.4,1-2.17,2.73-2.17a3.53,3.53,0,0,1,1.89,1c2.45,1.54,3.71,3.5,3.71,5.88,0,1.75-1,4.2-3.08,7.28A11.21,11.21,0,0,1,921,589.3a11,11,0,0,1-2.66,7.63C920,597.63,921.56,598.33,923.17,599Zm.49-35.63a4.38,4.38,0,0,1-2.94-1.4,23.37,23.37,0,0,0-7.84-3.36,3.29,3.29,0,0,1-1.47-.49,5,5,0,0,1-.21-1.61,5.32,5.32,0,0,1,.07-1c.28-1,1.26-1.61,2.8-1.68a13.9,13.9,0,0,1,5.39,1.26,18.89,18.89,0,0,1,5.46,3.71,5.09,5.09,0,0,1,.49,2C925.27,562.49,924.71,563.33,923.66,563.33Zm9.66,9.73q-.11,1.05-.42,6.93c-.14,2.1-.14,4-.14,5.6A53.44,53.44,0,0,0,933,591a18,18,0,0,0,.84,3.85v.63q-.11,1.89-1.89,1.89c-.7,0-1.33-.49-1.82-1.54-1.68-2.94-2.59-7.63-2.59-13.93a82.92,82.92,0,0,1,.56-8.33c.07-1,.14-2,.14-3a3.19,3.19,0,0,1,.77-2,4,4,0,0,1,1.61-.84h.56a2.67,2.67,0,0,1,2.24,2.31C933.39,571.31,933.32,572.36,933.32,573.06Zm13.79-8.26a17.52,17.52,0,0,1-.21-2.8c-.07-1-.14-2-.14-3-.07-.56-.14-1.12-.21-1.54-.07-.21-.14-.49-.21-.77a4,4,0,0,1-1,.14h-.49a1.35,1.35,0,0,1-.91-.7,1.89,1.89,0,0,1-.35-1.12,2,2,0,0,1,1-1.61,74.83,74.83,0,0,1,7.77-2,12.05,12.05,0,0,1,2-.21,2,2,0,0,1,1.19.71,3,3,0,0,1,.49,1.19c0,.56-.42,1-1.19,1.33-1.19.35-2.73.77-4.55,1.26a.31.31,0,0,0,.07.21,14.17,14.17,0,0,1,.28,1.82c0,.84.07,1.75.07,2.59,0,1.68-.07,3-.07,3.92,3.5-.49,7.14-.91,10.85-1.19,1.47,0,2.87-.07,4.21-.07,2.1.35,3.22,2.31,3.22,5.81,0,1.12-.21,3.29-.49,6.44-.15,1.54-.21,3.43-.21,5.53,0,2.59,0,5.46.06,8.68.08,4.13.15,6.93.29,8.33s-.92,2-2.66,2a8.79,8.79,0,0,1-7.22-4,3.26,3.26,0,0,1-.35-1.54c.14-.35.35-.56.63-.56,1.12.21,2.59.49,4.48.91,0-1,.08-2.24.14-3.78,0-2.17.07-5.25.15-9.17,0-4.2.13-8.19.41-12.11,0-1.4-.28-2.1-.7-2.17-7.21.07-16,1.54-26.32,4.48-1.12-.14-1.75-.91-1.82-2.45,0-.91.56-1.68,1.82-2.24.14,0,.21-.07.35-.14a48,48,0,0,0-1.12-8.4c-1.05-4.9-2-9-2.66-12.18a3.18,3.18,0,0,1,.84-1.69,1.87,1.87,0,0,1,1.61-.84,7.43,7.43,0,0,1,1.47.14,4.17,4.17,0,0,1,1.47,1.26,35,35,0,0,1,5.81-2.24,38.9,38.9,0,0,1,9-1.12,14.74,14.74,0,0,1,6,1,7.68,7.68,0,0,1,3,2.52,5.08,5.08,0,0,1,.76,2.74,13.1,13.1,0,0,1-1.25,4.83,26,26,0,0,1-4.35,7.35,3.79,3.79,0,0,1-2,.63c-1.12,0-1.68-.56-1.68-1.75A2,2,0,0,1,955,558a36.87,36.87,0,0,0,2.52-5.6,9.93,9.93,0,0,0,.84-3c0-2.1-1.4-3.14-4.2-3.14a35.25,35.25,0,0,0-14.14,3.5c.14,1.54.35,3.29.63,5.32.7,5.39,1.12,9,1.12,10.78C943.4,565.57,945.15,565.22,947.11,564.8Zm10.22,20.44a28,28,0,0,1-5.32,3.29,32.07,32.07,0,0,1-6.37,2.59,2.09,2.09,0,0,1-2.1,1.61,1.75,1.75,0,0,1-2-1.89,45.38,45.38,0,0,0-.91-5.39c-.84-3.08-1.54-5.67-2.1-7.7a3,3,0,0,1,.84-1.61,1.82,1.82,0,0,1,1.47-.84,7.22,7.22,0,0,1,1.4.14c.21.14.35.28.49.35.84-.21,1.68-.42,2.52-.56a32.76,32.76,0,0,1,5.32-.42,10.18,10.18,0,0,1,4.62,1.05,5.07,5.07,0,0,1,2.38,2.31,8.59,8.59,0,0,1,.49,2.73,7.38,7.38,0,0,1-.42,1.68q.11.21.21.21a3.51,3.51,0,0,1,.14.84A3,3,0,0,1,957.33,585.24Zm-7.56,0a10.61,10.61,0,0,0,3-3.29,5.25,5.25,0,0,0,.49-1.54c0-.91-.7-1.4-2-1.4a30.26,30.26,0,0,0-6.79.91c.14.91.28,1.89.49,2.94.28,1.68.49,3.08.63,4.06.56-.21,1.12-.42,1.54-.63.84-.35,1.68-.7,2.52-1Z" transform="translate(-216.43 -538.4)"/><path class="cls-1" d="M1010.67,581.25a46.79,46.79,0,0,1-5.81,7.77,3.24,3.24,0,0,1-2.38,1.05q-2.52,0-2.52-2.73a3.43,3.43,0,0,1,.84-2.24,42.14,42.14,0,0,0,6.3-8.89c.42-4.76,2-7.21,4.62-7.21a2.74,2.74,0,0,1,3.08,3.08C1014.8,573.69,1013.4,576.77,1010.67,581.25Z" transform="translate(-216.43 -538.4)"/><path class="cls-1" d="M223.71,635.78c-1.4,0-2.17-1-2.38-2.95,0-.83.7-1.61,2.17-2.31.77-.27,1.82-.63,3.08-1,2.66-.56,5.25-1.26,7.77-2a82.67,82.67,0,0,0,8.4-2.66,1.77,1.77,0,0,1,1.54.77,2.52,2.52,0,0,1,.14.77,3.14,3.14,0,0,1-1.12,2.1c-1.12,1.26-3.92,2.66-8.26,4.27-1.47.56-2.87,1.13-4.2,1.55q.1,2.73.21,6.93c.91-.28,2-.56,3.15-.91a29.7,29.7,0,0,1,4.76-.49,29.28,29.28,0,0,1,3.92.28,6.37,6.37,0,0,1,3.57,2,5.24,5.24,0,0,1,1,2.87,19.27,19.27,0,0,1-1.05,5.46,22.36,22.36,0,0,1-1.4,3.57l.49.49a5.4,5.4,0,0,1,.14,1.05,3.55,3.55,0,0,1-.91,2.1,40.37,40.37,0,0,1-6.23,2.38,72.79,72.79,0,0,1-8.47,2,2.21,2.21,0,0,1-1,.35c-.14,0-.28,0-.35-.14a7.26,7.26,0,0,1-.21.84,85.89,85.89,0,0,1-5,12.95,39.92,39.92,0,0,1-3.71,6.09,2.5,2.5,0,0,1-1.47.77,1.74,1.74,0,0,1-1.26-.49,1.26,1.26,0,0,1-.49-1,3.68,3.68,0,0,1,.91-1.89,90.54,90.54,0,0,0,6.3-16.38c.63-2.24,1.19-4.76,1.68-7.42a44.07,44.07,0,0,0,.49-6.23c0-5-.14-9.24-.28-12.53a5.34,5.34,0,0,1-.07-1.19A16.49,16.49,0,0,1,223.71,635.78Zm16,18.76a17.21,17.21,0,0,0,1.61-3.22,25.13,25.13,0,0,0,1.33-5.46q0-.95-1.68-1.05a20.46,20.46,0,0,0-5.81.84,35.94,35.94,0,0,0-4.06,1.19,51.26,51.26,0,0,1-.84,8.61,12.36,12.36,0,0,0-.28,1.4c1-.14,1.82-.35,2.66-.49,2.52-.56,4.76-1.05,6.86-1.54A1,1,0,0,1,239.67,654.54Zm18.2-10.36v1.19a61.51,61.51,0,0,0,6.31-1.19,56.8,56.8,0,0,0,14.35-5.6c.28,0,.56-.07.84-.07a1.92,1.92,0,0,1,1.75,1c.14.42.21.77.35,1.12a2.75,2.75,0,0,1-.91,2,40.1,40.1,0,0,1-8.47,4.55,2.9,2.9,0,0,1,.35,1.33c0,1.4-.07,3.85-.21,7.21-.07,2.73-.07,5.74-.07,9,0,2.66.07,6,.28,10.08.28,3.71.42,6.86.42,9.52a21.11,21.11,0,0,1-2,9.52,3,3,0,0,1-2.45,1.4c-1.61,0-2.38-.84-2.38-2.52a17,17,0,0,0,2.38-7.77c-.07-4-.28-8-.56-12.25-.35-5-.56-10-.56-14.91,0-2.8-.07-5.67-.07-8.75a10,10,0,0,1-1.89.63,41,41,0,0,1-7.15,1.33,1.2,1.2,0,0,1-.56-.07A70.73,70.73,0,0,1,256,662.87c-1.4,6.16-3.22,10.5-5.46,13.09a1.9,1.9,0,0,1-1.68.7,2.32,2.32,0,0,1-2-1.68,6.5,6.5,0,0,1,.63-1.54A64.08,64.08,0,0,0,253,648a26.67,26.67,0,0,0-2.17-10.57.76.76,0,0,1-.21-.49c-.21-.28-.35-.49-.49-.7a3.18,3.18,0,0,1-.49-1.75,2.15,2.15,0,0,1,1-1.54A79.25,79.25,0,0,0,261.17,628a18.08,18.08,0,0,0,4.2-3.22,1.86,1.86,0,0,1,.84-.21,5.73,5.73,0,0,1,2.1.49,2.58,2.58,0,0,1,1.54,2,2.26,2.26,0,0,1-.63,1.4c-2,2.1-6.3,4.55-13,7.36A20.2,20.2,0,0,1,257.87,644.18Z" transform="translate(-216.43 -538.4)"/><path class="cls-1" d="M312.19,658c-1.26-1.82-2.59-3.57-3.85-5.25a2,2,0,0,1-.42-1.26v-.7a3.14,3.14,0,0,1,1-1.82,3.87,3.87,0,0,1,1.54-.7c.28,0,.56.07.84.07a5.26,5.26,0,0,1,1.26.49c2,1.75,4.9,6.3,8.82,13.72a14.76,14.76,0,0,1,1.61,4.9c0,1.54-.7,2.31-2,2.31a2.64,2.64,0,0,1-2-1.19,57,57,0,0,1-3.36-5.18c-.07-.14-.14-.21-.21-.35q-3.26,8.4-11.76,15.75a10.54,10.54,0,0,1-6.09,2.87c-1.68-.28-2.73-1.4-3.08-3.5-.07-1.05-.07-2.52-.07-4.41,0-5.32.14-10.78.42-16.24a39,39,0,0,0-1.61-11.83,15.9,15.9,0,0,1-.91-4.69v-1a2.52,2.52,0,0,1,2.59-2,3.26,3.26,0,0,1,2.24,1c1.89,3.43,2.87,10.43,2.87,21,0,4.48-.21,9.87-.49,16.1,3.22-2.38,6.37-6.09,9.38-11.13a24.15,24.15,0,0,0,2.45-5.53A4,4,0,0,1,312.19,658Zm39.42,32.13a6.7,6.7,0,0,1-2.45-.77,49.9,49.9,0,0,1-5.74-5A69.86,69.86,0,0,1,331,669.52a4.28,4.28,0,0,1-.77-1.26c-1.26,2.52-2.59,5-4.06,7.49a57.63,57.63,0,0,1-8.47,11.06q-1.89,1.68-3.78,3.15a6.09,6.09,0,0,1-2.17.49c-.91-.07-1.4-.63-1.47-1.75q0-.74,1.26-1.68a65.22,65.22,0,0,0,8.4-10.15c7-11.27,12.33-24.71,15.83-40.39.49-2.39,1-4.63,1.47-6.87.28-1,1.05-1.54,2.45-1.54a2.46,2.46,0,0,1,2.17,2.24,43,43,0,0,1-.77,5.68,147.81,147.81,0,0,1-7.42,24.5c-.36.84-.7,1.68-1.05,2.45a4.15,4.15,0,0,1,1.12.49,31.42,31.42,0,0,0,2,2.87,97.81,97.81,0,0,0,9.73,12.46c2.17,2.24,4.2,4.41,6.16,6.51a3.74,3.74,0,0,1,1.75,3,2,2,0,0,1-1.33,1.89Z" transform="translate(-216.43 -538.4)"/><path class="cls-1" d="M392,661.89a7,7,0,0,1,.7,3.15,31.64,31.64,0,0,0,2.1,12.18,20.57,20.57,0,0,1,1.12,3,3.61,3.61,0,0,1-.84,2.31,2.17,2.17,0,0,1-1.75,1c-2,0-3.43-1.89-4.27-5.67-3.43,3.78-7.35,5.74-11.83,5.74a14.81,14.81,0,0,1-12.11-5.67,20,20,0,0,1-4.34-13.16c0-9.24,3.22-17.78,9.66-25.48s13.79-11.56,22.05-11.56a2.7,2.7,0,0,1,3,3c0,1.82-1.05,2.88-3,3-7,.7-13.09,4.06-18.27,10.15s-7.84,12.81-7.84,20.09c0,4.2,1.05,7.56,3.29,10.08a9.94,9.94,0,0,0,8,3.78,8.72,8.72,0,0,0,6.09-2.8,11,11,0,0,0,3.22-8.12c0-.28-.07-.84-.07-1.68a9.55,9.55,0,0,1-.14-1.68,2.51,2.51,0,0,1,.7-1.68c-4.06-.21-6.09-1.33-6.09-3.43a2.62,2.62,0,0,1,.91-2,2.91,2.91,0,0,1,2.1-.91,30.09,30.09,0,0,0,5,.63,50.77,50.77,0,0,0,6.93-.84c1.54-.21,2.31-.35,2.45-.35a2.53,2.53,0,0,1,2.8,2.87C401.58,660.28,398.36,661.61,392,661.89Z" transform="translate(-216.43 -538.4)"/><path class="cls-1" d="M415.72,663.36a67.86,67.86,0,0,0-2.31,14.42,4.14,4.14,0,0,1,1.4,3.15,2.46,2.46,0,0,1-2,1.82c-3.22,0-4.76-2.87-4.76-8.61,0-2.73.91-8,2.8-16a12.88,12.88,0,0,1-.21-1.68,2.47,2.47,0,0,1,1.61-2.24q4.62,0,4.62,4.41Zm2.1-27.58a3.81,3.81,0,0,1-1.19-.28c-2-.71-3-2.53-3-5.46,0-1.48,1-2.53,2.94-3.23,2.38.28,3.57,1.82,3.57,4.77Q420.13,635.78,417.82,635.78Z" transform="translate(-216.43 -538.4)"/><path class="cls-1" d="M451.84,660.77a104,104,0,0,0-14.77,19.39c-1.19,2-2.38,3.08-3.5,3.08-1.61,0-2.87-1.61-3.78-4.69a112.28,112.28,0,0,1-3.57-17.71,22.48,22.48,0,0,1-.35-3.5,2.76,2.76,0,0,1,.84-2,2.54,2.54,0,0,1,3.71-.07,3.41,3.41,0,0,1,1,1.75c1.05,7.35,2,12.81,2.66,16.45a217.46,217.46,0,0,1,15.33-18.69,3.61,3.61,0,0,1,.84-2.31,2.5,2.5,0,0,1,2-.91,3.39,3.39,0,0,1,2.17.84,2.91,2.91,0,0,1,.91,2.1C455.27,656.22,454.08,658.32,451.84,660.77Z" transform="translate(-216.43 -538.4)"/><path class="cls-1" d="M480.33,683.17A12.41,12.41,0,0,1,468.57,676h-2.1a13.54,13.54,0,0,1-5.39-1.12c-2.38-1-3.5-2.24-3.5-3.78q0-2.94,2.73-2.94a4.64,4.64,0,0,1,2.1,1,4.84,4.84,0,0,0,2.87,1.05h1.61a16.9,16.9,0,0,1-.28-2.87,18.74,18.74,0,0,1,2.52-9.45c2-3.43,4.41-5.18,7.42-5.18a7.27,7.27,0,0,1,5.11,2.52,7.77,7.77,0,0,1,2.52,5.53q0,7.77-10.5,13.44c1.68,2,3.5,3,5.6,3a25.54,25.54,0,0,0,2.66-.21c1.19-.14,2.1-.28,2.66-.28a2.85,2.85,0,0,1,2,.91,3.36,3.36,0,0,1,.84,2.1C487.4,682,485,683.17,480.33,683.17ZM478,659.44a2.91,2.91,0,0,0-1.68-.7q-1.89,0-2.94,3.15a14.51,14.51,0,0,0-1,5.46v1.26q6.3-4.1,6.3-7.56A2.73,2.73,0,0,0,478,659.44Z" transform="translate(-216.43 -538.4)"/><path class="cls-1" d="M568.6,688.49a3.17,3.17,0,0,1-2.1.91c-1.61,0-3.22-1.47-4.76-4.27-2.38-4.2-4.34-10.57-5.74-19-.42-2.31-1.26-9.17-2.59-20.65a153.17,153.17,0,0,0-7.07,21.91c-.42,2-1.4,2.87-2.8,2.87-1,0-2.24-.63-3.5-2-2.59-2.66-5.11-6.65-7.56-12.11a60.92,60.92,0,0,1-4.83-13.86,118.77,118.77,0,0,0-3.36,16.8c-.56,4.55-.91,9.45-1,14.63-.14,2.8-1,4.2-2.66,4.2-1.4,0-2.52-1.4-3.29-4.2a28.48,28.48,0,0,1-.77-7.21c0-1.4.28-4.69.84-9.94a96.09,96.09,0,0,0,.7-9.59c0-.49-.07-1.19-.07-2.17s-.07-1.54-.07-2.1a2.48,2.48,0,0,1,2.8-2.8,3.77,3.77,0,0,1,1.89.63,74.9,74.9,0,0,1,3.08-7.63,2.75,2.75,0,0,1,2.73-1.62c1.4,0,2.31.84,2.73,2.46,3.08,12.81,6.72,22.12,11,27.93A114,114,0,0,1,552,636.62a2.52,2.52,0,0,1,2.38-1.41,2.79,2.79,0,0,1,2.66,2.25A87.6,87.6,0,0,1,560.34,654c.84,7.14,1.54,12,2,14.42,1.05,5.88,2.31,10.15,3.85,12.67a5.12,5.12,0,0,1,2.45,2.87c.56,1.47.91,2.31.91,2.45A3.48,3.48,0,0,1,568.6,688.49Z" transform="translate(-216.43 -538.4)"/><path class="cls-1" d="M593.8,683.17A12.41,12.41,0,0,1,582,676h-2.1a13.54,13.54,0,0,1-5.39-1.12c-2.38-1-3.5-2.24-3.5-3.78q0-2.94,2.73-2.94a4.64,4.64,0,0,1,2.1,1,4.84,4.84,0,0,0,2.87,1.05h1.61a16.9,16.9,0,0,1-.28-2.87,18.74,18.74,0,0,1,2.52-9.45c2-3.43,4.41-5.18,7.42-5.18a7.27,7.27,0,0,1,5.11,2.52,7.77,7.77,0,0,1,2.52,5.53q0,7.77-10.5,13.44c1.68,2,3.5,3,5.6,3a25.54,25.54,0,0,0,2.66-.21c1.19-.14,2.1-.28,2.66-.28a2.85,2.85,0,0,1,2,.91,3.36,3.36,0,0,1,.84,2.1C600.87,682,598.49,683.17,593.8,683.17Zm-2.38-23.73a2.91,2.91,0,0,0-1.68-.7q-1.89,0-2.94,3.15a14.51,14.51,0,0,0-1,5.46v1.26q6.3-4.1,6.3-7.56A2.73,2.73,0,0,0,591.42,659.44Z" transform="translate(-216.43 -538.4)"/><path class="cls-1" d="M653,638.23a31.45,31.45,0,0,0-10.57,4.55c-4.06,2.66-6.09,5.32-6.09,8.12,0,1.82,2.45,4,7.42,6.37a29,29,0,0,1,6.65,4.2,9.85,9.85,0,0,1,3.15,7.35c0,4.13-2.1,7.63-6.16,10.43a20.21,20.21,0,0,1-11.69,3.92c-4.27,0-6.37-1.19-6.37-3.57a2.85,2.85,0,0,1,.84-2.1,2.25,2.25,0,0,1,2-1,10.56,10.56,0,0,1,2,.35,7.18,7.18,0,0,0,1.82.28,15.22,15.22,0,0,0,7.56-2.17c2.87-1.68,4.34-3.78,4.34-6.16,0-2-2.59-4.2-7.63-6.58a22.75,22.75,0,0,1-6.44-3.85,9.73,9.73,0,0,1-3.15-7.49c0-3.71,1.82-7.21,5.6-10.5a33.37,33.37,0,0,1,10.36-6.24,4.92,4.92,0,0,1,4.62-2.3,5,5,0,0,1,2.8.91,3.32,3.32,0,0,1,1.12,2.59A2.67,2.67,0,0,1,653,638.23Z" transform="translate(-216.43 -538.4)"/><path class="cls-1" d="M686.27,683.59c-2.94,0-4.48-3.29-4.76-10l-.35-8.47q-9.45,7-12.18,12c-.49,1.12-1,2.24-1.54,3.29-.84,1.54-1.47,2.31-2,2.31a3.59,3.59,0,0,1-2.73-1.26,4.69,4.69,0,0,1-1-2.87v-1.89c-.07-1-.07-1.82-.07-2.24a102.54,102.54,0,0,1,1.82-19.74l4.06-22.34c.42-2.3,1.19-3.5,2.31-3.5a2.73,2.73,0,0,1,2.31,1.47,5.06,5.06,0,0,1,1.05,2.94c0,.36-.21,1.48-.56,3.44s-1,5-1.75,9.1l-2.1,11q-.53,2.73-1.68,12.39a50.75,50.75,0,0,1,8.12-7.35c4.06-3.22,6.79-4.83,8.05-4.83a3.28,3.28,0,0,1,2.59,1.33,5.4,5.4,0,0,1,1.12,3.15c0,.21-.14,1.19-.28,2.94s-.14,2.87-.14,3.29a73.41,73.41,0,0,0,.63,9.31c.14,1.26.35,2.73.56,4.55C687.53,682.89,687.11,683.59,686.27,683.59Z" transform="translate(-216.43 -538.4)"/><path class="cls-1" d="M719.52,683.59c-2.94,0-4.48-3.29-4.76-10l-.35-8.47q-9.45,7-12.18,12c-.49,1.12-1,2.24-1.54,3.29-.84,1.54-1.47,2.31-2,2.31a3.59,3.59,0,0,1-2.73-1.26,4.69,4.69,0,0,1-1-2.87v-1.89c-.07-1-.07-1.82-.07-2.24a102.54,102.54,0,0,1,1.82-19.74l4.06-22.34c.42-2.3,1.19-3.5,2.31-3.5a2.73,2.73,0,0,1,2.31,1.47,5.06,5.06,0,0,1,1.05,2.94c0,.36-.21,1.48-.56,3.44s-1,5-1.75,9.1l-2.1,11q-.53,2.73-1.68,12.39a50.75,50.75,0,0,1,8.12-7.35c4.06-3.22,6.79-4.83,8.05-4.83a3.28,3.28,0,0,1,2.59,1.33,5.4,5.4,0,0,1,1.12,3.15c0,.21-.14,1.19-.28,2.94s-.14,2.87-.14,3.29a73.41,73.41,0,0,0,.63,9.31c.14,1.26.35,2.73.56,4.55C720.78,682.89,720.36,683.59,719.52,683.59Z" transform="translate(-216.43 -538.4)"/><path class="cls-1" d="M752.77,683.59c-2.94,0-4.48-3.29-4.76-10l-.35-8.47q-9.45,7-12.18,12c-.49,1.12-1,2.24-1.54,3.29-.84,1.54-1.47,2.31-2,2.31a3.59,3.59,0,0,1-2.73-1.26,4.69,4.69,0,0,1-1-2.87v-1.89c-.07-1-.07-1.82-.07-2.24a102.54,102.54,0,0,1,1.82-19.74l4.06-22.34c.42-2.3,1.19-3.5,2.31-3.5a2.73,2.73,0,0,1,2.31,1.47,5.06,5.06,0,0,1,1.05,2.94c0,.36-.21,1.48-.56,3.44s-1,5-1.75,9.1l-2.1,11q-.53,2.73-1.68,12.39a50.75,50.75,0,0,1,8.12-7.35c4.06-3.22,6.79-4.83,8.05-4.83a3.28,3.28,0,0,1,2.59,1.33,5.4,5.4,0,0,1,1.12,3.15c0,.21-.14,1.19-.28,2.94s-.14,2.87-.14,3.29a73.41,73.41,0,0,0,.63,9.31c.14,1.26.35,2.73.56,4.55C754,682.89,753.61,683.59,752.77,683.59Z" transform="translate(-216.43 -538.4)"/><path class="cls-1" d="M782,683.17A12.41,12.41,0,0,1,770.27,676h-2.1a13.5,13.5,0,0,1-5.39-1.12c-2.39-1-3.51-2.24-3.51-3.78q0-2.94,2.73-2.94a4.71,4.71,0,0,1,2.11,1,4.82,4.82,0,0,0,2.87,1.05h1.61a16.9,16.9,0,0,1-.28-2.87,18.74,18.74,0,0,1,2.52-9.45c2-3.43,4.41-5.18,7.42-5.18a7.27,7.27,0,0,1,5.11,2.52,7.77,7.77,0,0,1,2.52,5.53q0,7.77-10.5,13.44c1.68,2,3.5,3,5.6,3a25.54,25.54,0,0,0,2.66-.21c1.19-.14,2.1-.28,2.66-.28a2.85,2.85,0,0,1,2,.91,3.36,3.36,0,0,1,.84,2.1C789.1,682,786.72,683.17,782,683.17Zm-2.38-23.73a2.91,2.91,0,0,0-1.68-.7q-1.89,0-2.94,3.15a14.51,14.51,0,0,0-1,5.46v1.26q6.3-4.1,6.3-7.56A2.73,2.73,0,0,0,779.65,659.44Z" transform="translate(-216.43 -538.4)"/><path class="cls-1" d="M815,683.17A12.41,12.41,0,0,1,803.24,676h-2.11a13.57,13.57,0,0,1-5.39-1.12c-2.38-1-3.5-2.24-3.5-3.78q0-2.94,2.73-2.94a4.71,4.71,0,0,1,2.11,1,4.8,4.8,0,0,0,2.87,1.05h1.61a16.9,16.9,0,0,1-.28-2.87,18.74,18.74,0,0,1,2.52-9.45c2-3.43,4.41-5.18,7.42-5.18a7.27,7.27,0,0,1,5.11,2.52,7.77,7.77,0,0,1,2.52,5.53q0,7.77-10.5,13.44c1.68,2,3.5,3,5.6,3a25.54,25.54,0,0,0,2.66-.21c1.19-.14,2.1-.28,2.66-.28a2.85,2.85,0,0,1,2,.91,3.36,3.36,0,0,1,.84,2.1C822.07,682,819.69,683.17,815,683.17Zm-2.38-23.73a2.91,2.91,0,0,0-1.68-.7q-1.89,0-2.94,3.15a14.51,14.51,0,0,0-1,5.46v1.26q6.3-4.1,6.3-7.56A2.73,2.73,0,0,0,812.62,659.44Z" transform="translate(-216.43 -538.4)"/><path class="cls-1" d="M835.86,674.42c.21,2.8.35,5.67.35,8.61a46,46,0,0,1-1.05,9.73c-.63,2.87-1.69,4.34-3.16,4.34a2.88,2.88,0,0,1-2-.91,3.09,3.09,0,0,1-.84-2.1,25.48,25.48,0,0,1,.7-3.15,49.37,49.37,0,0,0,.7-9.59,44.27,44.27,0,0,0-.21-5c-2-.14-2.87-1.12-2.87-2.94,0-1.47.91-2.52,2.87-3.22a9.92,9.92,0,0,1-.07-1.61,39.82,39.82,0,0,1,2.52-14.63q3.68-9.24,10.3-9.24a8.3,8.3,0,0,1,7.21,3.71,14.49,14.49,0,0,1,2.31,8.4C852.59,664.48,847,670.36,835.86,674.42ZM846,652.09a3.65,3.65,0,0,0-2.94-1.54c-2,0-3.71,2.1-5.18,6.23a34.08,34.08,0,0,0-2,11.41c7.36-2.66,11.07-6.86,11.07-12.6A6.41,6.41,0,0,0,846,652.09Z" transform="translate(-216.43 -538.4)"/><path class="cls-1" d="M859.65,641.38a2.28,2.28,0,0,1,2.24-2.52c1.89,0,7.49-.7,16.81-2.24,1.47,0,2.31.42,2.52,1.19,0,.28-.07.63-.07,1.05a2.76,2.76,0,0,1-1.33,1.47,30.21,30.21,0,0,1-5.67,2A70.29,70.29,0,0,1,862,644.53Q859.65,644.53,859.65,641.38Zm17.44,19.81a22.4,22.4,0,0,1-5.47,3.71,50.53,50.53,0,0,1-7.42,3.29,2.89,2.89,0,0,1-1.05.28,1.9,1.9,0,0,1-1.68-1.05,4.21,4.21,0,0,1-.56-2.52,2,2,0,0,1,1.4-1.82c1.54-.56,2.87-1,4-1.33,2.45-1,4.7-2,6.79-3a19.57,19.57,0,0,1,2.18-1.26,2.21,2.21,0,0,1,1-.21,2.26,2.26,0,0,1,1.68.91,5.4,5.4,0,0,1,.14,1.05A4,4,0,0,1,877.09,661.19ZM861.4,653a2.09,2.09,0,0,1,2-2.38c1.54,0,6.09-1,13.59-3.22,1.26,0,2,.35,2.24.91,0,.35-.07.7-.07,1.05a3.08,3.08,0,0,1-1.12,1.33,19.51,19.51,0,0,1-4.69,2.52,49.28,49.28,0,0,1-9.88,2.59C862.1,655.8,861.4,654.89,861.4,653Zm20,24.78a14.61,14.61,0,0,1-5.39,7.14,7.61,7.61,0,0,1-1.76,1c-1.18.84-2.24,1.54-3.21,2.1-.08,1.26-1,1.89-2.67,1.89-.84,0-1.68-.91-2.52-2.59a49.89,49.89,0,0,1-1.82-8,40.88,40.88,0,0,1-.56-6.58c0-2.24.77-3.36,2.45-3.43s2.45.7,2.59,2c1-.14,2.38-.28,3.93-.42a17.47,17.47,0,0,1,6.23,1.33c2,.91,3.08,2.1,3.08,3.5A9.82,9.82,0,0,1,881.36,677.78ZM865.6,632.55a4.54,4.54,0,0,1-1.33-3.5A3.54,3.54,0,0,1,866,627.3h1.4a29.51,29.51,0,0,1,9.6,1.82,2.85,2.85,0,0,1,1.26,1.68,2.31,2.31,0,0,1-1.75,2.53C873.17,633,869.52,632.83,865.6,632.55ZM868.89,678c.21,2,.49,3.64.78,5,.62-.28,1.18-.49,1.67-.7,1.2-.56,2.32-1.19,3.3-1.75a8.11,8.11,0,0,0,1-1.12,6.75,6.75,0,0,0,1.19-2.1c-.84-.84-2.31-1.26-4.27-1.26-1.12,0-2.38.07-3.79.14A13.64,13.64,0,0,0,868.89,678Zm11.42-11.27a3.31,3.31,0,0,1,.91-2,2.35,2.35,0,0,1,1.75-1c.35,0,.63.07.91.07a4.75,4.75,0,0,1,1.4.91,13.91,13.91,0,0,0,1.4,1.12,30,30,0,0,0,2.45,2,17,17,0,0,0,.28-2.31,11.75,11.75,0,0,0-1.61-5.46,11.2,11.2,0,0,1-2.38-7.07,8.25,8.25,0,0,1,1.19-3.64,28.77,28.77,0,0,0,1.89-3.57,10.52,10.52,0,0,0,1.4-4.34c0-.84-.63-1.82-1.75-2.94-1.82-1.26-2.73-2.52-2.73-3.93a2.3,2.3,0,0,1,.56-1.33,2.54,2.54,0,0,1,2-1q2.73,0,5,3.14a10.94,10.94,0,0,1,1.26,5.61,13.22,13.22,0,0,1-.91,4.62q-1.05,2.31-2.31,4.62a8.33,8.33,0,0,0-1,2.52c2.73,4.27,4.13,8.26,4.13,12a24.36,24.36,0,0,1-.84,6.3q2.73,2.1,5.67,4a94.46,94.46,0,0,0,10.85,6,87.82,87.82,0,0,0,13.93,4.62,1.4,1.4,0,0,1,1,1.47,2.16,2.16,0,0,1-.7,1.61,1.79,1.79,0,0,1-1.47.56,30.74,30.74,0,0,1-4.83-.42,48.33,48.33,0,0,1-6.09-1.54,83.19,83.19,0,0,1-11.48-5.11,68.3,68.3,0,0,1-8.89-5.46,13.77,13.77,0,0,1-.84,1.75,29.7,29.7,0,0,1-4.2,6.23,3.62,3.62,0,0,1-2.45,1c-1.26,0-2-.56-2-1.54a2,2,0,0,1,.56-1.54l2.1-3.15a53.35,53.35,0,0,0,2.87-5.67c-2-1.54-3.85-3.08-5.67-4.48A3.39,3.39,0,0,1,880.31,666.72Zm42.35-21.35a17.86,17.86,0,0,1-3.85,3.15,19.59,19.59,0,0,1-5,2.66c-.21,2.66-.42,5-.7,7.28s-.7,4.27-1,5.95a18,18,0,0,1,2-1c3.08-1.61,5-2.45,5.74-2.45a4.24,4.24,0,0,1,1,.14,1.74,1.74,0,0,1,.91,1.54,3,3,0,0,1-.49,1.68,26,26,0,0,1-4.34,3.29,54.82,54.82,0,0,1-7.35,4,17.44,17.44,0,0,1-7.42,1.82c-1.82-.07-2.73-2.17-2.73-6.37v-2.94c-.07-1.82-.07-2.94-.07-3.36v-1.61a11.24,11.24,0,0,0-.49-2.8,19.7,19.7,0,0,0-1.19-2.94,2.33,2.33,0,0,1,1.19-1.82,4.68,4.68,0,0,1,1.82-.35,1.81,1.81,0,0,1,1.19.63,12,12,0,0,1,1.54,2.8,15.5,15.5,0,0,1,.7,4.2c0,1.26,0,2.52.07,3.85,0,1.82.07,3,.07,3.64q0,1.47.42,1.47a15.46,15.46,0,0,0,2.73-1.19l.07-.07a124.18,124.18,0,0,0,1.54-19.11,41.21,41.21,0,0,0-1-9.1,42.34,42.34,0,0,1-4.62,2.94,4,4,0,0,1-2.31.56q-1.68-.1-1.68-1.47v-.56a1.64,1.64,0,0,1,.49-1.19,59.16,59.16,0,0,0,11.9-9.88,26.34,26.34,0,0,1,2-2.24,1.88,1.88,0,0,1,1.26-.91,4.51,4.51,0,0,1,2,.49,2.62,2.62,0,0,1,1.05,2.17,2.26,2.26,0,0,1-.42,1.26,12.85,12.85,0,0,1-1.54,2.11c-1.12,1.18-2.31,2.24-3.43,3.21,0,.08.07.15.07.21a26.49,26.49,0,0,1,1.19,8.55v1.68l.49-.21a38.78,38.78,0,0,0,4.83-2.38c.77-.56,1.26-.84,1.4-1a3.74,3.74,0,0,1,1.12-.28,2.26,2.26,0,0,1,1.68.91c0,.35.07.7.07,1.05A3.31,3.31,0,0,1,922.66,645.37Z" transform="translate(-216.43 -538.4)"/><path class="cls-1" d="M970.12,663.92a11.72,11.72,0,0,1-2.38.77c-.35,6.3-.84,11.9-1.47,16.87q4.2-.21,8-.21a133,133,0,0,1,14.63.56c1.61.28,2.45,1.05,2.45,2.31a2.4,2.4,0,0,1-2.24,2.52c-1.26-.14-3.15-.28-5.74-.42s-5.74-.14-9.8-.14A149.09,149.09,0,0,0,940.92,690c-.91.07-1.54.14-1.89.14a2.4,2.4,0,0,1-1.61-.91,2.85,2.85,0,0,1-.91-1.75c0-1.4.84-2.31,2.59-2.73a83.54,83.54,0,0,1,11.07-2,101.43,101.43,0,0,1,10.71-1c.28,0,.49-.07.7-.07.63-5.32,1.12-10.71,1.4-16a41,41,0,0,1-5.81.63h-6.86c-2.52,0-3.78-1-3.78-3,0-1.75,1.11-2.8,3.35-3.22.08.56.64.91,1.76.91h6a29.23,29.23,0,0,0,5.53-.77c.07-2.66.14-5.25.14-7.84,0-2.31-.14-4.62-.28-6.93a51.94,51.94,0,0,1-9.66,1.75H950a3.35,3.35,0,0,1-2.46-.91,4.62,4.62,0,0,1-1.46-3.64c0-1.12,0-2.59.13-4.34.14-1.26.36-2.45.5-3.58a2.34,2.34,0,0,1,2.16-1.46h.5a2.57,2.57,0,0,1,2.38,2.73c-.14,3.15-.14,4.9-.14,5.32s.35.49,1,.49c1.68,0,4.9-.77,9.73-2.31a33,33,0,0,0-2.17-6.73,9.31,9.31,0,0,1-.56-2.58,2.86,2.86,0,0,1,.84-2.11,2.4,2.4,0,0,1,1.82-1c.63,0,1.4.77,2.24,2.17a39.85,39.85,0,0,1,2.66,8.76A81.55,81.55,0,0,0,979,633.18c1.54.36,2.38,1.12,2.52,2.32a2.67,2.67,0,0,1-1.12,2.1,48.61,48.61,0,0,1-12.25,6.23.54.54,0,0,1-.21.07c.14,2.1.21,4.13.21,6.23q-.1,4.73-.21,8.82a40,40,0,0,0,12.18-6.65,6.57,6.57,0,0,1,1.33-.49,2.47,2.47,0,0,1,1.47,2.52,2.78,2.78,0,0,1-1.4,2.24A29.81,29.81,0,0,1,970.12,663.92Z" transform="translate(-216.43 -538.4)"/><path class="cls-1" d="M1021.57,650.34c-.42,1.33-.84,2.59-1.33,3.85a2.1,2.1,0,0,1,1,.77,2.61,2.61,0,0,1,.14.84,2.81,2.81,0,0,1-.7,1.54,26,26,0,0,1-5.12,4.83,37.29,37.29,0,0,1-7,4.27,4.87,4.87,0,0,1-1,.21,1.76,1.76,0,0,1-1.54-.91,3.78,3.78,0,0,1-.56-2.31,1.82,1.82,0,0,1,.84-1.47q-.21-2.94-.84-6.93c-.91-4.48-1.68-8.19-2.24-11.13a2.93,2.93,0,0,1,.77-1.54,1.74,1.74,0,0,1,1.54-.91,3.53,3.53,0,0,1,1.33.21,2.61,2.61,0,0,1,1.4,1.33,42.54,42.54,0,0,1,5.74-.56,14.9,14.9,0,0,1,5.4,1.26c1.68,1,2.59,2.1,2.59,3.43A15.05,15.05,0,0,1,1021.57,650.34Zm-11,9.59c.91-.56,1.82-1,2.67-1.54a26.1,26.1,0,0,0,2.59-5.25,20.83,20.83,0,0,0,1-4.2,2.74,2.74,0,0,0-2.67-1.61c-1.54,0-3.29.07-5.11.14.14,1.33.28,2.8.49,4.34q.63,5.46.84,8.19Zm22.9-18.48c0,4.76,0,9.17.14,13.16,0,2.1,0,4,.07,5.67,1-.42,1.89-.91,2.87-1.4a5.13,5.13,0,0,1,1.12-.28,1.38,1.38,0,0,1,1,.42,1.54,1.54,0,0,1,.42,1.19,2.17,2.17,0,0,1-.42.91c-.42.7-2,2-4.76,4,.14,3.5.28,6.65.56,9.45s.28,5.46.56,7.7c0,1.82-1,2.8-2.94,2.8-1.33-.14-3.85-2-7.63-5.6-1.68-1.4-3.29-2.66-4.83-3.71s-2.1-2-2.1-2.94c0-.35.49-1,1.54-2.1,1.4-1.68,4.06-3.71,8.12-6.23l1.68-1.26q-.21-4.2-.21-8.61c0-4.06-.07-7.91-.07-11.69a16.28,16.28,0,0,1-2.31.42,11,11,0,0,1-2.59.35h-.77a2.11,2.11,0,0,1-2-2.38v-1.12a3.71,3.71,0,0,1,2.17-2.24,13,13,0,0,0,1.75.07,17.05,17.05,0,0,0,3.71-.35c0-1.89.07-3.71.14-5.46a2.58,2.58,0,0,1,2.73-2.46c1.68,0,2.59.71,2.59,2.1a40,40,0,0,0-.49,4.69c.91-.21,1.82-.48,2.73-.76a3.46,3.46,0,0,1,.84-.28,5.59,5.59,0,0,1,1.75.49c.7.42,1.12.91,1.12,1.33a2.38,2.38,0,0,1-.49,1.26,4.18,4.18,0,0,1-1.75,1.33A30.3,30.3,0,0,1,1033.47,641.45Zm-6,28.35a49.51,49.51,0,0,0-4.27,3.64,21.16,21.16,0,0,0,6.58,5c-.14-2.24-.28-4.62-.42-7.07-.07-.91-.14-1.82-.21-2.8Zm37-29.4c-1.47,1.26-5.11,2.8-10.85,4.62-3.22,1-6.3,1.89-9.1,2.59a11.18,11.18,0,0,1-1.89.35,11.4,11.4,0,0,1-2.45.28c-1.26-.07-2-.91-2.17-2.59,0-.77.63-1.47,1.89-2a24.44,24.44,0,0,1,2.73-.91c3.5-.7,6.86-1.54,10.15-2.45,4.76-1.26,8.47-2.31,11.13-3.29a1.62,1.62,0,0,1,1.4.84,1.32,1.32,0,0,1,.14.56A3.07,3.07,0,0,1,1064.48,640.4Zm1.75,39.83a20.27,20.27,0,0,1-2.87.42l-4.06.42c-2.8.42-5.67.77-8.47,1.19s-5.18.84-7.35,1.4c-1.33.14-2.38.28-3.08.28s-1.12-.49-1.47-1.47a8.06,8.06,0,0,1-.14-2.1c.21-.84,1.61-1.61,4.27-2.17,1.33-.35,3.08-.7,5.32-1.12,1.33-.14,2.73-.42,4.13-.7h.14c.77-2.24,1.54-4.62,2.31-7.28a81,81,0,0,0,1.89-13.79v-1.54a8.7,8.7,0,0,0-.77-3.43l-1-2.52a3.06,3.06,0,0,1,2.94-2,3.11,3.11,0,0,1,2.1,1.47,9.13,9.13,0,0,1,1.54,5.67,57.93,57.93,0,0,1-1.68,13.72,84.79,84.79,0,0,1-2.66,9.24c.21,0,.42-.07.7-.07,1.33-.21,2.66-.35,4-.49,1.12-.07,2.1-.14,3.08-.14,2,.14,3.22.91,3.5,2.31A2.57,2.57,0,0,1,1066.23,680.23Zm-17.57-27.79a31.87,31.87,0,0,1,1.12,6.72c.14,2.24.28,4,.28,5.11,0,2-.07,3.71-.14,5.39-.07,2-.14,3.36-.21,4.27-.35,1.54-1.12,2.24-2.38,2.24s-1.75-.63-1.75-1.89a22.33,22.33,0,0,1,.14-2.8v-5a51.28,51.28,0,0,0-.91-8c-.28-1.26-.49-2.45-.7-3.57a8.87,8.87,0,0,1-.42-2,2.59,2.59,0,0,1,1-2.1,4.68,4.68,0,0,1,1.82-.35C1047.54,650.48,1048.24,651.18,1048.66,652.44Zm-4-21.36a2.44,2.44,0,0,1,2.24-2.45l9.17,2.17c1.19.35,1.82.84,1.82,1.48-.28,1.54-2,2.3-5.32,2.3a31.92,31.92,0,0,1-6.44-.76C1045.16,633.54,1044.67,632.62,1044.67,631.08Z" transform="translate(-216.43 -538.4)"/><path class="cls-1" d="M1106.69,684.78a3.35,3.35,0,0,1-2.59-1.54,3.63,3.63,0,0,1-1.47-3.29,3,3,0,0,1,1.19-2.45,3.44,3.44,0,0,1,2.52-1,3.39,3.39,0,0,1,1.61.63c1.19.7,1.82,2.17,1.82,4.34S1108.72,684.78,1106.69,684.78Zm6.09-46.34q-2.73,11-3.36,28.14c-.14,2.52-1.05,3.71-2.8,3.71a2.44,2.44,0,0,1-2-.84,2.58,2.58,0,0,1-.77-2c0-.42,0-1.47.14-3.15.07-2,.28-5.46.63-10.36a79.8,79.8,0,0,1,2-13.79,3.56,3.56,0,0,1-.21-1.19,11.41,11.41,0,0,1,.56-2.88,4.7,4.7,0,0,1,1.61-2.37,3.74,3.74,0,0,1,2.38-1,2.31,2.31,0,0,1,1.82,1,3.34,3.34,0,0,1,.77,2C1113.34,636.41,1113.06,637.32,1112.78,638.44Z" transform="translate(-216.43 -538.4)"/><path class="cls-2" d="M832.49,724.83a15.4,15.4,0,0,1-4.23,1.56v2.76c0,1.11,0,2.52.12,4.23s.15,2.91.15,4a8.44,8.44,0,0,1-.81,4q4.59-.81,7.47-1.53a.64.64,0,0,1,.57.33.46.46,0,0,1,.06.24,1.42,1.42,0,0,1-.39.84c-1.5.9-5.37,1.92-11.64,3.09-1,.18-1.89.36-2.76.51a9.31,9.31,0,0,1-1.62,3.24,22.25,22.25,0,0,1-3.24,3.65,1.31,1.31,0,0,1-1,.58c-.39,0-.6-.18-.6-.54a.9.9,0,0,1,.18-.46,1.42,1.42,0,0,1,.24-.41,38.57,38.57,0,0,0,2.88-4.23c.21-.45.45-.9.69-1.38-1.56.33-3.09.6-4.53.81-.93.15-1.59.24-2,.27a7.58,7.58,0,0,1-1.14.06c-.57,0-.9-.42-1-1.2,0-.36.27-.69.83-1a10,10,0,0,0,1.29-.36q2.52-.32,5-.72a1.12,1.12,0,0,1,0-.33,47.37,47.37,0,0,0,.42-5.07l.18-8.52v-.48c-.45.09-.87.18-1.26.24-.72.12-1.2.21-1.5.24a9,9,0,0,1-1.17.09c-.57,0-.9-.42-1-1.26,0-.33.27-.66.86-1a9.85,9.85,0,0,1,1.29-.39c1-.15,1.89-.3,2.82-.48,0-.63.06-1.26.12-1.89a1.06,1.06,0,0,1,1.2-1.2c.66,0,1,.48,1,1.32a13.92,13.92,0,0,0-.12,1.44c1.11-.18,2.22-.39,3.36-.6l3-.57c0-.81,0-1.62,0-2.43a1,1,0,0,1,.78-1.11h.57a1.09,1.09,0,0,1,.9,1.11c0,.42,0,1.08-.06,2,1.56-.36,2.88-.66,4-.93a.64.64,0,0,1,.57.33.75.75,0,0,1,.06.3A1.32,1.32,0,0,1,832.49,724.83Zm-9.33,17.34,2.64-.45a1.28,1.28,0,0,1-.18-.72,7.63,7.63,0,0,0,1-3.36c0-1.65-.09-3.36-.21-5.13s-.21-3.75-.21-5.61c-.78.21-1.62.39-2.52.57-1.35.33-2.67.63-3.93.87l-.09,3.81a5.19,5.19,0,0,0,.81-.24,22,22,0,0,0,2.49-.84,4.09,4.09,0,0,1,.72-.3,1.48,1.48,0,0,1,.45-.09.93.93,0,0,1,.63.33,2.35,2.35,0,0,1,.06.42,1.42,1.42,0,0,1-.36.81,8.78,8.78,0,0,1-2,1.11,15.53,15.53,0,0,1-2.64.93c-.12.09-.18.12-.21.12-.06,1-.12,1.77-.12,2.46,0,.18,0,.33,0,.45a34.29,34.29,0,0,0,3.9-1.2,3,3,0,0,1,.81-.24,1.11,1.11,0,0,1,.63.18.83.83,0,0,1,.42.51,1.21,1.21,0,0,1-.45.93,4.78,4.78,0,0,1-1.41.66c-1.14.42-2.31.78-3.54,1.11a1.49,1.49,0,0,1-.48.09,15.77,15.77,0,0,1-.6,3.45.21.21,0,0,0,0,.12C820.22,742.68,821.72,742.44,823.16,742.17Zm4,5a2.14,2.14,0,0,1-.27-.75c0-.72.27-1.11.81-1.2a1,1,0,0,1,.78.35,17.92,17.92,0,0,1,3.33,4.75,2.09,2.09,0,0,1,.45.83,1,1,0,0,1-.93,1.12,1.09,1.09,0,0,1-1-.73A43.75,43.75,0,0,1,827.15,747.12Z" transform="translate(-216.43 -538.4)"/><path class="cls-2" d="M855.38,735.81a20.15,20.15,0,0,1-3.72.33,5.33,5.33,0,0,1-2.73-.63,2.54,2.54,0,0,1-1.5-2.1c-.6.12-1.2.24-1.74.3-.84.12-1.47.18-1.83.21s-.6,0-.84,0-.59-.3-.66-.84c0-.24.18-.48.57-.66s.57-.18.93-.3l3.93-.54a8.47,8.47,0,0,1,.27-.9,2.28,2.28,0,0,0,.09-.63,8.9,8.9,0,0,0-.09-1.26,1.25,1.25,0,0,1,1.17-1,1,1,0,0,1,.45.12,64.57,64.57,0,0,1,7.71-1.14,12.64,12.64,0,0,1,1.38-.09,2.12,2.12,0,0,1,.78.15,2.28,2.28,0,0,1,.36-.3q.72-.81,1.35-1.62c-1.56.15-5.58.72-12,1.68a6,6,0,0,1-1.2.12.66.66,0,0,1-.6-.24,1.13,1.13,0,0,1-.36-.78.62.62,0,0,1,.39-.54,6,6,0,0,1,1.2-.33c2.22-.36,5.55-.81,10-1.35a34.49,34.49,0,0,1,4.41-.45,3.69,3.69,0,0,1,.6.06c.45.18.69.45.69.84,0,.81-.93,1.89-2.73,3.24a6.5,6.5,0,0,1-.66.45,1.23,1.23,0,0,1-.54.3,9.79,9.79,0,0,1-.33,1.56c2-.39,3.63-.75,5-1.11a.49.49,0,0,1,.45.24.72.72,0,0,1-.27.9,23.23,23.23,0,0,1-5.82,1.71c-.3.75-.6,1.47-.93,2.13.24,0,.39-.06.51-.06a.62.62,0,0,1,.45.54.94.94,0,0,1-.48.87A19.58,19.58,0,0,1,855.38,735.81Zm-9.54-6.66a4.82,4.82,0,0,1-.36,1,3.57,3.57,0,0,1-.3.48,1.24,1.24,0,0,1-1,.39c-.45,0-.66-.24-.66-.66a1.57,1.57,0,0,1,.1-.48c.08-.3.14-.6.2-.93a6.32,6.32,0,0,0,.06-.75,11.11,11.11,0,0,0-.21-2.28,2.94,2.94,0,0,1-.12-.69,1.43,1.43,0,0,1,.33-1.05,1.37,1.37,0,0,1,.72-.21,1.28,1.28,0,0,1,.72.21,4.73,4.73,0,0,1,.54.81,22.54,22.54,0,0,1,.15,2.73A6.94,6.94,0,0,1,845.84,729.15Zm2.85,20.31,0,0a1.34,1.34,0,0,1-.78.33.92.92,0,0,1-.63-.24,1.55,1.55,0,0,1-.33-.92c-.06-.84-.06-2-.06-3.45,0-.9,0-1.74.06-2.52s.06-1.59.15-2.49c0-.45,0-.93,0-1.44,0-.18-.06-.39-.12-.63a2.42,2.42,0,0,1,0-.48.77.77,0,0,1,.33-.54,1.42,1.42,0,0,1,.87-.39,1.08,1.08,0,0,1,1,.6,6,6,0,0,1,.21.69,15.75,15.75,0,0,1,2.67-.57,31.22,31.22,0,0,1,5-.48,7.26,7.26,0,0,1,2.25.3,2.94,2.94,0,0,1,1.65,1.77,9.62,9.62,0,0,1,.27,2.46c0,1.11,0,2.19,0,3.27s0,2,.09,3c0,.42-.42.66-1.2.66-.15,0-.33,0-.54,0a26,26,0,0,1,3.75,2.3,2,2,0,0,1,.93,1c0,.63-.3,1-.87,1a1.42,1.42,0,0,1-.84-.47c-.48-.18-1.08-.49-1.83-.84a35.63,35.63,0,0,0-4.05-1.66,1.08,1.08,0,0,1-.18-.54v-.33a.88.88,0,0,1,.06-.26l-1.41.26v0c-.06.17-.27.38-.69.69a34.48,34.48,0,0,1-3.84,2.39,4.65,4.65,0,0,1-1.44.6,1.53,1.53,0,0,1-.57.12.69.69,0,0,1-.72-.75,1.53,1.53,0,0,1,.18-.63,26.8,26.8,0,0,1,2.4-1.41,9.7,9.7,0,0,1,.87-.53Q849.86,749.42,848.69,749.46Zm10.47-5.25c-1,.24-2.22.45-3.48.63a62.77,62.77,0,0,1-6.84.93h0c0,.57,0,1.11,0,1.65,1-.07,2-.12,3.15-.24,2.76-.24,5.19-.58,7.29-1C859.22,745.59,859.16,744.93,859.16,744.21Zm-.06-2.88-.54.09c-2.31.42-4.44.78-6.36,1.08-1.47.18-2.58.3-3.33.35v.07c0,.18,0,.63,0,1.41,1.14-.12,2-.21,2.61-.31,1.74-.17,3.84-.44,6.36-.86l1.35-.18C859.16,742.38,859.13,741.81,859.1,741.33Zm-.18-1.77a2.07,2.07,0,0,0-1.86-.9,20.87,20.87,0,0,0-3.6.33,36.92,36.92,0,0,0-4.2.9,6.5,6.5,0,0,0-.12.75c-.06.3-.09.57-.12.81a9.32,9.32,0,0,0,1-.12c4.5-.66,7.5-1.05,9-1.2C859,740,859,739.74,858.92,739.56Zm-7-5.16a8.89,8.89,0,0,1,.36-.93c.12-.3.24-.6.36-.93-1.14.24-2.19.42-3.21.54.06.9.84,1.38,2.37,1.5A.63.63,0,0,1,852,734.4Zm1.23-4.53c0-.3,0-.6.06-.9l-2.94.45a3.66,3.66,0,0,1-.09.78c-.06.3-.12.66-.24,1.08,1-.18,2.07-.33,3.09-.51A7.29,7.29,0,0,0,853.19,729.87ZM850.13,722a1,1,0,0,1,.27-.51,1.94,1.94,0,0,1,1.2-.54c0,.21.21.33.66.33.69.18,2,.39,3.87.69a.39.39,0,0,1,.3.39.87.87,0,0,1-.45.78,1.38,1.38,0,0,1-.78.24,29,29,0,0,1-4.44-.33C850.34,723,850.13,722.61,850.13,722Zm6.27,11.67c.27-.69.54-1.35.78-2-.84.18-1.65.33-2.49.45a10.65,10.65,0,0,1-1,2.28,15.58,15.58,0,0,0,1.95-.33,4.66,4.66,0,0,0,.63-.12A.9.9,0,0,1,856.4,733.71Zm1.92-5.46c-1.2.18-2.25.36-3.15.48v.09c0,.6-.06,1.14-.12,1.62,1-.18,1.89-.33,2.76-.48C858,729.36,858.17,728.79,858.32,728.25Z" transform="translate(-216.43 -538.4)"/><path class="cls-2" d="M878.3,744.48l1.65,1c1,.5,1.89,1,2.82,1.37.12.07.27.13.45.21a24.31,24.31,0,0,0,.48-4c0-.84,0-1.74,0-2.7q0-1.12-.09-2.25c-2.7.57-5.22,1.11-7.56,1.59-.84.15-1.44.24-1.77.27a8.27,8.27,0,0,1-1.14.06c-.6,0-.93-.42-1-1.2q0-.54.81-1l1.32-.36c3.39-.57,6.66-1.23,9.84-2,4.62-1,8.22-1.89,10.77-2.67a.71.71,0,0,1,.66.39.51.51,0,0,1,.09.3,1.62,1.62,0,0,1-.45,1c-1.26.87-4.38,1.86-9.33,3,.06.84.12,1.8.12,2.85,0,.39,0,.75-.06,1.08a7.39,7.39,0,0,0,.93-.27c.84-.27,1.92-.63,3.21-1.11.48-.18.87-.33,1.11-.39a1.66,1.66,0,0,1,.51-.09.63.63,0,0,1,.6.33,1.18,1.18,0,0,1,.09.42,2,2,0,0,1-.51,1,11.58,11.58,0,0,1-2.37,1.2,15.11,15.11,0,0,1-3.36,1.11,1,1,0,0,1-.42.15c0,.3-.06.56-.09.81-.24,1.25-.45,2.28-.66,3.09a38.8,38.8,0,0,0,4.86,1.37c1,.19,2,.34,3.15.49.93.05,1.77.09,2.52.09a8.94,8.94,0,0,1,1.11.05,3.09,3.09,0,0,1,1,.16c.27,0,.45,0,.57,0,.54,0,.84.16.9.49a1.1,1.1,0,0,1-.24.63,2.42,2.42,0,0,1-.63.47c-1.2.1-2.7.16-4.44.16-4,0-8.55-1.14-13.71-3.36-.78-.39-1.5-.78-2.13-1.17a12,12,0,0,1-.54,1.53,10.94,10.94,0,0,1-1.77,3.12,1.39,1.39,0,0,1-1.26.75.78.78,0,0,1-.78-.79,1.45,1.45,0,0,1,.15-.68A9.1,9.1,0,0,0,876,745c0-.43,0-.81,0-1.2s-.06-.78-.06-1a2.23,2.23,0,0,1-.15-.75,1.32,1.32,0,0,1,.39-.84,1.41,1.41,0,0,1,.78-.24,2.53,2.53,0,0,1,.57.06,1.13,1.13,0,0,1,.6.63,9.37,9.37,0,0,1,.27,2.43C878.33,744.21,878.3,744.35,878.3,744.48Zm11.55-14.79a1.51,1.51,0,0,1,.06.36,1.16,1.16,0,0,1-.33.66,19.17,19.17,0,0,1-3.84,1.83,29.66,29.66,0,0,1-5.19,1.56,1,1,0,0,1-.42.12.64.64,0,0,1-.54-.36,1.67,1.67,0,0,1-.21-.9.74.74,0,0,1,.12-.33c-.06-1-.21-2.19-.39-3.54q-.45-3.15-.81-5.22a1.26,1.26,0,0,1,.33-.66.73.73,0,0,1,.63-.39,3.09,3.09,0,0,1,.6.06,1.47,1.47,0,0,1,.66.69,18.7,18.7,0,0,1,2.31-.84,16.38,16.38,0,0,1,3.6-.42,6.58,6.58,0,0,1,2.88.6,3,3,0,0,1,1.5,1.5,4.41,4.41,0,0,1,.33,1.68,5.55,5.55,0,0,1-.6,2.19,9.63,9.63,0,0,1-.72,1.35Zm-7.23,1.95c1.68-.48,3.18-1,4.56-1.47.06-.09.18-.21.33-.39a10,10,0,0,0,1.35-2.64,6.48,6.48,0,0,0,.18-1.29c0-1.14-.78-1.71-2.31-1.71a15.14,15.14,0,0,0-6,1.44c0,.6.09,1.29.15,2a1.46,1.46,0,0,0,0,.36,45.67,45.67,0,0,1,4.56-1.35,5.73,5.73,0,0,1,1.26-.18,1.06,1.06,0,0,1,.51.27,1,1,0,0,1,.18.48c0,.24-.18.42-.48.6-1,.33-2.49.81-4.38,1.47-.84.24-1.35.39-1.53.42.06,1,.09,1.77.12,2.31C881.69,731.88,882.2,731.76,882.62,731.64Z" transform="translate(-216.43 -538.4)"/><path class="cls-2" d="M907.07,735c-.06,1.86-.21,3.54-.39,5.1a27.9,27.9,0,0,0,2.61-1.86.59.59,0,0,1,.6.6,1.23,1.23,0,0,1-.36.81,9.47,9.47,0,0,1-3.21,3,.09.09,0,0,1-.06,0c-.42,1.92-.84,3.63-1.29,5.13A26.1,26.1,0,0,1,903.8,751a1.17,1.17,0,0,1-1,.66.64.64,0,0,1-.6-.72,2.32,2.32,0,0,1,.24-.87c.36-1,.66-2,1-3.09.24-.84.48-1.83.72-3a3.19,3.19,0,0,1-.51.3l-.51.26a6.74,6.74,0,0,1-1.14.07c-.54,0-.84-.39-.9-1.14,0-.33.24-.64.78-.9.33-.12.75-.24,1.26-.39s1-.48,1.44-.75c.21-1.74.36-3.6.42-5.55a6.86,6.86,0,0,1-.69.3,11.53,11.53,0,0,1-1.68.63h-.27a1.12,1.12,0,0,1-.57-.45,1.11,1.11,0,0,1-.18-.63,1.2,1.2,0,0,1,.54-1,17.09,17.09,0,0,1,2.88-1.17v-.33a31.94,31.94,0,0,0-.45-5,1.21,1.21,0,0,1,1-1.29,1.29,1.29,0,0,1,1.32,1.14,42,42,0,0,1,.3,4.56v.24h0a4.38,4.38,0,0,1,1.26-.24,1,1,0,0,1,.63.36,1.3,1.3,0,0,1,.27.63c0,.27-.24.51-.66.72S907.67,734.79,907.07,735Zm-1.65-8.25c-.51,0-1.14.09-1.86.15a5.66,5.66,0,0,1-1,.06.72.72,0,0,1-.42-.18c-.24-.18-.33-.51-.33-1a.84.84,0,0,1,.57-.75l1.32-.18a25.73,25.73,0,0,1,2.73-.18c.81,0,1.47,0,2,0a1,1,0,0,1,.81,1.08.63.63,0,0,1-.48.66,10.7,10.7,0,0,1-2.19.27C906.11,726.75,905.72,726.78,905.42,726.78Zm8.4,2.88a28.63,28.63,0,0,1-1.26,3.36c-.36.81-.69,1.56-1,2.22a10.84,10.84,0,0,1-.66,1.32,4.46,4.46,0,0,1-.51.93,1.58,1.58,0,0,1-.9.36.56.56,0,0,1-.42-.54,2,2,0,0,1,.21-.78,2.71,2.71,0,0,1,.24-.75,11,11,0,0,1,.63-1.65c.39-.93.78-1.92,1.2-3q.36-1,.63-2c.12-.66.27-1.23.39-1.74a.91.91,0,0,1,.81-.6h.3c.45.12.69.51.69,1.11A7.75,7.75,0,0,1,913.82,729.66Zm-2.37,8.07a1.46,1.46,0,0,1-.27-.9c0-.36.27-.66.84-.9.21-.12.51-.27.87-.45s.93-.36,1.41-.6c.75-.36,1.32-.6,1.74-.78a4.2,4.2,0,0,1,1.23-.24,2.34,2.34,0,0,1,1.62.66,2.8,2.8,0,0,1,.72,2,39.8,39.8,0,0,1-.66,6.27,46.19,46.19,0,0,1-1.62,6.66c-.54,1.5-1.11,2.27-1.71,2.27-.78-.05-1.35-.77-1.65-2.16a2.69,2.69,0,0,1-.06-.68,1.13,1.13,0,0,1,.45-1,1.65,1.65,0,0,1,.51-.09.5.5,0,0,1,.45.31c.09.48.18.84.24,1.14s.09.26.15.26.39-.75.63-2.18c.3-1.68.6-3.7.87-6.09.18-2.16.3-3.81.3-5,0-.21-.24-.33-.66-.33a3.66,3.66,0,0,0-1.17.39,1.12,1.12,0,0,1-.3.18,2.55,2.55,0,0,1-.27.66c-.24,1.08-.54,2.22-.9,3.45a78.87,78.87,0,0,1-3.09,8.91c-.3.75-.6,1.41-.84,2a1,1,0,0,1-.6.26.5.5,0,0,1-.48-.5.77.77,0,0,1,.3-.63,115.57,115.57,0,0,0,3.57-12.3c.06-.21.09-.42.15-.6-.24.12-.48.27-.69.39a.92.92,0,0,1-.39.09A.81.81,0,0,1,911.45,737.73Zm11.64-3.93a.68.68,0,0,1-.66.54,3.57,3.57,0,0,1-.87.06,2.33,2.33,0,0,1-.84-.39,6.9,6.9,0,0,1-1.77-1.83,20,20,0,0,1-2.1-3.27c-.57-1-1.17-2.22-1.83-3.6a1,1,0,0,1-.33-.57,1.39,1.39,0,0,1,.3-.93,1,1,0,0,1,.72-.3,1.18,1.18,0,0,1,.6.15q.13.18.36.54c.3.66.66,1.35,1,2.1s.72,1.53,1.14,2.25a14.66,14.66,0,0,0,3,4c.18.18.36.36.54.51Q923.09,733.44,923.09,733.8Zm3.75-2.19v6.48c.9-.24,1.62-.45,2.19-.63a.68.68,0,0,1,.57.3.75.75,0,0,1,.06.3,1.09,1.09,0,0,1-.39.75,6.64,6.64,0,0,1-2.43,1.26c0,1,0,2,0,3v6.6a2.67,2.67,0,0,1-.51,1.85,1.5,1.5,0,0,1-1.17.46,3.82,3.82,0,0,1-2.91-1.45,2.54,2.54,0,0,1-.36-1.28.7.7,0,0,1,.78-.75,1.32,1.32,0,0,1,.75.54,2.46,2.46,0,0,0,1.53.9c-.06-2.08-.09-4.5-.12-7.32v-1.89c-.66.24-1.29.42-1.83.57-.3.06-.51.12-.6.12a7.46,7.46,0,0,1-1.11.06c-.54,0-.87-.39-.93-1.17,0-.3.27-.6.84-.9.3-.09.72-.21,1.2-.39.84-.12,1.62-.27,2.4-.45,0-1,0-2.07,0-3.15v-3.18a3.92,3.92,0,0,0-.45.15,8.75,8.75,0,0,1-1.44.39h-.3a1.2,1.2,0,0,1-.54-.45,1.11,1.11,0,0,1-.18-.63,1.2,1.2,0,0,1,.54-1c.48-.18,1.26-.39,2.34-.66,0-1.11,0-2.22,0-3.3q0-.94,1.08-1t1.08,1v2.82h0a6.27,6.27,0,0,1,1.14-.15,1,1,0,0,1,.63.36,1.27,1.27,0,0,1,.27.66c0,.24-.24.48-.66.72S927.38,731.43,926.84,731.61ZM925,725.16c-.42,0-.9.09-1.5.15a7.61,7.61,0,0,1-.78,0,.56.56,0,0,1-.42-.15,1.37,1.37,0,0,1-.3-1.05.81.81,0,0,1,.51-.75l1.14-.18a18,18,0,0,1,2.22-.21c.9,0,1.62,0,2.19.06a1,1,0,0,1,.81,1.08.67.67,0,0,1-.48.66,12.87,12.87,0,0,1-2.4.3C925.61,725.13,925.28,725.16,925,725.16Z" transform="translate(-216.43 -538.4)"/><path class="cls-2" d="M945.62,729.57c-.33.42-.63.84-.93,1.26a2.19,2.19,0,0,1,.69-.12c.36,0,.63.48.78,1.38.12.54.24,1.14.42,1.8.24,1.68.54,3.54.87,5.58a24.79,24.79,0,0,1,.27,3.45,34.25,34.25,0,0,1-.36,4.92c-.24,1.2-.45,2.18-.66,3s-.54,1.14-1,1.14a.72.72,0,0,1-.81-.81c.09-.54.24-1.39.48-2.46a34.85,34.85,0,0,0,.42-4.56,38.57,38.57,0,0,0-1.17-8c-.21-1-.48-2-.78-3a3.33,3.33,0,0,1-.18-.9,21.5,21.5,0,0,0-1.35,1.89c-2.1,2.94-4.29,6.15-6.63,9.69a1.13,1.13,0,0,1-1.05.6.77.77,0,0,1-.69-.66,3.07,3.07,0,0,1,.36-1.17l1.35-2.22q1-1.62,2.25-3.42c2.16-3.18,4.71-6.69,7.62-10.47a32.33,32.33,0,0,1-5.76.6,11.77,11.77,0,0,1-1.89-.12c-.78-.18-1.14-.48-1.14-1v-.63a.66.66,0,0,1,.75-.66,15.53,15.53,0,0,0,2.1.12,16.06,16.06,0,0,0,3.09-.3,28,28,0,0,0,3.39-.87c.87-.3,1.71-.63,2.49-1a1.83,1.83,0,0,1,1-.36c.57.06.87.39.93,1.05a1.63,1.63,0,0,1-.87,1.23C948.86,725.4,947.54,727.05,945.62,729.57Zm4.2,3.87A.71.71,0,0,1,950,733a1.72,1.72,0,0,1,.48-.45.65.65,0,0,1,.39-.18,2.64,2.64,0,0,1,.63.09c1,.54,3.18,2.64,6.66,6.27a2.25,2.25,0,0,1,.45.6,1.48,1.48,0,0,1,.24.66.63.63,0,0,1-.15.39l-.18.18a.52.52,0,0,1-.36.18,2,2,0,0,1-.9-.24c-1.5-.9-3.87-3.09-7.08-6.57C949.91,733.77,949.82,733.62,949.82,733.44Z" transform="translate(-216.43 -538.4)"/><path class="cls-2" d="M977.3,749.94a29.73,29.73,0,0,1-8.07,1.2,3.39,3.39,0,0,1-3.47-3.7,4.58,4.58,0,0,1,.63-1.76l.75-1.56a3.23,3.23,0,0,0,.17-.93,11.82,11.82,0,0,0-.11-1.29,1.24,1.24,0,0,1,1.23-1,1,1,0,0,1,1,.57,2.31,2.31,0,0,1,.17.93,4.74,4.74,0,0,1-.17,1.19,15.56,15.56,0,0,1-.69,2,6.7,6.7,0,0,0-.75,1.83,1.58,1.58,0,0,0,1.64,1.73,27.63,27.63,0,0,0,8.19-1.55,43.47,43.47,0,0,0,5.34-2.16,4.8,4.8,0,0,1,1.86-.75c-.06-.36-.09-.75-.12-1.11-.06-.81-.06-1.71-.06-2.67a1,1,0,0,1,1.14-.78.94.94,0,0,1,.9.84,14.18,14.18,0,0,0-.12,1.95,16.44,16.44,0,0,0,1.29,5.25,22.05,22.05,0,0,0,1.17,2.88,1,1,0,0,1-.78.87,1,1,0,0,1-1-.73,12.68,12.68,0,0,1-2.16-4.92.85.85,0,0,1-.24.19A32.41,32.41,0,0,1,977.3,749.94Zm.27-12.54v.93a57.17,57.17,0,0,1-.45,7.14,16.47,16.47,0,0,1-.39,1.92.89.89,0,0,1-.69.63c-.84,0-1.23-.21-1.23-.63.36-1.29.6-4.38.66-9.24a15.41,15.41,0,0,1-4.11.57,4.73,4.73,0,0,1-2.55-.66,2.85,2.85,0,0,1-1.38-2.52,5.83,5.83,0,0,1,.6-2c.27-.69.51-1.32.69-1.86a7.14,7.14,0,0,0,.12-1,9.32,9.32,0,0,0-.09-1.29,1.32,1.32,0,0,1,1.26-1,1,1,0,0,1,.93.57,2.23,2.23,0,0,1,.21.93,7.46,7.46,0,0,1-.15,1.38q-.22.81-.72,2.25a10.28,10.28,0,0,0-.69,2c0,.72.69,1.14,2.13,1.2a12.21,12.21,0,0,0,3.75-.66V729c0-1.71,0-3.51.09-5.43a1,1,0,0,1,.78-1h.57c.6.15.9.48.9,1,0,.81,0,2.19-.09,4.11-.12,1.59-.15,3.33-.15,5.25v2.4a.26.26,0,0,0,.18-.09,20.9,20.9,0,0,0,4-2.16,3.17,3.17,0,0,1,1.41-.75.43.43,0,0,1,.18.06,26.56,26.56,0,0,1-.84-3.15,8.9,8.9,0,0,1-.3-1.89,1.19,1.19,0,0,1,1.11-1.29.9.9,0,0,1,.9.57c.75,4.74,2,7.89,3.66,9.42a.79.79,0,0,1,.6.75.86.86,0,0,1-.24.63,1,1,0,0,1-.69.24,2.68,2.68,0,0,1-1.77-1,9.08,9.08,0,0,1-1.92-3,.69.69,0,0,1-.09-.27,1.4,1.4,0,0,1-.63.69A19,19,0,0,1,977.57,737.4Z" transform="translate(-216.43 -538.4)"/><path class="cls-2" d="M1014,723.54a16.56,16.56,0,0,1-4.86,2V726c0,2.07,0,4,0,5.85q0,2.43.09,4.41a10.73,10.73,0,0,1,1.32,1.44,23.31,23.31,0,0,0,3.09,3.42,36,36,0,0,0,3.57,3c.36.3,1.14.9,2.34,1.77a14.82,14.82,0,0,1,2.07,2,3.09,3.09,0,0,1,.21,1,.7.7,0,0,1-.57.71,1.07,1.07,0,0,1-.75-.38c-1-.75-2-1.5-2.94-2.25-1.32-.93-2.58-1.89-3.78-2.91a26.52,26.52,0,0,1-4.5-4.5c0,.75.06,1.53.12,2.34.18,4,.3,7,.3,9.12-.06.83-.42,1.25-1,1.29a2.5,2.5,0,0,1-1.11-.28,9.23,9.23,0,0,1-2.73-1.71,7.5,7.5,0,0,0-.57-.68c0-.24.33-.33,1.05-.33a8.9,8.9,0,0,1,1.86.29,4.42,4.42,0,0,0,.09-1.1c0-1.77-.09-4-.21-6.9-.06-.63-.12-1.26-.12-1.86a44.3,44.3,0,0,1-6.63,7.82,14.36,14.36,0,0,1-2.19,1.54,3.44,3.44,0,0,1-.63.12c-.35,0-.56-.21-.63-.61a.87.87,0,0,1,.28-.63,44.6,44.6,0,0,0,9.68-11.93c-.06-1.26-.06-2.52-.06-3.84,0-1.74,0-3.69.15-5.82v-.21c-1.41.42-2.73.75-3.93,1.05l-1,.18a6.45,6.45,0,0,1-1.2.12c-.57,0-.9-.45-1-1.23q0-.54.9-1c.33-.12.78-.24,1.32-.42,1.71-.3,3.36-.66,4.95-1a9.67,9.67,0,0,0-.21-1.59,1.51,1.51,0,0,1,.93-1h.54q1,.27,1,1.8v.27c1.92-.48,3.45-.9,4.65-1.26a.73.73,0,0,1,.6.33.6.6,0,0,1,.06.27A1.24,1.24,0,0,1,1014,723.54Zm-14.94,14.25c-.42,0-.63-.15-.63-.48a.87.87,0,0,1,.18-.45,2.68,2.68,0,0,1,.27-.48,51.37,51.37,0,0,0,1.8-5c.24-.87.51-1.74.75-2.64a1,1,0,0,1,1-.66q1.08,0,1.08,1a9.79,9.79,0,0,1-.69,2.73c.06.06.09.09.15.09.36.24.93.63,1.77,1.17l1,.66a1.67,1.67,0,0,0,.24.15,1.51,1.51,0,0,1,.3.69.71.71,0,0,1-.78.81.51.51,0,0,1-.3-.09,3.39,3.39,0,0,1-.78-.33l-1.35-.54c-.39-.18-.78-.39-1.14-.57a22.93,22.93,0,0,1-1.92,3.45A1.25,1.25,0,0,1,999.08,737.79Zm11.25-2.64c-.39,0-.6-.15-.6-.48a.87.87,0,0,1,.18-.45,1.67,1.67,0,0,1,.24-.45,45.42,45.42,0,0,0,1.65-4.44c.24-.81.48-1.62.72-2.4a.93.93,0,0,1,1-.6c.66,0,1,.33,1,.93a9.6,9.6,0,0,1-.51,2,.8.8,0,0,0,.18.15c.45.45,1.17,1.11,2.13,1.95.48.48.87.84,1.2,1.11l.21.3a1.58,1.58,0,0,1,.39.78c0,.66-.33,1-.93,1a.8.8,0,0,1-.36-.09,6.83,6.83,0,0,1-.87-.69l-1.5-1.2c-.42-.36-.87-.75-1.32-1.2a17,17,0,0,1-1.83,3.24A1.25,1.25,0,0,1,1010.33,735.15Z" transform="translate(-216.43 -538.4)"/><path class="cls-2" d="M1030.4,738.27l.09,0a.41.41,0,0,0,.09-.12q.23-1.08.45-2.7c.12-.87.24-1.86.36-3a.83.83,0,0,1,0-.27c-.87.27-1.74.48-2.61.66a10.77,10.77,0,0,1-2,.21h-.57a.87.87,0,0,1-.86-1v-.54a1.64,1.64,0,0,1,1-1,5.78,5.78,0,0,0,.74,0,17.4,17.4,0,0,0,4.11-.54.48.48,0,0,0,.27-.09v-.24a22.56,22.56,0,0,0-.33-4,4.59,4.59,0,0,1-.12-.9,1.11,1.11,0,0,1,.84-1.17h.33a3.2,3.2,0,0,1,.57.21,1.65,1.65,0,0,1,.57.69c.09.57.15,1.26.21,2.07s.09,1.89.09,2.73c.87-.27,1.77-.57,2.67-.93a6.25,6.25,0,0,1,.72-.3,2.06,2.06,0,0,1,.75.18c.33.21.51.42.51.6a1.21,1.21,0,0,1-.21.57,2,2,0,0,1-.75.57,22.61,22.61,0,0,1-3.78,1.47c-.09,1-.24,2-.42,3.12a24.24,24.24,0,0,1-.72,2.91,1.09,1.09,0,0,0-.09.33,18.14,18.14,0,0,1,1.83-.12,3.3,3.3,0,0,1,2,.51,3,3,0,0,1,1,2.55,12.4,12.4,0,0,1-.57,3.21,3.92,3.92,0,0,1-.21.57,1.88,1.88,0,0,0,0,.23,1.48,1.48,0,0,1-.3.73,11.31,11.31,0,0,1-2.43,1.35,21,21,0,0,1-3.21,1.17,1.67,1.67,0,0,1-.48.15H1030a1,1,0,0,1-.84.51.79.79,0,0,1-.9-.82c-.06-1-.15-2.21-.33-3.68-.39-2.13-.69-3.9-.93-5.31a1.6,1.6,0,0,1,.33-.69.88.88,0,0,1,.72-.39,4.14,4.14,0,0,1,.66.06,1.3,1.3,0,0,1,.66.72c0,.06,0,.09,0,.09Zm1.08,7.17a27.72,27.72,0,0,0,3-.9,3.36,3.36,0,0,1,.39-.15.28.28,0,0,0,.12-.12c.09-1.5.15-2.61.15-3.33s-.33-1.2-.81-1.2a7.74,7.74,0,0,0-1.53.21,7.5,7.5,0,0,0-1.77.39c-.72.24-1.17.36-1.41.42q.09.86.18,1.89c.09,1.29.18,2.34.24,3.12C1030.61,745.65,1031.09,745.52,1031.48,745.44Zm17.7-18a14.76,14.76,0,0,1-2.49,1.74l0,.06a16.5,16.5,0,0,1,.33,3.75,19,19,0,0,1-2,8.22,36.26,36.26,0,0,0,3.06,3c.36.35,1.14,1.08,2.31,2.1a21,21,0,0,1,2,2.34,3.83,3.83,0,0,1,.21,1,.83.83,0,0,1-.6.79,1.25,1.25,0,0,1-.87-.46c-1-.87-1.92-1.71-2.88-2.54-1.32-1.11-2.55-2.22-3.75-3.36a6.85,6.85,0,0,1-.66-.66,30.53,30.53,0,0,1-4.41,6.09,1.18,1.18,0,0,1-.93.68h-.39a.69.69,0,0,1-.6-.71,1.24,1.24,0,0,1,.18-.6c1.26-1.57,2.52-3.27,3.84-5.16.36-.6.66-1.17,1-1.77a23.62,23.62,0,0,1-3.21-4.32,5.73,5.73,0,0,1-1-2.37.81.81,0,0,1,.72-.84,1.11,1.11,0,0,1,.81.3,7.13,7.13,0,0,1,1.74,2,24,24,0,0,0,2,2.79,22,22,0,0,0,1.23-5.43v-1a17.35,17.35,0,0,0-.15-2.13l-.12-.78a3.28,3.28,0,0,1-.69.27,9.94,9.94,0,0,1-2.73.51,3.26,3.26,0,0,1-.54,0,1.53,1.53,0,0,1-1.32-1.71,2.8,2.8,0,0,1,.18-.87c.15-.48.33-1,.57-1.65s.3-1.17.42-1.71.24-.93.33-1.29a.89.89,0,0,1,.93-.63c.72.06,1.08.33,1.14.87v.33a9.65,9.65,0,0,1-.36,1.47q-.27,1.13-.63,2.16c-.12.36-.24.66-.3.93a13.6,13.6,0,0,0,6.93-3.48,1.42,1.42,0,0,1,.57-.42c.06,0,.15,0,.3,0a1.09,1.09,0,0,1,.81,1,1.11,1.11,0,0,1-.18.63A4.45,4.45,0,0,1,1049.18,727.47Z" transform="translate(-216.43 -538.4)"/><path class="cls-2" d="M1077.14,741.84a37.28,37.28,0,0,1-6.15,2.64,1,1,0,0,1-.3.12c.06,1.88.15,3.66.27,5.28a3,3,0,0,1-.51,1.94,1.66,1.66,0,0,1-1.23.49,5.42,5.42,0,0,1-4-1.87,2.36,2.36,0,0,1-.42-1.38c0-.54.3-.77.84-.77a1,1,0,0,1,.81.51,4.55,4.55,0,0,0,2.55,1.31c-.12-1.46-.24-3.09-.36-4.85a52.23,52.23,0,0,1-5.91,1.53,1.51,1.51,0,0,1-.42.09.77.77,0,0,1-.57-.33,1.54,1.54,0,0,1-.21-.9c0-.24.18-.45.51-.6,1.71-.49,3.18-.87,4.41-1.17.72-.21,1.41-.42,2.07-.66l-.09-1.89c0-.21,0-.42,0-.66-2.1.6-4.2,1.2-6.36,1.86a18.36,18.36,0,0,1-3.87.93c-.39,0-.57-.27-.57-.84a1.19,1.19,0,0,1,.51-1.08c2.16-.66,5.55-1.56,10.2-2.76,0-.81-.06-1.65-.09-2.49a48.18,48.18,0,0,0-6.33,1.89c-.57,0-.84-.27-.84-.87a1,1,0,0,1,.45-.84,25.83,25.83,0,0,1,5.19-1.65c.48-.12,1-.21,1.47-.3,0-.6-.06-1.23-.06-1.86v-.06q-1.89.4-3.6.63a.9.9,0,0,1-.9.66.75.75,0,0,1-.84-.81,9.34,9.34,0,0,0-.42-1.8c-.36-1.08-.66-1.95-.9-2.64a1,1,0,0,1,.33-.6.82.82,0,0,1,.66-.39,2.53,2.53,0,0,1,.57.06,1.08,1.08,0,0,1,.27.15c1.5-.42,3-.78,4.62-1.14,0-.6-.06-1.14-.09-1.68-2.37.39-4.89.78-7.59,1.17a1,1,0,0,1-1-.87V725a.78.78,0,0,1,.42-.63c1.68-.42,4.38-.93,8.13-1.53v-.6c0-.66.39-1,1.2-1s1.14.36,1.14,1v.24c3.81-.48,6.12-.75,6.93-.75a.8.8,0,0,1,.75.36,1.37,1.37,0,0,1,.24.69.77.77,0,0,1-.45.69c-2.13.36-4.59.78-7.38,1.2,0,.54,0,1,0,1.53a35.27,35.27,0,0,1,5.34-.42,2,2,0,0,1,1,.24.92.92,0,0,1,.42.72,3.85,3.85,0,0,1-.81,2.28.94.94,0,0,1,.33.27.75.75,0,0,1,.06.3,1.29,1.29,0,0,1-.27.66,41.55,41.55,0,0,1-5.07,1.59,3.33,3.33,0,0,1-.87.21c0,.66,0,1.29,0,1.92v.21a31.94,31.94,0,0,1,3.36-.18,7.31,7.31,0,0,1,2.67.48,2.53,2.53,0,0,1,1.35,1.05,2.26,2.26,0,0,1,.27.87,27.83,27.83,0,0,1,3.78-.72,1.17,1.17,0,0,1,.69.36c.27.27.42.45.42.57s-.18.42-.51.54l-4.59,1.08a7.83,7.83,0,0,1-.42,1.11,8.08,8.08,0,0,1-.48.87.94.94,0,0,1,.57.36,1.56,1.56,0,0,1,.06.42A1.42,1.42,0,0,1,1077.14,741.84Zm-9.75-10.74a4.66,4.66,0,0,0,.63-.12q-.09-1.44-.09-2.7c-1.32.27-2.64.57-4,.9q.13.54.27,1.17c.12.54.18,1,.24,1.32C1065.56,731.46,1066.55,731.28,1067.39,731.1Zm6.24-1.44.09,0a15.45,15.45,0,0,0,.69-2.22c-1.32.12-2.73.27-4.2.51V728c0,.84,0,1.65.06,2.46C1071.47,730.26,1072.58,730,1073.63,729.66Zm-3.18,8.58c1.68-.42,3.36-.84,5-1.2,0-.21,0-.39,0-.51,0-.57-.54-.87-1.56-.87a28.84,28.84,0,0,0-3.54.24C1070.39,736.71,1070.42,737.49,1070.45,738.24Zm.06,1.86c0,.63,0,1.23.06,1.83a4,4,0,0,0,0,.63c1.17-.39,2.28-.78,3.36-1.2a.6.6,0,0,0,.24-.12,18.34,18.34,0,0,0,.9-2.31Q1072.8,739.47,1070.51,740.1Z" transform="translate(-216.43 -538.4)"/><path class="cls-2" d="M1102.1,749.34a4.48,4.48,0,0,0,1.59-3q.27-2.61.27-4a31.37,31.37,0,0,0-.21-3.24,6.84,6.84,0,0,0-4.83-6.66c-.39-.18-.63-.39-.69-.66a1,1,0,0,1,.18-.6c.18-.45,1.77-1.89,4.83-4.35a3.83,3.83,0,0,0,.69-.75c0-.12-.18-.27-.51-.45a31.32,31.32,0,0,0-6.06-1.23,1.13,1.13,0,0,1-.78-1c0-.72.39-1.17,1.23-1.35h.48a22.61,22.61,0,0,1,5.64,1.17c1.56.63,2.37,1.41,2.37,2.31q0,1.85-5.49,5.85a13.24,13.24,0,0,1,2.1,1.14,6,6,0,0,1,1.92,2.19,19.49,19.49,0,0,1,.93,4.77c.06,2,.12,3.54.12,4.74,0,3-.36,5.16-1.05,6.39a2.61,2.61,0,0,1-2.1,1.19h-.66a16.09,16.09,0,0,1-5.34-2.09,15.09,15.09,0,0,1-1.44-.9,1.11,1.11,0,0,1-.21-.73.75.75,0,0,1,.81-.59c.18,0,.39.14.63.45A47,47,0,0,0,1102.1,749.34Z" transform="translate(-216.43 -538.4)"/></svg>